<svg
 viewBox="0 0 20 20"
 fill="currentColor"
 xmlns="http://www.w3.org/2000/svg"
 >
 <g clip-path="url(#pyujv507ca)" fill="currentColor">
 <path d="M11.463 14.907c-.968-.967-1.44-2.105-1.44-3.474V4.33c0-.379.14-.688.418-.959a1.36 1.36 0 01.99-.41c.38 0 .697.131.968.402.27.271.402.588.402.967v2.213h2.15c1.37 0 2.5.464 3.475 1.431.967.96 1.439 2.097 1.439 3.459s-.472 2.499-1.455 3.466c-.975.967-2.112 1.44-3.481 1.44-1.37 0-2.5-.473-3.474-1.44l.008.008zm1.315-5.617l.023 2.15c0 .596.217 1.115.634 1.54.418.418.929.635 1.517.635.588 0 1.098-.217 1.524-.643a2.1 2.1 0 00.642-1.524c0-.588-.216-1.098-.65-1.516a2.133 2.133 0 00-1.54-.635h-2.15V9.29zM7.32 16.299c-1.37 0-2.508-.472-3.482-1.44a5.285 5.285 0 01-.658-.796c-.55-.797-.82-1.71-.82-2.724V9.065h-.99a1.31 1.31 0 01-.968-.403A1.309 1.309 0 010 7.695c0-.379.132-.696.402-.967.271-.27.588-.402.967-.402h.99V4.244c0-.379.132-.688.41-.959.28-.27.597-.41.983-.41.387 0 .681.132.952.387.008.015.023.023.031.039h.008s.015.023.023.03c.263.271.387.58.387.952v2.143H7.72c.372 0 .681.132.952.395.008.015.023.023.031.039h.008s.015.023.023.03c.263.271.395.58.395.952 0 .371-.132.696-.403.967-.27.271-.588.403-.967.403H5.13v2.166c0 .425.123.828.356 1.176v.015c.092.116.17.21.247.287a2.09 2.09 0 001.524.642h.464c.38 0 .697.131.968.402.07.07.131.14.185.224v.016c.178.232.263.487.263.79 0 .378-.131.696-.402.966-.27.271-.588.403-.967.403h-.449z" />
 </g>
 <defs>
 <clipPath id="pyujv507ca">
 <path fill="currentColor" d="M0 0h20v20H0z" />
 </clipPath>
 </defs>
 </svg>