<svg
 viewBox="0 0 11.368 14.525"
 xmlns="http://www.w3.org/2000/svg"
 >
 <g fill="currentColor">
 <path
 d="M11.291 11.847 9.361 8.17a.867.867 0 0 0-.767-.464H5.009v-.909h3.427a.682.682 0 1 0 0-1.363H5.009V4.071a.909.909 0 1 0-1.818 0v4.573a.9.9 0 0 0 .9.881h4.444l1.569 2.994a.639.639 0 0 0 .862.269l.038-.02a.683.683 0 0 0 .287-.921z"
 />
 <path
 d="M5.482 1.354A1.354 1.354 0 1 1 4.127 0a1.354 1.354 0 0 1 1.354 1.354"
 />
 <path
 d="M7.758 9.98a3.161 3.161 0 0 1-3.2 3.181 3.2 3.2 0 0 1-3.2-3.2 3 3 0 0 1 1.373-2.623V5.782A4.256 4.256 0 0 0 0 9.964a4.56 4.56 0 0 0 8.932 1.3L8.26 9.981z"
 />
 </g>
 </svg>