<svg
 viewBox="0 0 12.065 11"
 xmlns="http://www.w3.org/2000/svg"
 >
 <g fill="currentColor">
 <path
 d="M7.248 3.724c.455.621 1.655.662 2.854.745.248-1.158.455-2.316 0-2.937A.841.841 0 0 0 8.9 1.449a.988.988 0 0 0-.37 1.034.809.809 0 0 0-1.03.083.8.8 0 0 0-.248 1.158zm3.64 1.655a2.99 2.99 0 0 1-3.475.165l-2.73 2.11.579.745a.7.7 0 0 1-.124.91.658.658 0 0 1-.91-.124l-.579-.745-1.075.827.579.745a.658.658 0 0 1-.124.91.783.783 0 0 1-.869-.123l-.579-.745c-.455.331-.993.538-1.406 0a.858.858 0 0 1 .165-1.2L6.3 4.262a3.018 3.018 0 0 1 5.129-3.1 2.979 2.979 0 0 1-.538 4.219z"
 fill-rule="evenodd"
 />
 </g>
 </svg>