<svg
  width="24"
  height="24"
  viewBox="0 0 24 24"
  fill="none"
  xmlns="http://www.w3.org/2000/svg"
>
  <g clip-path="url(#clip0)">
    <path
      d="M3.587 7h8.82a1 1 0 0 1 .902 1.433l-1.44 3a1 1 0 0 1-.902.567H5.026a1 1 0 0 1-.901-.567l-1.44-3A1 1 0 0 1 3.587 7z"
      fill="currentColor"
      stroke="currentColor"
      stroke-width="2"
      stroke-linecap="round"
      stroke-linejoin="round"
    />

    <path
      d="M6 7l-.78-2.342A.5.5 0 0 1 5.695 4h4.612a.5.5 0 0 1 .475.658L10 7"
      fill="currentColor"
    />

    <path
      d="M6 7l-.78-2.342A.5.5 0 0 1 5.695 4h4.612a.5.5 0 0 1 .475.658L10 7M8 2v2"
      stroke="currentColor"
      stroke-width="2"
      stroke-linecap="round"
      stroke-linejoin="round"
    />

    <path d="M6 12v9h4v-9" fill="currentColor" />

    <path
      d="M6 12v9h4v-9"
      stroke="currentColor"
      stroke-width="2"
      stroke-linecap="round"
      stroke-linejoin="round"
    />

    <path
      d="M3 21h18"
      stroke="currentColor"
      stroke-width="2"
      stroke-linecap="round"
      stroke-linejoin="round"
    />

    <path
      d="M22 5h-6l-1-1"
      stroke="currentColor"
      stroke-width="1.5"
      stroke-linecap="round"
      stroke-linejoin="round"
    />

    <path
      d="M18 3l2 2-2 2"
      stroke="currentColor"
      stroke-width="1.5"
      stroke-linecap="round"
      stroke-linejoin="round"
    />
  </g>

  <defs>
    <clipPath id="clip0">
      <rect width="24" height="24" fill="white" />
    </clipPath>
  </defs>
</svg>