<svg xmlns="http://www.w3.org/2000/svg" viewBox="0 0 12.557 15">
 <path d="M12.557 10.952a8.71 8.71 0 0 1-1.109 2.254q-1.163 1.767-2.317 1.767a4.166 4.166 0 0 1-1.262-.288 3.987 3.987 0 0 0-1.361-.285 3.469 3.469 0 0 0-1.28.3 3.256 3.256 0 0 1-1.19.3q-1.37 0-2.713-2.335A9.245 9.245 0 0 1 0 8.131a5.347 5.347 0 0 1 1.019-3.372 3.128 3.128 0 0 1 2.56-1.3 6 6 0 0 1 1.6.27A5.805 5.805 0 0 0 6.418 4a4.509 4.509 0 0 0 1.289-.3 5.09 5.09 0 0 1 1.56-.307 3.3 3.3 0 0 1 1.92.586 4.655 4.655 0 0 1 .937.9A5.843 5.843 0 0 0 11.1 5.94a3.21 3.21 0 0 0-.586 1.866 3.433 3.433 0 0 0 .622 2.01 2.741 2.741 0 0 0 1.424 1.136zM9.167.379A3.437 3.437 0 0 1 8.906 1.6a3.7 3.7 0 0 1-.838 1.244 2.556 2.556 0 0 1-.974.649 5.035 5.035 0 0 1-.937.153 4.109 4.109 0 0 1 .7-2.317A3.591 3.591 0 0 1 9.113 0a.836.836 0 0 1 .022.1.836.836 0 0 0 .023.1v.18z" style="fill:#000"/>
</svg>