<svg
 viewBox="0 0 17 17"
 fill="currentColor"
 xmlns="http://www.w3.org/2000/svg"
 >
 <path
 d="M8.49 0l.1.006.05.007.051.01.095.03a.844.844 0 01.184.095l.089.07.217.185a9.351 9.351 0 006.111 2.157l.29-.009a.85.85 0 01.855.61 11.052 11.052 0 01-7.828 13.814.852.852 0 01-.427 0A11.053 11.053 0 01.45 3.162a.85.85 0 01.854-.61A9.351 9.351 0 007.705.403L7.93.212l.08-.064a.844.844 0 01.184-.095l.095-.03A.825.825 0 018.39.006L8.49 0zm0 5.95a1.7 1.7 0 00-1.695 1.574l-.004.127.004.128a1.7 1.7 0 00.846 1.344v1.504l.006.1a.85.85 0 001.694-.1V9.124a1.7 1.7 0 00-.85-3.173z"
 fill="currentColor"
 />
 </svg>