<svg
 viewBox="0 0 12 9"
 xmlns="http://www.w3.org/2000/svg"
 >
 <g>
 <path
 fill="currentColor"
 d="M.604 8.893a.624.624 0 0 1-.64-.6V6.559a.624.624 0 0 1 .64-.606h.731v-.652a1.473 1.473 0 0 1-.914-1.339 1.473 1.473 0 0 1 .914-1.34V1.105H.604a.624.624 0 0 1-.64-.606.624.624 0 0 1 .64-.606h10.965a.624.624 0 0 1 .64.606.624.624 0 0 1-.64.606h-.731v1.517a1.473 1.473 0 0 1 .914 1.339 1.473 1.473 0 0 1-.914 1.339v.653h.731a.624.624 0 0 1 .64.606v1.734a.624.624 0 0 1-.64.606zm10.325-1.728H1.243v.519h9.686zm-1.37-1.212v-.652a1.473 1.473 0 0 1-.914-1.339 1.473 1.473 0 0 1 .914-1.339V1.105H6.726v1.517a1.473 1.473 0 0 1 .914 1.339A1.473 1.473 0 0 1 6.726 5.3v.653zm-4.112 0v-.652a1.473 1.473 0 0 1-.914-1.339 1.473 1.473 0 0 1 .914-1.34V1.105H2.614v1.517a1.473 1.473 0 0 1 .914 1.34 1.473 1.473 0 0 1-.914 1.339v.652zm4.752-2.251a.26.26 0 1 0 .274.26.268.268 0 0 0-.274-.26m-4.112 0a.26.26 0 1 0 .274.26.268.268 0 0 0-.274-.26m-4.112 0a.26.26 0 1 0 .274.26.268.268 0 0 0-.274-.26"
 />
 </g>
 </svg>