<svg
 viewBox="0 0 14.896 15.842"
 xmlns="http://www.w3.org/2000/svg"
 >
 <g>
 <path
 fill="currentColor"
 d="M14.235 8.628H1.886V1.78A1.071 1.071 0 0 1 2.93.71a.633.633 0 0 0-.007.095.644.644 0 0 0 .19.444l.117.117a1.441 1.441 0 0 0 .163 1.764l.067.07-.267.267.4.4.267-.267L6.526.93l.267-.267-.4-.4-.267.267L6.06.463A1.348 1.348 0 0 0 5.1.074 1.575 1.575 0 0 0 4.3.3L4.179.182A.649.649 0 0 0 3.32.143h-.364A1.638 1.638 0 0 0 1.32 1.779v6.849H.66a.66.66 0 0 0 0 1.32h13.575a.66.66 0 1 0 0-1.32z"
 />
 <path
 fill="currentColor"
 d="m5.194 2.797.4-.4.8.8-.4.4z"
 />
 <path
 fill="currentColor"
 d="m8.793 6.397.4-.4.533.533-.4.4z"
 />
 <path
 fill="currentColor"
 d="m7.593 5.197.4-.4.8.8-.4.4z"
 />
 <path
 fill="currentColor"
 d="m6.393 3.997.4-.4.8.8-.4.4z"
 />
 <path
 fill="currentColor"
 d="m7.459 6.397.4-.4.8.8-.4.4z"
 />
 <path
 fill="currentColor"
 d="m5.06 3.997.4-.4.8.8-.4.4z"
 />
 <path
 fill="currentColor"
 d="m8.659 7.596.4-.4.533.533-.4.4z"
 />
 <path
 fill="currentColor"
 d="m6.26 5.197.4-.4.8.8-.4.4z"
 />
 <path
 fill="currentColor"
 d="m7.46 3.73.4-.4.8.8-.4.4z"
 />
 <path
 fill="currentColor"
 d="m6.26 2.53.4-.4.8.8-.4.4z"
 />
 <path
 fill="currentColor"
 d="m8.66 4.93.4-.4.8.8-.4.4z"
 />
 <path
 fill="currentColor"
 d="m9.859 6.13.4-.4.534.534-.4.4z"
 />
 <path
 fill="currentColor"
 d="m10.126 5.063.4-.4.533.533-.4.4z"
 />
 <path
 fill="currentColor"
 d="m6.527 1.464.4-.4.8.8-.4.4z"
 />
 <path
 fill="currentColor"
 d="m8.926 3.864.4-.4.8.8-.4.4z"
 />
 <path
 fill="currentColor"
 d="m7.726 2.664.4-.4.8.8-.4.4z"
 />
 <path
 fill="currentColor"
 d="m5.06 5.33.4-.4.8.8-.4.4z"
 />
 <path
 fill="currentColor"
 d="m3.86 4.13.4-.4.8.8-.4.4z"
 />
 <path
 fill="currentColor"
 d="m6.26 6.53.4-.4.8.8-.4.4z"
 />
 <path
 fill="currentColor"
 d="m7.46 7.729.4-.4.533.533-.4.4z"
 />
 <path
 fill="currentColor"
 d="M1.32 10.852a4.194 4.194 0 0 0 2.388 3.788.844.844 0 0 1-1.047.6l-.153.544a1.411 1.411 0 0 0 1.731-.94 4.11 4.11 0 0 0 1.236.189H9.42a4.11 4.11 0 0 0 1.205-.18 1.411 1.411 0 0 0 1.728.931l-.153-.544a.843.843 0 0 1-1.043-.591 4.193 4.193 0 0 0 2.419-3.8v-.338H1.32z"
 />
 </g>
 </svg>