<svg
 viewBox="0 0 17 17"
 xmlns="http://www.w3.org/2000/svg"
 >
 <g clip-path="url(#a)">
 <path
 fill="currentColor"
 d="M5.648 2.257h.849a.424.424 0 1 1 0 .849H3.951a.424.424 0 0 1 0-.849H4.8v-.212A1.061 1.061 0 0 0 3.738.984H2.89a1.058 1.058 0 0 0-1.059 1.061v6.154H7.1a2.1 2.1 0 0 0-.178.849v4.669a.426.426 0 0 0 .424.424h4.669a.426.426 0 0 0 .424-.424V9.472a.438.438 0 0 1 .123-.3.42.42 0 0 1 .3-.123h.424s.424-.034.424-.429V8.2h2.334a1.062 1.062 0 0 1 .751 1.812 1.044 1.044 0 0 1-.624.3l-.823 3.578a2.5 2.5 0 0 1-1.638 1.812v.133a1.281 1.281 0 0 1-1.279 1.277H4.808a1.281 1.281 0 0 1-1.277-1.277v-.127a2.526 2.526 0 0 1-1.638-1.812l-.828-3.583a1.1 1.1 0 0 1-.624-.3A1.061 1.061 0 0 1 .98 8.22V2.045A1.913 1.913 0 0 1 2.89.135h.849a1.907 1.907 0 0 1 1.91 1.91zm5.942 11.035H7.77v-.849h3.82zm-3.82-1.7V9.048a1.274 1.274 0 0 1 1.274-1.273h3.4a.438.438 0 0 1 .3.123.42.42 0 0 1 .123.3 1.275 1.275 0 0 0-1.273 1.273v2.124zM3.531 6.077v.849a.424.424 0 0 0 .849 0v-.849a.424.424 0 0 0-.849 0m2.547 0v.849a.424.424 0 0 0 .849 0v-.849a.424.424 0 0 0-.849 0m-1.273 0v.849a.424.424 0 0 0 .849 0v-.849a.424.424 0 0 0-.849 0m-.854-2.122v.849a.424.424 0 1 0 .849 0v-.849a.424.424 0 1 0-.849 0m1.7 0v.849a.424.424 0 1 0 .849 0v-.849a.424.424 0 1 0-.849 0"
 fill-rule="evenodd"
 />
 </g>
 </svg>