<svg xmlns="http://www.w3.org/2000/svg" viewBox="0 0 38 30.4">
 <path data-name="Icon awesome-umbrella-beach" d="m6.851 8.128 6.063 2.208C15 5.494 18.032 1.769 21.166.022A17.766 17.766 0 0 0 6.41 6.661a.951.951 0 0 0 .441 1.468zm7.849 2.86 14.16 5.155c2.123-7.207 1.11-13.755-2.531-15.08A3.974 3.974 0 0 0 24.96.826c-3.445 0-7.616 4.107-10.258 10.162zm16.26-7.4a13.467 13.467 0 0 1 .784 3.277 25.447 25.447 0 0 1-1.125 9.914L36.714 19a.95.95 0 0 0 1.281-.841 17.777 17.777 0 0 0-7.032-14.567zM33.25 26.6H19.063L22.919 16l-3.571-1.3-4.329 11.9H.95a.95.95 0 0 0-.95.951v1.9a.95.95 0 0 0 .95.951h32.3a.95.95 0 0 0 .95-.951v-1.9a.95.95 0 0 0-.95-.951z" fill="currentColor"/>
</svg>