<svg
 viewBox="0 0 12.289 13"
 xmlns="http://www.w3.org/2000/svg"
 >
 <g fill="currentColor">
 <path
 d="M11.796 12.015a.887.887 0 0 1-.643-.26 1.88 1.88 0 0 0-1.232-.452 1.849 1.849 0 0 0-1.232.452.926.926 0 0 1-1.286 0 1.88 1.88 0 0 0-1.232-.452 1.849 1.849 0 0 0-1.232.452.926.926 0 0 1-1.286 0 1.88 1.88 0 0 0-1.232-.452 1.849 1.849 0 0 0-1.232.452.887.887 0 0 1-.643.26.493.493 0 0 0 0 .985 1.849 1.849 0 0 0 1.232-.452.925.925 0 0 1 1.286 0A1.88 1.88 0 0 0 4.296 13a1.849 1.849 0 0 0 1.232-.452.925.925 0 0 1 1.286 0A1.88 1.88 0 0 0 8.046 13a1.849 1.849 0 0 0 1.232-.452.925.925 0 0 1 1.286 0 1.88 1.88 0 0 0 1.232.452.493.493 0 0 0 0-.985z"
 />
 <path
 d="M11.796 9.429a.887.887 0 0 1-.643-.26 1.88 1.88 0 0 0-1.232-.452 1.849 1.849 0 0 0-1.232.452.925.925 0 0 1-1.286 0 1.88 1.88 0 0 0-1.232-.452 1.849 1.849 0 0 0-1.232.452.925.925 0 0 1-1.286 0 1.88 1.88 0 0 0-1.232-.452 1.849 1.849 0 0 0-1.232.452.887.887 0 0 1-.643.26.493.493 0 0 0 0 .985 1.849 1.849 0 0 0 1.232-.452.925.925 0 0 1 1.286 0 1.88 1.88 0 0 0 1.232.452 1.849 1.849 0 0 0 1.232-.452.925.925 0 0 1 1.286 0 1.88 1.88 0 0 0 1.232.452 1.849 1.849 0 0 0 1.232-.452.925.925 0 0 1 1.286 0 1.88 1.88 0 0 0 1.232.452.493.493 0 0 0 0-.985"
 />
 <path
 d="M.493 7.608H11.8a.493.493 0 1 0 0-.985H8.826V.356A.362.362 0 0 0 8.471 0H3.818a.362.362 0 0 0-.356.356v6.281H.493A.491.491 0 0 0 0 7.13a.479.479 0 0 0 .493.479zm6.116-6.322a.166.166 0 0 1 .164-.164h.712a.166.166 0 0 1 .164.164V2a.166.166 0 0 1-.164.164h-.711A.166.166 0 0 1 6.609 2zm0 1.9a.166.166 0 0 1 .164-.164h.712a.166.166 0 0 1 .164.164V3.9a.166.166 0 0 1-.164.164h-.711a.166.166 0 0 1-.165-.164zm0 1.9a.166.166 0 0 1 .164-.164h.712a.166.166 0 0 1 .164.164v.725a.166.166 0 0 1-.164.164h-.711a.166.166 0 0 1-.164-.164zm-1.984-3.8a.166.166 0 0 1 .164-.164H5.5a.166.166 0 0 1 .164.164V2a.166.166 0 0 1-.164.164h-.711A.166.166 0 0 1 4.625 2zm0 1.9a.166.166 0 0 1 .164-.164H5.5a.166.166 0 0 1 .164.164V3.9a.166.166 0 0 1-.164.164h-.711a.166.166 0 0 1-.164-.164zm0 1.9a.166.166 0 0 1 .164-.164H5.5a.166.166 0 0 1 .164.164v.725a.166.166 0 0 1-.164.169h-.711a.166.166 0 0 1-.164-.164z"
 />
 </g>
 </svg>