<svg xmlns="http://www.w3.org/2000/svg" viewBox="0 0 19.704 16">
 <defs>
 <clipPath id="clip-path">
 <path id="Rectangle_189" data-name="Rectangle 189" class="cls-1" d="M0 0h19.704v16H0z"/>
 </clipPath>
 <style>
 .cls-1{fill:#6f7e90}
 </style>
 </defs>
 <g id="kişisayısı" style="clip-path:url(#clip-path)">
 <path id="Path_282" data-name="Path 282" class="cls-1" d="M.473 16A.474.474 0 0 1 0 15.526v-5.471a2.047 2.047 0 0 1 1.563-1.98V1.458A.473.473 0 0 1 1.919 1a31.978 31.978 0 0 1 15.867 0 .473.473 0 0 1 .356.458v6.616a2.049 2.049 0 0 1 1.563 1.98v5.471a.476.476 0 0 1-.473.474h-2.014a.475.475 0 0 1-.473-.474v-1.479H2.96v1.48a.474.474 0 0 1-.473.474zm18.28-.947v-3.352H.947v3.352h1.066v-1.482a.474.474 0 0 1 .473-.473h14.733a.474.474 0 0 1 .473.473v1.481zm0-4.3v-.7a1.093 1.093 0 0 0-1.089-1.089H2.037a1.093 1.093 0 0 0-1.09 1.091v.7zM15.63 8.021v-.76a.468.468 0 0 0-.467-.466h-3.248a.467.467 0 0 0-.467.466v.76zm-5.129 0v-.76a1.418 1.418 0 0 1 1.414-1.414h3.249a1.418 1.418 0 0 1 1.414 1.414v.758h.615V1.828a31.027 31.027 0 0 0-14.684 0v6.193h.617v-.76a1.418 1.418 0 0 1 1.415-1.417h3.251A1.418 1.418 0 0 1 9.2 7.261v.76zm-2.248 0v-.815a.467.467 0 0 0-.462-.411h-3.25a.467.467 0 0 0-.467.466v.76z"/>
 </g>
</svg>