<svg
 viewBox="0 0 20 20"
 fill="currentColor"
 xmlns="http://www.w3.org/2000/svg"
 >
 <g clip-path="url(#178vck0tua)" fill="currentColor">
 <path d="M11.865 15.836c.72 0 1.102.853.62 1.39a3.325 3.325 0 01-2.483 1.11 3.328 3.328 0 01-2.483-1.11.833.833 0 01.528-1.384l.092-.005 3.726-.001zM10.002 1.664a2.5 2.5 0 012.395 1.784l.039.143.006.036a6.677 6.677 0 013.354 5.057l.023.24.016.24v2.443l.017.113a2.5 2.5 0 00.953 1.54l.14.097.134.082c.717.406.467 1.472-.314 1.553l-.097.005H3.335c-.857 0-1.156-1.136-.41-1.558a2.5 2.5 0 001.226-1.72l.017-.118.001-2.475a6.667 6.667 0 013.184-5.379l.207-.121.008-.036a2.502 2.502 0 012.135-1.908l.152-.015.147-.003z" />
 </g>
 <defs>
 <clipPath id="178vck0tua">
 <path fill="currentColor" d="M0 0h20v20H0z" />
 </clipPath>
 </defs>
 </svg>