<svg
 viewBox="0 0 20 20"
 fill="currentColor"
 xmlns="http://www.w3.org/2000/svg"
 >
 <mask
 id="a"
 maskUnits="userSpaceOnUse"
 x="0"
 y="4"
 >
 <path d="M19.222 4.031H.773v12.5h18.45v-12.5z" fill="#fff" />
 </mask>
 <g mask="url(#a)">
 <path
 d="M9.998 4.031a.888.888 0 00-.376 1.698 7.389 7.389 0 00-7.014 7.382c0 .091.008.184.014.276h14.756a8.51 8.51 0 00.01-.276 7.39 7.39 0 00-7.014-7.381.888.888 0 00-.376-1.699zm-.039 9.863l-7.377.006a2.96 2.96 0 00-1.156.648 3.915 3.915 0 00-.653.702v1.019a.275.275 0 00.287.264h17.872a.274.274 0 00.287-.264V15.25a3.917 3.917 0 00-.654-.703 2.96 2.96 0 00-1.152-.647h-7.378l-.076-.006z"
 fill="currentColor"
 />
 </g>
 </svg>