<svg
 xmlns="http://www.w3.org/2000/svg"
 viewBox="0 0 17.244 17.281"
 >
 <defs>
 <clipPath id="a">
 <path
 fill="currentColor"
 d="M0 0h17.244v17.281H0z"
 />
 </clipPath>
 </defs>
 <g>
 <g
 clip-path="url(#a)"
 >
 <path
 d="m15.493 1.769 1.75.24-2.3 2.3-.743-.09-4.583 4.569a1.816 1.816 0 0 1 .055.442 1.64 1.64 0 1 1-1.64-1.64 1.816 1.816 0 0 1 .442.055l1.161-1.16a3.089 3.089 0 0 0-1.584-.424 3.224 3.224 0 0 0-2.251.921A3.179 3.179 0 0 0 8.051 12.4a3.089 3.089 0 0 0 2.229-.94 3.193 3.193 0 0 0 .92-2.23.628.628 0 0 0-.018-.184l1.363-1.363A4.7 4.7 0 0 1 12.8 9.23a4.766 4.766 0 1 1-2.026-3.906l1.087-1.087a6.331 6.331 0 0 0-3.829-1.308 6.282 6.282 0 1 0 0 12.564 6.29 6.29 0 0 0 6.282-6.282 6.341 6.341 0 0 0-.607-2.711l.94-.94.111.018a1.082 1.082 0 0 0 .424-.018 8.137 8.137 0 0 1 .884 3.648 8.018 8.018 0 0 1-2.36 5.692 7.947 7.947 0 0 1-5.674 2.377 8.041 8.041 0 1 1 5.011-14.329l-.073-.608L15.272 0z"
 fill="currentColor"
 />
 </g>
 </g>
 </svg>