<svg
 viewBox="0 0 16 16"
 fill="none"
 xmlns="http://www.w3.org/2000/svg"
 >
 <mask
 id="a"
 maskUnits="userSpaceOnUse"
 x="2"
 y="0"
 >
 <path d="M13.036.973H2.961v14h10.075v-14z" fill="#fff" />
 </mask>
 <g mask="url(#a)" fill="currentColor">
 <path d="M10.937 10.103a5.037 5.037 0 10-5.876 0l-1.632 3.288a.39.39 0 00.455.546l1.154-.33.436 1.118a.381.381 0 00.345.248.371.371 0 00.366-.216l1.813-3.653 1.814 3.657a.39.39 0 00.347.215.349.349 0 00.361-.248l.436-1.119 1.154.331a.39.39 0 00.455-.546l-1.628-3.29zm-5.058 3.523l-.245-.628a.39.39 0 00-.468-.234l-.645.186 1.21-2.442c.46.234.952.395 1.46.477l-1.312 2.64zM8 10.27a4.258 4.258 0 110-8.517 4.258 4.258 0 010 8.517zm2.833 2.491a.39.39 0 00-.468.234l-.245.628-1.307-2.645a4.969 4.969 0 001.46-.476l1.21 2.441-.65-.182z" />
 <path d="M10.595 4.771l-1.551-.226-.695-1.404a.39.39 0 00-.702 0l-.694 1.404-1.552.226a.39.39 0 00-.213.664l1.124 1.092-.264 1.547a.369.369 0 00.156.38.44.44 0 00.41.03l1.389-.73 1.389.73a.417.417 0 00.553-.462l-.256-1.49 1.124-1.093a.39.39 0 00-.02-.58.39.39 0 00-.198-.088zM8.997 6.114a.397.397 0 00-.113.345l.165.97-.87-.458a.38.38 0 00-.362 0l-.87.457.165-.97a.385.385 0 00-.113-.344l-.702-.689.976-.14a.39.39 0 00.292-.212L8 4.188l.435.885a.382.382 0 00.292.212l.976.14-.706.689z" />
 </g>
 </svg>