<svg viewBox="0 0 18 12"
 xmlns="http://www.w3.org/2000/svg"
 >
 <g>
 <g
 clip-path="url(#gwbae8u7ta)"
 >
 <path
 d="m12.417 6.815-.861.838c.542.265.841.6.841.877 0 .555-1.185 1.327-3.118 1.339l-.245.238a2.462 2.462 0 0 1-1.09.259A2.623 2.623 0 0 1 6.1 9.56L5.058 8.522v.797a6.726 6.726 0 0 1-.879.057c-1.958 0-3.161-.78-3.161-1.339a.53.53 0 0 1 .082-.259 5.974 5.974 0 0 0 3.082.741 7.877 7.877 0 0 0 .831-.045l-.921-.921c-1.9-.024-3.071-.788-3.071-1.338a.524.524 0 0 1 .079-.259 5.315 5.315 0 0 0 2.126.684 2.006 2.006 0 0 1-.358-1.04c-1.17-.245-1.85-.79-1.85-1.21a.526.526 0 0 1 .082-.255 5.137 5.137 0 0 0 1.893.651 2.024 2.024 0 0 1 .469-.729l.167-.167C2 3.76 1.018 3.076 1.018 2.572c0-.559 1.2-1.339 3.161-1.339s3.161.78 3.161 1.339a.769.769 0 0 1-.308.531c.043.037.085.075.126.115l.787.787.413-.416V2.572a2.326 2.326 0 0 0-1.475-2A6.178 6.178 0 0 0 4.179 0a6.18 6.18 0 0 0-2.7.573A2.325 2.325 0 0 0 0 2.572v7.021a2.325 2.325 0 0 0 1.475 2 6.178 6.178 0 0 0 2.7.573 7.191 7.191 0 0 0 .889-.055 2.4 2.4 0 0 0 1.465 1.823 6.171 6.171 0 0 0 2.7.573 6.176 6.176 0 0 0 2.7-.573 2.325 2.325 0 0 0 1.475-2V8.53a2.125 2.125 0 0 0-1-1.715m-7.346 4.323a6.233 6.233 0 0 1-.879.062C2.4 11.2.964 10.481.964 9.593v-.079a5.8 5.8 0 0 0 3.214.827 7.846 7.846 0 0 0 .879-.049zm1.1-1.045a5.975 5.975 0 0 0 3.082.741 5.975 5.975 0 0 0 3.082-.741.527.527 0 0 1 .079.259c0 .559-1.2 1.339-3.161 1.339s-3.161-.78-3.161-1.339a.527.527 0 0 1 .079-.259m6.3 1.841c0 .888-1.439 1.607-3.214 1.607s-3.215-.72-3.215-1.607v-.1a5.8 5.8 0 0 0 3.215.827 5.8 5.8 0 0 0 3.214-.827z"
 fill="#222"
 />
 <path
 d="m147.975 16.872-.825-.849a.431.431 0 0 0-.315-.136.419.419 0 0 0-.314.135l-5.563 5.6-1.913-1.913a.432.432 0 0 0-.618 0l-.838.838a.438.438 0 0 0 0 .622l2.637 2.637a1.069 1.069 0 0 0 .728.342 1.046 1.046 0 0 0 .64-.259h.015l6.369-6.4.016-.017a.453.453 0 0 0-.018-.6"
 transform="translate(-133.009 -15.373)"
 fill="#222"
 />
 </g>
 </g>
 </svg>