<svg data-name="Group 717" xmlns="http://www.w3.org/2000/svg" viewBox="0 0 11.158 15.898">
 <defs>
 <clipPath id="58sd1tiu3a">
 <path data-name="Rectangle 200" fill="currentColor" d="M0 0h11.158v15.898H0z"/>
 </clipPath>
 </defs>
 <g data-name="Group 716" style="clip-path:url(#58sd1tiu3a)">
 <path data-name="Path 287" d="M10.643 2.578H9.5V1.8a.525.525 0 0 0-.532-.532H7.683V.532A.525.525 0 0 0 7.151 0H4.024a.536.536 0 0 0-.532.532v.715h-1.28a.525.525 0 0 0-.532.532v.782H.532A.551.551 0 0 0 0 3.11v12.505a.277.277 0 0 0 .266.283h1.713a.277.277 0 0 0 .266-.283v-.466a1.636 1.636 0 0 1 1.613-1.663H7.3a1.647 1.647 0 0 1 1.613 1.663v.466a.277.277 0 0 0 .266.283h1.713a.277.277 0 0 0 .266-.283V3.126a.537.537 0 0 0-.516-.549m-5.587.5.316-.05c.017 0 .033-.017.05-.033l.133-.283c.033-.05.1-.05.116 0l.133.283c.017.017.033.033.05.033l.316.05c.05.017.083.083.033.116l-.233.216c-.017.017-.017.033-.017.067L6 3.792a.065.065 0 0 1-.1.067l-.283-.15a.051.051 0 0 0-.067 0l-.283.15a.065.065 0 0 1-.1-.067l.05-.316a.1.1 0 0 0-.017-.067l-.233-.216a.117.117 0 0 1 .083-.116m-1.53 7.4a.3.3 0 0 1-.3.3H1.779a.3.3 0 0 1-.3-.3V9.03a.3.3 0 0 1 .3-.3h1.447a.3.3 0 0 1 .3.3zm0-3.326a.3.3 0 0 1-.3.3H1.779a.3.3 0 0 1-.3-.3V5.7a.3.3 0 0 1 .3-.3h1.447a.3.3 0 0 1 .3.3zm.665-3.958-.233.216c-.017.017-.017.033-.017.067l.05.316a.065.065 0 0 1-.1.067l-.283-.15a.051.051 0 0 0-.067 0l-.283.15a.065.065 0 0 1-.1-.067l.05-.316a.1.1 0 0 0-.017-.067l-.225-.216a.074.074 0 0 1 .033-.116l.316-.05c.017 0 .033-.017.05-.033l.133-.283c.033-.05.1-.05.116 0l.133.283c.017.017.033.033.05.033l.316.05c.1.017.116.083.083.116m2.395 7.284a.3.3 0 0 1-.3.3H4.839a.3.3 0 0 1-.3-.3V9.03a.3.3 0 0 1 .3-.3h1.447a.3.3 0 0 1 .3.3zm0-3.326a.3.3 0 0 1-.3.3H4.839a.3.3 0 0 1-.3-.3V5.7a.3.3 0 0 1 .3-.3h1.447a.3.3 0 0 1 .3.3zm.948-3.426-.283.15a.065.065 0 0 1-.1-.067l.05-.316a.1.1 0 0 0-.017-.067l-.233-.216a.074.074 0 0 1 .033-.116l.316-.05c.017 0 .033-.017.05-.033l.15-.283a.064.064 0 0 1 .116 0l.133.283c.017.017.033.033.05.033l.316.05c.05.017.083.083.033.116l-.233.216c-.017.017-.017.033-.017.067l.05.316a.065.065 0 0 1-.1.067l-.283-.15c.017-.017-.017-.017-.033 0m2.178 6.752a.3.3 0 0 1-.3.3H7.965a.3.3 0 0 1-.3-.3V9.03a.3.3 0 0 1 .3-.3h1.447a.3.3 0 0 1 .3.3zm0-3.326a.3.3 0 0 1-.3.3H7.965a.3.3 0 0 1-.3-.3V5.7a.3.3 0 0 1 .3-.3h1.447a.3.3 0 0 1 .3.3z" fill="currentColor"/>
 </g>
</svg>