<svg
 viewBox="0 0 32 32"
 fill="currentColor"
 xmlns="http://www.w3.org/2000/svg"
 >
 <rect width="32" height="32" rx="8" fill="currentColor" />
 <path
 d="M10 24.4V9.6a.6.6 0 01.6-.6H16V7.6a.6.6 0 01.6-.6h4.8a.6.6 0 01.6.6v16.8a.6.6 0 01-.6.6H10.6a.6.6 0 01-.6-.6z"
 fill="#fff"
 stroke="#fff"
 stroke-width="1.938"
 stroke-linecap="round"
 stroke-linejoin="round"
 />
 <path d="M14 13.011l.01-.011-.01.011z" fill="#115BB9" />
 <path
 d="M14 13.011l.01-.011"
 stroke="#115BB9"
 stroke-width="2"
 stroke-linecap="round"
 stroke-linejoin="round"
 />
 <path d="M18 13.011l.01-.011-.01.011z" fill="#115BB9" />
 <path
 d="M18 13.011l.01-.011"
 stroke="#115BB9"
 stroke-width="2"
 stroke-linecap="round"
 stroke-linejoin="round"
 />
 <path d="M14 17.011l.01-.011-.01.011z" fill="#115BB9" />
 <path
 d="M14 17.011l.01-.011"
 stroke="#115BB9"
 stroke-width="2"
 stroke-linecap="round"
 stroke-linejoin="round"
 />
 <path d="M18 17.011l.01-.011-.01.011z" fill="#115BB9" />
 <path
 d="M18 17.011l.01-.011"
 stroke="#115BB9"
 stroke-width="2"
 stroke-linecap="round"
 stroke-linejoin="round"
 />
 <path d="M14 21.011l.01-.011-.01.011z" fill="#115BB9" />
 <path
 d="M14 21.011l.01-.011"
 stroke="#115BB9"
 stroke-width="2"
 stroke-linecap="round"
 stroke-linejoin="round"
 />
 <path d="M18 21.011l.01-.011-.01.011z" fill="#115BB9" />
 <path
 d="M18 21.011l.01-.011"
 stroke="#115BB9"
 stroke-width="2"
 stroke-linecap="round"
 stroke-linejoin="round"
 />
 </svg>