<svg xmlns="http://www.w3.org/2000/svg" viewBox="0 0 15.986 18.295">
 <defs>
 <clipPath id="4510sflc6a">
 <path data-name="Rectangle 2225" fill="currentColor" d="M0 0h15.986v18.295H0z"/>
 </clipPath>
 </defs>
 <g data-name="Group 4641" style="clip-path:url(#4510sflc6a)">
 <path data-name="Path 3088" d="M.452 98.569a.453.453 0 0 0-.452.452v1.318a.452.452 0 1 0 .9 0v-1.318a.453.453 0 0 0-.452-.452" transform="translate(0 -92.532)" fill="currentColor"/>
 <path data-name="Path 3089" d="M246.707 100.814a.453.453 0 0 0 .452-.452v-1.32a.452.452 0 0 0-.9 0v1.319a.453.453 0 0 0 .452.452" transform="translate(-231.173 -92.553)" fill="currentColor"/>
 <path data-name="Path 3090" d="M193.823 215.528a.49.49 0 1 0 .49.49.49.49 0 0 0-.49-.49" transform="translate(-181.493 -202.328)" fill="currentColor"/>
 <path data-name="Path 3091" d="M32.177 1.961c-.016-.058-.048-.175-.088-.3a4.617 4.617 0 0 0-.085-.243 1.221 1.221 0 0 0-.058-.126l-.011-.018a.553.553 0 0 0-.119-.154 4.4 4.4 0 0 0-1.969-.769A23.971 23.971 0 0 0 25.338 0a23.961 23.961 0 0 0-4.509.347 4.4 4.4 0 0 0-1.976.769.554.554 0 0 0-.117.15l-.013.022a2.494 2.494 0 0 0-.154.4l-.008.026a5.311 5.311 0 0 0-.071.247.462.462 0 0 0-.013.118v12.935a.447.447 0 0 0 .025.15 2.411 2.411 0 0 0 .408.7 2.044 2.044 0 0 0 .32.313v.723a1.1 1.1 0 0 0 .2.621 1.662 1.662 0 0 0 .745.578 2.65 2.65 0 0 0 1.019.2 2.48 2.48 0 0 0 1.306-.349 1.525 1.525 0 0 0 .462-.429 1.1 1.1 0 0 0 .2-.621v-.3h4.374v.3a1.1 1.1 0 0 0 .2.621 1.662 1.662 0 0 0 .745.578 2.651 2.651 0 0 0 1.019.2 2.481 2.481 0 0 0 1.308-.345 1.522 1.522 0 0 0 .462-.429 1.1 1.1 0 0 0 .2-.621v-.718a2.034 2.034 0 0 0 .319-.312 2.422 2.422 0 0 0 .393-.711v-.008a.45.45 0 0 0 .023-.142V2.082a.481.481 0 0 0-.016-.121M21 15.086a1.394 1.394 0 1 1 1.4-1.394 1.4 1.4 0 0 1-1.4 1.393m6.6.038h-4.524a.452.452 0 0 1 0-.9H27.6a.452.452 0 0 1 0 .9m2.074-.038a1.4 1.4 0 0 1-1.395-1.395 1.395 1.395 0 1 1 1.393 1.4m1.628-4.858a22.21 22.21 0 0 1-5.947 1.009h-.013a19.718 19.718 0 0 1-4.259-.554 24.669 24.669 0 0 1-1.453-.385l-.242-.073V3.4H31.3z" transform="translate(-17.345 -.001)" fill="currentColor"/>
 <path data-name="Path 3092" d="M52.205 215.528a.49.49 0 1 0 .49.49.49.49 0 0 0-.49-.49" transform="translate(-48.548 -202.328)" fill="currentColor"/>
 </g>
</svg>