<svg
 viewBox="0 0 32 32"
 fill="currentColor"
 xmlns="http://www.w3.org/2000/svg"
 >
 <rect width="32" height="32" rx="8" fill="currentColor" />
 <g clip-path="url(#e2bvqj785a)">
 <path
 d="M23.876 6.01a1 1 0 11.248 1.985L17 8.885v2.118h4.2a1 1 0 01.688.274l.087.093c2.79 3.417 2.717 9.963-.226 13.295a1 1 0 01-.75.338H10.895a.999.999 0 01-.763-.353c-2.86-3.373-2.86-9.92 0-13.294a.998.998 0 01.763-.353H15V9.136l-6.876.86a1 1 0 01-1.095-.754l-.021-.115a1 1 0 01.868-1.116l7.996-1 .01-.001.009-.001 7.985-.998zM15 13.004h-3.617l-.051.072c-.718 1.042-1.15 2.41-1.292 3.844l-.008.084H15v-4zm5.698 0H17v4h4.979l-.005-.072c-.123-1.436-.533-2.811-1.232-3.864l-.044-.064z"
 fill="#fff"
 />
 </g>
 <defs>
 <clipPath id="e2bvqj785a">
 <path fill="#fff" transform="translate(4 4)" d="M0 0h24v24H0z" />
 </clipPath>
 </defs>
 </svg>