<svg
 viewBox="0 0 20 20"
 fill="none"
 xmlns="http://www.w3.org/2000/svg"
 >
 <path
 d="M15.258 16.873h-4.45a.405.405 0 110-.81h4.449a1.216 1.216 0 001.215-1.216V9.593a6.471 6.471 0 10-12.943 0v3.608a.405.405 0 11-.81 0V9.593a7.28 7.28 0 0114.56 0v5.258a2.026 2.026 0 01-2.021 2.022z"
 fill="currentColor"
 />
 <path
 d="M15.257 16.873a2.023 2.023 0 002.022-2.022V9.593a7.28 7.28 0 00-14.56 0V13.2a.405.405 0 00.808 0V9.593a6.471 6.471 0 1112.944 0v5.258c0 .67-.544 1.213-1.214 1.213h-4.45a.405.405 0 000 .809h4.45zm0 .101h-4.45a.506.506 0 010-1.011h4.45c.613 0 1.112-.5 1.112-1.112V9.593A6.377 6.377 0 0010 3.223a6.377 6.377 0 00-6.37 6.37V13.2a.506.506 0 01-1.012 0V9.593C2.617 5.523 5.93 2.21 10 2.21s7.382 3.311 7.382 7.382v5.258c0 1.17-.953 2.123-2.124 2.123z"
 fill="currentColor"
 />
 <path
 d="M3.934 14.85a1.215 1.215 0 01-1.215-1.216v-3.231a1.215 1.215 0 112.43 0v3.236a1.216 1.216 0 01-1.215 1.21zm0-4.854a.405.405 0 00-.405.405v3.236a.405.405 0 00.81 0v-3.234a.405.405 0 00-.405-.405v-.002z"
 fill="currentColor"
 />
 <path
 d="M3.932 14.85c.67 0 1.213-.543 1.213-1.214v-3.235a1.213 1.213 0 10-2.427 0v3.235c0 .67.544 1.214 1.214 1.214zm0-4.854c.223 0 .404.181.404.405v3.235a.405.405 0 01-.809 0v-3.235c0-.224.182-.405.405-.405zm0 4.955c-.725 0-1.315-.59-1.315-1.315v-3.235c0-.725.59-1.315 1.315-1.315s1.315.59 1.315 1.315v3.235c0 .725-.59 1.315-1.315 1.315zm0-4.854a.303.303 0 00-.303.304v3.235a.303.303 0 00.606 0v-3.235a.304.304 0 00-.303-.303z"
 fill="currentColor"
 />
 <path
 d="M3.126 14.044h-.81a1.355 1.355 0 01-1.215-1.483v-1.077A1.355 1.355 0 012.316 10h.81a.405.405 0 010 .81h-.81c-.19 0-.405.288-.405.676v1.076c0 .405.215.675.405.675h.81a.405.405 0 010 .81v-.003z"
 fill="currentColor"
 />
 <path
 d="M3.124 14.044a.405.405 0 000-.809h-.81c-.19 0-.404-.27-.404-.675v-1.076c0-.388.215-.675.405-.675h.809a.405.405 0 000-.81h-.81c-.679 0-1.213.652-1.213 1.485v1.076c0 .833.534 1.484 1.214 1.484h.809zm0 .102h-.81C1.578 14.146 1 13.449 1 12.56v-1.076c0-.89.577-1.586 1.315-1.586h.809a.506.506 0 010 1.012h-.81c-.12 0-.302.229-.302.574v1.076c0 .35.18.574.303.574h.809a.506.506 0 010 1.012zm14.56-.107h-.81a.406.406 0 010-.81h.81c.19 0 .405-.288.405-.676v-1.075c0-.405-.214-.675-.405-.675h-.81a.406.406 0 010-.81h.81a1.354 1.354 0 011.216 1.483v1.076a1.355 1.355 0 01-1.216 1.487z"
 fill="currentColor"
 />
 <path
 d="M17.682 14.044c.68 0 1.213-.65 1.213-1.484v-1.076c0-.833-.534-1.484-1.213-1.484h-.81a.405.405 0 000 .809h.81c.19 0 .404.27.404.675v1.076c0 .388-.214.675-.404.675h-.81a.405.405 0 000 .81h.81zm0 .102h-.81a.506.506 0 010-1.012h.81c.12 0 .303-.229.303-.574v-1.076c0-.35-.18-.574-.303-.574h-.81a.506.506 0 010-1.012h.81c.737 0 1.315.697 1.315 1.586v1.076c0 .89-.578 1.586-1.315 1.586zm-7.677 3.543a1.215 1.215 0 110-2.43 1.215 1.215 0 010 2.43zm0-1.62a.405.405 0 100 .81.405.405 0 000-.81z"
 fill="currentColor"
 />
 <path
 d="M10.002 17.684a1.213 1.213 0 100-2.426 1.213 1.213 0 000 2.426zm0-1.617a.405.405 0 110 .809.405.405 0 010-.81zm0 1.719c-.725 0-1.315-.59-1.315-1.315s.59-1.315 1.315-1.315 1.315.59 1.315 1.315-.59 1.315-1.315 1.315zm0-1.618a.303.303 0 100 .607.303.303 0 000-.607zm6.065-1.318a1.215 1.215 0 01-1.215-1.216v-3.231a1.215 1.215 0 112.43 0v3.236a1.216 1.216 0 01-1.215 1.21zm0-4.854a.405.405 0 00-.405.405v3.236a.405.405 0 00.81 0v-3.234a.405.405 0 00-.405-.405v-.002z"
 fill="currentColor"
 />
 <path
 d="M16.065 14.85c.67 0 1.213-.543 1.213-1.214v-3.235a1.213 1.213 0 10-2.427 0v3.235c0 .67.543 1.214 1.214 1.214zm0-4.854c.223 0 .404.181.404.405v3.235a.405.405 0 01-.809 0v-3.235c0-.224.181-.405.405-.405zm0 4.955c-.725 0-1.315-.59-1.315-1.315v-3.235c0-.725.59-1.315 1.315-1.315s1.314.59 1.314 1.315v3.235c0 .725-.59 1.315-1.314 1.315zm0-4.854a.304.304 0 00-.304.304v3.235a.304.304 0 00.607 0v-3.235a.304.304 0 00-.303-.303z"
 fill="currentColor"
 />
 </svg>