<svg
 viewBox="0 0 13 17"
 fill="none"
 xmlns="http://www.w3.org/2000/svg"
 >
 <path
 d="M12.995 3.592c0-.354.014-.713 0-1.067v-.012c0-.186-.126-.328-.294-.386l-2.08-.72C9.528 1.026 8.437.646 7.344.268 7.102.185 6.86.089 6.615.017 6.493-.02 6.41.009 6.303.045l-.375.13L2.79 1.262l-2.455.85-.04.015a.413.413 0 00-.294.386v3.71c0 .78-.002 1.561 0 2.342a5.96 5.96 0 00.338 1.954c.45 1.287 1.27 2.418 2.244 3.361a12.417 12.417 0 003.714 2.468l.026.012h.002c.02.008.042.016.062.022a.479.479 0 00.308-.032l.004-.002a12.384 12.384 0 003.347-2.13c1.001-.887 1.884-1.966 2.413-3.2a6.5 6.5 0 00.512-1.993c.032-.37.02-.744.02-1.117V3.592h.004zM10.052 6.05l-.498.499-2.16 2.16-1.365 1.365a.61.61 0 01-.85 0l-.276-.276-1.935-1.936c-.239-.238-.22-.608 0-.849.22-.238.626-.222.848 0 .093.092.185.187.277.279L5.6 8.803l.076-.076 2.16-2.162L9.202 5.2a.61.61 0 01.848 0c.24.22.224.628.002.85z"
 fill="currentColor"
 />
 </svg>