<svg xmlns="http://www.w3.org/2000/svg" viewBox="0 0 13.797 11.039">
 <defs>
 <clipPath id="00ydgnnb0a">
 <path data-name="Rectangle 2226" fill="currentColor" d="M0 0h13.797v11.039H0z"/>
 </clipPath>
 </defs>
 <g data-name="Group 4644" style="clip-path:url(#00ydgnnb0a)">
 <path data-name="Path 3093" d="M13.8 5.979v1.38a1.826 1.826 0 0 1-.459 1.205v1.554a.92.92 0 0 1-.92.92H11.5a.92.92 0 0 1-.92-.92V9.2H3.219v.92a.92.92 0 0 1-.92.92H1.38a.92.92 0 0 1-.92-.92V8.565A1.826 1.826 0 0 1 0 7.358V5.979a1.836 1.836 0 0 1 1.187-1.715l.323-.807.572-1.433A3.2 3.2 0 0 1 5.073 0h3.652a3.2 3.2 0 0 1 2.988 2.024l.572 1.433.323.807A1.835 1.835 0 0 1 13.8 5.979zm-10.12.916A1.769 1.769 0 0 0 2.3 5.519a.867.867 0 0 0-.92.917.867.867 0 0 0 .92.917c.552 0 1.38.092 1.38-.458zM3.219 4.14h7.36l-.572-1.433a1.381 1.381 0 0 0-1.282-.867H5.073a1.38 1.38 0 0 0-1.281.867zm9.2 2.3a.867.867 0 0 0-.92-.917 1.769 1.769 0 0 0-1.38 1.375c0 .55.828.458 1.38.458a.867.867 0 0 0 .92-.916z" fill="currentColor"/>
 </g>
</svg>