<svg xmlns="http://www.w3.org/2000/svg" viewBox="0 0 15.181 12.145">
 <path data-name="Path 2141" d="M16.026 26.887H3.881a.506.506 0 0 1 0-1.012h12.145a.506.506 0 0 1 0 1.012z" transform="translate(-2.363 -16.261)" fill="currentColor"/>
 <path data-name="Path 2142" d="M16.251 30.262H6.131a.506.506 0 1 1 0-1.012h10.12a.506.506 0 0 1 0 1.012z" transform="translate(-3.601 -18.118)" fill="currentColor"/>
 <path data-name="Path 2143" d="M1.631 19.125h-.506v1.518a1.012 1.012 0 0 0 1.012 1.012h1.518v-.506a2.026 2.026 0 0 0-2.024-2.024z" transform="translate(-1.125 -12.547)" fill="currentColor"/>
 <path data-name="Path 2144" d="M15.8 10.066h.506V8.042H15.8a3.04 3.04 0 0 1-3.036-3.036V4.5h-8.1v.506a3.04 3.04 0 0 1-3.033 3.036h-.506v2.024h.506A3.04 3.04 0 0 1 4.667 13.1v.506h8.1V13.1a3.04 3.04 0 0 1 3.033-3.034zM8.715 12.09a3.036 3.036 0 1 1 3.036-3.036 3.036 3.036 0 0 1-3.036 3.036z" fill="currentColor" transform="translate(-1.125 -4.5)"/>
 <path data-name="Path 2145" d="M17.548 12.149a2.024 2.024 0 1 1-2.024-2.024 2.024 2.024 0 0 1 2.024 2.024z" transform="translate(-7.934 -7.595)" fill="currentColor"/>
 <path data-name="Path 2146" d="M29.25 21.149v.506h1.518a1.012 1.012 0 0 0 1.012-1.012v-1.518h-.506a2.026 2.026 0 0 0-2.024 2.024z" transform="translate(-16.599 -12.547)" fill="currentColor"/>
 <path data-name="Path 2147" d="M31.274 7.03h.506V5.512A1.012 1.012 0 0 0 30.768 4.5H29.25v.506a2.026 2.026 0 0 0 2.024 2.024z" transform="translate(-16.599 -4.5)" fill="currentColor"/>
 <path data-name="Path 2148" d="M3.655 5.006V4.5H2.137a1.012 1.012 0 0 0-1.012 1.012V7.03h.506a2.026 2.026 0 0 0 2.024-2.024z" fill="currentColor" transform="translate(-1.125 -4.5)"/>
</svg>