<svg xmlns="http://www.w3.org/2000/svg" viewBox="0 0 31 10.5">
 <g data-name="Group 514">
 <path data-name="Path 2599" d="M30.183 38.464h-2.529l1.581-10.144h2.53z" transform="translate(-16.745 -28.139)" style="fill:#0055a5"/>
 <path data-name="Path 2600" d="M14.617 28.321 12.2 35.3l-.285-1.5-.851-4.561a1.1 1.1 0 0 0-1.2-.914H5.882l-.047.171a9.22 9.22 0 0 1 2.646 1.16l2.2 8.812h2.636l4.024-10.144z" transform="translate(-5.836 -28.139)" style="fill:#0055a5"/>
 <path data-name="Path 2601" d="M56.514 38.464h2.323l-2.025-10.143h-2.034a1.169 1.169 0 0 0-1.168.756l-3.772 9.388h2.636L53 36.958h3.216zm-2.783-3.588 1.329-3.8.748 3.8z" transform="translate(-27.837 -28.139)" style="fill:#0055a5"/>
 <path data-name="Path 2602" d="m43.032 30.578.361-2.179a7.036 7.036 0 0 0-2.275-.442c-1.255 0-4.236.573-4.236 3.358 0 2.621 3.5 2.653 3.5 4.029s-3.138 1.13-4.173.262l-.376 2.277a6.836 6.836 0 0 0 2.855.573c1.726 0 4.33-.934 4.33-3.473 0-2.637-3.53-2.883-3.53-4.029s2.461-.998 3.544-.376z" transform="translate(-20.833 -27.957)" style="fill:#0055a5"/>
 </g>
 <path data-name="Path 2603" d="m11.92 33.8-.851-4.561a1.1 1.1 0 0 0-1.2-.914H5.882l-.047.171A9.627 9.627 0 0 1 9.59 30.46a7.936 7.936 0 0 1 2.33 3.34z" transform="translate(-5.836 -28.139)" style="fill:#fc9220"/>
</svg>