<svg data-name="Group 7388" xmlns="http://www.w3.org/2000/svg" viewBox="0 0 36.436 36.579">
 <defs>
 <clipPath id="dg4t9huaxa">
 <path data-name="Rectangle 2402" fill="currentColor" d="M0 0h36.436v36.579H0z"/>
 </clipPath>
 </defs>
 <g data-name="Group 7387" style="clip-path:url(#dg4t9huaxa)">
 <path data-name="Path 3145" d="M34.9 12.258 9.147.25a2.663 2.663 0 0 0-3.54 1.288l-4.5 9.656a2.663 2.663 0 0 0 1.288 3.539l10.036 4.68V27.7a2.663 2.663 0 0 1-2.664 2.664H7.1v-3.55a.888.888 0 0 0-.888-.888H.888a.888.888 0 0 0-.888.888v8.878a.888.888 0 0 0 .888.888h5.327a.888.888 0 0 0 .888-.888V32.14h2.663a4.439 4.439 0 0 0 4.44-4.44v-7.458l3.477 1.621a2.664 2.664 0 0 0 3.54-1.288l.375-.8 6.437 3a.888.888 0 0 0 1.18-.429l2.538-5.446 1.026.386a2.663 2.663 0 0 0 3.351-1.367l.055-.119a2.663 2.663 0 0 0-1.288-3.54M5.327 34.8H1.776v-7.1h3.551zM27.98 20.787l-5.632-2.626 1.552-3.337a.888.888 0 0 1 1.117-.456l5.065 1.9zm6.6-5.741-.056.119a.888.888 0 0 1-1.117.456l-7.758-2.916a2.664 2.664 0 0 0-3.351 1.367l-2.682 5.752a.888.888 0 0 1-1.18.429l-4.571-2.131a.883.883 0 0 0-.361-.168l-10.36-4.829a.888.888 0 0 1-.43-1.18l4.5-9.656A.888.888 0 0 1 8.4 1.86l25.747 12.006a.888.888 0 0 1 .429 1.18" fill-rule="evenodd" fill="currentColor"/>
 <path data-name="Rectangle 2401" transform="rotate(-65 11.108 -3.255)" fill="currentColor" d="M0 0h1.776v7.103H0z"/>
 </g>
</svg>