<svg
 viewBox="0 0 14.381 13.504"
 xmlns="http://www.w3.org/2000/svg"
 >
 <g clip-path="url(#a)">
 <path
 fill="currentColor"
 d="M1.929 8.243A1.931 1.931 0 0 1 0 6.314V1.929A1.931 1.931 0 0 1 1.929 0h10.523a1.931 1.931 0 0 1 1.929 1.929v4.385a1.931 1.931 0 0 1-1.929 1.929zm0-6.577a.263.263 0 0 0-.263.263v4.385a.263.263 0 0 0 .263.263h10.53a.25.25 0 0 0 .189-.092.757.757 0 0 0-.7-.434H3.025a.833.833 0 1 1 0-1.666h8.922a2.524 2.524 0 0 1 .767.117V1.929a.263.263 0 0 0-.263-.263z"
 />
 <path
 fill="currentColor"
 d="M7.19 13.507a.824.824 0 0 1-.833-.833v-2.631a.833.833 0 1 1 1.666 0v2.631a.824.824 0 0 1-.833.833"
 />
 <path
 fill="currentColor"
 d="M10.04 12.847a.824.824 0 0 1-.833-.833V9.603a.833.833 0 0 1 1.666 0v2.411a.824.824 0 0 1-.833.833"
 />
 <path
 fill="currentColor"
 d="M4.341 12.847a.824.824 0 0 1-.833-.833V9.603a.833.833 0 1 1 1.666 0v2.411a.824.824 0 0 1-.833.833"
 />
 </g>
 </svg>