<svg xmlns="http://www.w3.org/2000/svg" viewBox="0 0 22.129 30">
 <path data-name="Path 1439" d="M11.069 0a11.051 11.051 0 0 0-2.2 21.885l1.456 3.655a.973.973 0 0 0 1.718-.063l1.272-3.6A11.051 11.051 0 0 0 11.073.002zm0 20.385a3.869 3.869 0 1 0 0-.01z"/>
 <path data-name="Path 1440" d="M19.893 28.544c0-.815-3.951-1.456-8.823-1.456-4.854 0-8.819.655-8.819 1.456S6.202 30 11.074 30s8.823-.66 8.823-1.456z"/>
 <path data-name="Path 1441" d="m6.128 5.373.087-.073z"/>
 <path data-name="Path 1442" d="M14.369 7.814c0-.17-.214-.233-.349-.306 0-.155.044-.034.034-.184a.261.261 0 0 0-.121 0c-.107.049-.049.063-.049.083s.112 0 0 .083a.18.18 0 0 1-.121.029c-.078-.1-.073-.155-.214-.16a.778.778 0 0 0-.16.252c-.049.141 0 .044 0 .2v.068c.117-.024.029-.024.112-.049a1.218 1.218 0 0 1 .393-.082c.145.066.286.198.475.066z"/>
 <path data-name="Path 1443" d="M14.952 8.144a.373.373 0 0 0 .359.092c0-.189-.039-.18-.1-.311a.286.286 0 0 1 .044-.039c.044-.053 0 .024.044-.073-.117-.039-.3-.155-.311-.306.053-.044.039 0 .078-.044s0 .029.073-.068c-.044-.087-.092-.1-.2-.058a1.126 1.126 0 0 0-.2.131.626.626 0 0 0 .257.432.9.9 0 0 0-.039.243z"/>
 <path data-name="Path 1444" d="M18.486 9.751a.913.913 0 0 1-.068-.151 1.442 1.442 0 0 1-.325.083c-.073.1 0 .058-.121.16a4.287 4.287 0 0 1-.4.388 2.6 2.6 0 0 1-.029.413c0 .078-.1.277-.2.262a2.036 2.036 0 0 1-.2-.422 3.717 3.717 0 0 1-.151-.447 1.335 1.335 0 0 0-.058-.34c-.1 0-.1.083-.2 0s-.039-.083-.078-.155l-.252-.213h-.422c-.189 0-.209 0-.32-.16-.2 0-.184.087-.379-.083s-.107-.281-.291-.184c0 .16.073.194.141.267s.112.1.141.17 0 .073 0 .083a.429.429 0 0 0 .325-.146c.1.092 0 .107.141.175s.092.024.16.117-.247.451-.34.51-.112 0-.175.073 0 .073-.16.136a2.179 2.179 0 0 1-.548.213c-.039-.112-.083-.223-.121-.34-.121-.388-.117-.238-.238-.437-.058-.087-.034-.146-.073-.223s-.068-.083-.107-.15-.121-.281-.247-.267a1.184 1.184 0 0 0 .155.451c.034.073.092.1.112.2s0 .126.073.218c.16.194 0 .16.243.354s.141.184.218.374c.121.034.485-.126.553-.078.073.131-.087.345-.131.461-.131.388-.369.379-.548.68a2.474 2.474 0 0 0-.238.374c-.1.218.209.82 0 1.073a3.8 3.8 0 0 0-.34.272c-.18.189 0 .155-.063.485-.053.073-.121.078-.184.131a1.26 1.26 0 0 1-.049.228c-.044.112-.049.049-.112.141a.914.914 0 0 1-.092.165.659.659 0 0 1-.117.116.97.97 0 0 1-.7.17c-.107-.087-.034-.112-.058-.238a1.154 1.154 0 0 0-.136-.291.9.9 0 0 1-.058-.121 3.184 3.184 0 0 0-.209-.762c-.189-.359.107-.548.1-.748a.769.769 0 0 0-.029-.131 1.138 1.138 0 0 0-.209-.6c-.165-.189-.141-.121-.087-.437s-.087-.267-.306-.277c-.107-.33-.315-.17-.519-.073-.131.058-.18 0-.325 0-.33.044-.073.184-.51-.165-.184-.146-.063-.068-.17-.252a2.6 2.6 0 0 0-.2-.218c-.165-.209.034-.417 0-.655-.053-.447-.126-.058.126-.6.126-.286.325-.286.379-.417s0-.194.092-.3.18-.068.218-.2-.053-.184-.175-.189c-.049-.17-.049-.126 0-.286s0-.131 0-.218c.049-.223.427 0 .539-.092a.268.268 0 0 0 0-.281c-.063-.087-.141-.078-.184-.165.092-.063.024 0 .107 0s.083-.049.194-.068.16-.112.257-.175.073-.165.238-.194c.267-.044.092-.039.121-.286l.121-.049c.083.107 0 .063.078.136l.087-.044c0-.121-.068-.1-.107-.247-.131 0-.18.136-.286.092s-.107-.184-.1-.311.228-.141.306-.165.1-.121.214-.233.039 0 .107-.184c.16 0 .087 0 .18-.058a.766.766 0 0 0 .2-.053.665.665 0 0 1 .568.034c.15.063.6.063.636.252-.112.117-.214.034-.369.044.029.146.039.146.17.184 0-.068 0-.044.029-.087h.131c.044-.146.092-.126.238-.141-.024-.107-.049-.078 0-.155.155 0 .029 0 .107.121.107 0 .209-.131.354-.146s.087.024.218 0 .1-.049.209 0c.039-.068 0-.068.092-.087a1.942 1.942 0 0 1 .408.083c-.1-.126-.2-.1-.073-.311.16-.034.175 0 .247.112.039 0 .053-.049.073-.058l-.029-.024-.184-.141-.035-.03-.16-.112-.049-.034a2.58 2.58 0 0 0-.194-.126l-.1-.136-.058-.034-.175-.1h-.029l-.223-.121-.058-.029-.165-.078h-.049l-.213-.117h-.058l-.165-.063h-.063l-.2-.126h-.039l-.2-.073h-.073l-.17-.073h-.034l-.223-.053h-.073l-.18-.039h-.058l-.228-.039h-.068l-.18-.024h-.903A7.5 7.5 0 0 0 6.215 5.3a.1.1 0 0 1 .029.058c-.121.029-.121.049-.17.053l-.083.078a.842.842 0 0 0 .291 0c.029-.058.049-.107.107-.131a.211.211 0 0 1 .083 0 .587.587 0 0 0 0 .087c.15-.087.024-.092.107-.252-.131 0-.112 0-.189-.092a.451.451 0 0 1 .335-.107c0 .078-.044.078 0 .146.087-.058.146-.2.286-.175l.087.053a.832.832 0 0 1-.277.112c-.039.417.136.068.078.354a.325.325 0 0 0 .243-.16c-.039-.049-.092-.049-.126-.112a.286.286 0 0 1 .15-.17.4.4 0 0 1 .175-.034c.767 0 .4.039.641.146.053.024.146.039.18.083s0 .146.078.2.078 0 .165.107a.16.16 0 0 1-.155.131c-.131 0-.053-.087-.194-.073 0 .131.131.184 0 .252s-.039 0-.117 0l-.039.044c-.194-.053-.155-.029-.272-.155-.044-.049-.049-.063-.126-.053a.235.235 0 0 1-.16-.024c.1-.117.141 0 .277-.073a1.431 1.431 0 0 0 .2-.155c-.044-.092 0 0-.068-.073-.136-.141-.175-.1-.354-.1-.087.1-.15.218-.243.272a.219.219 0 0 1-.214 0c.039.17.146.039.155.243-.068 0-.107-.049-.18-.024-.15.058 0 .053 0 .083s.073 0 0 .039 0 0-.165-.107l.068-.121a2.984 2.984 0 0 0-.432.175 2.011 2.011 0 0 0-.417.262c0 .146.024.049.039.218.223 0 .15.083.379.146a.975.975 0 0 0 .165.034c0 .112-.1.189-.029.3.155.112.16-.1.2-.238.534-.112.277-.267.413-.558a.533.533 0 0 1 .092-.141h.243c.121.024.058.053.184.107 0 .107-.053.243.1.218s.092-.117.233-.141a1.294 1.294 0 0 1 .078.4c.35.136.194.247.126.485l.136.058v.218l-.408.044c.058-.16.155-.16.223-.325-.131 0-.121.063-.214.092a.971.971 0 0 1-.238 0 .357.357 0 0 1 0 .044c0 .049.029 0 0 .058-.121-.058-.083-.189-.306-.068l.155.068c0 .146 0 .034-.049.136-.078.252.209.092.281.083 0 .131-.1.131-.214.17s-.17.087-.272.112c0-.155 0-.024.049-.136a.973.973 0 0 0-.272.1c-.126.049-.146.058-.16.214a.732.732 0 0 0-.3.15c-.078.068-.15.141-.223.214.024.2 0 .2-.121.277a1.42 1.42 0 0 0-.228.15c-.306.267-.16.141-.141.607l-.18-.058c-.049-.311 0-.209-.233-.281s-.233.053-.345.078-.184-.112-.359 0c-.1.068-.194.112-.218.233a1.449 1.449 0 0 0-.083.413c0 .432.413.456.51.252.068-.131.053-.209.272-.17a.484.484 0 0 1-.039.286c0 .053-.073.146-.049.218.155.063.165-.053.369.068 0 .209-.092.442.068.558s.126 0 .238 0 .1.053.209.073c.063-.078.039-.029.078-.126s.092-.083.262-.184l.049-.029.058.117c.126-.15.141 0 .286.034a.479.479 0 0 0 .141 0c.107 0 .117-.049.262 0a.164.164 0 0 0 .058 0c.024.029.024.053.044.083l.3.281c.189.078.189-.063.408.146.092.087.049.087.1.2a.069.069 0 0 0 .029.053c.029.02.044.1.063.155.1.126.233.049.374.18s0 .053.194.083c.272.049.165.024.374.18.078.058.1 0 .175.073a.364.364 0 0 1 0 .432c-.267.388-.18.325-.189.631 0 .18-.058.548-.228.592-.6.17-.252.286-.413.587-.044.083-.078.107-.107.17-.121.286-.034.379-.393.315l.044.073c.107.165.126.286-.092.33s-.1 0-.121.2c-.068.029-.1 0-.146.049.063.112 0 0 .112.083a.7.7 0 0 1-.053.189c-.039.15-.053 0-.068.184.063.029.107.024.165.1s-.068.214-.083.306c.087.131.16.277.35.291 0 .112.024.1-.073.121a.682.682 0 0 1-.325-.1.865.865 0 0 1-.325-.282.889.889 0 0 0-.082-.107c-.087-.117-.053-.17-.078-.252a.292.292 0 0 1-.058-.248c0-.039.073-.243 0-.209s.063 0-.049.073a1.4 1.4 0 0 1-.063-.272c-.029-.15-.068-.155-.083-.252-.039-.214.053-.238-.049-.592-.063-.238-.039-.8-.107-1.082a.448.448 0 0 0-.044-.117c-.063-.107-.223-.155-.35-.243-.18-.121-.345-.607-.485-.791-.063-.087-.107-.049-.136-.184s0-.1.058-.209c-.214-.393.281-.388.18-.859a.555.555 0 0 0-.141-.247c-.1.044-.053.068-.107.155l-.243-.141c-.247-.238-.117-.063-.184-.223-.15-.325-.291-.141-.485-.306-.078-.068-.092-.175-.228-.155s-.087.058-.3-.039a2 2 0 0 1-.485-.291c0-.233.063-.209-.112-.427a7.477 7.477 0 0 0-.18 1.626v.31a1.975 1.975 0 0 0 0 .243v.262a.219.219 0 0 0 0 .053l.029.223v.024a1.458 1.458 0 0 0 .039.247v.044l.044.218v.034l.058.243v.034l.058.214v.039c.024.083.049.16.078.238s0 0 0 .024.053.141.078.214v.039c.029.078.063.155.1.233s.063.146.1.218v.039c.073.15.146.3.228.442v.034q.121.218.262.422v.029c.092.141.189.277.291.413.049.068.1.131.15.194l.17.2.165.184a8.085 8.085 0 0 0 .757.699c.131.107.272.209.413.306s.286.189.432.277.3.17.456.247a7.538 7.538 0 0 0 11.144-6.562 7.207 7.207 0 0 0-.117-1.305zm-7.344-3.48c0 .044.039.087.063.131.029.117-.068 0 .029.165l.218.262c-.049.136-.044.146-.175.16s-.194.029-.262.029c.024-.175-.024-.083 0-.184s.053-.029.092-.141c-.087-.136-.18-.044-.175-.315a.359.359 0 0 1 .21-.107zm3.965 6.965c-.039.107-.073.238-.112.35s-.16.67-.369.485a.431.431 0 0 1 0-.379c.131-.238 0-.184.058-.364s.146-.112.233-.189.1-.194.2-.247a.33.33 0 0 1-.015.325zm3.368-3.567v.063a.307.307 0 0 0 .001-.064z"/>
</svg>