<svg xmlns="http://www.w3.org/2000/svg" viewBox="0 0 14 13.976">
 <defs>
 <clipPath id="clip-path">
 <path id="Rectangle_788" data-name="Rectangle 788" class="cls-1" d="M0 0h14v13.976H0z"/>
 </clipPath>
 <style>
 .cls-1{fill:#3f536c}
 </style>
 </defs>
 <g id="sss">
 <g id="Group_1177" data-name="Group 1177" style="clip-path:url(#clip-path)">
 <path id="Path_598" data-name="Path 598" class="cls-1" d="M8.845 10.908a4.847 4.847 0 0 0 3.5-1.239 4.574 4.574 0 0 0 1.6-3.01 17.523 17.523 0 0 0 .038-2.065 4.049 4.049 0 0 0-.373-1.624A4.748 4.748 0 0 0 9.1.015 67.081 67.081 0 0 0 6.263.013a12.808 12.808 0 0 0-1.928.062A4.782 4.782 0 0 0 .264 3.562a6.869 6.869 0 0 0-.14 3.22 4.757 4.757 0 0 0 3.31 3.882 9.964 9.964 0 0 0 .98.249v.14c0 .664-.007 1.329 0 1.992a1.075 1.075 0 0 0 .113.483.856.856 0 0 0 1.413.14c.781-.83 1.564-1.663 2.33-2.506a.668.668 0 0 1 .575-.255m-2.1-3.657A.67.67 0 0 1 7 8.564l-.06.013h-.122c-.035-.008-.071-.014-.106-.024a.666.666 0 0 1 .036-1.3zm.673-1.4c-.025.066-.053.13-.078.2a.452.452 0 0 1-.42.3.585.585 0 0 1-.305-.05.5.5 0 0 1-.273-.371.86.86 0 0 1 .14-.64 1.77 1.77 0 0 1 .379-.4c.158-.129.321-.252.477-.381a1.271 1.271 0 0 0 .33-.377.7.7 0 0 0-.084-.784.653.653 0 0 0-.356-.2 1.156 1.156 0 0 0-.56.01.683.683 0 0 0-.435.363c-.056.1-.106.214-.16.321a.757.757 0 0 1-.154.22.528.528 0 0 1-.409.132.54.54 0 0 1-.258-.07.442.442 0 0 1-.237-.4 1.162 1.162 0 0 1 .245-.736 1.852 1.852 0 0 1 .732-.587 2.206 2.206 0 0 1 .686-.2c.045 0 .09-.008.14-.013h.239l.13.011a2.53 2.53 0 0 1 .934.239 1.549 1.549 0 0 1 .641.547 1.426 1.426 0 0 1 .218.626 1.419 1.419 0 0 1-.042.574 1.5 1.5 0 0 1-.354.589 4.063 4.063 0 0 1-.6.5c-.115.083-.228.169-.34.256a.709.709 0 0 0-.22.322z"/>
 </g>
 </g>
</svg>