<svg xmlns="http://www.w3.org/2000/svg" viewBox="0 0 33.598 19.204">
 <defs>
 <clipPath id="dxpkn5aoza">
 <path data-name="Rectangle 2097" fill="currentColor" d="M0 0h33.598v19.204H0z"/>
 </clipPath>
 </defs>
 <g data-name="Group 3318" style="clip-path:url(#dxpkn5aoza)">
 <path data-name="Path 1981" d="M392.494 170.269a1.116 1.116 0 0 0-1.567 0l-1.958 1.958-1.958-1.958a1.117 1.117 0 1 0-1.567 1.567l1.958 1.958-1.958 1.958a1.117 1.117 0 1 0 1.567 1.567l1.958-1.958 1.958 1.958a1.117 1.117 0 1 0 1.567-1.567l-1.958-1.958 1.958-1.958a1.116 1.116 0 0 0 0-1.567z" transform="translate(-359.415 -158.547)" fill="currentColor"/>
 <path data-name="Path 1982" d="M3.008 22.94h18.455a3.231 3.231 0 0 1 3.008 3.006 3.007 3.007 0 0 1-3.008 3.006H3.008A3.231 3.231 0 0 1 0 25.946a3.007 3.007 0 0 1 3.008-3.006z" transform="translate(0 -21.415)" fill="currentColor"/>
 <path data-name="Path 1983" d="M21.463 183.88H3.008a3.008 3.008 0 0 0 0 6.016h18.455a3.008 3.008 0 1 0 0-6.016" transform="translate(0 -171.655)" fill="currentColor"/>
 <path data-name="Path 1984" d="M389.187 8.39a1.117 1.117 0 0 0 1.9 0l3.995-6.567a1.117 1.117 0 1 0-1.9-1.139l-3.049 5-.644-1.065a1.117 1.117 0 0 0-1.895 1.154z" transform="translate(-361.731)" fill="currentColor"/>
 </g>
</svg>