<svg
 viewBox="0 0 18.615 11.456"
 xmlns="http://www.w3.org/2000/svg"
 >
 <g clip-path="url(#a)">
 <path
 fill="currentColor"
 d="M8.591 4.654a.716.716 0 0 1-.715.716H6.443v5.33a.743.743 0 0 1-.6.745.716.716 0 0 1-.836-.706V8.592H3.579v2.148a.716.716 0 0 1-.836.706.743.743 0 0 1-.6-.745V5.369H.716a.716.716 0 1 1 0-1.431h2.393a2.148 2.148 0 1 1 2.373 0h2.394a.716.716 0 0 1 .716.716zm8.309-.716h-2.4a2.148 2.148 0 1 0-2.373 0H9.739a.716.716 0 0 0 0 1.432h1.432L9.9 9.194a.358.358 0 0 0 .34.471h.935V10.7a.743.743 0 0 0 .6.745.717.717 0 0 0 .836-.706V9.666h1.431v1.074a.717.717 0 0 0 .836.706.743.743 0 0 0 .6-.745V9.666h.922a.358.358 0 0 0 .34-.471L15.466 5.37H16.9a.716.716 0 1 0 0-1.432z"
 />
 </g>
 </svg>