<svg xmlns="http://www.w3.org/2000/svg" viewBox="0 0 19.858 15.919">
 <g data-name="Group 4852">
 <g data-name="Group 4843">
 <g data-name="Group 4841">
 <path data-name="Path 2064" d="M2.25 21.353a2.089 2.089 0 0 0 2.089 2.089H16.87a2.089 2.089 0 0 0 2.089-2.089v-5.744H2.25zm2.462-2.835A1.119 1.119 0 0 1 5.83 17.4h1.79a1.119 1.119 0 0 1 1.119 1.119v.746a1.119 1.119 0 0 1-1.119 1.118H5.83a1.119 1.119 0 0 1-1.119-1.119z" transform="translate(-2.25 -10.314)" fill="currentColor"/>
 <path data-name="Path 2065" d="M16.87 5.625H4.339A2.089 2.089 0 0 0 2.25 7.714v.97h16.708v-.97a2.089 2.089 0 0 0-2.089-2.089z" transform="translate(-2.25 -5.625)" fill="currentColor"/>
 </g>
 <g stroke-linejoin="round" fill="currentColor">
 <path d="M6.103 9.706A3.607 3.607 0 0 1 2.5 6.103 3.607 3.607 0 0 1 6.103 2.5a3.607 3.607 0 0 1 3.603 3.603 3.607 3.607 0 0 1-3.603 3.603z" stroke="none" transform="translate(9.651 5.713)"/>
 <path d="M6.103 3a3.103 3.103 0 1 0 0 6.206 3.103 3.103 0 0 0 0-6.206m1.552 3.413H6.413v1.242h-.62V6.413H4.552v-.62h1.24V4.552h.621v1.24h1.242v.621M6.103 2a4.108 4.108 0 0 1 4.103 4.103 4.108 4.108 0 0 1-4.103 4.103A4.108 4.108 0 0 1 2 6.103 4.108 4.108 0 0 1 6.103 2z" fill="currentColor" stroke="none" transform="translate(9.651 5.713)"/>
 </g>
 </g>
 </g>
</svg>