<svg data-name="Group 5536" xmlns="http://www.w3.org/2000/svg" viewBox="0 0 16.501 16.463">
 <path d="M8.251.174a7.95 7.95 0 0 1 5.835 2.415A7.928 7.928 0 0 1 16.5 8.405a7.928 7.928 0 0 1-2.415 5.816 7.95 7.95 0 0 1-5.835 2.415 7.95 7.95 0 0 1-5.835-2.415A7.93 7.93 0 0 1 0 8.405a7.926 7.926 0 0 1 2.415-5.816A7.952 7.952 0 0 1 8.251.174zm0 14.84a6.347 6.347 0 0 0 4.657-1.932 6.369 6.369 0 0 0 1.932-4.677 6.369 6.369 0 0 0-1.932-4.675A6.347 6.347 0 0 0 8.251 1.8a6.347 6.347 0 0 0-4.657 1.93 6.369 6.369 0 0 0-1.932 4.675 6.369 6.369 0 0 0 1.932 4.676 6.347 6.347 0 0 0 4.657 1.933zM8.657 4.27V8.6l3.71 2.2-.618 1.043L7.42 9.217V4.27h1.237z" transform="translate(0 -.174)" fill="currentColor"/>
</svg>