<svg
 viewBox="0 0 12 12"
 fill="currentColor"
 xmlns="http://www.w3.org/2000/svg"
 >
 <path
 d="M5.989 0l.142.003A3.431 3.431 0 017.84.549c.517.332.947.798 1.249 1.354l.05.097.1.024c.519.129 1.004.38 1.42.733.415.353.752.801.983 1.31l.06.137a4.011 4.011 0 01-.277 3.585c-.32.527-.76.96-1.277 1.263a3.416 3.416 0 01-1.689.471h-.081l-.02.03a2.996 2.996 0 01-1.38 1.07 2.806 2.806 0 01-1.704.086l-.105-.03-1.94 1.236a.542.542 0 01-.753-.17.622.622 0 01-.1-.276l-.003-.069V9.94l-.03-.016a2.138 2.138 0 01-.879-.9l-.057-.119c-.18-.4-.24-.847-.177-1.284l.022-.126-.066-.055A3.499 3.499 0 01.15 5.8a3.688 3.688 0 01-.03-1.975l.04-.143A3.48 3.48 0 011.33 1.96a3.153 3.153 0 011.892-.68h.089l.085-.1A3.487 3.487 0 015.842.004L5.989 0zm.903 6.6H4.068a.549.549 0 00-.4.176.62.62 0 00-.165.424c0 .16.06.312.165.424.106.113.25.176.4.176h2.824c.15 0 .294-.063.4-.176a.62.62 0 00.165-.424.62.62 0 00-.165-.424.549.549 0 00-.4-.176zm1.695-2.4H2.938a.549.549 0 00-.4.176.62.62 0 00-.165.424c0 .16.06.312.166.424.106.113.25.176.4.176h5.648c.15 0 .294-.063.4-.176a.62.62 0 00.165-.424.62.62 0 00-.166-.424.549.549 0 00-.399-.176z"
 fill="currentColor"
 />
 </svg>