<svg xmlns="http://www.w3.org/2000/svg" viewBox="0 0 18.958 16.967">
 <defs>
 <clipPath id="mit3fqnjwa">
 <path data-name="Rectangle 1757" fill="currentColor" d="M0 0h18.958v16.967H0z"/>
 </clipPath>
 </defs>
 <g data-name="Group 1888" style="clip-path:url(#mit3fqnjwa)">
 <path data-name="Path 1445" d="M212.5 24.119a.5.5 0 0 0 .281.562.5.5 0 0 0 .212.048.5.5 0 0 0 .392-.2c1.609-2.052.636-3.073.594-3.112a.265.265 0 0 0-.363 0l-1.193 1.193a.265.265 0 0 0-.042.308 1.888 1.888 0 0 1 .119 1.2m1.238-2.092c.109.331.13 1.031-.726 2.15a2.471 2.471 0 0 0-.1-1.325z" transform="translate(-205.918 -20.701)" fill="currentColor"/>
 <path data-name="Path 1446" d="M285.008 89.1v-.011a.976.976 0 0 0 .692-1.668 1 1 0 0 0-1.384 0 .975.975 0 0 0 .692 1.678m-.369-1.259a.464.464 0 0 1 .369-.181.456.456 0 0 1 .326.135.464.464 0 1 1-.695.046" transform="translate(-275.412 -84.509)" fill="currentColor"/>
 <path data-name="Path 1447" d="M427.323 283.874a.5.5 0 0 0 .414.885 1.912 1.912 0 0 1 1.2.119.242.242 0 0 0 .127.035.266.266 0 0 0 .18-.077l1.193-1.193a.265.265 0 0 0 0-.363c-.04-.042-1.058-1.015-3.112.594m1.681.474a2.4 2.4 0 0 0-.84-.148 2.453 2.453 0 0 0-.49.048c1.127-.869 1.821-.843 2.155-.732z" transform="translate(-414.188 -274.377)" fill="currentColor"/>
 <path data-name="Path 1448" d="M308.391 1.061a1.856 1.856 0 0 1 1.015.676.265.265 0 0 0 .217.119.269.269 0 0 0 .074 0l1.615-.493a.265.265 0 0 0 .172-.321c-.016-.058-.453-1.4-3.043-.949a.493.493 0 0 0-.411.464.493.493 0 0 0 .361.5m.209-.468c1.405-.231 2 .122 2.243.376l-1.127.339A2.471 2.471 0 0 0 308.6.589z" transform="translate(-298.697)" fill="currentColor"/>
 <path data-name="Path 1449" d="M499.259 137.564a.255.255 0 0 0-.321.172l-.485 1.615a.265.265 0 0 0 .119.292 1.856 1.856 0 0 1 .676 1.013.493.493 0 0 0 .475.363h.021a.494.494 0 0 0 .464-.411c.453-2.59-.891-3.028-.949-3.043m.461 2.884a2.491 2.491 0 0 0-.716-1.116l.337-1.124c.254.247.607.851.379 2.24" transform="translate(-483.344 -133.385)" fill="currentColor"/>
 <path data-name="Path 1450" d="M410.072 211.112a.978.978 0 1 0-.5 1.824.978.978 0 0 0 .5-1.824m-.175 1.179a.474.474 0 0 1-.655 0 .467.467 0 1 1 .655 0" transform="translate(-396.222 -204.587)" fill="currentColor"/>
 <path data-name="Path 1451" d="M5.211 105.644a1.044 1.044 0 0 0-1.511 1.434L.081 117.391a1.291 1.291 0 0 0 1.2 1.742 1.266 1.266 0 0 0 .451-.082l10.317-3.614a1.031 1.031 0 0 0 .7.266 1.044 1.044 0 0 0 .74-1.781zm4.934 9.911-.072-.134a5.009 5.009 0 0 0-2.5-2.712 5.3 5.3 0 0 0-1.044-.265H6.5a2.316 2.316 0 0 1-.83-.231 2.257 2.257 0 0 1-.61-1.2 6.474 6.474 0 0 0-.53-1.326 3.466 3.466 0 0 0-.852-.983l.425-1.212 7.539 7.539zm-1.347.473a3.9 3.9 0 0 0-1.734-2.009 3.964 3.964 0 0 0-.8-.188 3.339 3.339 0 0 1-1.384-.432 3.355 3.355 0 0 1-1.174-1.954 5.3 5.3 0 0 0-.414-1.06 1.831 1.831 0 0 0-.138-.2l.337-.962a2.917 2.917 0 0 1 .586.722 6.03 6.03 0 0 1 .49 1.225 2.588 2.588 0 0 0 .816 1.477 2.654 2.654 0 0 0 1.029.31h.027a4.637 4.637 0 0 1 .944.228 4.706 4.706 0 0 1 2.235 2.484l.034.061zm-2.1.739a4.007 4.007 0 0 0-1.743-1.441 5.178 5.178 0 0 0-1.044-.265H3.88a2.3 2.3 0 0 1-.83-.231 2.3 2.3 0 0 1-.61-1.2v-.03a9.786 9.786 0 0 0-.237-.7l.732-2.086a5.157 5.157 0 0 1 .292.775 3.805 3.805 0 0 0 1.379 2.227 3.836 3.836 0 0 0 1.591.53 3.531 3.531 0 0 1 .695.159A3.449 3.449 0 0 1 8.3 116.2zm-1.389.488a2.279 2.279 0 0 0-.857-.624 3.94 3.94 0 0 0-.8-.186A3.406 3.406 0 0 1 2.271 116a2.413 2.413 0 0 1-.811-.975l.473-1.347.023.074v.029a2.616 2.616 0 0 0 .814 1.477 2.609 2.609 0 0 0 1.031.31h.027a5 5 0 0 1 .944.225 3.491 3.491 0 0 1 1.452 1.142zm-3.741 1.314a.756.756 0 0 1-.819-.18.753.753 0 0 1-.178-.822l.668-1.9a2.932 2.932 0 0 0 .748.754 3.852 3.852 0 0 0 1.591.53 3.607 3.607 0 0 1 .7.159 1.814 1.814 0 0 1 .509.332zm11.558-3.534a.53.53 0 0 1-.748 0l-.045-.045a.264.264 0 0 0-.06-.06L4.1 106.758a.53.53 0 1 1 .75-.748l8.274 8.274a.53.53 0 0 1 0 .75" transform="translate(0 -102.165)" fill="currentColor"/>
 <path data-name="Path 1452" d="M316.027 81a2.924 2.924 0 0 0-2.839 2.065.256.256 0 0 0 .247.326h1.673a.265.265 0 0 0 .247-.257 2.373 2.373 0 0 1 .862-1.62h.055a2.908 2.908 0 0 0 2.776-2.07.256.256 0 0 0-.247-.326h-1.659a.265.265 0 0 0-.265.265 2.376 2.376 0 0 1-.85 1.617m-1.155 1.877h-1.06a2.328 2.328 0 0 1 1.657-1.325 2.667 2.667 0 0 0-.6 1.326m2.5-3.24h1.055a2.317 2.317 0 0 1-1.649 1.326 2.651 2.651 0 0 0 .594-1.326" transform="translate(-303.691 -76.719)" fill="currentColor"/>
 </g>
</svg>