<svg xmlns="http://www.w3.org/2000/svg" viewBox="0 0 9.881 7.764">
 <path data-name="Path 2064" d="M2.25 19.006a1.235 1.235 0 0 0 1.235 1.235H10.9a1.235 1.235 0 0 0 1.235-1.235v-3.4H2.25zm1.456-1.676a.662.662 0 0 1 .662-.662h1.058a.662.662 0 0 1 .662.662v.441a.662.662 0 0 1-.662.662H4.367a.662.662 0 0 1-.662-.662z" transform="translate(-2.25 -12.477)" fill="currentColor"/>
 <path data-name="Path 2065" d="M10.9 5.625H3.485A1.235 1.235 0 0 0 2.25 6.86v.573h9.881V6.86A1.235 1.235 0 0 0 10.9 5.625z" transform="translate(-2.25 -5.625)" fill="currentColor"/>
</svg>