<svg
 xmlns="http://www.w3.org/2000/svg"
 viewBox="0 0 9.539 11.448"
 >
 <g
 fill="currentColor"
 clip-path="url(#a)"
 >
 <path
 d="m1.823 2.859-.616-.614a.7.7 0 0 0-1 .007.723.723 0 0 0 .007 1.013l.607.605a4.9 4.9 0 0 1 1.005-1.011z"
 />
 <path
 d="M4.103 1.554v.355a4.817 4.817 0 0 1 .628-.05h.073a5.282 5.282 0 0 1 .632.041v-.346a.462.462 0 0 1 .459-.465h.523V0h-3.3v1.089h.523a.462.462 0 0 1 .459.466z"
 />
 <path
 d="M7.26 3.055a4.45 4.45 0 0 0-2.456-.731h-.068a4.507 4.507 0 0 0-3.693 2.029 4.573 4.573 0 0 0 3.732 7.093h.032a4.57 4.57 0 0 0 2.456-8.392zm-1 4.974a.235.235 0 0 1-.327 0l-.546-.552-.741-.711a.2.2 0 0 1-.036-.05.2.2 0 0 0-.017-.028.14.14 0 0 0-.007-.03.269.269 0 0 1-.011-.06v-2.9a.23.23 0 1 1 .459 0v2.8l.675.644.552.557a.238.238 0 0 1 0 .33z"
 />
 <path
 d="M9.336 2.248a.723.723 0 0 0-1 0l-.591.589a5.026 5.026 0 0 1 1.014 1l.573-.571a.726.726 0 0 0 .007-1.016z"
 />
 </g>
 </svg>