<svg viewBox="0 0 25.094 18.162"
 xmlns="http://www.w3.org/2000/svg"
 >
 <defs>
 <clipPath id="a">
 <path
 fill="currentColor"
 d="M0 0h25.094v18.162H0z"
 />
 </clipPath>
 </defs>
 <g
 clip-path="url(#a)"
 >
 <path
 d="M47.058 4.969v-.017l-.639-3.244h.655a.837.837 0 0 0 .728-.427.866.866 0 0 0 0-.854.838.838 0 0 0-.728-.427h-3.36a.838.838 0 0 0-.728.427.866.866 0 0 0 0 .854.837.837 0 0 0 .728.427h.992l.643 3.265H35.286a.817.817 0 0 0-.061-.231l-.84-1.707a.834.834 0 0 0-1.448-.085.865.865 0 0 0-.055.848l.661 1.344a1.036 1.036 0 0 0-.5.879v1.043h17.741l.516-2.1z"
 transform="translate(-31.221)"
 fill="currentColor"
 />
 <path
 d="M35.542 171.852H16.249a1.023 1.023 0 0 0-.728.307 1.057 1.057 0 0 0-.3.74v1.048h19.806z"
 transform="translate(-14.487 -163.468)"
 fill="currentColor"
 />
 <path
 d="M21.4 243.478h-20a.832.832 0 0 0-.556.214.858.858 0 0 0-.278.534L.007 248.8a.864.864 0 0 0 .2.672.835.835 0 0 0 .631.288h17.725a.833.833 0 0 0 .594-.25l5.938-6.034zm-14.431 4.189H5.94a1.022 1.022 0 0 1-.748-.3 1.059 1.059 0 0 1 0-1.5 1.022 1.022 0 0 1 .748-.3h1.029a1.022 1.022 0 0 1 .748.3 1.059 1.059 0 0 1 0 1.5 1.022 1.022 0 0 1-.748.3zm5.153 0h-1.031a1.022 1.022 0 0 1-.748-.3 1.059 1.059 0 0 1 0-1.5 1.022 1.022 0 0 1 .748-.3h1.031a1.021 1.021 0 0 1 .748.3 1.059 1.059 0 0 1 0 1.5 1.022 1.022 0 0 1-.748.3m5.153 0h-1.031a1.029 1.029 0 0 1-.868-.532 1.063 1.063 0 0 1 0-1.03 1.029 1.029 0 0 1 .868-.532h1.031a1.021 1.021 0 0 1 .748.3 1.059 1.059 0 0 1 0 1.5 1.022 1.022 0 0 1-.748.3z"
 transform="translate(-.001 -231.6)"
 fill="currentColor"
 />
 </g>
 </svg>