<svg viewBox="0 0 18 12"
 xmlns="http://www.w3.org/2000/svg"
 >
 <path
 transform="translate(9.01 17.553)"
 fill="currentColor"
 d="M0 0h2.728v.226H0z"
 />
 <g>
 <g>
 <path
 d="M466.31 251.8v.045l.024.005-.025-.05"
 transform="translate(-445.714 -240.674)"
 fill="currentColor"
 />
 <path
 d="M3.569 13.023v10.591a1.12 1.12 0 0 0 2.24 0v-8.176h.42v8.176a1.12 1.12 0 0 0 2.24 0V10.033a3.922 3.922 0 0 1 .161.384A11.2 11.2 0 0 1 9.1 14.1c0 .5-.016 1.048-.051 1.651a.725.725 0 0 0 .681.766h.043a.725.725 0 0 0 .723-.682c.037-.628.054-1.2.054-1.735 0-2.734-.44-4.247-1.036-5.156a2.56 2.56 0 0 0-.967-.9 1.727 1.727 0 0 0-.747-.198h-.457L7.12 9.585l-.883-1.064.61-.676H5.189l.61.676-.883 1.064-.222-1.74h-.425a.684.684 0 0 0-.08 0c-.321 0-.65.023-.97.032h-.268a2.528 2.528 0 0 1-1.174-.2.539.539 0 0 1-.222-.223 1.153 1.153 0 0 1-.105-.534 4.583 4.583 0 0 1 .235-1.29.725.725 0 0 0-.482-.9h-.015V2.834a1.058 1.058 0 0 1 1.585-.359C5.163 3.9 5.309.573 5.309.573A2 2 0 0 1 3.15.453 1.734 1.734 0 0 0 1.188.291V0H.856v4.708a.724.724 0 0 0-.557.5A5.964 5.964 0 0 0 0 6.92a2.584 2.584 0 0 0 .275 1.225A2.1 2.1 0 0 0 1.53 9.153a4.66 4.66 0 0 0 1.421.182h.075c.187 0 .37-.008.543-.014v3.7z"
 transform="translate(-.001)"
 fill="currentColor"
 />
 <path
 d="M92.47 77.69a2.027 2.027 0 1 0-.332.027 2.038 2.038 0 0 0 .332-.027z"
 transform="translate(-86.12 -70.389)"
 fill="currentColor"
 />
 <path
 d="M263.9 210.541a4.152 4.152 0 0 0-.55-1.881 1.488 1.488 0 0 0-.562-.524 1 1 0 0 0-.444-.113h-.37a7.981 7.981 0 0 1 .209 1.822c0 .29-.016.52-.03.67v.967h-1.667v-.966a7.218 7.218 0 0 1-.03-.671 7.97 7.97 0 0 1 .209-1.822h-.37a1 1 0 0 0-.444.112 1.777 1.777 0 0 0-.8.992 6.969 6.969 0 0 0-.362 2.529c0 .308.01.644.032 1.009a.421.421 0 0 0 .42.4h.025a.421.421 0 0 0 .4-.445c-.021-.35-.03-.669-.03-.959a5.584 5.584 0 0 1 .367-2.364v7.9a.651.651 0 0 0 1.3 0v-4.752h.244v4.752a.651.651 0 0 0 1.3 0V209.3a2.211 2.211 0 0 1 .094.223 6.515 6.515 0 0 1 .273 2.139c0 .29-.01.609-.03.959a.42.42 0 0 0 .185.372 6.146 6.146 0 0 1 .357-1.914 2.6 2.6 0 0 1 .278-.533z"
 transform="translate(-247.264 -198.835)"
 fill="currentColor"
 />
 <path
 d="M302.32 209.847c0 .241.011.44.023.584h1.365c.012-.144.023-.342.023-.584a7.824 7.824 0 0 0-.214-1.822h-.983a7.821 7.821 0 0 0-.214 1.822z"
 transform="translate(-288.967 -198.837)"
 fill="currentColor"
 />
 <path
 d="M293.842 148.783a1.184 1.184 0 1 1-1.184-1.184 1.184 1.184 0 0 1 1.184 1.184"
 transform="translate(-278.599 -141.08)"
 fill="currentColor"
 />
 <path
 d="M312.146 268.648a.3.3 0 1 1-.3-.3.3.3 0 0 1 .3.3"
 transform="translate(-297.793 -256.499)"
 fill="currentColor"
 />
 <path
 d="M399.366 193.734h1.619a1.184 1.184 0 1 0 .024 1.211h-1.643v-1.211z"
 transform="translate(-381.182 -184.643)"
 fill="currentColor"
 />
 <path
 d="M427.86 212.512a.325.325 0 1 1-.325-.325.325.325 0 0 1 .325.325"
 transform="translate(-408.342 -202.815)"
 fill="currentColor"
 />
 <path
 d="M371.61 210.881a1.97 1.97 0 0 0-.265-.861 9.737 9.737 0 0 0-.791-1.237.421.421 0 0 0-.681.5 8.953 8.953 0 0 1 .722 1.125 1.9 1.9 0 0 1 .157.384 2.857 2.857 0 0 1-.5-.084c-.1-.023-.2-.048-.3-.068a1.783 1.783 0 0 0-.247-.036.415.415 0 0 0-.041 0h-2.041a1 1 0 0 0-.444.113 1.777 1.777 0 0 0-.8.992 6.968 6.968 0 0 0-.362 2.529c0 .309.01.644.031 1.009a.421.421 0 0 0 .42.4h.025a.421.421 0 0 0 .4-.445c-.021-.35-.03-.669-.03-.959a5.59 5.59 0 0 1 .367-2.364v7.9a.651.651 0 1 0 1.3 0v-4.769h.244v4.752a.651.651 0 0 0 1.3 0v-8.235l.154.034a2.731 2.731 0 0 0 .546.069.927.927 0 0 0 .534-.144.678.678 0 0 0 .228-.267.784.784 0 0 0 .072-.338z"
 transform="translate(-349.854 -199.396)"
 fill="currentColor"
 />
 </g>
 </g>
 </svg>