<svg id="Group_1672" data-name="Group 1672" xmlns="http://www.w3.org/2000/svg" viewBox="0 0 17.917 22.5">
 <defs>
 <clipPath id="clip-path">
 <path id="Rectangle_1831" data-name="Rectangle 1831" class="cls-1" d="M0 0h17.917v22.5H0z"/>
 </clipPath>
 <style>
 .cls-1{fill:#6f7e90}
 </style>
 </defs>
 <g id="Group_1671" data-name="Group 1671" style="clip-path:url(#clip-path)">
 <path id="Path_1598" data-name="Path 1598" class="cls-1" d="M3.276 6.553A3.277 3.277 0 1 0 0 3.276a3.28 3.28 0 0 0 3.276 3.277m0-5.244a1.968 1.968 0 1 1-1.392.577 1.97 1.97 0 0 1 1.392-.577"/>
 <path id="Path_1599" data-name="Path 1599" class="cls-1" d="M7.245 13.59h-.86V9.745a3.193 3.193 0 1 0-6.385 0V14.9a3.154 3.154 0 0 0 1.855 2.892 2.238 2.238 0 0 0 1.333.438h1.654v2.013A2.26 2.26 0 0 0 7.1 22.5h.123a2.262 2.262 0 0 0 2.259-2.259V16.29a2.215 2.215 0 0 0 .024-.319v-.122a2.261 2.261 0 0 0-2.261-2.259m-4.057 3.33a.972.972 0 0 1-.6-.217l-.121-.069A1.884 1.884 0 0 1 1.309 14.9V9.745a1.884 1.884 0 1 1 3.767 0V14.9h2.169a.951.951 0 0 1 .949.95v.122a1.647 1.647 0 0 1-.019.2v4.074a.95.95 0 0 1-.95.949H7.1a.95.95 0 0 1-.948-.949V16.92z"/>
 <path id="Path_1600" data-name="Path 1600" class="cls-1" d="m17.352 2.434-.038-.034a1.915 1.915 0 0 0-1.326-.529h-5.245A1.933 1.933 0 0 0 8.812 3.8v6.155a1.934 1.934 0 0 0 1.931 1.931h5.244a1.932 1.932 0 0 0 1.93-1.931V3.8a1.913 1.913 0 0 0-.565-1.364M10.121 3.8a.623.623 0 0 1 .622-.622h5.244a.622.622 0 0 1 .621.622v6.155a.622.622 0 0 1-.621.622h-5.244a.623.623 0 0 1-.622-.622z"/>
 <path id="Path_1601" data-name="Path 1601" class="cls-1" d="M12.4 10.036h1.932a1.933 1.933 0 0 0 1.931-1.93V5.649a1.933 1.933 0 0 0-1.931-1.93H12.4a1.931 1.931 0 0 0-1.929 1.93v2.457a1.932 1.932 0 0 0 1.929 1.93m2.553-1.93a.621.621 0 0 1-.621.621H12.4a.621.621 0 0 1-.621-.621V5.649a.621.621 0 0 1 .621-.621h1.932a.621.621 0 0 1 .621.621z"/>
 </g>
</svg>