<svg xmlns="http://www.w3.org/2000/svg" viewBox="0 0 35.184 20.97">
 <path data-name="Path 3123" d="m34.585.352-2.779 1.232-.668.493-1.161.6-.493.141-.422-.106-.7.88-1.126.669-2.889 1.158-.6.035-.352.141-1.056.07-1.267.7-3.553.563-2.252-.246-.281-.141L12.1 6.4l-.7-.176-.352-.07-.317-.106L10.1 5.7l-.352-.07.176.6.07.563-.037 1.229-.07.7-.246.6-.317.493-.422.352-.563.141-.422-.141-.387-.246-.493-.141-.528-.07v.035h-.035v-.034l-.493-.07H5.7l-.317.035-.283.105h-.033l-.246.106-.141.035-.106-.035-.141-.106-.07-.035-.106.035-.07.211-.246.176-.176.317-.211.563-.354.492-.456.46-.563.281-.633.035-.281-.106L1.02 12l-.457-.493-.317-.211-.176.104-.07.351.07.457.105.282.317.563.07.352v.387l.035.176.282.493-.141.246v.246l.105.246.106.176.141.141.317.211.176.141.352.985v.176l.07.07.105.528.106.106.6.493.246.141.281.106.669.07.317.07.282.106.774.493.6.282.633.105.633-.07.176-.07.809-.282.317-.035.352.035.528.141.246.07h.031l.035-.035.035.317.458.844-.07.352v.105h1.372v-.105l-.317-.422v-.494l.105-.176.141-.317.7-.669.211-.141.246-.07 1.091-.141 1.091.141.211-.035.317-.246.246-.105 1.126-.246.457-.282.035-.528.246.282.352-.07.458-.211.493-.106.211-.105.176-.176.141-.211.141-.141.176-.07h.493l.246-.07.07-.106.105-.317.105-.07.141-.07.035-.141-.035-.352.035-.317.07-.317.106-.317.11-.25.387-.387.317-.106.246-.106.669-.035h.07l.211.035v.035h.141l.246.035.246.141.422.422.246.07.176-.07.141-.141.07-.106.07-.07.105-.141.141-.106.7-.211.809-.106.176.106.176.176.387.105.387.035.211-.035-.176-.141-.211-.317-.176-.317-.176-.493-.241-.272-.246-.176-.281-.07-.493-.387-.176-.246-.07-.246-.141-.176-.6-.633-.211-.141.106-1.443.07-.352.176-.352.422-.6.318-.178.352.035.387.106.352-.035.246-.176.141-.246.282-.6.352-.457.457-.387 3.272-1.97 1.372-1.2 1.443-.95.07-.07.355-.065.1-.035V.809l.07-.528.053-.106zm.6-.352-.141.141-.018.035.088-.035z" fill="currentColor"/>
</svg>