<svg xmlns="http://www.w3.org/2000/svg" viewBox="0 0 17 17">
 <defs>
 <clipPath id="glwpbxj36a">
 <path data-name="Rectangle 2363" transform="translate(0 -.001)" fill="currentColor" d="M0 0h17v17H0z"/>
 </clipPath>
 </defs>
 <g data-name="Group 6274">
 <g data-name="Group 6273" transform="translate(0 .001)" style="clip-path:url(#glwpbxj36a)">
 <path data-name="Path 3382" d="M12.748 9.915a1.116 1.116 0 0 0 .268-.036l-.834-.863V6.75L11 5.568a1.768 1.768 0 0 1 2.5-2.5l.381.381V1.133A1.133 1.133 0 0 0 12.748 0H1.133A1.133 1.133 0 0 0 0 1.133v7.649a1.133 1.133 0 0 0 1.133 1.133m7.151-8.207.781.2v-.77h.567V1.9l.781-.2.137.549-.65.171.5.5-.4.4-.65-.649-.65.65-.4-.4.5-.5-.648-.162zm-.918 7.074H5.1v-.567h2.266zM4.884 1.708l.781.2v-.77h.567V1.9l.781-.2.137.549-.65.171.5.5-.4.4-.65-.649-.65.65-.4-.4.5-.5-.648-.162zm0 2.833.781.2v-.77h.567v.77l.781-.2.137.549-.65.162.5.5-.4.4-.651-.652-.65.65-.4-.4.5-.5-.648-.162zm-.351 4.241H2.266v-.567h2.267zm-2.266-1.7h.567v.567h-.568zm1.7.567H3.4v-.567h.567zM1.485 1.708l.781.2v-.77h.567V1.9l.781-.2.137.549-.651.171.5.5-.4.4-.65-.649-.65.65-.4-.4.5-.5-.648-.162zm0 2.833.781.2v-.77h.567v.77l.781-.2.137.549-.651.162.5.5-.4.4-.65-.652-.65.65-.4-.4.5-.5-.648-.162z" transform="translate(.003 .001)" fill="currentColor"/>
 <path data-name="Path 3383" d="M332.5 448.8h6.232v-2.55H332.5zm.85-1.983h.567v.567h-.567z" transform="translate(-321.733 -431.801)" fill="currentColor"/>
 <path data-name="Path 3384" d="M283.19 96.245a1.2 1.2 0 0 0-.85 2.052l1.348 1.348v2.266l1.841 1.841-.4.4-.591-.542h-4.533v.567l1.7 1.416v1.416h6.232v-6.516l-3.9-3.9a1.2 1.2 0 0 0-.85-.352z" transform="translate(-270.937 -93.128)" fill="currentColor"/>
 </g>
 </g>
</svg>