<svg xmlns="http://www.w3.org/2000/svg" viewBox="0 0 19.376 16.396">
 <path data-name="Path 3411" d="M8.592 13.078h7.453V6.37a.745.745 0 0 0-.745-.745H4.12a.745.745 0 0 0-.745.745v14.905a.745.745 0 0 0 .745.745H15.3a.745.745 0 0 0 .745-.745v-6.707H8.592z" fill="currentColor" transform="translate(-3.375 -5.625)"/>
 <path data-name="Path 3412" d="m28.989 15.038-4.253-4.254-1.054 1.054 2.981 2.981H22.5v1.491h4.163l-2.981 2.981 1.054 1.054 4.253-4.254a.745.745 0 0 0 0-1.053z" transform="translate(-9.831 -7.366)" fill="currentColor"/>
</svg>