<svg viewBox="0 0 10 15" fill="none" xmlns="http://www.w3.org/2000/svg">
<path fill-rule="evenodd" clip-rule="evenodd" d="M1.53788 6.30553C0.88604 6.30553 0.75 6.43347 0.75 7.04627V8.1574C0.75 8.77027 0.88604 8.89813 1.53788 8.89813H3.11363V13.3426C3.11363 13.9554 3.24967 14.0833 3.90151 14.0833H5.47727C6.12913 14.0833 6.26513 13.9554 6.26513 13.3426V8.89813H8.03447C8.52887 8.89813 8.65627 8.8078 8.79207 8.36093V7.58171C8.79207 7.58171 8.91666 6.30553 8.37213 6.30553H6.26513V4.45371C6.26513 4.04461 6.61787 3.71296 7.053 3.71296H8.29547C8.94727 3.71296 9.08333 3.58506 9.08333 2.97222V2.23148V1.49074C9.08333 0.8779 8.94727 0.75 8.29547 0.75H7.053C4.87733 0.75 3.11363 2.40821 3.11363 4.45371V6.30553H1.53788Z" stroke="#3F536C" stroke-width="1.5" stroke-linejoin="round"/>
</svg>