<svg viewBox="0 0 21.428 30.53"
 xmlns="http://www.w3.org/2000/svg"
 >
 <defs>
 <clipPath id="a">
 <path
 fill="currentColor"
 d="M0 0h21.428v30.53H0z"
 />
 </clipPath>
 </defs>
 <g
 clip-path="url(#a)"
 >
 <path
 d="M20.438 4.95h-2.2v-1.5a1.009 1.009 0 0 0-1.022-1.022h-2.462V1.022A1.009 1.009 0 0 0 13.732 0h-6a1.029 1.029 0 0 0-1.026 1.022V2.4H4.247a1.009 1.009 0 0 0-1.022 1.017v1.5h-2.2A1.057 1.057 0 0 0 0 5.972v24.015a.532.532 0 0 0 .511.543H3.8a.532.532 0 0 0 .511-.543v-.894a3.143 3.143 0 0 1 3.1-3.193h6.611a3.163 3.163 0 0 1 3.1 3.193v.894a.532.532 0 0 0 .511.543h3.289a.532.532 0 0 0 .511-.543V6a1.031 1.031 0 0 0-.99-1.054m-10.73.958.607-.1c.032 0 .064-.032.1-.064l.255-.543c.064-.1.192-.1.224 0l.255.543c.032.032.064.064.1.064l.607.1c.1.032.16.16.064.224l-.447.415c-.032.032-.032.064-.032.128l.1.607a.125.125 0 0 1-.192.128l-.543-.287a.1.1 0 0 0-.128 0l-.543.287a.125.125 0 0 1-.192-.128l.1-.607A.192.192 0 0 0 10 6.547l-.447-.415a.225.225 0 0 1 .16-.224M6.77 20.119a.572.572 0 0 1-.575.575H3.417a.572.572 0 0 1-.575-.575v-2.778a.572.572 0 0 1 .575-.575H6.2a.572.572 0 0 1 .575.575zm0-6.387a.572.572 0 0 1-.575.575H3.417a.572.572 0 0 1-.575-.575v-2.778a.572.572 0 0 1 .575-.575H6.2a.572.572 0 0 1 .575.575zm1.277-7.6-.447.415c-.032.032-.032.064-.032.128l.1.607a.125.125 0 0 1-.192.128l-.546-.289a.1.1 0 0 0-.128 0l-.543.287a.125.125 0 0 1-.192-.128l.1-.607a.192.192 0 0 0-.032-.128l-.447-.415a.141.141 0 0 1 .064-.224l.607-.1c.032 0 .064-.032.1-.064l.255-.543c.064-.1.192-.1.224 0l.255.543c.032.032.064.064.1.064l.607.1c.192.032.224.16.16.224m4.6 13.987a.572.572 0 0 1-.575.575H9.293a.572.572 0 0 1-.575-.575v-2.776a.572.572 0 0 1 .575-.575h2.778a.572.572 0 0 1 .575.575zm0-6.387a.572.572 0 0 1-.575.575H9.293a.572.572 0 0 1-.575-.575v-2.776a.572.572 0 0 1 .575-.575h2.778a.572.572 0 0 1 .575.575zm1.82-6.579-.543.287a.125.125 0 0 1-.192-.128l.1-.607a.192.192 0 0 0-.032-.128l-.447-.415a.141.141 0 0 1 .064-.224l.607-.1c.032 0 .064-.032.1-.064l.287-.543a.123.123 0 0 1 .224 0l.255.543c.032.032.064.064.1.064l.607.1c.1.032.16.16.064.224l-.447.415c-.032.032-.032.064-.032.128l.1.607a.125.125 0 0 1-.192.128l-.543-.287c.032-.032-.032-.032-.064 0m4.154 12.968a.572.572 0 0 1-.575.575H15.3a.572.572 0 0 1-.575-.575v-2.778a.572.572 0 0 1 .575-.575h2.778a.572.572 0 0 1 .575.575zm0-6.387a.572.572 0 0 1-.575.575H15.3a.572.572 0 0 1-.575-.575v-2.778a.572.572 0 0 1 .575-.575h2.778a.572.572 0 0 1 .575.575z"
 fill="currentColor"
 />
 </g>
 </svg>