<svg
 viewBox="0 0 11.748 12"
 xmlns="http://www.w3.org/2000/svg"
 >
 <g fill="currentColor">
 <path
 d="M8.637 1.165a.466.466 0 0 0-.669.05L6.849 2.523a.613.613 0 0 1-.48.215h-.984a.632.632 0 0 1-.479-.215L3.783 1.211a.474.474 0 1 0-.719.618l1.527 1.766v3.912a.466.466 0 0 0 .467.467.477.477 0 0 0 .48-.467V5.615a.119.119 0 0 1 .126-.126h.429a.119.119 0 0 1 .126.126v1.893a.473.473 0 0 0 .946 0V3.596L8.692 1.83a.467.467 0 0 0-.055-.665z"
 />
 <path
 d="M7.023 1.148A1.148 1.148 0 1 1 5.874 0a1.148 1.148 0 0 1 1.148 1.148"
 />
 <path
 d="M3 6.498a.4.4 0 0 0-.227-.227.487.487 0 0 0-.328 0 .432.432 0 0 0-.252.454l.013.1a9.693 9.693 0 0 0 .366 1.59l.164.48a.253.253 0 0 1-.013.214.225.225 0 0 1-.164.139.254.254 0 0 1-.214-.025.261.261 0 0 1-.139-.164l-.151-.454a10.55 10.55 0 0 1-.4-1.741l-.013-.063a1 1 0 0 1 .58-1.06l.114-.038-.096-1.628a.483.483 0 0 0-.3-.429.558.558 0 0 0-.4 0 .486.486 0 0 0-.265.3l-1.2 3.748a1.375 1.375 0 0 0 .07 1.051l.833 1.716a.454.454 0 0 1 .025.341l-.391 1.2h2.65l.744-2.36a1.186 1.186 0 0 0-.05-.808z"
 />
 <path
 d="M11.603 8.745a1.375 1.375 0 0 0 .076-1.047l-1.2-3.735a.486.486 0 0 0-.265-.3.454.454 0 0 0-.4 0 .5.5 0 0 0-.3.429L9.438 5.72l.114.038a1.008 1.008 0 0 1 .58 1.06l-.013.063a10.284 10.284 0 0 1-.416 1.741l-.151.454a.3.3 0 0 1-.139.164.328.328 0 0 1-.214.025.3.3 0 0 1-.164-.139.253.253 0 0 1-.013-.214l.151-.48a8.548 8.548 0 0 0 .366-1.59l.013-.1a.432.432 0 0 0-.252-.454.375.375 0 0 0-.328 0 .4.4 0 0 0-.227.227l-.946 2.322a1.265 1.265 0 0 0-.05.808l.744 2.36h2.65l-.379-1.211a.458.458 0 0 1 .025-.341z"
 />
 </g>
 </svg>