<svg
 viewBox="0 0 15.755 12"
 xmlns="http://www.w3.org/2000/svg"
 >
 <path
 fill="currentColor"
 d="M8.782 4.903a.891.891 0 1 1-.891-.891.891.891 0 0 1 .891.891zm-4.265-2H2.768c-.982 0-1.314.7-1.807 1.719l-.9 1.864a.556.556 0 0 0 1 .485l1.245-2.409v6.834a.6.6 0 0 0 1.2 0v-3.5h.269v3.508a.6.6 0 1 0 1.2 0V4.562L6.013 6.64a1.62 1.62 0 0 1 .823-.883l-.519-1.128C5.824 3.61 5.492 2.91 4.51 2.91zm-.875-.231A1.339 1.339 0 1 0 2.3 1.338a1.339 1.339 0 0 0 1.342 1.339zM15.7 6.49l-.9-1.864c-.493-1.02-.825-1.719-1.807-1.719h-1.754c-.982 0-1.314.7-1.807 1.719l-.55 1.129a1.448 1.448 0 0 1 .832.8l1.062-2-.608 3.086.28.56a.65.65 0 0 1-.637.9h.965v2.293a.6.6 0 1 0 1.2 0V9.1h.269v2.3a.6.6 0 1 0 1.2 0V9.1h.937l-.929-4.538L14.7 6.975a.556.556 0 0 0 1-.485zm-3.586-3.813a1.339 1.339 0 1 0-1.339-1.339 1.339 1.339 0 0 0 1.338 1.339zM9.676 7.092c-.328-.678-.549-1.144-1.2-1.144H7.309c-.653 0-.875.466-1.2 1.144l-.6 1.241a.364.364 0 0 0 .17.492.378.378 0 0 0 .494-.17L7 7.047v4.549a.4.4 0 1 0 .8 0V9.745h.179v1.854a.4.4 0 1 0 .8 0V7.047l.83 1.608a.37.37 0 0 0 .665-.323z"
 />
 </svg>