<svg
 viewBox="0 0 24 24"
 fill="none"
 xmlns="http://www.w3.org/2000/svg"
 >
 <path
 d="M11.192 19.737l1.243-2.14a.38.38 0 00-.003-.378l-1.212-2.088 1.215-2.092a.38.38 0 00-.003-.378l-1.212-2.088 1.215-2.093a.378.378 0 00.026-.315l-.74-2.23C11 4.034 9.377 2 6.985 2c-1.643 0-3.167.783-4.53 2.328-1.594 1.806-2.494 5.907.638 8.974 1.443 1.413 7.943 8.506 8.008 8.578a.37.37 0 00.628-.357l-.537-1.786z"
 fill="currentColor"
 />
 <path
 d="M22.393 4.33C21.07 2.806 19.503 2 17.86 2c-1.991 0-3.863 1.545-4.77 3.936a.372.372 0 00-.005.248l.688 2.07-1.24 2.133a.37.37 0 000 .372l1.216 2.093-1.215 2.093a.37.37 0 000 .372l1.215 2.093-1.215 2.093a.37.37 0 00-.035.293l.583 1.94a.371.371 0 00.627.145c.065-.071 6.617-7.15 8.046-8.582 3.072-3.08 2.196-7.173.637-8.97z"
 fill="currentColor"
 />
 </svg>