<svg
 viewBox="0 0 14.947 14.12"
 xmlns="http://www.w3.org/2000/svg"
 >
 <g>
 <path
 fill="currentColor"
 d="M14.455 13.216H0v.9h14.947v-.9zM.865 1.731h14.081V0H0v1.731zM2.93 4.208h9.086a.374.374 0 0 1 .374.374v7.886h1.317v-9.99H1.239v9.99h1.317V4.582a.374.374 0 0 1 .374-.374zm.37 8.26h8.338V4.955H3.3zM6.021 8.33a3.569 3.569 0 0 1 .441-.769 2.356 2.356 0 0 0 .484-1.075.094.094 0 0 1 .107-.076.1.1 0 0 1 .028.009 2.92 2.92 0 0 1 1.495 1.795l.013-.029a1.217 1.217 0 0 0 .073-.339.093.093 0 0 1 .1-.085.092.092 0 0 1 .071.042 1.728 1.728 0 0 1-.375 2.155.09.09 0 0 1-.063.025H7.63a.093.093 0 0 1-.093-.093.1.1 0 0 1 .013-.05 1.819 1.819 0 0 0 .116-.758 1.7 1.7 0 0 0-.038-.321 2.848 2.848 0 0 1-.168.552 1.7 1.7 0 0 1-.446.647.091.091 0 0 1-.059.021h-.477a.093.093 0 0 1-.06-.021 1.294 1.294 0 0 1-.493-.721 1.478 1.478 0 0 1 .095-.909zm-.406 2.964a.374.374 0 1 1 0-.747h3.716a.374.374 0 1 1 0 .747z"
 fill-rule="evenodd"
 />
 </g>
 </svg>