<svg
 xmlns="http://www.w3.org/2000/svg"
 viewBox="0 0 33.821 16"
 >
 <defs>
 <clipPath id="a">
 <path
 d="M0 0h16v16H0z"
 fill="currentColor"
 transform="translate(0 -.353)"
 />
 </clipPath>
 <clipPath id="b">
 <path d="M0 0h16.607v13.288H0z" fill="currentColor" />
 </clipPath>
 </defs>
 <g>
 <g>
 <g
 clip-path="url(#a)"
 transform="translate(0 .353)"
 >
 <path
 d="M13.96 0a3.1 3.1 0 0 0-2.053 1.026c-1.051.946-2.084 2.007-3.079 3.079L.616 2.464 0 3.7l6.159 3.075-3.49 4.106c-.8-.263-2.053-.563-2.053.411a1.03 1.03 0 0 0 .205.616l2.464 2.464a1.032 1.032 0 0 0 .616.205c.973 0 .674-1.253.411-2.053l4.106-3.49 3.082 6.158 1.232-.616-1.646-8.211c1.072-1 2.133-2.028 3.079-3.079a3.1 3.1 0 0 0 1.026-2.053 1.3 1.3 0 0 0-.335-.9A1.3 1.3 0 0 0 13.96 0"
 fill="currentColor"
 transform="translate(0 .894)"
 />
 </g>
 </g>
 <g>
 <g
 clip-path="url(#b)"
 transform="translate(17.214 2.713)"
 >
 <path
 d="M16.607 7.2v1.657a2.2 2.2 0 0 1-.553 1.451v1.871a1.108 1.108 0 0 1-1.108 1.108h-1.107a1.108 1.108 0 0 1-1.108-1.108v-1.107H3.874v1.108a1.108 1.108 0 0 1-1.108 1.108H1.661A1.108 1.108 0 0 1 .553 12.18v-1.871A2.2 2.2 0 0 1 0 8.857V7.2a2.21 2.21 0 0 1 1.429-2.067l.389-.972.689-1.724A3.856 3.856 0 0 1 6.106 0h4.4a3.857 3.857 0 0 1 3.6 2.436l.689 1.724.389.972A2.208 2.208 0 0 1 16.607 7.2zM4.429 8.3a2.13 2.13 0 0 0-1.661-1.657 1.044 1.044 0 0 0-1.108 1.1 1.044 1.044 0 0 0 1.108 1.1c.665.007 1.661.118 1.661-.543zm-.555-3.318h8.858l-.689-1.724A1.662 1.662 0 0 0 10.5 2.214H6.1a1.66 1.66 0 0 0-1.537 1.044zm11.072 2.765a1.044 1.044 0 0 0-1.108-1.1 2.13 2.13 0 0 0-1.66 1.653c0 .663 1 .551 1.661.551a1.044 1.044 0 0 0 1.108-1.1z"
 fill="currentColor"
 />
 </g>
 </g>
 </g>
 </svg>