<svg
 xmlns="http://www.w3.org/2000/svg"
 viewBox="0 0 20 20"
 >
 <path
 fill="currentColor"
 d="M18.8 8.9c.4-.4.5-.7 0-1.1-.3-.2-.4-.5-.5-.8-.1-.5 0-.9.3-1.3.3-.3.3-.6 0-.9l-3.3-3.3c-.3-.3-.6-.3-.9 0-.6.5-1.4.5-2 0-.2-.2-.4-.3-.6-.5h-.3c-.1.1-.3.2-.4.3-1.3 1.3-2.7 2.6-4.1 4 0 0-.1.1-.1.2l1.3 1.3c0 .1.1.1.2.2.2.2.2.5 0 .8-.2.2-.6.2-.8 0L6.2 6.4l-.1-.1c-.1 0-.1.1-.2.1C4.3 8 2.7 9.6 1.2 11.2c-.1.1-.2.3-.3.4v.3c.1.2.3.3.4.5.7.7.7 1.5.1 2.2-.2.3-.2.5 0 .8l3.4 3.4c.2.2.5.3.8 0 .6-.6 1.6-.6 2.2.1-.1 0 0 .1.1.1.2.2.5.2.7 0l.3-.3 4.7-4.7.1-.1-1.5-1.5c-.1-.1-.2-.3-.2-.5s.2-.3.4-.4c.2-.1.4 0 .6.2l1.4 1.4.2.2c0-.1.1-.1.1-.2 1.4-1.5 2.7-2.9 4.1-4.2zm-7.7 1.9c-.2.1-.4.1-.6-.1L9.3 9.5c-.2-.2-.2-.5 0-.7.2-.2.5-.2.7 0l1.2 1.2c.1.1.1.2.1.3.1.2 0 .4-.2.5zm7.6 6.1c0 .2-.2.4-.4.4h-.6c-.2 0-.4-.2-.4-.4s.2-.4.4-.4h.5c.4 0 .5.2.5.4zm-1.4 1.2v.3c0 .2-.2.4-.4.4s-.4-.2-.4-.4v-.5c0-.2.2-.4.4-.4s.4.2.4.4v.2zm0-2.3v.2c0 .2-.2.4-.4.4s-.4-.2-.4-.4v-.5c0-.2.2-.4.4-.4s.4.2.4.4v.3zm-.9 1.1c0 .2-.2.4-.4.4h-.4c-.2 0-.4-.2-.4-.4s.2-.4.4-.4h.5c.1 0 .3.2.3.4zM2.7 1.8c0-.3.1-.5.3-.6h.2c.2.1.3.3.3.6v.3c0 .2-.2.4-.4.4s-.4-.2-.4-.4v-.3zM1.3 3.2V3c.1-.2.3-.3.6-.3h.3c.2 0 .4.2.4.4s-.2.4-.4.4h-.3c-.3.1-.5 0-.6-.3zm2.3-.1c0-.2.2-.4.4-.4h.5c.2 0 .4.2.4.4s-.2.4-.4.4h-.4c-.3 0-.5-.2-.5-.4zm-.9 1.1V4c0-.2.2-.4.4-.4s.4.2.4.4v.5c0 .2-.2.4-.4.4s-.4-.2-.4-.4v-.3zm6.8 6.6c0 .1-.1.2-.1.3l-.6.9-.6.6-2 2c-.2.2-.5.4-.8.6v.1c.1.4.1.8.2 1.2 0 .2.1.2-.1.3-.2.1-.2.1-.3-.1-.2-.4-.4-.7-.6-1.1l-.1-.1c-.4-.2-.8-.5-1.2-.7-.1-.1-.1-.1 0-.2l.1-.1c.1-.1.1-.1.2-.1.4.1.8.1 1.2.2h.1c.1-.1.2-.3.4-.4l2-2 .9-.9c.3-.2.5-.4.9-.6.1 0 .2-.1.3-.1 0-.1.1 0 .1.2zm-2.3 1.1c-.2.1-.3.2-.4.3l-.7.7H6c-.7-.4-1.5-.8-2.2-1.2-.1-.1-.2-.2-.2-.3 0-.1.1-.2.3-.2.1 0 .3 0 .4.1.9.1 1.9.3 2.9.6-.1 0-.1 0 0 0zm.9.9c.1.3.1.7.2 1 .2.7.3 1.4.5 2.1 0 .2-.1.4-.3.4-.1 0-.2-.1-.2-.2-.3-.5-.5-.9-.8-1.4-.2-.2-.3-.5-.5-.7v-.1l1.1-1.1zm-3.6-1.7.4-.4H5l.3.3v.1l-.1.1c-.2 0-.5 0-.7-.1zm4.3 4.3c-.1-.2-.1-.5-.1-.7 0 0 0-.1.1-.1h.1l.3.3v.1c-.1.2-.3.3-.4.4zm-2.9-3.9.3-.3h.1l.3.3v.1l-.1.1c-.1-.1-.4-.2-.6-.2zM8.5 14c-.1-.2-.1-.5-.1-.7 0 0 0-.1.1-.1h.1l.3.3v.1l-.4.4zm7.4-5.5c0 .2-.1.3-.1.5 0 0-.1.1-.2.1-.2 0-.3.1-.4-.1-.1-.1-.1-.3-.1-.5h-2.9c-.1.2.1.4-.1.5h-.4c-.4 0-.2-.3-.3-.5-.3-.1-.3-.2-.3-.5 0-1.1.1-2.2.1-3.3 0-.7.5-1.2 1.2-1.2h2.8c.6 0 1 .3 1 .9V8c0 .3 0 .4-.3.5zm-2.3-1.9h2c.2 0 .2-.1.2-.2V4.9c0-.2-.1-.4-.4-.4h-3.5c-.2 0-.4.1-.4.4v1.4c0 .2 0 .3.3.3h1.8zm.1-2.3h.6c.2 0 .2-.1.2-.2 0-.2 0-.3-.2-.3H13c-.2 0-.2.1-.2.3 0 .2.1.2.2.2h.7zm-1.9 3c-.2 0-.3.2-.3.4s.2.3.3.3c.2 0 .3-.2.3-.3.1-.3-.1-.4-.3-.4zm3.7 0c-.2 0-.3.2-.3.3 0 .2.2.3.3.3.2 0 .3-.2.3-.3 0-.2-.1-.3-.3-.3z"
 />
 </svg>