<svg xmlns="http://www.w3.org/2000/svg" viewBox="0 0 13 13">
 <g clip-path="url(#a)" transform="translate(0 .363)">
 <path
 fill="currentColor"
 d="M11.6.379a2.574 2.574 0 0 0-1.707.853C9.02 2.018 8.161 2.9 7.335 3.79L.512 2.426 0 3.449l5.117 2.559-2.9 3.411C1.552 9.2.512 8.952.512 9.76a.856.856 0 0 0 .171.512l2.046 2.047a.857.857 0 0 0 .512.171c.809 0 .56-1.041.341-1.706l3.411-2.9 2.558 5.117 1.023-.512L9.21 5.667c.891-.827 1.772-1.685 2.558-2.558a2.574 2.574 0 0 0 .853-1.706 1.077 1.077 0 0 0-.278-.745A1.077 1.077 0 0 0 11.6.379"
 />
 </g>
 </svg>