<svg xmlns="http://www.w3.org/2000/svg" viewBox="0 0 28.099 13">
 <defs>
 <clipPath id="qhhqfokoma">
 <path data-name="Rectangle 199" fill="currentColor" d="M0 0h13v13H0z"/>
 </clipPath>
 <clipPath id="rkfq65c5xb">
 <path data-name="Rectangle 2226" fill="currentColor" d="M0 0h13.797v11.039H0z"/>
 </clipPath>
 </defs>
 <g data-name="Group 5699">
 <g data-name="Group 714" style="clip-path:url(#qhhqfokoma)">
 <path data-name="Path 286" d="M11.6 0a2.574 2.574 0 0 0-1.707.853c-.873.786-1.732 1.668-2.558 2.558L.512 2.047 0 3.07l5.117 2.559-2.9 3.411c-.665-.219-1.705-.467-1.705.341a.856.856 0 0 0 .171.512l2.046 2.047a.857.857 0 0 0 .512.171c.809 0 .56-1.041.341-1.706l3.411-2.9 2.558 5.117 1.023-.512L9.21 5.288c.891-.827 1.772-1.685 2.558-2.558a2.574 2.574 0 0 0 .853-1.706 1.077 1.077 0 0 0-.278-.745A1.077 1.077 0 0 0 11.6 0" transform="translate(0 .742)" fill="currentColor"/>
 </g>
 <g data-name="Group 4644" transform="translate(14.302 1.961)" style="clip-path:url(#rkfq65c5xb)">
 <path data-name="Path 3093" d="M13.8 5.979v1.38a1.826 1.826 0 0 1-.459 1.205v1.554a.92.92 0 0 1-.92.92H11.5a.92.92 0 0 1-.92-.92V9.2H3.219v.92a.92.92 0 0 1-.92.92H1.38a.92.92 0 0 1-.92-.92V8.565A1.826 1.826 0 0 1 0 7.358V5.979a1.836 1.836 0 0 1 1.187-1.715l.323-.807.572-1.433A3.2 3.2 0 0 1 5.073 0h3.652a3.2 3.2 0 0 1 2.988 2.024l.572 1.433.323.807A1.835 1.835 0 0 1 13.8 5.979zm-10.12.916A1.769 1.769 0 0 0 2.3 5.519a.867.867 0 0 0-.92.917.867.867 0 0 0 .92.917c.552 0 1.38.092 1.38-.458zM3.219 4.14h7.36l-.572-1.433a1.381 1.381 0 0 0-1.282-.867H5.073a1.38 1.38 0 0 0-1.281.867zm9.2 2.3a.867.867 0 0 0-.92-.917 1.769 1.769 0 0 0-1.38 1.375c0 .55.828.458 1.38.458a.867.867 0 0 0 .92-.916z" fill="currentColor"/>
 </g>
 </g>
</svg>