<svg
 xmlns="http://www.w3.org/2000/svg"
 viewBox="0 0 60.891 38.565"
 >
 <g>
 <g fill="currentColor" className="cls-3">
 <path
 d="M54.8 19.282a6.108 6.108 0 0 0 6.09 6.09v13.193H0V25.372a6.108 6.108 0 0 0 6.09-6.09A6.107 6.107 0 0 0 0 13.193V0h60.891v13.193a6.106 6.106 0 0 0-6.091 6.089Z"
 className="cls-4"
 />
 <path
 d="M54.8 19.282a6.108 6.108 0 0 0 6.09 6.09v13.193H0V25.372a6.108 6.108 0 0 0 6.09-6.09A6.107 6.107 0 0 0 0 13.193V0h60.891v13.193a6.106 6.106 0 0 0-6.091 6.089Z"
 className="cls-4"
 />
 </g>
 </g>
 <g>
 <g className="cls-5">
 <path
 fill="currentColor"
 d="M44.05 13.527h-1.23v-.838a.563.563 0 0 0-.57-.57h-1.373v-.785a.563.563 0 0 0-.57-.57h-3.351a.574.574 0 0 0-.57.57v.766h-1.372a.563.563 0 0 0-.57.57v.838h-1.231a.59.59 0 0 0-.57.589v13.4a.3.3 0 0 0 .285.3h1.836a.3.3 0 0 0 .285-.3v-.5a1.754 1.754 0 0 1 1.729-1.782h3.69a1.765 1.765 0 0 1 1.729 1.782v.5a.3.3 0 0 0 .285.3h1.836a.3.3 0 0 0 .285-.3V14.115a.575.575 0 0 0-.553-.588m-5.989.537.339-.053c.018 0 .036-.018.053-.036l.143-.3c.036-.053.107-.053.125 0l.143.3c.018.018.036.036.053.036l.339.053c.053.018.089.089.036.125l-.25.232c-.018.018-.018.036-.018.071l.053.339a.07.07 0 0 1-.107.071l-.3-.16a.054.054 0 0 0-.071 0l-.3.16a.07.07 0 0 1-.107-.071l.051-.342a.107.107 0 0 0-.018-.071l-.25-.232a.126.126 0 0 1 .086-.122m-1.64 7.931a.319.319 0 0 1-.321.321h-1.55a.319.319 0 0 1-.321-.321v-1.553a.319.319 0 0 1 .321-.321h1.551a.319.319 0 0 1 .321.321Zm0-3.565a.319.319 0 0 1-.321.321h-1.55a.319.319 0 0 1-.321-.321v-1.553a.319.319 0 0 1 .321-.321h1.551a.319.319 0 0 1 .321.321Zm.713-4.242-.25.232c-.018.018-.018.036-.018.071l.053.339a.07.07 0 0 1-.107.071l-.3-.16a.054.054 0 0 0-.071 0l-.3.16a.07.07 0 0 1-.107-.071l.053-.339a.107.107 0 0 0-.018-.071l-.25-.232a.079.079 0 0 1 .032-.124l.339-.053c.018 0 .036-.018.053-.036l.143-.3c.036-.053.107-.053.125 0l.143.3c.018.018.036.036.053.036l.336.053c.107.018.125.089.089.125m2.567 7.807a.319.319 0 0 1-.321.321H37.83a.319.319 0 0 1-.321-.321v-1.554a.319.319 0 0 1 .321-.321h1.55a.319.319 0 0 1 .321.321Zm0-3.565a.319.319 0 0 1-.321.321H37.83a.319.319 0 0 1-.321-.321v-1.554a.319.319 0 0 1 .321-.321h1.55a.319.319 0 0 1 .321.321Zm1.018-3.675-.3.16a.07.07 0 0 1-.107-.071l.053-.339a.107.107 0 0 0-.02-.07l-.25-.232a.079.079 0 0 1 .036-.125l.339-.053c.018 0 .036-.018.053-.036l.16-.3a.069.069 0 0 1 .125 0l.143.3c.018.018.036.036.053.036l.339.053c.053.018.089.089.036.125l-.25.232c-.018.018-.018.036-.018.071l.053.339a.07.07 0 0 1-.107.071l-.3-.16c.018-.018-.018-.018-.036 0m2.335 7.236a.319.319 0 0 1-.321.321H41.18a.319.319 0 0 1-.321-.321v-1.551a.319.319 0 0 1 .321-.321h1.551a.319.319 0 0 1 .321.321Zm0-3.565a.319.319 0 0 1-.321.321H41.18a.319.319 0 0 1-.321-.321v-1.551a.319.319 0 0 1 .321-.321h1.551a.319.319 0 0 1 .321.321Z"
 className="cls-2"
 />
 </g>
 <path
 fill="currentColor"
 d="M28.607 23.557a.234.234 0 0 0 .324-.236V22.13a.668.668 0 0 0-.293-.515L22.406 17.9a.667.667 0 0 1-.293-.515v-4.161a2.1 2.1 0 0 0-.127-.657s-.372-.923-1.023-1.026a1.216 1.216 0 0 0-.215-.021 1.259 1.259 0 0 0-.243.025l-.073.016-.112.039c-.541.181-.82.966-.82.966a2.379 2.379 0 0 0-.114.662v4.158a.668.668 0 0 1-.293.515l-6.232 3.714a.668.668 0 0 0-.293.515v1.191a.233.233 0 0 0 .324.236l6.17-2a.234.234 0 0 1 .324.236v3.25a.771.771 0 0 1-.273.546l-.818.614a.771.771 0 0 0-.273.546v.8a.243.243 0 0 0 .328.247l2.071-.595a1.4 1.4 0 0 1 .655 0l2.073.595a.243.243 0 0 0 .328-.247v-.8a.771.771 0 0 0-.273-.546l-.818-.614a.773.773 0 0 1-.273-.546V21.79a.233.233 0 0 1 .324-.236l6.17 2Z"
 className="cls-2"
 />
 </g>
 </svg>