<svg
 xmlns="http://www.w3.org/2000/svg"
 viewBox="0 0 44 44"
 >
 <path
 d="M11.993 5.427a1.5 1.5 0 0 1 2.256 1.296v27.869a1.5 1.5 0 0 1-.928 1.386L5.237 39.31a1.5 1.5 0 0 1-2.071-1.387V11.438a1.5 1.5 0 0 1 .744-1.294l8.083-4.717zm4.923.245a1.5 1.5 0 0 1 2.263-1.292l7.167 4.231c.456.27.737.761.737 1.291v10.223c0 .476-.227.908-.577 1.195a10.943 10.943 0 0 0-4.007 8.472v5.831a1.5 1.5 0 0 1-2.263 1.292l-2.583-1.525a1.5 1.5 0 0 1-.737-1.292V5.672zm21.845-.982a1.5 1.5 0 0 1 2.072 1.388v12.543c0 .626-.37 1.11-.836 1.362-.462.25-1.06.297-1.589.03a10.906 10.906 0 0 0-4.626-1.175l-.324-.004c-.624 0-1.235.052-1.83.151-.92.155-1.879-.514-1.879-1.528V9.411a1.5 1.5 0 0 1 .929-1.387L38.76 4.69z"
 fill="currentColor" stroke="currentColor"
 />
 <path
 d="M42.167 29.791c0 1.453-.355 2.821-.984 4.024-.218.418-.169.935.164 1.269l1.79 1.795a1 1 0 0 1-.003 1.414l-1.18 1.176a1 1 0 0 1-1.414-.001l-1.784-1.789c-.333-.334-.852-.384-1.27-.166a8.71 8.71 0 1 1 4.68-7.721zm-3.667 0a5.041 5.041 0 1 0-1.489 3.576l.015-.013A5.021 5.021 0 0 0 38.5 29.79z"
 fill="currentColor"
 />
 </svg>