<svg
 viewBox="0 0 11.293 12"
 xmlns="http://www.w3.org/2000/svg"
 >
 <g fill="currentColor">
 <path
 d="M8.048 1.541V.972A.973.973 0 0 0 7.075 0h-.567a.976.976 0 0 0-.985.972v.568a3.839 3.839 0 0 0-2.576 3.372h7.678a3.839 3.839 0 0 0-2.577-3.371zM6.268.973a.226.226 0 0 1 .227-.227h.568a.226.226 0 0 1 .227.227v.391a3.4 3.4 0 0 0-.505-.038 3.273 3.273 0 0 0-.505.038V.972z"
 />
 <path
 d="M10.952 5.556H2.605a.34.34 0 0 0-.341.341v.2a.34.34 0 0 0 .341.341h8.347a.34.34 0 0 0 .341-.341v-.2a.34.34 0 0 0-.341-.341"
 />
 <path
 d="M.054 10.191a.256.256 0 0 0 .038.354l1.793 1.4a.256.256 0 0 0 .354-.038l.758-.96L.812 9.231z"
 />
 <path
 d="m9.663 7.11-1.654.492v.114a1.061 1.061 0 0 1-.846.972l-.126.013a10.174 10.174 0 0 1-1.856.189l-.505.013a.3.3 0 1 1-.013-.594l.505-.013a10.367 10.367 0 0 0 1.755-.189l.1-.025a.456.456 0 0 0 .366-.417.437.437 0 0 0-.114-.328.469.469 0 0 0-.316-.152l-2.664-.139a1.28 1.28 0 0 0-.821.24l-2.21 1.553 2.235 1.743 2.222.253a1.58 1.58 0 0 0 1.086-.29l3.321-2.5a.5.5 0 0 0 .2-.379.531.531 0 0 0-.139-.4.519.519 0 0 0-.53-.151z"
 />
 </g>
 </svg>