<svg
 viewBox="0 0 11.938 12.591"
 xmlns="http://www.w3.org/2000/svg"
 >
 <g fill="currentColor">
 <path
 d="m10.946 6.928-.27-.675-.479-1.2A2.68 2.68 0 0 0 7.7 3.361H4.644c-.063 0-.124.01-.186.014v.6a1.171 1.171 0 0 1-1.17 1.17h-1.18l-.442 1.106-.27.675A1.537 1.537 0 0 0 .4 8.361v1.152a1.527 1.527 0 0 0 .384 1.008v1.3a.769.769 0 0 0 .769.769h.769a.769.769 0 0 0 .769-.769v-.769h6.155v.768a.769.769 0 0 0 .769.769h.77a.769.769 0 0 0 .769-.769v-1.3a1.523 1.523 0 0 0 .384-1.007V8.361a1.536 1.536 0 0 0-.992-1.433m-7.373-1.3A1.153 1.153 0 0 1 4.644 4.9H7.7a1.156 1.156 0 0 1 1.071.725l.479 1.2H3.094zM2.325 9.511a.878.878 0 0 1-.089 0 .726.726 0 0 1-.68-.768.646.646 0 0 1 0-.088.726.726 0 0 1 .769-.679 1.479 1.479 0 0 1 1.154 1.15c0 .458-.692.381-1.154.384m8.459-.676a.724.724 0 0 1-.769.678c-.462 0-1.154.077-1.154-.383a1.481 1.481 0 0 1 1.154-1.15.661.661 0 0 1 .089 0 .725.725 0 0 1 .68.767.646.646 0 0 1 0 .088"
 />
 <path
 d="M.337 4.038a.673.673 0 0 0 .673.673h.968a.042.042 0 0 0 .042-.042V2.73a.042.042 0 0 0-.042-.042H.421a.085.085 0 0 0-.084.084z"
 />
 <path
 d="M2.025 2.309V1.173h.337v1.136a.042.042 0 0 0 .042.042h1.468a.5.5 0 0 0 .5-.5v-.173a.5.5 0 0 0-.5-.5h-.427a.021.021 0 0 1-.02-.032.758.758 0 0 0-1.239-.87.758.758 0 0 0-1.239.865.021.021 0 0 1-.007.029H.5a.5.5 0 0 0-.5.5v.168a.5.5 0 0 0 .5.505h1.478a.043.043 0 0 0 .047-.037M2.362.752a.421.421 0 1 1 .421.421h-.426zm-.788-.42a.421.421 0 0 1 .45.39v.451H1.6a.421.421 0 0 1-.03-.84z"
 />
 <path
 d="M2.4 4.708h.968a.673.673 0 0 0 .673-.673V2.772a.085.085 0 0 0-.084-.084H2.4a.042.042 0 0 0-.042.042v1.936a.042.042 0 0 0 .042.042"
 />
 </g>
 </svg>