<svg xmlns="http://www.w3.org/2000/svg" viewBox="0 0 8.834 13.412">
 <defs>
 <clipPath id="s4bwmixb2a">
 <path data-name="Rectangle 2150" fill="none" d="M0 0h8.834v13.412H0z"/>
 </clipPath>
 </defs>
 <g data-name="Group 3655" style="clip-path:url(#s4bwmixb2a)">
 <path data-name="Path 2067" d="M126.39 307.607a2.915 2.915 0 1 0 .855 2.062 2.921 2.921 0 0 0-.855-2.062m-.53 1.5-1.514 1.514a.266.266 0 0 1-.2.079.292.292 0 0 1-.2-.079l-.865-.865a.279.279 0 0 1 .394-.394l.669.669 1.318-1.317a.279.279 0 0 1 .394.394" transform="translate(-118.411 -299.175)" fill="currentColor"/>
 <path data-name="Path 2068" d="M3.214 13.048a3.718 3.718 0 0 1 3.57-6.169.216.216 0 0 0 .266-.21V3.528A3.526 3.526 0 0 0 .238 2.25a1.259 1.259 0 0 0 2.346.915 1.013 1.013 0 0 1 1.954.4A1.367 1.367 0 0 1 3.485 4.9l-1.768.42A2.229 2.229 0 0 0 0 7.5v4.619a1.3 1.3 0 0 0 1.3 1.3h1.758a.216.216 0 0 0 .157-.365z" fill="currentColor"/>
 </g>
</svg>