<svg xmlns="http://www.w3.org/2000/svg" viewBox="0 0 11.153 12">
 <path data-name="Path 3241" d="M12.323 6.644H13.4V5.572a1.073 1.073 0 1 0-1.073 1.073z" transform="translate(-8.247 -3.652)" fill="none"/>
 <path data-name="Path 3242" d="M21.269 5.573a1.072 1.072 0 1 0-2.145 0v1.072H20.2a1.073 1.073 0 0 0 1.07-1.072z" transform="translate(-13.119 -3.653)" fill="none"/>
 <path data-name="Path 3243" d="M5.625 23.682A1.716 1.716 0 0 0 7.341 25.4h2.466a.107.107 0 0 0 .107-.107v-4.936a.107.107 0 0 0-.107-.107H5.84a.215.215 0 0 0-.215.215z" transform="translate(-4.767 -13.397)" fill="currentColor"/>
 <path data-name="Path 3244" d="M8.522 8.165V5.27h.858v2.9a.107.107 0 0 0 .107.107h3.753a1.287 1.287 0 0 0 1.287-1.287v-.434a1.287 1.287 0 0 0-1.286-1.286h-1.087a.054.054 0 0 1-.046-.08 1.93 1.93 0 0 0-3.157-2.2 1.93 1.93 0 0 0-3.157 2.2.054.054 0 0 1-.046.08H4.662a1.287 1.287 0 0 0-1.287 1.286v.429a1.287 1.287 0 0 0 1.287 1.287h3.753a.107.107 0 0 0 .107-.107zM9.38 4.2a1.073 1.073 0 1 1 1.073 1.07H9.38zM7.373 3.128A1.073 1.073 0 0 1 8.522 4.2v1.07H7.45a1.073 1.073 0 0 1-.077-2.142z" transform="translate(-3.375 -2.277)" fill="currentColor"/>
 <path data-name="Path 3245" d="M19.232 25.4H21.7a1.716 1.716 0 0 0 1.716-1.716v-3.219a.215.215 0 0 0-.215-.215h-3.969a.107.107 0 0 0-.107.107v4.933a.107.107 0 0 0 .107.11z" transform="translate(-13.12 -13.397)" fill="currentColor"/>
</svg>