<svg
 fill="none"
 viewBox="0 0 23 30"
 xmlns="http://www.w3.org/2000/svg"
 >
 <path
 d="M19.893 28.544c0-.815-3.951-1.456-8.823-1.456-4.854 0-8.819.655-8.819 1.456 0 .8 3.951 1.456 8.823 1.456s8.823-.66 8.823-1.456h-.004zM6.129 5.372l.087-.073-.087.073zm8.24 2.441c0-.17-.214-.233-.349-.306 0-.155.044-.034.034-.184a.261.261 0 00-.121 0c-.107.049-.049.063-.049.083 0 .02.112 0 0 .083a.18.18 0 01-.121.029c-.078-.1-.073-.155-.214-.16a.777.777 0 00-.16.252c-.049.141 0 .044 0 .2v.068c.117-.024.029-.024.112-.049.126-.049.258-.077.393-.082.145.066.286.198.475.066zm.583.331a.373.373 0 00.359.092c0-.19-.039-.18-.1-.311a.29.29 0 01.044-.04c.044-.052 0 .025.044-.072-.117-.04-.3-.155-.311-.306.053-.044.039 0 .078-.044s0 .029.073-.068c-.044-.087-.092-.1-.2-.058-.071.036-.138.08-.2.13a.626.626 0 00.257.433.902.902 0 00-.039.243h-.005z"
 fill="currentColor"
 />
 <path
 d="M18.486 9.75a.917.917 0 01-.068-.15c-.105.04-.214.068-.325.083-.073.1 0 .058-.121.16a4.288 4.288 0 01-.4.388c.001.138-.008.276-.03.413 0 .078-.1.277-.2.262a2.038 2.038 0 01-.2-.422 3.716 3.716 0 01-.15-.447 1.33 1.33 0 00-.058-.34c-.1 0-.1.083-.2 0s-.04-.083-.078-.155l-.252-.213h-.422c-.19 0-.21 0-.32-.16-.2 0-.184.087-.38-.083-.194-.17-.106-.281-.29-.184 0 .16.073.194.14.267.069.073.113.1.142.17.029.07 0 .073 0 .083a.43.43 0 00.325-.146c.1.092 0 .107.14.175.142.068.093.024.16.117.069.093-.246.45-.34.51-.092.059-.111 0-.174.073-.063.073 0 .073-.16.136a2.179 2.179 0 01-.548.213c-.04-.112-.083-.223-.121-.34-.121-.388-.117-.238-.238-.437-.058-.087-.034-.146-.073-.223-.04-.077-.068-.083-.107-.15-.04-.067-.121-.281-.247-.267.02.16.073.313.155.45.034.074.092.1.112.2.02.1 0 .127.073.219.16.194 0 .16.243.354.243.194.14.184.218.374.12.034.485-.126.553-.078.073.13-.087.345-.131.46-.131.389-.37.38-.548.68-.09.118-.17.243-.238.375-.1.218.209.82 0 1.073a3.813 3.813 0 00-.34.272c-.18.189 0 .155-.063.485-.053.073-.121.078-.184.13a1.25 1.25 0 01-.05.229c-.043.112-.048.049-.111.14a.916.916 0 01-.092.166.659.659 0 01-.117.116.97.97 0 01-.7.17c-.107-.087-.034-.112-.058-.238a1.151 1.151 0 00-.136-.291.902.902 0 01-.058-.121 3.178 3.178 0 00-.21-.762c-.188-.36.108-.548.1-.748a.762.762 0 00-.028-.131 1.138 1.138 0 00-.21-.6c-.164-.19-.14-.121-.086-.437.054-.316-.087-.267-.306-.277-.107-.33-.315-.17-.52-.073-.13.058-.18 0-.324 0-.33.044-.073.184-.51-.165-.184-.146-.063-.068-.17-.252a2.596 2.596 0 00-.2-.218c-.165-.21.034-.417 0-.655-.053-.447-.126-.058.126-.6.126-.286.325-.286.379-.417.054-.131 0-.194.092-.3.092-.106.18-.068.218-.2.038-.132-.053-.184-.175-.19-.05-.17-.05-.125 0-.285.049-.16 0-.131 0-.218.049-.223.427 0 .539-.092a.268.268 0 000-.281c-.063-.087-.141-.078-.184-.165.092-.063.024 0 .107 0 .083 0 .083-.05.194-.068.11-.02.16-.112.257-.175.097-.063.073-.165.238-.194.267-.044.092-.04.12-.286l.122-.05c.083.108 0 .064.078.137l.087-.044c0-.121-.068-.1-.107-.247-.131 0-.18.136-.286.092-.106-.044-.107-.184-.1-.311.007-.127.228-.141.306-.165.078-.024.1-.121.214-.233.114-.112.039 0 .107-.184.16 0 .087 0 .18-.058a.765.765 0 00.2-.053.665.665 0 01.568.034c.15.063.6.063.636.252-.112.117-.214.034-.37.044.03.146.04.146.17.184 0-.068 0-.044.03-.087h.13c.045-.146.093-.126.239-.141-.024-.107-.05-.078 0-.155.155 0 .029 0 .107.12.107 0 .209-.13.354-.145.145-.015.087.024.218 0 .13-.024.1-.05.209 0 .039-.068 0-.068.092-.087.138.013.275.04.408.083-.1-.126-.2-.1-.073-.311.16-.034.175 0 .247.112.039 0 .053-.05.073-.058l-.03-.024-.183-.141-.035-.03-.16-.112-.05-.034a2.57 2.57 0 00-.193-.126l-.1-.136-.058-.034-.175-.1h-.03l-.222-.121-.058-.03-.165-.077h-.05l-.212-.117h-.058l-.165-.063h-.063l-.2-.126h-.04l-.2-.073h-.072l-.17-.073h-.034l-.223-.053h-.073l-.18-.04h-.058l-.228-.038h-.068l-.18-.024h-.903A7.5 7.5 0 006.215 5.3a.1.1 0 01.029.058c-.121.029-.121.049-.17.053l-.083.078a.842.842 0 00.29 0c.03-.058.05-.107.108-.131a.21.21 0 01.083 0 .588.588 0 000 .087c.15-.087.024-.092.107-.252-.131 0-.112 0-.19-.092a.451.451 0 01.336-.107c0 .078-.044.078 0 .146.087-.058.146-.2.286-.175l.087.053a.832.832 0 01-.277.112c-.04.417.136.068.078.354a.325.325 0 00.243-.16c-.04-.05-.092-.05-.126-.112a.286.286 0 01.15-.17.4.4 0 01.175-.034c.767 0 .4.039.64.146.054.024.147.039.18.083.035.044 0 .146.079.2.078.054.078 0 .165.107a.16.16 0 01-.155.13c-.131 0-.053-.086-.194-.072 0 .13.13.184 0 .252-.131.068-.04 0-.117 0l-.04.044c-.193-.053-.154-.03-.271-.155-.044-.05-.05-.063-.126-.053a.235.235 0 01-.16-.024c.1-.117.14 0 .277-.073a1.43 1.43 0 00.2-.155c-.044-.092 0 0-.068-.073-.136-.141-.175-.1-.354-.1-.087.1-.15.218-.243.272a.22.22 0 01-.214 0c.039.17.146.039.155.243-.068 0-.107-.05-.18-.024-.15.058 0 .053 0 .083 0 .03.073 0 0 .039s0 0-.165-.107l.068-.121a2.984 2.984 0 00-.432.175c-.15.07-.29.158-.417.262 0 .146.024.049.039.218.223 0 .15.083.379.146.054.016.109.027.165.034 0 .112-.1.189-.03.3.156.112.16-.1.2-.238.535-.112.278-.267.414-.558a.533.533 0 01.092-.141h.243c.12.024.058.053.184.107 0 .107-.053.243.1.218.153-.025.092-.117.233-.141.047.128.073.263.078.4.35.136.194.247.126.485l.136.058v.218l-.408.044c.058-.16.155-.16.223-.325-.131 0-.121.063-.214.092a.97.97 0 01-.238 0v.044c0 .049.029 0 0 .058-.121-.058-.083-.19-.306-.068l.155.068c0 .146 0 .034-.05.136-.077.252.21.092.282.083 0 .13-.1.13-.214.17-.114.039-.17.087-.272.112 0-.155 0-.024.049-.136a.973.973 0 00-.272.1c-.126.049-.146.058-.16.214a.732.732 0 00-.3.15c-.078.068-.15.14-.223.214.024.2 0 .2-.121.277a1.42 1.42 0 00-.228.15c-.306.267-.16.14-.141.607l-.18-.058c-.05-.311 0-.21-.233-.281-.233-.072-.233.053-.345.078-.112.025-.184-.112-.36 0-.1.068-.193.112-.217.233a1.45 1.45 0 00-.083.413c0 .432.413.456.51.252.068-.131.053-.21.272-.17a.484.484 0 01-.04.286c0 .053-.072.146-.048.218.155.063.165-.053.369.068 0 .209-.092.442.068.558.16.116.126 0 .238 0 .112 0 .1.053.209.073.063-.078.039-.03.078-.126.039-.097.092-.083.262-.184l.049-.03.058.118c.126-.15.14 0 .286.034a.476.476 0 00.14 0c.108 0 .118-.05.263 0 .02.003.039.003.058 0 .024.029.024.053.044.083l.3.28c.189.079.189-.062.408.147.092.087.049.087.1.2a.07.07 0 00.029.053c.029.02.044.1.063.155.1.126.233.049.374.18.14.13 0 .053.194.083.272.049.165.024.374.18.078.058.1 0 .175.073a.364.364 0 010 .432c-.267.388-.18.325-.19.63 0 .18-.057.549-.227.593-.6.17-.252.286-.413.587-.044.083-.078.107-.107.17-.121.286-.034.379-.393.315l.044.073c.107.165.126.286-.092.33-.218.044-.1 0-.121.2-.068.029-.1 0-.146.049.063.112 0 0 .112.083a.7.7 0 01-.053.189c-.04.15-.053 0-.068.184.063.029.107.024.165.1.058.076-.068.214-.083.306.087.13.16.277.35.29 0 .113.024.1-.073.122a.682.682 0 01-.325-.1.865.865 0 01-.325-.282.885.885 0 00-.082-.107c-.087-.117-.053-.17-.078-.252a.292.292 0 01-.058-.248c0-.04.073-.243 0-.21-.073.035.063 0-.05.074a1.4 1.4 0 01-.062-.272c-.03-.15-.068-.155-.083-.252-.04-.214.053-.238-.05-.592-.062-.238-.038-.8-.106-1.082a.448.448 0 00-.044-.117c-.063-.107-.223-.155-.35-.243-.18-.121-.345-.607-.485-.791-.063-.087-.107-.05-.136-.184-.03-.135 0-.1.058-.21-.214-.392.28-.387.18-.858a.555.555 0 00-.141-.247c-.1.044-.053.068-.107.155l-.243-.141c-.247-.238-.117-.063-.184-.223-.15-.325-.291-.141-.485-.306-.078-.068-.092-.175-.228-.155-.136.02-.087.058-.3-.04a2 2 0 01-.485-.29c0-.233.063-.21-.112-.427a7.414 7.414 0 00-.18 1.626v.31a1.97 1.97 0 000 .243v.262a.219.219 0 000 .053l.029.223v.024c.006.083.019.166.039.247v.044l.044.218v.034l.058.243v.034l.058.214v.039c.024.083.049.16.078.238.029.078 0 0 0 .024s.053.14.078.214v.039c.029.078.063.155.1.233.037.078.063.146.1.218v.039c.073.15.146.3.228.442v.034c.08.145.168.286.262.422v.029c.092.14.189.277.29.413.05.068.1.13.15.194l.17.2.166.184c.237.249.49.482.757.699a8.119 8.119 0 00.845.583c.146.088.3.17.456.247A7.538 7.538 0 0018.6 11.056c0-.438-.039-.874-.117-1.305h.002zm-7.344-3.48c0 .045.039.088.063.132.029.117-.068 0 .029.165l.218.262c-.05.136-.044.146-.175.16-.131.014-.194.029-.262.029.024-.175-.024-.083 0-.184.024-.101.053-.03.092-.141-.087-.136-.18-.044-.175-.315a.36.36 0 01.21-.107zm3.965 6.966c-.04.107-.073.238-.112.35-.04.112-.16.67-.37.485a.43.43 0 010-.38c.132-.237 0-.183.059-.363.058-.18.146-.112.233-.19.087-.076.1-.193.2-.246a.33.33 0 01-.015.325l.005.019zm3.368-3.567v.063a.304.304 0 000-.064z"
 fill="currentColor"
 />
 <path
 fill-rule="evenodd"
 clip-rule="evenodd"
 d="M3.646 2.848A11.051 11.051 0 0111.072 0l.004.002a11.051 11.051 0 012.242 21.875l-1.272 3.6a.972.972 0 01-1.718.063l-1.456-3.655A11.05 11.05 0 013.646 2.848zM11 20a9 9 0 100-18 9 9 0 000 18z"
 fill="currentColor"
 />
 </svg>