<svg xmlns="http://www.w3.org/2000/svg" viewBox="0 0 14.753 14.753">
 <defs>
 <style>
 
 </style>
 </defs>
 <g id="kategori" transform="translate(0 0.478)">
 <g id="Group_3826" data-name="Group 3826">
 <path id="Path_1602" data-name="Path 1602" class="cls-1" d="M14.753,9.836v3.074a1.844,1.844,0,0,1-1.844,1.844H9.836a1.844,1.844,0,0,1-1.844-1.844V9.836A1.844,1.844,0,0,1,9.836,7.991h3.074a1.844,1.844,0,0,1,1.844,1.844M4.918,0H1.844A1.844,1.844,0,0,0,0,1.844V4.918A1.844,1.844,0,0,0,1.844,6.762H4.918A1.844,1.844,0,0,0,6.762,4.918V1.844A1.844,1.844,0,0,0,4.918,0m6.455,6.762A3.387,3.387,0,1,0,8.983,5.77,3.381,3.381,0,0,0,11.372,6.762ZM4.918,7.991H1.844A1.844,1.844,0,0,0,0,9.836v3.074a1.844,1.844,0,0,0,1.844,1.844H4.918a1.844,1.844,0,0,0,1.844-1.844V9.836A1.844,1.844,0,0,0,4.918,7.991" transform="translate(0 -0.478)"/>
 </g>
 </g>
</svg>