<svg
 viewBox="0 0 12 12"
 xmlns="http://www.w3.org/2000/svg"
 >
 <g clip-path="url(#a)">
 <path
 fill="currentColor"
 d="M5.222 6.908h.91a.287.287 0 0 1 .3.3v1.82a.287.287 0 0 1-.3.3h-.91z"
 />
 <path
 fill="currentColor"
 d="M2.798-.37c.967 0 5.701 1.092 6.55 1.274h.3l1.944-.546a.287.287 0 0 1 .3.3V5.33c0 .182-.121.3-.3.243l-2-.546h-.3c-.485.121-2.547.607-4.185.91a.844.844 0 0 0-.672 1.032l.788 3.579a.607.607 0 0 1 0 1.213h-1.94a.591.591 0 0 1-.607-.485l-.849-4.731a.877.877 0 0 0-.425-.607A3.344 3.344 0 0 1-.235 2.966 3.194 3.194 0 0 1 2.798-.37zm-.607 4.852h2.426a.573.573 0 0 0 .607-.607.573.573 0 0 0-.607-.607H2.191a.573.573 0 0 0-.607.607.573.573 0 0 0 .607.607m0-1.82h2.426a.573.573 0 0 0 .607-.607.573.573 0 0 0-.607-.607H2.191a.573.573 0 0 0-.607.607.573.573 0 0 0 .607.607"
 />
 </g>
 </svg>