<svg xmlns="http://www.w3.org/2000/svg" viewBox="0 0 20.506 14.35">
 <defs>
 <clipPath id="qz8lw28yha">
 <path data-name="Rectangle 2251" fill="currentColor" d="M0 0h20.506v14.35H0z"/>
 </clipPath>
 </defs>
 <g data-name="Group 4798" style="clip-path:url(#qz8lw28yha)">
 <path data-name="Path 3140" d="M3.219 10.718a.764.764 0 0 1-.313-1.032l.744-1.392A.763.763 0 1 1 5 9.013l-.75 1.394a.764.764 0 0 1-1.031.311zm15.064-3.682a1.6 1.6 0 0 0-.452-.384l-4.054-2.31a2.155 2.155 0 0 0-1.092-.282 6.106 6.106 0 0 0-2.181.592c-1.374.557-2.576 1.043-3.7-.183a14.4 14.4 0 0 0 2.77-2.136 7.112 7.112 0 0 1 1-.849 3.368 3.368 0 0 1 3.736-.214 2.722 2.722 0 0 0 2.407.207L18.375.59l2.132 5.5zM17.732 8.4a.776.776 0 0 0-.306-1.039l-4.054-2.31c-.7-.4-1.561-.048-2.561.358-1.5.608-3.372 1.365-4.953-.813A.409.409 0 0 1 5.985 4a14.043 14.043 0 0 0 3.008-2.243c.205-.208.414-.4.623-.572a3.494 3.494 0 0 0-2.459-.04 3.125 3.125 0 0 1-2.385-.08L2.462 0 0 5.239l.135.061c.689.31 1.972.889 2.208.98a1.5 1.5 0 0 1 .834 1.284 1.579 1.579 0 0 1 2.657.629A1.605 1.605 0 0 1 5.9 8.5a1.576 1.576 0 0 1 1.849 1.081l.022.08.076-.025a1.577 1.577 0 0 1 1.969 1.051l.022.079.076-.025a1.579 1.579 0 0 1 1.671.5l1.779.984a.763.763 0 1 0 .732-1.339l-2.5-1.409a.409.409 0 1 1 .4-.713l3.166 1.769a.763.763 0 1 0 .732-1.339l-2.5-1.415a.409.409 0 0 1 .4-.713l2.906 1.64a.777.777 0 0 0 1.033-.3zm-4.8 5.388a.765.765 0 0 1-1.037.3l-.554-.3.425-.788a1.571 1.571 0 0 0 .182-.622l.682.375a.766.766 0 0 1 .305 1.037zm-3.055.526a.762.762 0 0 1-.894-1.089l.717-1.332a.763.763 0 0 1 1.346.72l-.714 1.334a.756.756 0 0 1-.452.369zM7.711 13.4a.762.762 0 0 1-.894-1.089l.815-1.525a.763.763 0 0 1 1.346.72l-.816 1.525a.758.758 0 0 1-.452.369zm-2.26-.745a.758.758 0 0 0 .452-.369L6.911 10.4A.772.772 0 0 0 6.6 9.37a.789.789 0 0 0-1.031.309l-1.01 1.889a.762.762 0 0 0 .894 1.089z" fill-rule="evenodd" fill="currentColor"/>
 </g>
</svg>