<svg
 viewBox="0 0 12.69 16"
 xmlns="http://www.w3.org/2000/svg"
 >
 <g fill="currentColor">
 <path
 d="M12.683 3.506c0-.346.014-.7 0-1.041v-.012a.4.4 0 0 0-.287-.377l-2.03-.7L7.167.263C6.931.181 6.7.087 6.456.017a.45.45 0 0 0-.3.027l-.37.127-3.063 1.061-2.4.83-.039.014A.4.4 0 0 0 0 2.453V8.36a5.813 5.813 0 0 0 .33 1.907 8.584 8.584 0 0 0 2.19 3.28 12.12 12.12 0 0 0 3.22 2.227q.2.094.4.182l.025.012a.632.632 0 0 0 .061.022.467.467 0 0 0 .3-.031 12.085 12.085 0 0 0 3.267-2.079 9.012 9.012 0 0 0 2.354-3.124 6.323 6.323 0 0 0 .5-1.944c.031-.361.02-.727.02-1.09V3.506zM9.811 5.901l-.486.486-2.109 2.114-1.332 1.332a.593.593 0 0 1-.828 0l-.27-.27L2.9 7.674a.586.586 0 1 1 .828-.828l.27.272 1.471 1.475.074-.074 2.108-2.11L8.98 5.075a.587.587 0 0 1 .83.83z"
 />
 </g>
 </svg>