<svg xmlns="http://www.w3.org/2000/svg" viewBox="0 0 9.908 10.277">
 <g data-name="Group 6315">
 <path data-name="Path 3397" d="M9.908 5.139a5.049 5.049 0 0 1-4.954 5.139A5.049 5.049 0 0 1 0 5.139 5.049 5.049 0 0 1 4.954 0a5.049 5.049 0 0 1 4.954 5.139zM4.069 3.875h-.818a1.541 1.541 0 0 1 1.707-1.627 1.477 1.477 0 0 1 1.655 1.439 1.575 1.575 0 0 1-.77 1.321c-.456.359-.625.493-.625.955v.228h-.81v-.3a1.473 1.473 0 0 1 .723-1.276c.365-.285.6-.473.6-.881a.729.729 0 0 0-.814-.75.806.806 0 0 0-.841.889zm.775 4.139a.6.6 0 1 1 0-1.2.6.6 0 1 1 0 1.2z" fill="currentColor" fill-rule="evenodd"/>
 </g>
</svg>