<svg xmlns="http://www.w3.org/2000/svg" viewBox="0 0 17 17">
 <defs>
 <clipPath id="17nbb85o8a">
 <path data-name="Rectangle 2069" fill="currentColor" d="M0 0h17v17H0z"/>
 </clipPath>
 </defs>
 <g data-name="Group 3164" style="clip-path:url(#17nbb85o8a)">
 <path data-name="Path 1935" d="M41.537 35.945a5.709 5.709 0 1 1-.01 0h.01M41.527 34a7.527 7.527 0 1 0 3.764 1.008A7.527 7.527 0 0 0 41.527 34" transform="translate(-33.027 -33.027)" fill="currentColor"/>
 <path data-name="Path 1936" d="M221.637 227.507h-.079a1.213 1.213 0 0 1-.972-.521 1.526 1.526 0 0 1-.033-1.4l1.065-2.928c.108-.3.1-.469.056-.533a.057.057 0 0 0-.048-.027c-.068 0-.261.051-.612.529l-.06.082h-.022a.361.361 0 0 1-.505-.5 3.336 3.336 0 0 1 1.17-1.1v.008-.009a2.107 2.107 0 0 1 .92-.212h.079a1.213 1.213 0 0 1 .972.521 1.525 1.525 0 0 1 .033 1.4l-1.066 2.928c-.108.3-.1.469-.056.533a.057.057 0 0 0 .048.027c.068 0 .261-.052.612-.528a.361.361 0 0 1 .624.354v.014l-.037.052a3.508 3.508 0 0 1-1.06 1.043v.006l-.112.055a2.107 2.107 0 0 1-.919.212" transform="translate(-214.057 -214.572)" fill="currentColor"/>
 <path data-name="Path 1937" d="M230.355 232.873a3.143 3.143 0 0 1-1.1 1.04 1.893 1.893 0 0 1-.894.191c-.81-.067-1.187-.678-.833-1.65l1.065-2.928c.23-.632.007-.824-.175-.829q-.326-.006-.778.61a.161.161 0 0 1-.262-.186 3.143 3.143 0 0 1 1.1-1.04 1.9 1.9 0 0 1 .894-.191c.811.067 1.187.678.833 1.65l-1.065 2.928c-.23.632-.007.824.175.829q.326.006.778-.61a.161.161 0 0 1 .262.186z" transform="translate(-220.848 -221.371)" fill="currentColor"/>
 <path data-name="Path 1938" d="M307.8 144a.958.958 0 1 1 .4-.09.965.965 0 0 1-.4.09" transform="translate(-298.067 -138.02)" fill="currentColor"/>
 <path data-name="Path 1939" d="M315.334 150.1a.758.758 0 1 1-.025-.579.758.758 0 0 1 .025.579" transform="translate(-304.885 -144.82)" fill="currentColor"/>
 </g>
</svg>