<svg
 viewBox="0 0 18 18"
 xmlns="http://www.w3.org/2000/svg"
 >
 <g>
 <path
 fill="currentColor"
 d="M9.015-.025a9.025 9.025 0 1 1-9.04 9.04 9.02 9.02 0 0 1 9.04-9.04M4.154 5.689l.313.2a.4.4 0 0 1 .114.54 5.055 5.055 0 0 0 0 5.145.4.4 0 0 1-.114.54l-.313.227a.455.455 0 0 1-.6-.142 6.423 6.423 0 0 1 0-6.4.421.421 0 0 1 .6-.114zm4.832 1.705a1.606 1.606 0 1 1-1.592 1.621 1.6 1.6 0 0 1 1.592-1.62m-2.444.34a2.769 2.769 0 0 0 0 2.5.4.4 0 0 1-.142.512l-.285.228a.423.423 0 0 1-.6-.142 4.036 4.036 0 0 1 0-3.7.423.423 0 0 1 .6-.142l.284.227a.4.4 0 0 1 .142.512zm7.9-1.933a6.423 6.423 0 0 1 0 6.4.455.455 0 0 1-.6.142l-.313-.227a.4.4 0 0 1-.114-.54 5.055 5.055 0 0 0 0-5.145.4.4 0 0 1 .114-.54l.313-.2a.421.421 0 0 1 .6.114zm-2.841 1.422.284-.227a.423.423 0 0 1 .6.142 4.036 4.036 0 0 1 0 3.7.423.423 0 0 1-.6.142l-.284-.227a.4.4 0 0 1-.142-.512 2.769 2.769 0 0 0 0-2.5.4.4 0 0 1 .142-.512z"
 fill-rule="evenodd"
 />
 </g>
 </svg>