<svg viewBox="0 0 18 12"
 xmlns="http://www.w3.org/2000/svg"
 >
 <path
 d="M87.557 157.493a8.808 8.808 0 1 0 8.808 8.808 8.812 8.812 0 0 0-8.808-8.808m1.408 1.739a7.241 7.241 0 0 0-3.81.273v2.233a.8.8 0 0 1-.209.539l-1.393 1.531v1.292a.8.8 0 0 1-.085.358l-.716 1.432v4.78a7.179 7.179 0 0 0 4.8 1.837q.293 0 .58-.023v-2.27l-1.766-.883a.8.8 0 0 1-.443-.716v-2.361a.8.8 0 0 1 .153-.471l1.1-1.519a.8.8 0 0 1 .648-.33h3.313a.8.8 0 0 1 .459.145l1.174.821h1.973q-.015-.273-.05-.54l-1.669-.271a.8.8 0 0 1-.284-.1l-1.802-1.089h-3.381a.8.8 0 0 1-.759-.548l-.4-1.2a.8.8 0 0 1 .006-.523l.4-1.118a.8.8 0 0 1 .56-.507l1.6-.4z"
 transform="translate(-74.294 -151.99)"
 fill="currentColor"
 />
 <path
 d="m411.249 63.508 2.264-2.265.567.566-.283.85.8.8 1.982-1.982.566.566-1.486 2.477 1.154 1.154a.8.8 0 1 1-1.133 1.132l-1.154-1.154-2.477 1.486-.566-.566 1.982-1.982-.8-.8-.849.283z"
 transform="translate(-390.73 -58.688)"
 fill="currentColor"
 />
 <path
 d="M1.6 13.612C1.6 7 6.422 1.6 12.411 1.6a9.977 9.977 0 0 1 5.77 1.856.8.8 0 1 0 .922-1.31A11.569 11.569 0 0 0 12.411 0C5.584 0 0 6.078 0 13.612a.8.8 0 0 0 1.6 0z"
 fill="currentColor"
 />
 </svg>