<svg
 viewBox="0 0 13.051 14.15"
 xmlns="http://www.w3.org/2000/svg"
 >
 <g>
 <path
 fill="currentColor"
 d="M5.966 3.487a1.206 1.206 0 0 0 .332.107 1.185 1.185 0 0 0 .225.021h.006a1.35 1.35 0 0 0 .215-.02 1.281 1.281 0 1 0-1.508-1.267 1.321 1.321 0 0 0 .059.386 1.291 1.291 0 0 0 .672.772z"
 />
 <path
 fill="currentColor"
 d="M6.526 7.099a2.4 2.4 0 0 0 2.993 0V5.892a1.675 1.675 0 0 0-1.652-1.667h-2.7A1.638 1.638 0 0 0 3.58 5.512a1.723 1.723 0 0 0-.047.381v1.208a2.4 2.4 0 0 1 2.994 0z"
 />
 <path
 fill="currentColor"
 d="M6.526 8.659C2.926 8.659 0 7.198 0 5.396v5.491c0 1.8 2.921 3.263 6.526 3.263s6.525-1.461 6.525-3.263v-5.49c0 1.8-2.921 3.263-6.525 3.263zm0 3.726a.44.44 0 1 1 .44-.44.44.44 0 0 1-.44.44m.949-1.317h-1.9V9.812h1.9z"
 />
 </g>
 </svg>