<svg xmlns="http://www.w3.org/2000/svg" viewBox="0 0 18.614 11.456">
 <defs>
 <clipPath id="1keo0wd7aa">
 <path data-name="Rectangle 1937" fill="currentColor" d="M0 0h18.614v11.456H0z"/>
 </clipPath>
 </defs>
 <g data-name="0-6yas">
 <g data-name="Group 2372" transform="translate(0 -.001)" style="clip-path:url(#1keo0wd7aa)">
 <path data-name="Path 1792" d="M8.591 4.654a.716.716 0 0 1-.715.716H6.443v5.33a.743.743 0 0 1-.6.745.716.716 0 0 1-.836-.706V8.592H3.579v2.148a.716.716 0 0 1-.836.706.743.743 0 0 1-.6-.745V5.369H.716a.716.716 0 1 1 0-1.431h2.393a2.148 2.148 0 1 1 2.373 0h2.394a.716.716 0 0 1 .716.716zm9.309-.716h-2.4a2.148 2.148 0 1 0-2.373 0h-2.388a.716.716 0 0 0 0 1.432h1.432L10.9 9.194a.358.358 0 0 0 .34.471h.935V10.7a.743.743 0 0 0 .6.745.717.717 0 0 0 .836-.706V9.666h1.431v1.074a.717.717 0 0 0 .836.706.743.743 0 0 0 .6-.745V9.666h.922a.358.358 0 0 0 .34-.471L16.466 5.37H17.9a.716.716 0 1 0 0-1.432z" fill="currentColor"/>
 </g>
 </g>
</svg>