<svg xmlns="http://www.w3.org/2000/svg" viewBox="0 0 19.231 14.828">
 <defs>
 <clipPath id="xo0ujw4oaa">
 <path data-name="Rectangle 2295" fill="currentColor" d="M0 0h19.231v14.828H0z"/>
 </clipPath>
 </defs>
 <g data-name="Group 5334" style="clip-path:url(#xo0ujw4oaa)">
 <path data-name="Path 3230" d="M12.512.566a1.8 1.8 0 0 0-2.543 0L6.345 4.19 2.155 0 1.72.435a1.8 1.8 0 0 0 0 2.543L4.639 5.9 0 10.536 1.062 11.6a.911.911 0 0 0 1.289 0L12.947 1z" fill="currentColor"/>
 <path data-name="Path 3231" d="m41.874 28.511-.427-.39a1.982 1.982 0 0 0-1.727-.488 2.024 2.024 0 0 0-.84.461l-3.822 3.823-.919-.9-1.025 1.025a.963.963 0 0 0 0 1.362l.231.226-4.434 4.435 1.062 1.062a.911.911 0 0 0 1.289 0l3.81-3.811 1.569 1.532a4.464 4.464 0 0 0 3.5 1.588A4.947 4.947 0 0 0 44 36.519a5.1 5.1 0 0 0 .892-3.865A6.887 6.887 0 0 0 43 29.6a22.53 22.53 0 0 0-1.122-1.084m-2.06 2.066a.964.964 0 0 1 .732-.02c2.077 1.638 2.014 2.738 2.014 2.738a2.355 2.355 0 0 1-1.957 2.629 2.447 2.447 0 0 1-2.26-.785l-1.56-1.529 3.026-3.034m-2.455 2.45-.571.584-.006-.006z" transform="translate(-25.742 -24.565)" fill="currentColor"/>
 </g>
</svg>