<svg xmlns="http://www.w3.org/2000/svg" viewBox="0 0 19.638 14.027">
 <path data-name="Path 1907" d="M7.861 18.25a.7.7 0 0 1 .7-.7h12.626a.7.7 0 0 1 0 1.4H8.562a.7.7 0 0 1-.701-.7zm0-5.611a.7.7 0 0 1 .7-.7h12.626a.7.7 0 0 1 0 1.4H8.562a.7.7 0 0 1-.701-.7zm0-5.611a.7.7 0 0 1 .7-.7h12.626a.7.7 0 0 1 0 1.4H8.562a.7.7 0 0 1-.701-.7zM3.653 8.43a1.4 1.4 0 1 0-1.4-1.4 1.4 1.4 0 0 0 1.4 1.4zm0 5.611a1.4 1.4 0 1 0-1.4-1.4 1.4 1.4 0 0 0 1.4 1.4zm0 5.611a1.4 1.4 0 1 0-1.4-1.4 1.4 1.4 0 0 0 1.4 1.4z" fill="currentColor" fill-rule="evenodd" transform="translate(-2.25 -5.625)"/>
</svg>