<svg data-name="Group 7419" xmlns="http://www.w3.org/2000/svg" viewBox="0 0 45.041 32.833">
 <defs>
 <clipPath id="uc2ybc5nna">
 <path data-name="Rectangle 2418" fill="currentColor" d="M0 0h45.041v32.833H0z"/>
 </clipPath>
 </defs>
 <g data-name="Group 7418" style="clip-path:url(#uc2ybc5nna)">
 <path data-name="Path 3171" d="M423.146.5a1.6 1.6 0 0 0-2.323 0 1.6 1.6 0 0 0 0 2.323 19.187 19.187 0 0 1 5.595 13.607 18.928 18.928 0 0 1-5.642 13.56 1.6 1.6 0 0 0 0 2.323 1.718 1.718 0 0 0 2.371 0 22.339 22.339 0 0 0 6.59-15.93A22.23 22.23 0 0 0 423.146.5z" transform="translate(-384.695 .001)" fill="currentColor"/>
 <path data-name="Path 3172" d="M3.319 16.939a18.848 18.848 0 0 1 5.642-13.56 1.6 1.6 0 0 0 0-2.323 1.6 1.6 0 0 0-2.323 0A21.925 21.925 0 0 0 0 16.939a22.339 22.339 0 0 0 6.59 15.93 1.718 1.718 0 0 0 2.371 0 1.6 1.6 0 0 0 0-2.323 19.117 19.117 0 0 1-5.642-13.607z" transform="translate(0 -.511)" fill="currentColor"/>
 <path data-name="Path 3173" d="M357.578 66.577a1.643 1.643 0 1 0-2.323 2.323 11.218 11.218 0 0 1 0 15.93 1.6 1.6 0 0 0 0 2.323 1.718 1.718 0 0 0 2.371 0 14.453 14.453 0 0 0 4.267-10.288 14.781 14.781 0 0 0-4.314-10.288z" transform="translate(-324.722 -60.484)" fill="currentColor"/>
 <path data-name="Path 3174" d="M97.349 77.426a11.151 11.151 0 0 1 3.319-7.965 1.643 1.643 0 0 0-2.323-2.323 14.594 14.594 0 0 0 .048 20.672 1.66 1.66 0 1 0 2.371-2.323 11.234 11.234 0 0 1-3.414-8.06z" transform="translate(-86.113 -60.998)" fill="currentColor"/>
 <path data-name="Path 3175" d="M218.48 117.924a1.492 1.492 0 0 0-2.323 1.233v9.909a1.492 1.492 0 0 0 2.323 1.233l7.444-4.978a1.506 1.506 0 0 0 0-2.513z" transform="translate(-197.856 -107.707)" fill="currentColor"/>
 </g>
</svg>