<svg
 viewBox="0 0 17.99 13.23"
 xmlns="http://www.w3.org/2000/svg"
 >
 <g clip-path="url(#a)" fill="currentColor">
 <path
 d="M10.533 7.512a1.209 1.209 0 01-.375-.885V5.383h1.274a1.229 1.229 0 011.244 1.244h-.015a1.214 1.214 0 01-.367.892 1.231 1.231 0 01-1.761-.007M7.984.631a1.226 1.226 0 00-.375.9v5.1a3.656 3.656 0 001.124 2.691 3.693 3.693 0 002.7 1.117 3.644 3.644 0 002.684-1.117 3.68 3.68 0 001.109-2.691 3.8 3.8 0 00-3.807-3.796h-1.261v-1.3a1.272 1.272 0 00-2.174-.9"
 />
 <path
 d="M10.728.717v1.59h1.465V.717A.732.732 0 0011.445 0a.706.706 0 00-.717.717"
 />
 <path
 d="M15.311 2.129l-1.123 1.159 1.029 1.029 1.122-1.154a.734.734 0 000-1.029.734.734 0 00-1.029 0"
 />
 <path
 d="M10.665 10.921v1.59a.732.732 0 00.748.717.705.705 0 00.717-.717v-1.59z"
 />
 <path
 d="M15.685 5.933v1.434h1.59a.717.717 0 100-1.434z"
 />
 <path
 d="M14.188 9.986l1.123 1.122a.728.728 0 001.029-1.029l-1.122-1.122z"
 />
 <path
 d="M2.072.704a1.215 1.215 0 00-.382.9v1.2h-.416a1.228 1.228 0 00-.9.375 1.267 1.267 0 000 1.8 1.227 1.227 0 00.9.375h.416v1.334a3.656 3.656 0 001.124 2.691 3.693 3.693 0 002.7 1.117h.315a1.274 1.274 0 000-2.549H5.5a1.28 1.28 0 01-1.259-1.259V5.426h1.586a1.272 1.272 0 00.9-2.174 1.228 1.228 0 00-.9-.375H4.253V1.603a1.227 1.227 0 00-.375-.9 1.228 1.228 0 00-.9-.375 1.252 1.252 0 00-.907.375"
 />
 </g>
 </svg>