<svg
 viewBox="0 0 16 16"
 fill="none"
 xmlns="http://www.w3.org/2000/svg"
 >
 <mask
 id="a"
 maskUnits="userSpaceOnUse"
 x="7"
 y="3"
 >
 <path
 d="M11.413 6.182a2.452 2.452 0 00-.821-.565 2.414 2.414 0 00-.974-.188h-.84v-.887c0-.23-.09-.45-.249-.613a.842.842 0 00-1.202 0 .875.875 0 00-.249.613v3.465c-.005.34.06.68.188.994.13.315.32.599.562.835a2.43 2.43 0 001.8.759c.334.006.665-.059.973-.19.307-.13.586-.324.817-.569.235-.24.421-.525.549-.839a2.627 2.627 0 00-.554-2.814zm-.957 1.824a.848.848 0 01-.255.607.798.798 0 01-.585.25.846.846 0 01-.59-.256.878.878 0 01-.25-.6V7.16h.85a.807.807 0 01.59.245.836.836 0 01.24.601z"
 fill="#fff"
 />
 </mask>
 <g mask="url(#a)" fill="#fff">
 <path d="M6.42 2.456l-.943.962.943.962.944-.962-.944-.962z" />
 <path d="M6.42 4.372l-.943.962.943.962.944-.962-.944-.962zm.945-.96l-.943.961.943.961.943-.96-.943-.962z" />
 <path d="M8.303 2.456l-.944.962.944.962.943-.962-.943-.962zM6.42 6.294l-.943.962.943.961.944-.961-.944-.962z" />
 <path d="M7.365 5.335l-.943.962.943.961.944-.961-.944-.962z" />
 <path d="M8.303 4.372l-.944.962.944.962.943-.962-.943-.962zm.945-.96l-.943.961.943.962.944-.962-.944-.961z" />
 <path d="M10.194 2.456l-.944.962.944.962.943-.962-.944-.962zM6.42 8.222l-.943.962.943.961.944-.961-.944-.962zm.945-.961l-.943.962.943.961.943-.961-.943-.962z" />
 <path d="M8.303 6.294l-.944.962.944.961.943-.961-.943-.962z" />
 <path d="M9.248 5.335l-.943.962.943.961.944-.961-.944-.962zm.946-.963l-.944.962.944.962.943-.962-.943-.962z" />
 <path d="M11.13 3.412l-.943.961.944.961.943-.96-.943-.962z" />
 <path d="M12.076 2.456l-.943.962.943.962.944-.962-.944-.962zM6.42 10.144l-.943.961.943.962.944-.962-.944-.961zm.945-.964l-.943.96.943.962.944-.961-.944-.962z" />
 <path d="M8.303 8.222l-.944.962.944.961.943-.961-.943-.962zm.945-.961l-.943.962.943.961.944-.961-.944-.962zm.945-.964l-.943.961.943.961.943-.96-.943-.962z" />
 <path d="M11.131 5.335l-.944.962.944.961.944-.961-.944-.962zm.945-.963l-.943.962.943.962.944-.962-.944-.962zm.946-.96l-.944.961.944.962.943-.962-.943-.961zm-4.719 6.732l-.944.961.944.962.943-.962-.943-.961zm.945-.965l-.943.962.943.961.944-.961-.944-.962z" />
 <path d="M10.194 8.222l-.944.962.944.961.943-.961-.944-.962z" />
 <path d="M11.13 7.261l-.943.962.944.961.943-.961-.943-.962zm.946-.967l-.943.962.944.961.943-.961-.944-.962z" />
 <path d="M13.022 5.335l-.944.962.944.961.943-.961-.943-.962zm-2.828 4.809l-.944.961.944.962.943-.961-.943-.962z" />
 <path d="M11.131 9.179l-.944.962.944.961.944-.961-.944-.962z" />
 <path d="M12.076 8.222l-.943.962.943.961.944-.961-.944-.962zm.946-.961l-.944.962.944.961.943-.961-.943-.962z" />
 <path d="M12.076 10.144l-.943.961.943.962.944-.962-.944-.961zm.946-.964l-.944.96.944.962.943-.961-.943-.962z" />
 </g>
 <mask
 id="b"
 maskUnits="userSpaceOnUse"
 x="9"
 y="3"
 >
 <path
 d="M10.113 3.988a.49.49 0 00-.14-.345.474.474 0 00-.677 0 .493.493 0 00-.14.345v1.081h.957V3.988z"
 fill="#fff"
 />
 </mask>
 <g mask="url(#b)" fill="#fff">
 <path d="M8.498 3.299l-.943.96.943.962.943-.961-.943-.961zm.945-.961l-.943.96.943.962.943-.961-.943-.961zm0 1.922l-.943.963.944.961.943-.962-.944-.961zm.946-.962l-.944.962.944.961.943-.961-.943-.962z" />
 </g>
 <mask
 id="c"
 maskUnits="userSpaceOnUse"
 x="11"
 y="4"
 >
 <path
 d="M12.896 5.628a.496.496 0 00.112-.543.495.495 0 00-.265-.27.478.478 0 00-.534.114l-.748.784.686.7.749-.785z"
 fill="#fff"
 />
 </mask>
 <g mask="url(#c)" fill="#fff">
 <path d="M11.108 4.066l-.944.961.944.962.943-.962-.943-.961zm.945-.963l-.944.961.944.962.943-.962-.944-.96zm-.946 2.889l-.943.961.943.961.944-.96-.944-.962z" />
 <path d="M12.053 5.025l-.944.961.944.962.943-.962-.943-.961z" />
 <path d="M12.998 4.066l-.943.961.943.962.944-.962-.944-.961zm.946-.963L13 4.064l.944.962.943-.962-.944-.961zm-.946 2.889l-.943.961.943.961.943-.96-.943-.962z" />
 <path d="M13.943 5.025L13 5.986l.944.962.943-.962-.944-.961z" />
 </g>
 <mask
 id="d"
 maskUnits="userSpaceOnUse"
 x="9"
 y="10"
 >
 <path
 d="M9.156 12.013c0 .13.05.253.14.345a.474.474 0 00.677 0 .493.493 0 00.14-.345v-1.081h-.957v1.08z"
 fill="#fff"
 />
 </mask>
 <g mask="url(#d)" fill="#fff">
 <path d="M9.053 9.7l-.944.962.944.962.943-.962-.943-.961zm.875 2.954l.067-.07-.943-.961-.943.962.068.068h1.75zm.07-1.992l-.943.961.943.962.944-.962-.944-.961z" />
 <path d="M10.936 9.7l-.944.962.944.962.943-.962-.943-.961zm.882 2.954l.068-.07-.943-.961-.943.962.067.069h1.751z" />
 </g>
 <mask
 id="e"
 maskUnits="userSpaceOnUse"
 x="12"
 y="7"
 >
 <path
 d="M13.521 7.545h-1.06v.976h1.06a.474.474 0 00.339-.143.493.493 0 000-.69.474.474 0 00-.339-.143z"
 fill="#fff"
 />
 </mask>
 <g mask="url(#e)" fill="#fff">
 <path d="M12.06 7.03l-.943.962.943.961.944-.96-.944-.962zm.946-.964l-.944.961.944.962.943-.962-.943-.96z" />
 <path d="M13.006 7.988l-.944.961.944.962.944-.962-.944-.961z" />
 <path d="M13.951 7.03l-.943.962.943.962.944-.962-.944-.961z" />
 <path d="M14.889 6.066l-.944.961.944.962.943-.962-.943-.961z" />
 <path d="M14.889 7.988l-.944.961.944.962.943-.962-.943-.961z" />
 </g>
 <mask
 id="f"
 maskUnits="userSpaceOnUse"
 x="11"
 y="9"
 >
 <path
 d="M12.147 9.584l-.686.7.749.763a.48.48 0 00.68-.006.5.5 0 00.006-.694l-.749-.763z"
 fill="#fff"
 />
 </mask>
 <g mask="url(#f)" fill="#fff">
 <path d="M11.021 7.855l-.943.961.943.962.944-.962-.944-.96zm0 1.924l-.943.961.943.961.944-.96-.944-.962z" />
 <path d="M11.96 8.814l-.944.961.943.962.944-.962-.944-.961z" />
 <path d="M12.905 7.855l-.944.961.943.962.944-.961-.943-.962zm-.945 2.885l-.944.961.943.962.944-.962-.944-.962zm.945-.961l-.944.961.944.962.943-.962-.944-.961z" />
 <path d="M13.85 8.814l-.944.961.944.962.943-.962-.943-.96zm0 1.926l-.944.961.944.962.943-.962-.943-.961z" />
 </g>
 <mask
 id="g"
 maskUnits="userSpaceOnUse"
 x="2"
 y="3"
 >
 <path
 d="M5.886 8.853H5.68a.846.846 0 01-.59-.255.878.878 0 01-.25-.601v-.84h1.047a.842.842 0 00.601-.253.875.875 0 000-1.225.842.842 0 00-.6-.254h-1.05v-.883a.88.88 0 00-.25-.611.845.845 0 00-.929-.19.834.834 0 00-.277.19.826.826 0 00-.254.611v.882H2.85a.842.842 0 00-.601.254.875.875 0 000 1.225c.16.162.376.254.601.254h.277v.838c.003.687.273 1.345.75 1.83a2.528 2.528 0 001.8.759h.21a.842.842 0 00.6-.254.875.875 0 000-1.225.842.842 0 00-.6-.254v.002z"
 fill="#fff"
 />
 </mask>
 <g mask="url(#g)" fill="#fff">
 <path d="M1.381 3.019l-.944.961.944.962.944-.962-.944-.961zm.945-.969l-.943.962.943.962.943-.962-.943-.962z" />
 <path d="M1.38 4.935l-.942.961.943.962.943-.962-.943-.96z" />
 <path d="M2.326 3.98l-.943.961.943.962.944-.962-.944-.961zm.946-.961l-.944.961.944.962.943-.962-.943-.961z" />
 <path d="M4.209 2.05l-.943.962.943.962.943-.962-.943-.962zM1.38 6.859l-.942.961.943.962.944-.962-.944-.961zm.946-.963l-.943.961.943.962.944-.961-.944-.962zm.945-.961l-.943.961.943.962.944-.962-.944-.96z" />
 <path d="M4.21 3.98l-.944.961.943.962.944-.962-.944-.961zm.944-.961l-.943.961.943.962.944-.962-.944-.961zM6.1 2.05l-.944.962.943.962.944-.962L6.1 2.05zM1.381 8.785l-.944.961.944.962.944-.962-.944-.961zm.945-.967l-.943.961.943.962.944-.962-.944-.961z" />
 <path d="M3.272 6.859l-.944.961.944.962.943-.962-.943-.961z" />
 <path d="M4.21 5.896l-.944.961.943.962.944-.961-.944-.962zm.945-.961l-.944.961.943.962.944-.961-.943-.962z" />
 <path d="M6.1 3.98l-.944.961.944.962.943-.962L6.1 3.98z" />
 <path d="M7.037 3.019l-.943.961.943.962.944-.962-.944-.961zM2.326 9.745l-.943.962.943.962.944-.962-.944-.962zm.946-.96l-.944.961.944.962.943-.962-.943-.961z" />
 <path d="M4.21 7.818l-.944.961.943.962.944-.962-.944-.961z" />
 <path d="M5.154 6.859l-.943.961.944.962.943-.962-.944-.961zm.946-.963l-.944.961.944.962.943-.961-.943-.962z" />
 <path d="M7.037 4.935l-.943.961.943.962.943-.962-.943-.96zM4.21 9.745l-.944.962.943.962.944-.962-.944-.962zm.945-.96l-.944.961.943.962.944-.962-.943-.961zm.945-.967l-.944.961.944.962.943-.962-.943-.961z" />
 <path d="M7.037 6.859l-.943.961.943.962.944-.962-.944-.961zM6.1 9.745l-.944.962.944.962.943-.962-.943-.962z" />
 <path d="M7.037 8.785l-.943.961.943.962.944-.962-.944-.961z" />
 </g>
 </svg>