<svg xmlns="http://www.w3.org/2000/svg" viewBox="0 0 32 32">
 <defs>
 <clipPath id="c63b67wsca">
 <path data-name="Rectangle 204" style="stroke:#707070;fill:#fff" d="M0 0h13.556v20.354H0z"/>
 </clipPath>
 </defs>
 <g data-name="Group 7741" transform="translate(-478 -1975)">
 <rect data-name="Rectangle 3463" width="32" height="32" rx="6" transform="translate(478 1975)" style="fill:#004094"/>
 <g data-name="Group 7738">
 <g data-name="Group 724" style="clip-path:url(#c63b67wsca)" transform="translate(487 1981)">
 <path data-name="Path 297" d="M9.2 18.367a2.1 2.1 0 0 0 2.1-2.092V5.816a2.1 2.1 0 0 0-2.1-2.092H2.092A2.1 2.1 0 0 0 0 5.816v10.46a2.1 2.1 0 0 0 2.092 2.092zM5.355 1.36a.518.518 0 0 1 .523-.523h1.193a.518.518 0 0 1 .523.523v1.548h.836V1.36A1.357 1.357 0 0 0 7.071 0H5.878a1.357 1.357 0 0 0-1.36 1.36v1.548h.837zm6.108 2.364h-.251a2.955 2.955 0 0 1 .92 2.134v10.4a2.955 2.955 0 0 1-.92 2.134h.251a2.1 2.1 0 0 0 2.093-2.092V5.836a2.1 2.1 0 0 0-2.092-2.113M9.518 20.354a1.192 1.192 0 0 0 1.192-1.192H8.326a1.179 1.179 0 0 0 1.192 1.192m-6.276 0a1.192 1.192 0 0 0 1.192-1.192H2.05a1.192 1.192 0 0 0 1.192 1.192" style="fill:#fff"/>
 <path data-name="Path 298" d="M14.111 29.764a.557.557 0 0 1-.569-.569v-.3a.513.513 0 0 0-.513-.513h-5.56a.513.513 0 0 0-.512.513v.3a.569.569 0 0 1-1.139 0v-.3a1.653 1.653 0 0 1 1.651-1.655h5.56a1.653 1.653 0 0 1 1.651 1.651v.3a.557.557 0 0 1-.569.569" transform="translate(-4.601 -21.542)" style="fill:#fff"/>
 <path data-name="Path 299" d="M14.111 56.8a.557.557 0 0 1-.569-.569v-.3a.513.513 0 0 0-.513-.512h-5.56a.513.513 0 0 0-.512.512v.3a.569.569 0 0 1-1.139 0v-.3a1.653 1.653 0 0 1 1.651-1.651h5.56a1.653 1.653 0 0 1 1.651 1.651v.3a.557.557 0 0 1-.569.569" transform="translate(-4.601 -42.92)" style="fill:#fff"/>
 </g>
 </g>
 </g>
</svg>