<svg xmlns="http://www.w3.org/2000/svg" viewBox="0 0 32 32">
 <g data-name="Group 7732" transform="translate(-478 -1975)">
 <rect data-name="Rectangle 3463" width="32" height="32" rx="6" transform="translate(478 1975)" style="fill:#5dafe6"/>
 <g data-name="Group 524">
 <path data-name="Path 219" d="M26.136 37.214v-8.809a.675.675 0 0 0-.681-.681h-2.362a.179.179 0 0 1-.18-.18v-3.663a.675.675 0 0 0-.681-.681h-8.068a.675.675 0 0 0-.681.681v2.543a.179.179 0 0 1-.18.18h-2.422a.675.675 0 0 0-.681.681v9.91a.359.359 0 0 0 .36.36h15.216a.331.331 0 0 0 .36-.341zm-12.553-2.322a.043.043 0 0 1-.04.04h-1.882a.043.043 0 0 1-.04-.04V33.01a.043.043 0 0 1 .04-.04h1.882a.043.043 0 0 1 .04.04zm0-3.444a.043.043 0 0 1-.04.04h-1.882a.043.043 0 0 1-.04-.04v-1.882a.043.043 0 0 1 .04-.04h1.882a.043.043 0 0 1 .04.04zm3.724 3.444a.043.043 0 0 1-.04.04h-1.882a.043.043 0 0 1-.04-.04V33.01a.043.043 0 0 1 .04-.04h1.882a.043.043 0 0 1 .04.04zm0-3.444a.043.043 0 0 1-.04.04h-1.882a.043.043 0 0 1-.04-.04v-1.882a.043.043 0 0 1 .04-.04h1.882a.043.043 0 0 1 .04.04zm0-3.6a.043.043 0 0 1-.04.04h-1.882a.043.043 0 0 1-.04-.04v-1.885a.043.043 0 0 1 .04-.04h1.882a.043.043 0 0 1 .04.04zm3.444 7.047a.043.043 0 0 1-.04.04h-1.882a.043.043 0 0 1-.04-.04V33.01a.043.043 0 0 1 .04-.04h1.882a.043.043 0 0 1 .04.04v1.882zm0-3.444a.043.043 0 0 1-.04.04h-1.882a.043.043 0 0 1-.04-.04v-1.885a.043.043 0 0 1 .04-.04h1.882a.043.043 0 0 1 .04.04v1.882zm0-3.6a.043.043 0 0 1-.04.04h-1.882a.043.043 0 0 1-.04-.04v-1.888a.043.043 0 0 1 .04-.04h1.882a.043.043 0 0 1 .04.04v1.882zm3.724 7.047a.043.043 0 0 1-.04.04h-1.882a.043.043 0 0 1-.04-.04V33.01a.043.043 0 0 1 .04-.04h1.882a.043.043 0 0 1 .04.04zm0-3.444a.043.043 0 0 1-.04.04h-1.882a.043.043 0 0 1-.04-.04v-1.888a.043.043 0 0 1 .04-.04h1.882a.043.043 0 0 1 .04.04z" transform="translate(475.8 1962.444)" style="fill:#fff"/>
 <path data-name="Path 220" d="M45.693 6.161a.119.119 0 0 0-.06-.2l-.781-.12c-.04 0-.08-.02-.08-.06l-.36-.721a.113.113 0 0 0-.2 0l-.36.721c-.02.04-.04.06-.08.06l-.781.12a.114.114 0 0 0-.06.2l.561.561c.02.02.02.04.02.08l-.14.781a.11.11 0 0 0 .16.12l.7-.36a.089.089 0 0 1 .1 0l.7.36a.11.11 0 0 0 .16-.12l-.1-.781c0-.04 0-.08.04-.1z" transform="translate(449.657 1977)" style="fill:#fff"/>
 <path data-name="Path 221" d="M31.5 9.521a.08.08 0 0 0-.04-.14l-.581-.08c-.02 0-.06-.02-.06-.04l-.26-.541a.094.094 0 0 0-.16 0l-.24.521c-.02.02-.04.04-.06.04l-.581.08c-.06.02-.1.1-.04.14l.42.4c.02.02.02.04.02.08l-.1.561a.078.078 0 0 0 .12.08l.521-.26a.061.061 0 0 1 .08 0l.521.26a.078.078 0 0 0 .12-.08l-.1-.561a.12.12 0 0 1 .02-.08z" transform="translate(460.403 1974.061)" style="fill:#fff"/>
 <path data-name="Path 222" d="m60.7 9.281-.581.08c-.06.02-.1.1-.04.14l.42.4c.02.02.02.04.02.08l-.1.561a.078.078 0 0 0 .12.08l.521-.26a.061.061 0 0 1 .08 0l.521.26a.078.078 0 0 0 .12-.08l-.1-.561a.12.12 0 0 1 .02-.08l.42-.4a.08.08 0 0 0-.04-.14l-.581-.08c-.02 0-.06-.02-.06-.04l-.26-.521a.094.094 0 0 0-.16 0l-.26.521c-.018.02-.038.04-.06.04z" transform="translate(435.929 1974.061)" style="fill:#fff"/>
 </g>
 </g>
</svg>