<svg data-name="Group 8208" xmlns="http://www.w3.org/2000/svg" viewBox="0 0 32 32">
 <g data-name="Group 7734">
 <rect data-name="Rectangle 3463" width="32" height="32" rx="6" style="fill:#2f4871"/>
 </g>
 <path data-name="Path 1439" d="M156.855 9.449a6.4 6.4 0 0 0-1.276 12.67l.843 2.116a.563.563 0 0 0 .995-.037l.736-2.085a6.4 6.4 0 0 0-1.3-12.665zm0 11.8a2.237 2.237 0 1 0 0-.006z" transform="translate(-140.446 -2.449)" style="fill:#fff"/>
 <path data-name="Path 1440" d="M201.224 498.633c0-.472-2.287-.843-5.108-.843s-5.106.379-5.106.843 2.287.843 5.108.843 5.108-.382 5.108-.843z" transform="translate(-179.707 -475.107)" style="fill:#fff"/>
 <path data-name="Path 1441" d="m260.93 105.04.051-.042z" transform="translate(-247.382 -94.929)" style="fill:#fff"/>
 <path data-name="Path 1442" d="M392.015 141.643c0-.1-.124-.135-.2-.177 0-.09.025-.02.02-.107a.151.151 0 0 0-.07 0c-.062.028-.028.036-.028.048s.065 0 0 .048a.1.1 0 0 1-.07.017c-.045-.059-.042-.09-.124-.093a.451.451 0 0 0-.093.146c-.028.082 0 .025 0 .115v.039c.068-.014.017-.014.065-.028a.706.706 0 0 1 .228-.048c.081.04.163.116.272.04z" transform="translate(-373.696 -130.119)" style="fill:#fff"/>
 <path data-name="Path 1443" d="M416.189 141.794a.216.216 0 0 0 .208.053c0-.11-.022-.1-.056-.18a.162.162 0 0 1 .025-.022c.025-.031 0 .014.025-.042-.068-.022-.171-.09-.18-.177.031-.025.022 0 .045-.025s0 .017.042-.039c-.025-.051-.053-.059-.118-.034a.653.653 0 0 0-.118.076.362.362 0 0 0 .149.25.517.517 0 0 0-.022.14z" transform="translate(-397.532 -130.079)" style="fill:#fff"/>
 <path data-name="Path 1444" d="M223.129 78.174a.528.528 0 0 1-.039-.087.834.834 0 0 1-.188.048c-.042.056 0 .034-.07.093a2.479 2.479 0 0 1-.23.225 1.5 1.5 0 0 1-.017.239c0 .045-.059.16-.115.152a1.179 1.179 0 0 1-.115-.244 2.148 2.148 0 0 1-.087-.259.774.774 0 0 0-.034-.2c-.059 0-.056.048-.115 0s-.022-.048-.045-.09l-.146-.124h-.245c-.11 0-.121 0-.185-.093-.115 0-.107.051-.219-.048s-.062-.163-.169-.107c0 .093.042.112.082.155s.065.056.082.1 0 .042 0 .048a.249.249 0 0 0 .188-.084c.056.053 0 .062.082.1s.053.014.093.067-.143.261-.2.3-.065 0-.1.042 0 .042-.093.079a1.262 1.262 0 0 1-.317.124c-.022-.065-.048-.129-.07-.2-.07-.225-.067-.138-.138-.253-.034-.051-.02-.084-.042-.129s-.039-.048-.062-.087-.07-.163-.143-.155a.686.686 0 0 0 .09.261c.02.042.053.059.065.118s0 .073.042.126c.093.112 0 .093.14.205s.082.107.126.216c.07.02.281-.073.32-.045.042.076-.051.2-.076.267-.076.225-.214.219-.317.393a1.43 1.43 0 0 0-.138.216c-.059.126.121.475 0 .621a2.2 2.2 0 0 0-.2.157c-.1.11 0 .09-.036.281-.031.042-.07.045-.107.076a.732.732 0 0 1-.028.132c-.025.065-.028.028-.065.082a.53.53 0 0 1-.053.1.383.383 0 0 1-.068.067.561.561 0 0 1-.4.1c-.062-.051-.02-.065-.034-.138a.668.668 0 0 0-.079-.169.527.527 0 0 1-.034-.07 1.843 1.843 0 0 0-.121-.441c-.11-.208.062-.317.056-.433a.449.449 0 0 0-.017-.076.659.659 0 0 0-.121-.348c-.1-.11-.082-.07-.051-.253s-.051-.155-.177-.16c-.062-.191-.183-.1-.3-.042-.076.034-.1 0-.188 0-.191.025-.042.107-.3-.1-.107-.084-.036-.039-.1-.146a1.508 1.508 0 0 0-.115-.126c-.1-.121.02-.242 0-.379-.031-.259-.073-.034.073-.346.073-.166.188-.166.219-.242s0-.112.053-.171.1-.039.126-.118-.031-.107-.1-.11c-.028-.1-.028-.073 0-.166s0-.076 0-.126c.028-.129.247 0 .312-.053a.155.155 0 0 0 0-.163c-.036-.051-.082-.045-.107-.1.053-.037.014 0 .062 0s.048-.028.112-.039.093-.065.149-.1.042-.1.138-.112c.155-.025.053-.022.07-.166l.07-.028c.048.062 0 .036.045.079l.051-.025c0-.07-.039-.056-.062-.143-.076 0-.1.079-.166.053s-.062-.107-.059-.18.132-.082.177-.1.059-.07.124-.135.022 0 .062-.107c.093 0 .051 0 .1-.034a.444.444 0 0 0 .115-.031.385.385 0 0 1 .329.02c.087.037.348.037.368.146-.065.067-.124.02-.214.025.017.084.022.084.1.107 0-.039 0-.025.017-.051h.076c.025-.084.053-.073.138-.082-.014-.062-.028-.045 0-.09.09 0 .017 0 .062.07.062 0 .121-.076.205-.084s.051.014.126 0 .059-.028.121 0c.022-.039 0-.039.053-.051a1.126 1.126 0 0 1 .236.048c-.059-.073-.115-.059-.042-.18.093-.02.1 0 .143.065.022 0 .031-.028.042-.034l-.017-.014-.107-.082-.02-.017-.093-.065-.028-.02c-.036-.025-.073-.051-.112-.073l-.059-.079-.034-.02-.1-.059h-.017l-.129-.07-.034-.017-.1-.045h-.028l-.124-.067h-.034l-.1-.037h-.036l-.115-.073h-.022l-.118-.042h-.042l-.1-.042h-.02l-.129-.031h-.042l-.1-.022h-.034l-.132-.022h-.039l-.1-.014h-.52a4.342 4.342 0 0 0-2.81.975.059.059 0 0 1 .017.034c-.07.017-.07.028-.1.031l-.048.045a.488.488 0 0 0 .169 0c.017-.034.028-.062.062-.076a.122.122 0 0 1 .048 0 .341.341 0 0 0 0 .051c.087-.051.014-.053.062-.146-.076 0-.065 0-.11-.053a.261.261 0 0 1 .194-.062c0 .045-.025.045 0 .084.051-.034.084-.115.166-.1l.051.031a.481.481 0 0 1-.16.065c-.022.242.079.039.045.205a.188.188 0 0 0 .14-.093c-.022-.028-.053-.028-.073-.065a.166.166 0 0 1 .087-.1.232.232 0 0 1 .1-.02c.444 0 .233.022.371.084.031.014.084.022.1.048s0 .084.045.118.045 0 .1.062a.093.093 0 0 1-.09.076c-.076 0-.031-.051-.112-.042 0 .076.076.107 0 .146s-.022 0-.067 0l-.022.025c-.112-.031-.09-.017-.157-.09-.025-.028-.028-.037-.073-.031a.136.136 0 0 1-.093-.014c.056-.068.082 0 .16-.042a.829.829 0 0 0 .118-.09c-.025-.053 0 0-.039-.042-.079-.082-.1-.059-.205-.059-.051.056-.087.126-.14.157a.127.127 0 0 1-.124 0c.022.1.084.022.09.141-.039 0-.062-.028-.1-.014-.087.034 0 .031 0 .048s.042 0 0 .022 0 0-.1-.062l.039-.07a1.727 1.727 0 0 0-.25.1 1.164 1.164 0 0 0-.242.152c0 .084.014.028.022.126.129 0 .087.048.219.084a.564.564 0 0 0 .1.02c0 .065-.056.11-.017.174.09.065.093-.059.115-.138.309-.065.16-.155.239-.323a.309.309 0 0 1 .053-.082h.14c.07.014.034.031.107.062 0 .062-.031.141.059.126s.053-.067.135-.082a.748.748 0 0 1 .045.233c.2.079.112.143.073.281l.079.034v.143l-.236.025c.034-.093.09-.093.129-.188-.076 0-.07.037-.124.053a.563.563 0 0 1-.138 0 .2.2 0 0 1 0 .025c0 .028.017 0 0 .034-.07-.034-.048-.11-.177-.039l.09.039c0 .084 0 .02-.028.079-.045.146.121.053.163.048 0 .076-.059.076-.124.1s-.1.051-.157.065c0-.09 0-.014.028-.079a.562.562 0 0 0-.157.056c-.073.028-.084.034-.093.124a.424.424 0 0 0-.174.087c-.045.039-.087.082-.129.124.014.115 0 .115-.07.16a.821.821 0 0 0-.132.087c-.177.155-.093.082-.082.351l-.1-.034c-.028-.18 0-.121-.135-.163s-.135.031-.2.045-.107-.065-.208 0c-.059.039-.112.065-.126.135a.838.838 0 0 0-.048.239c0 .25.239.264.3.146.039-.076.031-.121.157-.1a.28.28 0 0 1-.022.166c0 .031-.042.084-.028.126.09.036.1-.031.214.039 0 .121-.053.256.039.323s.073 0 .138 0 .056.031.121.042c.036-.045.022-.017.045-.073s.053-.048.152-.107l.028-.017.034.067c.073-.087.082 0 .166.02a.277.277 0 0 0 .082 0c.062 0 .067-.028.152 0a.1.1 0 0 0 .034 0c.014.017.014.031.025.048l.171.163c.11.045.11-.036.236.084.053.051.028.051.059.115a.04.04 0 0 0 .017.031c.017.011.025.059.036.09.059.073.135.028.216.1s0 .031.112.048c.157.028.1.014.216.1.045.034.056 0 .1.042a.211.211 0 0 1 0 .25c-.155.225-.1.188-.11.365 0 .1-.034.318-.132.343-.348.1-.146.166-.239.34-.025.048-.045.062-.062.1-.07.166-.02.219-.228.183l.025.042c.062.1.073.166-.053.191s-.059 0-.07.115c-.039.017-.059 0-.084.028.036.065 0 0 .065.048a.4.4 0 0 1-.031.11c-.022.087-.031 0-.039.107.037.017.062.014.1.059s-.039.124-.048.177c.051.076.093.16.2.169 0 .065.014.056-.042.07a.4.4 0 0 1-.188-.056.5.5 0 0 1-.188-.163.511.511 0 0 0-.048-.062c-.051-.067-.031-.1-.045-.146a.169.169 0 0 1-.034-.143c0-.022.042-.141 0-.121s.037 0-.028.042a.814.814 0 0 1-.037-.157c-.017-.087-.039-.09-.048-.146-.022-.124.031-.138-.028-.343-.037-.138-.022-.461-.062-.627a.259.259 0 0 0-.025-.067c-.037-.062-.129-.09-.2-.141-.1-.07-.2-.351-.281-.458-.037-.051-.062-.028-.079-.107s0-.059.034-.121c-.124-.228.163-.225.1-.5a.321.321 0 0 0-.082-.143c-.059.025-.031.039-.062.09l-.14-.082c-.143-.138-.068-.036-.107-.129-.087-.188-.169-.082-.281-.177-.045-.039-.053-.1-.132-.09s-.051.034-.171-.022a1.159 1.159 0 0 1-.281-.169c0-.135.037-.121-.065-.247a4.33 4.33 0 0 0-.1.941v.18a1.148 1.148 0 0 0 0 .141v.149a.127.127 0 0 0 0 .031l.017.129v.017a.845.845 0 0 0 .022.143v.031l.025.126v.02l.034.141v.02l.034.124v.022c.014.048.028.093.045.138s0 0 0 .014.031.082.045.124v.022c.017.045.036.09.056.135s.036.084.056.126v.022c.042.087.084.171.132.256v.02q.07.126.152.245v.017c.053.082.11.16.169.239.028.039.059.076.087.112l.1.115.1.107a4.525 4.525 0 0 0 .678.582c.082.056.166.11.25.16s.174.1.264.143a4.364 4.364 0 0 0 6.452-3.8 4.172 4.172 0 0 0-.067-.756zm-4.252-2.015c0 .025.022.051.037.076.017.067-.039 0 .017.1l.126.152c-.028.079-.025.084-.1.093s-.112.017-.152.017c.014-.1-.014-.048 0-.107s.031-.017.053-.082c-.051-.079-.1-.025-.1-.183a.208.208 0 0 1 .12-.065zm2.3 4.032c-.022.062-.042.138-.065.2s-.093.388-.214.281a.25.25 0 0 1 0-.219c.076-.138 0-.107.034-.211s.084-.065.135-.11.056-.112.118-.143a.191.191 0 0 1-.008.188zm1.95-2.065v.037a.174.174 0 0 0-.003-.036z" transform="translate(-202.427 -65.529)" style="fill:#fff"/>
</svg>