<svg
 viewBox="0 0 12 12"
 fill="currentColor"
 xmlns="http://www.w3.org/2000/svg"
 >
 <path
 fill-rule="evenodd"
 clip-rule="evenodd"
 d="M3.133.043a.16.16 0 01.183.159v9.207a.403.403 0 01-.268.38l-.472.166-.205.07a5.847 5.847 0 01-.836.252.754.754 0 01-.647-.199C.63 9.851.499 9.561.42 9.298a5.144 5.144 0 01-.13-.617l-.022-.125a17.317 17.317 0 010-6.069L.31 2.25c.051-.292.117-.656.29-.992.052-.103.114-.2.185-.291a.943.943 0 01.325-.27c.342-.163.723-.34 1.075-.437.311-.09.628-.162.948-.217zm1.576 9.55a.429.429 0 01-.322-.415V.635A.429.429 0 014.924.22l1.929.499a.429.429 0 01.32.415v4.334A3.678 3.678 0 005.713 8.4c0 .556.124 1.07.31 1.531l-1.314-.34zM8.246.746v4.16a3.686 3.686 0 013.299.511 16.795 16.795 0 00-.27-3.784 5.97 5.97 0 00-.136-.617 1.766 1.766 0 00-.421-.747c-.127-.127-.35-.293-.65-.266-.46.043-.939.168-1.258.256-.099.027-.199.06-.3.098a.412.412 0 00-.264.39zm1.147 5.048a2.606 2.606 0 00-2.608 2.607c0 1.008.575 1.9 1.119 2.509.277.31.563.565.797.745.119.091.225.164.32.22.046.028.094.052.143.074a.588.588 0 00.228.051.588.588 0 00.23-.051 1.37 1.37 0 00.142-.074 3.28 3.28 0 00.32-.22c.233-.18.52-.434.796-.745.546-.608 1.12-1.5 1.12-2.509a2.608 2.608 0 00-2.608-2.607m0 1.985c.296 0 .536.24.536.536v.13a.536.536 0 01-1.071 0v-.13c0-.295.24-.536.535-.536z"
 fill="currentColor"
 />
 </svg>