<svg
 xmlns="http://www.w3.org/2000/svg"
 viewBox="0 0 16.053 20"
 >
 <path
 d="M24.776 26.97c-.853 0-3.128-2.269-4.442-3.908-1.634-2.038-3.584-5.162-3.584-8.448a7.851 7.851 0 0 1 8.026-7.644 7.851 7.851 0 0 1 8.024 7.644c0 3.271-1.981 6.4-3.644 8.451-1.32 1.635-3.627 3.905-4.38 3.905zm0-18.851a6.67 6.67 0 0 0-6.819 6.494c0 5.094 5.5 10.388 6.8 11.15 1.216-.792 6.84-6 6.84-11.15a6.67 6.67 0 0 0-6.821-6.494zm0 9.818a3.414 3.414 0 0 1-3.49-3.324 3.494 3.494 0 0 1 6.98 0 3.414 3.414 0 0 1-3.49 3.325zm0-5.5a2.177 2.177 0 1 0 2.283 2.174 2.233 2.233 0 0 0-2.283-2.172z"
 transform="translate(-16.75 -6.97)"
 fill="currentColor"
 />
 </svg>