<svg xmlns="http://www.w3.org/2000/svg" viewBox="0 0 9.203 14.572">
 <defs>
 <clipPath id="j0ihccvaha">
 <path data-name="Rectangle 1938" fill="currentColor" d="M0 0h9.203v14.572H0z"/>
 </clipPath>
 </defs>
 <g data-name="Group 2374" style="clip-path:url(#j0ihccvaha)">
 <path data-name="Path 1793" d="M3.942 2.137a.588.588 0 0 0 .59-.585V.589a.588.588 0 0 0-1.176 0v.961a.587.587 0 0 0 .585.59" transform="translate(.662)" fill="currentColor"/>
 <path data-name="Path 1794" d="M5.823 2.581a.589.589 0 0 0 .456-.22l.573-.705a.59.59 0 0 0-.911-.749l-.573.705a.6.6 0 0 0 .073.838.628.628 0 0 0 .382.132" transform="translate(1.031 .139)" fill="currentColor"/>
 <path data-name="Path 1795" d="M1.709 2.365a.589.589 0 0 0 .456.22.631.631 0 0 0 .382-.132.6.6 0 0 0 .072-.838L2.047.91a.59.59 0 1 0-.911.749z" transform="translate(.197 .136)" fill="currentColor"/>
 <path data-name="Path 1796" d="M9.028 8.305A4.6 4.6 0 0 0 5.85 5.127l.69-.676A1.031 1.031 0 0 0 6.722 3.2L6.4 2.628a1.043 1.043 0 0 0-.9-.515H3.7a1.043 1.043 0 0 0-.9.515l-.315.572a1.029 1.029 0 0 0 .176 1.25l.691.676a4.6 4.6 0 1 0 5.676 3.179M2.253 9.471A2.352 2.352 0 1 1 4.6 11.823a2.354 2.354 0 0 1-2.347-2.352m1.529-6.182h1.647l.22.4-1.045 1-1.044-1z" transform="translate(0 .416)" fill="currentColor"/>
 </g>
</svg>