<svg
 xmlns="http://www.w3.org/2000/svg"
 viewBox="58 0 490 592"
 fill="currentColor"
 role="img"
 aria-labelledby="title"
>
 <title id="title">Microphone Icon</title>

 <g data-name="Group 6619">
 <g>
 <path d="M347.35,153.101c0,0.055,0.019,0.107,0.024,0.159c-0.055,0.566,0.634,328.617,1.842,330.709 c0,37.739-34.905,65.199-70.799,74.854c-33.084,8.898-102.941-6.404-96.139-52.926h16.089v-27.54h-65.279v27.54h18.859 c-3.075,58.967,62.941,90.133,115.75,85.576c60.94-5.26,113.162-55.995,113.162-113.902c0-4.614-2.906-323.114-2.906-324.47 c0-34.804,21.561-68.789,59.395-70.261c40.073-1.557,60.805,35.457,60.805,73.012c0,4.085,0.098,366.365,0.098,366.365 c0,19.734,32.642,19.734,32.642,0c0,0-0.585-370.159-1.563-372.114c0-51.185-36.344-93.927-87.394-97.779 C386.701,48.155,347.35,100.448,347.35,153.101z"/>
 <path d="M133.088,463.058h65.279h22.439l28.788-285.005c-24.388,15.126-53.118,23.887-83.865,23.887s-59.477-8.761-83.869-23.886 l28.789,285.005H133.088L133.088,463.058z"/>
 <path d="M61.02,104.708c0,15.841,3.537,29.134,9.834,40.11c1.542,2.687,3.238,5.242,5.101,7.65c2.111,2.729,4.431,5.27,6.925,7.65 h-0.373c0.52,0.367,1.031,0.747,1.557,1.108c22.785,15.698,50.276,25.006,79.891,25.367c0.594,0.009,1.178,0.046,1.775,0.046 c0.594,0,1.178-0.037,1.771-0.046c29.618-0.361,57.112-9.672,79.897-25.37c0.523-0.361,1.034-0.738,1.554-1.105h-0.373 c2.494-2.38,4.816-4.923,6.925-7.65c1.863-2.408,3.559-4.963,5.101-7.65c6.297-10.976,9.834-24.269,9.834-40.11 C270.439,46.879,223.561,0,165.732,0C107.898,0,61.02,46.879,61.02,104.708z"/>
 </g>
 </g>
</svg>