<svg
 viewBox="0 0 12.736 15"
 xmlns="http://www.w3.org/2000/svg"
 >
 <g>
 <path
 fill="currentColor"
 d="M7.282 11.465h1.845a.59.59 0 0 0 .6-.584v-.6a1.438 1.438 0 0 0-.194-.726 1.662 1.662 0 0 1-.194-.773 1.73 1.73 0 0 1 .194-.789 1.438 1.438 0 0 0 .194-.726 1.5 1.5 0 0 0-.291-.9l-.486-.694a.282.282 0 0 1-.113.016H7.591a.246.246 0 0 1-.113-.016l-.485.694a1.655 1.655 0 0 0-.291.9 1.438 1.438 0 0 0 .194.726 1.678 1.678 0 0 1 .194.789 1.614 1.614 0 0 1-.194.773 1.438 1.438 0 0 0-.194.726v.6a.577.577 0 0 0 .58.584z"
 />
 <path
 fill="currentColor"
 d="M7.593 5.247h1.23a.269.269 0 0 0 .275-.268v-.47a.269.269 0 0 0-.275-.268h-1.23a.269.269 0 0 0-.275.268v.473a.269.269 0 0 0 .275.268"
 />
 <path
 fill="currentColor"
 d="M12.007 1.207H5.146V.718a.713.713 0 0 0-.307-.584.76.76 0 0 0-.664-.095L.5 1.238a.7.7 0 0 0-.5.679v11.174a.718.718 0 0 0 .5.679l3.673 1.2A.6.6 0 0 0 4.4 15a.758.758 0 0 0 .437-.142.713.713 0 0 0 .307-.584V13.8h6.861a.716.716 0 0 0 .728-.71V1.917a.7.7 0 0 0-.728-.71zM3.754 8.5a.631.631 0 0 1-1.262 0V6.51a.631.631 0 0 1 1.262 0zm7.525 3.882H5.146V2.627h6.133z"
 />
 </g>
 </svg>