<svg xmlns="http://www.w3.org/2000/svg" viewBox="0 0 37.555 35.556">
 <defs>
 <clipPath id="ph7o2o2nwa">
 <path data-name="Rectangle 2398" fill="currentColor" d="M0 0h37.555v35.556H0z"/>
 </clipPath>
 </defs>
 <g data-name="Group 7382">
 <g data-name="Group 7381" style="clip-path:url(#ph7o2o2nwa)">
 <path data-name="Path 3142" d="m37.433 28.861-.046-.079-3.659-6.277a2.438 2.438 0 0 0-2.116-1.221h-.018a2.435 2.435 0 0 0-2.128 1.222l-2.094 3.587-5.777-10.1a3.2 3.2 0 0 0-1.9-1.5v-4.276c1.442-1.132 2.812-.58 4.913.408l.011.005a9.669 9.669 0 0 0 3.979 1.2 4.575 4.575 0 0 0 3.233-1.359.91.91 0 0 0 .289-.666V2.031a.912.912 0 0 0-1.536-.665c-1.544 1.444-2.914.91-5.2-.158A11.1 11.1 0 0 0 21.948.032a4.555 4.555 0 0 0-3.793 1.328l-.005.005a.159.159 0 0 0-.022.029 1.13 1.13 0 0 0-.14.2l-.005.007a.256.256 0 0 0-.041.069.9.9 0 0 0-.074.354v12.455a3.211 3.211 0 0 0-1.9 1.5l-5.777 10.1L8.092 22.5a2.438 2.438 0 0 0-2.116-1.221h-.018A2.435 2.435 0 0 0 3.83 22.5L.125 28.861a.913.913 0 0 0-.095.693.9.9 0 0 0 .425.555.924.924 0 0 0 .458.123.911.911 0 0 0 .787-.452l3.7-6.355a.638.638 0 0 1 1.1 0l2.622 4.5-3.574 6.265a.909.909 0 0 0 .788 1.366h24.856a.909.909 0 0 0 .789-1.365L28.4 27.923l2.622-4.5a.638.638 0 0 1 1.1 0l3.705 6.356a.911.911 0 0 0 .788.452.962.962 0 0 0 .907-.678.891.891 0 0 0-.089-.693M18.02 23.348v-.006c.4-.512.54-.641.836-.641s.437.137.835.64a2.791 2.791 0 0 0 2.275 1.346 2.482 2.482 0 0 0 1.952-.948l5.71 9.993H7.924L13.7 23.623a2.57 2.57 0 0 0 2.049 1.065 2.773 2.773 0 0 0 2.27-1.34M19.691 8.1V2.446c1.435-1.126 2.807-.577 4.913.408l.013.006c1.631.762 3.648 1.7 5.674.856v5.658c-1.435 1.126-2.807.577-4.913-.408l-.011-.005a9.669 9.669 0 0 0-3.979-1.2 4.277 4.277 0 0 0-1.7.338" fill="currentColor"/>
 </g>
 </g>
</svg>