<svg
 viewBox="0 0 15.085 13.085"
 xmlns="http://www.w3.org/2000/svg"
 >
 <g>
 <path
 d="M2.25 19.984a1.591 1.591 0 0 0 1.591 1.591h9.545a1.591 1.591 0 0 0 1.591-1.591v-4.375H2.25zm1.875-2.159a.852.852 0 0 1 .852-.852h1.364a.852.852 0 0 1 .852.852v.568a.852.852 0 0 1-.852.852H4.977a.852.852 0 0 1-.852-.852z"
 transform="translate(-2.25 -11.575)"
 fill="currentColor"
 />
 <path
 d="M13.386 5.625H3.841A1.591 1.591 0 0 0 2.25 7.216v.739h12.727v-.739a1.591 1.591 0 0 0-1.591-1.591z"
 transform="translate(-2.25 -5.625)"
 fill="currentColor"
 />
 </g>
 <path
 d="M6.721 3.362A3.361 3.361 0 1 1 3.361 0a3.361 3.361 0 0 1 3.36 3.362"
 transform="translate(8.363 6.362)"
 fill="currentColor"
 />
 <path
 d="M40.3 43.084a2.77 2.77 0 1 0-1.064-.21 2.779 2.779 0 0 0 1.064.21zm1.476-1.3A2.084 2.084 0 0 1 39.1 42l2.9-2.9a2.084 2.084 0 0 1-.221 2.682zm-2.953-2.953a2.084 2.084 0 0 1 2.68-.223l-2.9 2.906a2.084 2.084 0 0 1 .221-2.683z"
 transform="translate(-28.579 -30.581)"
 fill="currentColor"
 />
 <path
 transform="translate(8.363 6.363)"
 fill="none"
 d="M0 0h6.721v6.721H0z"
 />
 </svg>