<svg
 viewBox="0 0 14.22 14.221"
 xmlns="http://www.w3.org/2000/svg"
 >
 <g clip-path="url(#a)" fill-rule="evenodd">
 <path
 fill="currentColor"
 d="M7.109 0a7.08 7.08 0 0 0-4.137 1.336L6.637 6.18h3.787a.415.415 0 0 1 .4.4v1.127a.415.415 0 0 1-.4.4H8.091l3.452 4.563A7.11 7.11 0 0 0 7.108 0zm3.71 3.009a.4.4 0 0 1 .314.651c-.376.422-.43.655-.427.713.185.363 1.013.454 1.01 1.1a.713.713 0 0 1-.477.713.373.373 0 0 1-.449-.342.617.617 0 0 1 .107-.337c-.453-.274-.879-.509-.988-1.083a1.849 1.849 0 0 1 .629-1.3.42.42 0 0 1 .281-.118zm.46 3.227h.382a.372.372 0 0 1 .393.4v1.127a.368.368 0 0 1-.393.393h-.382a.372.372 0 0 1-.4-.393V6.635a.376.376 0 0 1 .4-.4"
 />
 <path
 fill="currentColor"
 d="m2.369 1.814 3.307 4.367H3.2a.413.413 0 0 0-.4.4V7.71a.413.413 0 0 0 .4.4h3.928l3.79 5.012a7.11 7.11 0 0 1-8.548-11.3z"
 />
 </g>
 </svg>