<svg
 viewBox="0 0 17.917 22.5"
 xmlns="http://www.w3.org/2000/svg"
 >
 <g clip-path="url(#a)" fill="currentColor">
 <path
 d="M3.276 6.553A3.277 3.277 0 100 3.276a3.28 3.28 0 003.276 3.277m0-5.244a1.968 1.968 0 11-1.392.577 1.97 1.97 0 011.392-.577"
 />
 <path
 d="M7.245 13.59h-.86V9.745a3.193 3.193 0 10-6.385 0V14.9a3.154 3.154 0 001.855 2.892 2.238 2.238 0 001.333.438h1.654v2.013A2.26 2.26 0 007.1 22.5h.123a2.262 2.262 0 002.259-2.259V16.29a2.215 2.215 0 00.024-.319v-.122a2.261 2.261 0 00-2.261-2.259m-4.057 3.33a.972.972 0 01-.6-.217l-.121-.069A1.884 1.884 0 011.309 14.9V9.745a1.884 1.884 0 113.767 0V14.9h2.169a.951.951 0 01.949.95v.122a1.647 1.647 0 01-.019.2v4.074a.95.95 0 01-.95.949H7.1a.95.95 0 01-.948-.949V16.92z"
 />
 <path
 d="M17.352 2.434l-.038-.034a1.915 1.915 0 00-1.326-.529h-5.245A1.933 1.933 0 008.812 3.8v6.155a1.934 1.934 0 001.931 1.931h5.244a1.932 1.932 0 001.93-1.931V3.8a1.913 1.913 0 00-.565-1.364M10.121 3.8a.623.623 0 01.622-.622h5.244a.622.622 0 01.621.622v6.155a.622.622 0 01-.621.622h-5.244a.623.623 0 01-.622-.622z"
 />
 <path
 d="M12.4 10.036h1.932a1.933 1.933 0 001.931-1.93V5.649a1.933 1.933 0 00-1.931-1.93H12.4a1.931 1.931 0 00-1.929 1.93v2.457a1.932 1.932 0 001.929 1.93m2.553-1.93a.621.621 0 01-.621.621H12.4a.621.621 0 01-.621-.621V5.649a.621.621 0 01.621-.621h1.932a.621.621 0 01.621.621z"
 />
 </g>
 </svg>