<svg xmlns="http://www.w3.org/2000/svg" viewBox="0 0 27.986 10.281">
 <defs>
 <clipPath id="asp104rxsa">
 <path data-name="Rectangle 2188" style="fill:#3f536c" d="M0 0h27.986v10.281H0z"/>
 </clipPath>
 </defs>
 <g data-name="Group 4406" style="clip-path:url(#asp104rxsa)">
 <path data-name="Path 2150" d="M316.5.27h.2c.848 1.538 1.68 3.084 2.542 4.612-.526.01-1.052.009-1.577 0-.077-.187-.162-.372-.244-.557a86.83 86.83 0 0 0-1.768 0 6.868 6.868 0 0 1-.248.563h-1.389c.831-1.538 1.653-3.08 2.485-4.616m-.233 2.543c-.089.224-.213.433-.281.665a10.15 10.15 0 0 0 1.126-.026 12.3 12.3 0 0 1-.545-1.31 6.309 6.309 0 0 0-.3.671" transform="translate(-298.458 -.257)" style="fill:#3f536c"/>
 <path data-name="Path 2151" d="M241.982 2.22h2.315a1.79 1.79 0 0 1 .835.187 1.516 1.516 0 0 1 .806 1.009 2.052 2.052 0 0 1-.1 1.348 1.553 1.553 0 0 1-1.195.792 9.629 9.629 0 0 1-1.225.075v1.1c-.478.013-.958 0-1.436.005V2.214m1.432 1.041c.006.445 0 .891 0 1.336a1.855 1.855 0 0 0 .854-.1.7.7 0 0 0 0-1.135 1.78 1.78 0 0 0-.856-.1" transform="translate(-229.995 -2.11)" style="fill:#3f536c"/>
 <path data-name="Path 2152" d="M399.792 2.214c.564-.008 1.128 0 1.692 0 .3.65.592 1.3.888 1.954.284-.639.509-1.3.766-1.954h1.512c-.421.9-.886 1.787-1.331 2.68-.074.169-.211.324-.2.519v1.318c-.493.016-.987 0-1.479.034-.017-.4 0-.8-.007-1.207a.689.689 0 0 0-.146-.37c-.573-.986-1.129-1.982-1.7-2.972" transform="translate(-379.987 -2.101)" style="fill:#3f536c"/>
 <path data-name="Path 2153" d="M236.561 110.874a2.369 2.369 0 0 1 2.053-.9 2.2 2.2 0 0 1 1.683.732 1.457 1.457 0 0 1 .4.692c-.432.132-.844.329-1.282.443a.97.97 0 0 0-.624-.447 1.17 1.17 0 0 0-.944.184 1.047 1.047 0 0 0 .965 1.809 1.087 1.087 0 0 0 .625-.472c.429.149.867.27 1.3.407a2.494 2.494 0 0 1-2.32 1.475 2.5 2.5 0 0 1-1.485-.481 2.244 2.244 0 0 1-.787-1.21 2.568 2.568 0 0 1 .414-2.232" transform="translate(-224.364 -104.52)" style="fill:#3f536c"/>
 <path data-name="Path 2154" d="M338.193 112.534a1.689 1.689 0 0 1 .223-.031h2.57a2.841 2.841 0 0 1 .671.028c-.009.3 0 .6 0 .9h-2.027v.844h1.979v.981h-1.979v.8h2.08v.98h-3.506c0-1.5.008-3.008-.006-4.512" transform="translate(-321.44 -106.929)" style="fill:#3f536c"/>
 <path data-name="Path 2155" d="M422.253 112.567a1.3 1.3 0 0 1 .47-.031c.321-.008.642 0 .964-.006q.015 1.708 0 3.417a1.425 1.425 0 0 0 .271.031c.5-.006 1.009 0 1.513 0v1.1h-3.212c0-1.5.008-3-.007-4.5" transform="translate(-401.336 -106.955)" style="fill:#3f536c"/>
 <path data-name="Path 2156" d="M500.061 117.024c0-1.514-.008-3.03 0-4.544.478.02.96-.036 1.434.032q-.011 1.707 0 3.414c.591 0 1.183-.009 1.774.005v1.09h-3.211" transform="translate(-475.287 -106.905)" style="fill:#3f536c"/>
 <path data-name="Path 2157" d="M2.342.807A5.537 5.537 0 0 1 4.485.021a9.162 9.162 0 0 1 1.38.01A5.183 5.183 0 0 1 7.389.5 5.318 5.318 0 0 1 8.96 1.669a4.245 4.245 0 0 1 .621.853 5.1 5.1 0 0 1 .565 3.811 5.03 5.03 0 0 1-1.486 2.53 4.359 4.359 0 0 1-1.373.92 5.114 5.114 0 0 1-3.726.226c.177-1.047.379-2.091.57-3.136a2.168 2.168 0 0 0 1.253.243A1.957 1.957 0 0 0 6.695 6.4a2.006 2.006 0 0 0-2.981-2.68 1.914 1.914 0 0 0-.557 1.028c-.262 1.4-.512 2.8-.773 4.2a3.573 3.573 0 0 1-.094.45 6.42 6.42 0 0 1-.964-.841A5.346 5.346 0 0 1 .4 7.1a6.018 6.018 0 0 1-.377-1.457A5.224 5.224 0 0 1 2.342.807" style="fill:#3f536c"/>
 <path data-name="Path 2158" d="M90.739 90.787a.63.63 0 0 1 .64-.673.656.656 0 0 1 .3 1.244.97.97 0 0 1-.512.049.673.673 0 0 1-.432-.619" transform="translate(-86.24 -85.648)" style="fill:#3f536c"/>
 </g>
</svg>