<svg
 xmlns="http://www.w3.org/2000/svg"
 viewBox="0 0 24 24"
 >
 <g>
 <path
 d="M23.561 10.3a3.433 3.433 0 0 0-1.4-1.4 1.47 1.47 0 0 1-.7-1.8l.05-.2a3.479 3.479 0 0 0-2.252-4.4 3.178 3.178 0 0 0-2.152 0l-.2.05a1.526 1.526 0 0 1-1.8-.7 3.545 3.545 0 0 0-4.8-1.4 3.435 3.435 0 0 0-1.4 1.4 1.47 1.47 0 0 1-1.8.7l-.2-.05a3.479 3.479 0 0 0-4.4 2.252 3.177 3.177 0 0 0 0 2.152l.05.2a1.526 1.526 0 0 1-.7 1.8 3.545 3.545 0 0 0-1.4 4.8 3.435 3.435 0 0 0 1.4 1.4 1.47 1.47 0 0 1 .7 1.8l-.05.2a3.479 3.479 0 0 0 2.252 4.4 3.177 3.177 0 0 0 2.152 0l.2-.05a1.526 1.526 0 0 1 1.8.7 3.546 3.546 0 0 0 4.8 1.4 3.435 3.435 0 0 0 1.4-1.4 1.47 1.47 0 0 1 1.8-.7l.2.05a3.479 3.479 0 0 0 4.4-2.252 3.178 3.178 0 0 0 0-2.152l-.05-.2a1.526 1.526 0 0 1 .7-1.8 3.546 3.546 0 0 0 1.4-4.8M7 9.481a1.5 1.5 0 1 1 1.5 1.5 1.476 1.476 0 0 1-1.5-1.5m2.7 6.206c0 .05-.05.05-.1.1a.993.993 0 1 1-1.3-1.5l6-6.008a.991.991 0 0 1 1.4 1.4zm5.806.3a1.5 1.5 0 1 1 1.5-1.5 1.475 1.475 0 0 1-1.5 1.5"
 fill="currentColor"
 />
 </g>
 </svg>