<svg
 viewBox="0 0 11.98 12"
 xmlns="http://www.w3.org/2000/svg"
 >
 <g fill-rule="evenodd">
 <path
 fill="currentColor"
 d="m10.335 9.228-.04-.133-.08-.213-.053-.133-.147-.266-.2-.253-.266-.24-.306-.28-.253-.24-.24-.267-.2-.266-.187-.28-.2-.373-.12-.253-.147-.28-.187-.306-.213-.28-.147-.147-.147-.133-.2-.147-.24-.107-.306-.107-.307-.04h-.32l-.307.04-.44.16-.426.293-.28.28-.173.266-.173.306-.227.466-.213.413-.24.32-.293.373-.866.8-.08.067-.2.28-.16.32-.093.4-.053.36-.013.4.04.267.12.373.173.346.187.24.24.24.32.213.373.173.28.067.426.013.413-.093.253-.12.107-.08.24-.133.227-.133.2-.12.213-.093.173-.08.2-.053.213-.013.253.04.187.04.306.147.373.187.307.2.28.16.28.12.266.053.227.013.187-.013.293-.08.373-.173.266-.187.28-.28.2-.266.173-.36.107-.346.04-.293v-.306l-.013-.173zM7.656 7.804c-.014.787-1.112 1.576-1.677 1.9-.565-.326-1.663-1.115-1.677-1.9-.016-.859.95-1.249 1.677-.51.727-.739 1.693-.349 1.677.51"
 />
 <path
 fill="currentColor"
 d="M7.624 4.093c.79.084 1.528-.762 1.647-1.889S8.846.095 8.055.011 6.528.777 6.408 1.9s.425 2.109 1.215 2.192"
 />
 <path
 fill="currentColor"
 d="M4.354 4.087c.79-.084 1.335-1.065 1.215-2.192S4.712-.078 3.922.006 2.588 1.07 2.707 2.199s.857 1.973 1.647 1.889"
 />
 <path
 fill="currentColor"
 d="M10.951 3.241c-.776-.173-1.6.578-1.848 1.677s.186 2.13.962 2.3 1.6-.578 1.848-1.677-.186-2.13-.962-2.3"
 />
 <path
 fill="currentColor"
 d="M1.917 7.221c.776-.173 1.206-1.2.962-2.3s-1.073-1.853-1.848-1.68-1.206 1.2-.961 2.3 1.072 1.85 1.848 1.677"
 />
 </g>
 </svg>