<svg id="phone-outlined" viewBox="0 0 19.675 19.696" xmlns="http://www.w3.org/2000/svg">
 <g data-name="Group 1645" clip-path="url(#a)">
 <path data-name="Path 1583" class="acls-1" d="M19.232 15.42l-3.495-3.494a1.49 1.49 0 0 0-2.077 0l-1.05 1.05a.974.974 0 0 1-1.393 0L6.671 8.431a.965.965 0 0 1-.293-.684.924.924 0 0 1 .293-.684l1.051-1.051a1.49 1.49 0 0 0 0-2.077L4.252.44A1.463 1.463 0 0 0 3.226 0 1.368 1.368 0 0 0 2.2.44l-.049.049A7.324 7.324 0 0 0 0 5.669a7.223 7.223 0 0 0 2.151 5.181l6.7 6.7a7.33 7.33 0 0 0 5.176 2.15 7.228 7.228 0 0 0 5.181-2.151l.049-.049a1.468 1.468 0 0 0-.024-2.077zm-.684 1.393l-.049.049a6.387 6.387 0 0 1-8.993 0l-6.7-6.7A6.3 6.3 0 0 1 .953 5.67a6.3 6.3 0 0 1 1.857-4.5l.049-.049a.472.472 0 0 1 .684 0l3.495 3.498a.472.472 0 0 1 0 .684L5.987 6.354a1.937 1.937 0 0 0-.562 1.393 2.022 2.022 0 0 0 .562 1.393l4.545 4.545a1.962 1.962 0 0 0 2.761 0l1.051-1.051a.472.472 0 0 1 .684 0l3.494 3.494a.454.454 0 0 1 .025.684zM11.023.949a.572.572 0 0 1 .57-.57 7.7 7.7 0 0 1 7.7 7.7.57.57 0 1 1-1.141 0 6.56 6.56 0 0 0-6.558-6.559.572.572 0 0 1-.57-.57zm0 2.852a.572.572 0 0 1 .57-.57 4.844 4.844 0 0 1 4.848 4.848.57.57 0 0 1-1.141 0 3.7 3.7 0 0 0-3.707-3.707.572.572 0 0 1-.57-.57" fill="currentColor"/>
 </g>
</svg>