<svg xmlns="http://www.w3.org/2000/svg" viewBox="0 0 11.575 11.575">
 <path d="m11.415 9.625-1.633 1.619a1.181 1.181 0 0 1-.871.331 7.548 7.548 0 0 1-3.742-1.41A14.435 14.435 0 0 1 .8 5.4 6.165 6.165 0 0 1 0 2.684 1.188 1.188 0 0 1 .334 1.8L1.966.17a.54.54 0 0 1 .884.147l1.313 2.49a.723.723 0 0 1-.147.822l-.6.6a.3.3 0 0 0-.061.172A5.126 5.126 0 0 0 4.9 6.682 5.128 5.128 0 0 0 7.04 8.2a.339.339 0 0 0 .313-.031l.7-.711a.8.8 0 0 1 .847-.125h.012l2.368 1.4a.57.57 0 0 1 .135.9z" fill="currentColor"/>
</svg>