<svg xmlns="http://www.w3.org/2000/svg" viewBox="0 0 24.772 24.852">
 <path d="m17.944 12.4.526-2.629-6.71-3.354V3.568a4.148 4.148 0 0 0-1.5-3.2 1.606 1.606 0 0 0-2.056 0 4.148 4.148 0 0 0-1.5 3.2v2.849L0 9.772.526 12.4l6.2-.809.305 3.2-2.847 1.22v2.625h10.1v-2.619L11.437 14.8l.305-3.2zm-4.922 4.448v.531H5.447v-.531l2.929-1.255-.4-4.241v-1.2L1.532 11l-.105-.527L7.972 7.2V3.568a2.889 2.889 0 0 1 1.043-2.226.343.343 0 0 1 .44 0A2.889 2.889 0 0 1 10.5 3.568V7.2l6.545 3.273-.108.527-6.44-.84v1.2l-.4 4.241z" transform="rotate(25.97 4.085 17.716)" fill="currentColor"/>
</svg>