<svg
 viewBox="0 0 111 12"
 fill="none"
 xmlns="http://www.w3.org/2000/svg"
 >
 <path
 d="M11.824 3.308a3.084 3.084 0 00-2.255-.93H8.513V1.285a1.068 1.068 0 00-2.136 0v4.272a3.065 3.065 0 00.943 2.255 3.097 3.097 0 002.262.936 3.185 3.185 0 002.242-5.44zm-1.203 2.249a1.028 1.028 0 01-.32.748 1.001 1.001 0 01-.735.308A1.073 1.073 0 018.51 5.557V4.514h1.068a1.03 1.03 0 011.043 1.043z"
 fill="#fff"
 />
 <mask
 id="a"
 maskUnits="userSpaceOnUse"
 x="6"
 y="0"
 >
 <path
 d="M11.824 3.308a3.084 3.084 0 00-2.255-.93H8.513V1.285a1.068 1.068 0 00-2.136 0v4.272a3.065 3.065 0 00.943 2.255 3.097 3.097 0 002.262.936 3.185 3.185 0 002.242-5.44zm-1.203 2.249a1.028 1.028 0 01-.32.748 1.001 1.001 0 01-.735.308A1.073 1.073 0 018.51 5.557V4.514h1.068a1.03 1.03 0 011.043 1.043z"
 fill="#fff"
 />
 </mask>
 <g mask="url(#a)" fill="#fff">
 <path d="M5.548-1.302L4.364-.118l1.184 1.185L6.733-.118 5.548-1.302z" />
 <path d="M5.548 1.067L4.364 2.252l1.184 1.185 1.185-1.185-1.185-1.185z" />
 <path d="M6.731-.117L5.546 1.067l1.185 1.185 1.185-1.184L6.731-.117zm1.183-1.185L6.73-.118l1.185 1.185L9.1-.118 7.914-1.302zM5.548 3.44L4.364 4.623l1.184 1.185 1.185-1.185-1.185-1.185z" />
 <path d="M6.731 2.252L5.546 3.437l1.185 1.185 1.185-1.185-1.185-1.185z" />
 <path d="M7.914 1.067L6.73 2.252l1.185 1.185L9.1 2.252 7.914 1.067zM9.105-.117L7.92 1.067l1.185 1.185 1.185-1.184L9.105-.117z" />
 <path d="M10.288-1.302L9.103-.118l1.185 1.185 1.185-1.185-1.185-1.184zm-4.74 7.111L4.364 6.994l1.184 1.185 1.185-1.185-1.185-1.185z" />
 <path d="M6.731 4.622L5.546 5.807l1.185 1.185 1.185-1.185-1.185-1.185z" />
 <path d="M7.914 3.44L6.73 4.623l1.185 1.185L9.1 4.624 7.914 3.439zm1.191-1.188L7.92 3.437l1.185 1.185 1.185-1.185-1.185-1.185z" />
 <path d="M10.288 1.068L9.103 2.252l1.185 1.185 1.185-1.185-1.185-1.184z" />
 <path d="M11.47-.117l-1.184 1.184 1.185 1.185 1.185-1.184L11.47-.117z" />
 <path d="M12.654-1.302L11.469-.118l1.185 1.185 1.185-1.185-1.185-1.184zM5.548 8.179L4.364 9.364l1.184 1.184 1.185-1.184-1.185-1.185z" />
 <path d="M6.731 6.994L5.546 8.179l1.185 1.185 1.185-1.185-1.185-1.185z" />
 <path d="M7.914 5.809L6.73 6.994l1.185 1.185L9.1 6.994 7.914 5.809zm1.191-1.187L7.92 5.807l1.185 1.185 1.185-1.185-1.185-1.185z" />
 <path d="M10.288 3.437L9.103 4.622l1.185 1.185 1.185-1.185-1.185-1.185z" />
 <path d="M11.47 2.252l-1.184 1.185 1.185 1.185 1.185-1.185-1.185-1.185z" />
 <path d="M12.654 1.067l-1.185 1.185 1.185 1.185 1.185-1.185-1.185-1.185zm1.191-1.184L12.66 1.067l1.184 1.185 1.185-1.184-1.184-1.185zM7.914 8.179L6.73 9.364l1.185 1.184L9.1 9.364 7.914 8.179zm1.191-1.185L7.92 8.179l1.185 1.185 1.185-1.185-1.185-1.185z" />
 <path d="M10.288 5.809L9.103 6.994l1.185 1.185 1.185-1.185-1.185-1.185z" />
 <path d="M11.47 4.622l-1.184 1.185 1.185 1.185 1.185-1.185-1.185-1.185z" />
 <path d="M12.654 3.44l-1.185 1.184 1.185 1.185 1.185-1.185-1.185-1.185zm1.191-1.188L12.66 3.437l1.185 1.185 1.184-1.185-1.184-1.185zm-3.557 5.927L9.103 9.364l1.185 1.184 1.185-1.184-1.185-1.185z" />
 <path d="M11.47 6.994l-1.184 1.185 1.185 1.185 1.185-1.185-1.185-1.185z" />
 <path d="M12.654 5.809l-1.185 1.185 1.185 1.185 1.185-1.185-1.185-1.185zm1.191-1.187L12.66 5.807l1.184 1.185 1.185-1.185-1.184-1.185zm-1.191 3.557l-1.185 1.185 1.185 1.184 1.185-1.184-1.185-1.185zm1.191-1.185L12.66 8.179l1.185 1.185 1.184-1.185-1.184-1.185z" />
 </g>
 <path
 d="M10.189.602a.602.602 0 00-1.203 0v1.332h1.203V.602z"
 fill="#fff"
 />
 <mask
 id="b"
 maskUnits="userSpaceOnUse"
 x="8"
 y="0"
 >
 <path
 d="M10.189.602a.602.602 0 00-1.203 0v1.332h1.203V.602z"
 fill="#fff"
 />
 </mask>
 <g mask="url(#b)" fill="#fff">
 <path d="M8.165-.247L6.98.938l1.185 1.185L9.35.938 8.165-.247zm1.191-1.185L8.17-.247 9.356.938 10.54-.247 9.357-1.432zm0 2.372L8.17 2.125 9.356 3.31l1.184-1.185L9.357.94z" />
 <path d="M10.539-.247L9.354.938l1.185 1.185L11.723.938 10.54-.247z" />
 </g>
 <path
 d="M13.695 2.649a.61.61 0 10-.862-.862l-.941.966.862.863.941-.967z"
 fill="#fff"
 />
 <mask
 id="c"
 maskUnits="userSpaceOnUse"
 x="11"
 y="1"
 >
 <path
 d="M13.695 2.649a.61.61 0 10-.862-.862l-.941.966.862.863.941-.967z"
 fill="#fff"
 />
 </mask>
 <g mask="url(#c)" fill="#fff">
 <path d="M11.455.715L10.27 1.9l1.185 1.185L12.64 1.9 11.455.715z" />
 <path d="M12.638-.47L11.453.715 12.638 1.9 13.823.715 12.638-.47zm-1.183 3.555L10.27 4.27l1.185 1.184L12.64 4.27l-1.185-1.185z" />
 <path d="M12.638 1.902l-1.185 1.185 1.185 1.184 1.185-1.185-1.185-1.184zM13.829.715L12.644 1.9l1.185 1.185L15.014 1.9 13.829.715z" />
 <path d="M15.012-.47L13.827.715 15.012 1.9 16.197.715 15.012-.47zm-1.183 3.555L12.644 4.27l1.185 1.184 1.185-1.184-1.185-1.185z" />
 <path d="M15.012 1.902l-1.185 1.185 1.185 1.184 1.185-1.184-1.185-1.185z" />
 </g>
 <path
 d="M8.993 10.487a.602.602 0 001.204 0V9.154H8.993v1.333z"
 fill="#fff"
 />
 <mask
 id="d"
 maskUnits="userSpaceOnUse"
 x="8"
 y="9"
 >
 <path
 d="M8.993 10.487a.602.602 0 001.204 0V9.154H8.993v1.333z"
 fill="#fff"
 />
 </mask>
 <g mask="url(#d)" fill="#fff">
 <path d="M8.862 7.652L7.677 8.837l1.185 1.185 1.185-1.185-1.185-1.185zm1.108 3.64l.086-.085-1.186-1.185-1.185 1.185.085.084 2.2.001z" />
 <path d="M10.053 8.837l-1.185 1.185 1.185 1.184 1.185-1.184-1.185-1.185z" />
 <path d="M11.236 7.652L10.05 8.837l1.185 1.185 1.185-1.185-1.185-1.185zm1.1 3.64l.085-.085-1.185-1.185-1.185 1.185.085.085h2.2z" />
 </g>
 <path
 d="M14.478 4.975h-1.332v1.203h1.332a.602.602 0 000-1.203z"
 fill="#fff"
 />
 <mask
 id="e"
 maskUnits="userSpaceOnUse"
 x="13"
 y="4"
 >
 <path
 d="M14.478 4.975h-1.332v1.203h1.332a.602.602 0 000-1.203z"
 fill="#fff"
 />
 </mask>
 <g mask="url(#e)" fill="#fff">
 <path d="M12.638 4.348l-1.185 1.185 1.185 1.185 1.185-1.185-1.185-1.185zm1.191-1.187l-1.185 1.185L13.83 5.53l1.185-1.185L13.83 3.16zm0 2.372l-1.185 1.185 1.185 1.184 1.185-1.184-1.185-1.185z" />
 <path d="M15.012 4.348l-1.185 1.185 1.185 1.185 1.185-1.185-1.185-1.185z" />
 <path d="M16.195 3.161L15.01 4.346l1.185 1.185 1.185-1.185-1.185-1.185zm0 2.372L15.01 6.718l1.185 1.184 1.185-1.184-1.185-1.185z" />
 </g>
 <path
 d="M12.754 7.507l-.862.862.94.94a.61.61 0 00.863-.861l-.94-.941z"
 fill="#fff"
 />
 <mask
 id="f"
 maskUnits="userSpaceOnUse"
 x="11"
 y="7"
 >
 <path
 d="M12.754 7.507l-.862.862.94.94a.61.61 0 00.863-.861l-.94-.941z"
 fill="#fff"
 />
 </mask>
 <g mask="url(#f)" fill="#fff">
 <path d="M11.33 5.382l-1.185 1.185 1.185 1.185 1.185-1.185-1.185-1.185z" />
 <path d="M11.33 7.752l-1.185 1.185 1.185 1.184 1.185-1.184-1.185-1.185z" />
 <path d="M12.513 6.567l-1.185 1.185 1.185 1.185 1.185-1.185-1.185-1.185z" />
 <path d="M13.696 5.382L12.51 6.567l1.185 1.185 1.185-1.185-1.185-1.185zm-1.183 3.555l-1.185 1.184 1.185 1.185 1.185-1.185-1.185-1.184z" />
 <path d="M13.696 7.752L12.51 8.937l1.185 1.185 1.185-1.185-1.185-1.185zm1.19-1.185l-1.184 1.185 1.184 1.185 1.185-1.185-1.185-1.185z" />
 <path d="M14.886 8.937l-1.184 1.184 1.184 1.185 1.185-1.184-1.185-1.185z" />
 </g>
 <path
 d="M4.883 6.604h-.26a1.073 1.073 0 01-1.055-1.055V4.514h1.315a1.068 1.068 0 000-2.136h-1.32V1.29A1.073 1.073 0 001.737.535a1.018 1.018 0 00-.32.754v1.088h-.348a1.068 1.068 0 000 2.136h.348v1.04a3.209 3.209 0 003.204 3.19h.263a1.068 1.068 0 100-2.136v-.003z"
 fill="#fff"
 />
 <mask
 id="g"
 maskUnits="userSpaceOnUse"
 x="0"
 y="0"
 >
 <path
 d="M4.883 6.604h-.26a1.073 1.073 0 01-1.055-1.055V4.514h1.315a1.068 1.068 0 000-2.136h-1.32V1.29A1.073 1.073 0 001.737.535a1.018 1.018 0 00-.32.754v1.088h-.348a1.068 1.068 0 000 2.136h.348v1.04a3.209 3.209 0 003.204 3.19h.263a1.068 1.068 0 100-2.136v-.003z"
 fill="#fff"
 />
 </mask>
 <g mask="url(#g)" fill="#fff">
 <path d="M-.782-.611L-1.966.574l1.185 1.185L.403.574-.782-.611zM.41-1.796L-.777-.61.41.574 1.594-.611.41-1.796zM-.782 1.759l-1.184 1.185 1.184 1.184L.403 2.944-.782 1.759zM.41.574L-.777 1.759.41 2.944l1.185-1.185L.41.574z" />
 <path d="M1.592-.611L.407.574l1.185 1.185L2.777.574 1.592-.611z" />
 <path d="M2.775-1.796L1.59-.61 2.775.574 3.96-.611 2.775-1.796zM-.782 4.13l-1.184 1.185L-.782 6.5.403 5.315-.782 4.131zM.41 2.944L-.777 4.129.41 5.313 1.594 4.13.41 2.944z" />
 <path d="M1.592 1.759L.407 2.944l1.185 1.184 1.185-1.184-1.185-1.185z" />
 <path d="M2.775.574L1.59 1.759l1.185 1.185L3.96 1.759 2.775.574z" />
 <path d="M3.958-.611L2.773.574l1.185 1.185L5.143.574 3.958-.611zm1.191-1.185L3.964-.61 5.149.574 6.334-.611 5.149-1.796zM-.782 6.498l-1.184 1.185 1.184 1.185L.403 7.683-.782 6.498zM.41 5.313L-.777 6.498.41 7.683l1.185-1.185L.41 5.313z" />
 <path d="M1.592 4.13L.407 5.316 1.592 6.5l1.185-1.185-1.185-1.184z" />
 <path d="M2.775 2.944L1.59 4.129l1.185 1.184L3.96 4.13 2.775 2.944z" />
 <path d="M3.958 1.759L2.773 2.944l1.185 1.185 1.185-1.185-1.185-1.185zM5.149.574L3.964 1.759l1.185 1.185 1.185-1.185L5.149.574z" />
 <path d="M6.332-.611L5.147.574l1.185 1.185L7.517.574 6.332-.611zM.41 7.685L-.777 8.87.41 10.055 1.594 8.87.41 7.685z" />
 <path d="M1.592 6.498L.407 7.683l1.185 1.185 1.185-1.185-1.185-1.185z" />
 <path d="M2.775 5.313L1.59 6.498l1.185 1.185L3.96 6.498 2.775 5.313z" />
 <path d="M3.958 4.13L2.773 5.316 3.958 6.5l1.185-1.185-1.185-1.184zm1.191-1.186L3.964 4.129l1.185 1.184L6.334 4.13 5.149 2.944z" />
 <path d="M6.332 1.759L5.147 2.944l1.185 1.184 1.185-1.184-1.185-1.185zM2.775 7.685L1.59 8.87l1.185 1.185L3.96 8.87 2.775 7.685z" />
 <path d="M3.958 6.498L2.773 7.683l1.185 1.185 1.185-1.185-1.185-1.185zm1.191-1.185L3.964 6.498l1.185 1.185 1.185-1.185-1.185-1.185z" />
 <path d="M6.332 4.13L5.147 5.315 6.332 6.5l1.185-1.185L6.332 4.13zM5.149 7.685L3.964 8.87l1.185 1.185L6.334 8.87 5.149 7.685z" />
 <path d="M6.332 6.498L5.147 7.683l1.185 1.185 1.185-1.185-1.185-1.185z" />
 </g>
 <path
 d="M23.102 1.23v8.627"
 stroke="#fff"
 stroke-width="0.5"
 stroke-miterlimit="10"
 />
 <path
 d="M31.125 1.06h3.858c2.253 0 3.615 1.25 3.615 3.055v.025c0 2.046-1.705 3.109-3.817 3.109h-1.579V9.9h-2.077V1.06zm3.723 4.457c1.039 0 1.645-.58 1.645-1.339v-.025c0-.871-.648-1.339-1.686-1.339h-1.605v2.703h1.646zm7.988-4.457h4.317a3.919 3.919 0 012.752.896 2.677 2.677 0 01.809 2.02v.026a2.763 2.763 0 01-2.024 2.74L50.997 9.9h-2.425l-2.024-2.83h-1.632V9.9h-2.08V1.06zm4.182 4.293c1.012 0 1.592-.501 1.592-1.25v-.025c0-.833-.62-1.263-1.632-1.263h-2.064v2.538h2.104zm8.27-4.293h7.12v1.73h-5.06v1.792H61.8v1.73h-4.452v1.856h5.126v1.73h-7.19l.004-8.838zm11.74 0h2.239l2.483 3.738 2.48-3.738h2.24v8.839h-2.065V4.128l-2.657 3.776h-.05l-2.63-3.738v5.733h-2.037l-.004-8.84zm14.5 0h2.078v8.839h-2.078v-8.84zm6.988 5.05V1.06h2.078v5a1.914 1.914 0 002.037 2.185 1.881 1.881 0 002.036-2.122V1.06h2.078v4.987c0 2.678-1.605 3.991-4.141 3.991-2.537 0-4.088-1.326-4.088-3.928zm13.044-5.05h2.239l2.483 3.738 2.482-3.738h2.239v8.839h-2.064V4.128l-2.657 3.776h-.054l-2.63-3.738v5.733h-2.037l-.001-8.84z"
 fill="#fff"
 />
 </svg>