<svg
 viewBox="0 0 24 24"
 fill="none"
 xmlns="http://www.w3.org/2000/svg"
 >
 <g clip-path="url(#hkglxpoj6a)" fill="currentColor">
 <path d="M17.185 9.776a.418.418 0 00.27-.103l1.557-1.349h3.84a1.146 1.146 0 001.145-1.143V1.615A1.146 1.146 0 0022.852.471h-6.598a1.146 1.146 0 00-1.145 1.144v5.567a1.146 1.146 0 001.146 1.144h.451l.069 1.063a.412.412 0 00.41.386zm5.668-8.481a.32.32 0 01.321.32v5.567a.32.32 0 01-.32.32H18.86a.413.413 0 00-.27.1l-1.045.906-.04-.62a.412.412 0 00-.412-.386h-.838a.321.321 0 01-.32-.32V1.614a.321.321 0 01.32-.32h6.598z" />
 <path d="M1.637 13.63a5.58 5.58 0 01.98-.78 3.462 3.462 0 01-.983-.875.412.412 0 01.135-.602.402.402 0 01.223-.047c.104 0 1.627-.035 1.884-3.12V5.643a5.169 5.169 0 1110.338 0v2.56c.256 3.05 1.744 3.12 1.88 3.12h.003a.403.403 0 01.436.432.412.412 0 01-.078.217 3.39 3.39 0 01-.982.877 5.588 5.588 0 012.617 4.727v5.542a.412.412 0 01-.412.412H.412A.412.412 0 010 23.117v-5.542a5.59 5.59 0 011.637-3.945zm13.68-1.666a2.398 2.398 0 01-.498-.302c-.814-.638-1.295-1.785-1.428-3.41V5.639a4.345 4.345 0 10-8.69 0v2.613c-.132 1.626-.613 2.773-1.427 3.41a2.38 2.38 0 01-.497.301c.252.213.564.342.893.369a5.588 5.588 0 011.506-.325h.019a5.66 5.66 0 01.387-.014h1.014a4.25 4.25 0 00.16-1.41 3.208 3.208 0 01-.238-.227C5.38 9.152 5.397 7.336 5.401 7.189V4.806a.412.412 0 01.398-.412 1.54 1.54 0 001.396-1.173.412.412 0 01.726-.155c.335.4.744.73 1.204.975a2.77 2.77 0 002.932-.17.411.411 0 01.633.349v2.972c.003.147.021 1.963-1.118 3.166a3.48 3.48 0 01-.24.23c-.026.475.028.95.16 1.407h1.017a5.56 5.56 0 011.91.339c.331-.025.646-.155.899-.37zm-9.99 2.051l.83.749a.412.412 0 01.07.531l-.65 1.003 2.869 5.084.598.959.598-.96 2.868-5.085-.65-1.001a.412.412 0 01.07-.532l.83-.748-.237-1.2h-1.16L9.337 14.85a.413.413 0 01-.293.122.412.412 0 01-.29-.122L6.73 12.816H5.562l-.234 1.2zm6.538-6.82V4.901a3.523 3.523 0 01-3.119-.133 4.855 4.855 0 01-1.002-.704 2.367 2.367 0 01-1.516 1.098v2.045c0 .016-.03 1.612.897 2.588a2.606 2.606 0 001.904.767h.034a2.61 2.61 0 001.904-.767c.926-.975.896-2.572.896-2.586v-.013h.002zm-2.782 4.19h-.076a3.897 3.897 0 01-1.425-.293 5.079 5.079 0 01-.212 1.198l1.677 1.686 1.673-1.683a5.084 5.084 0 01-.213-1.2 3.87 3.87 0 01-1.424.294v-.003zm8.184 6.19A4.763 4.763 0 0013.38 12.9l.233 1.188a.411.411 0 01-.127.386l-.742.67.595.915a.411.411 0 01.012.426l-2.996 5.309-.009.015-.559.895h7.48v-5.128zM.824 22.703h1.51V19.28a.412.412 0 01.824 0v3.424h5.145l-.559-.897-.008-.016-3-5.308a.412.412 0 01.014-.427l.594-.917-.741-.67a.412.412 0 01-.128-.385l.233-1.185a4.763 4.763 0 00-3.883 4.676v5.13z" />
 </g>
 <defs>
 <clipPath id="hkglxpoj6a">
 <path fill="currentColor" d="M0 0h24v24H0z" />
 </clipPath>
 </defs>
 </svg>