<svg
 viewBox="0 0 24 24"
 fill="none"
 xmlns="http://www.w3.org/2000/svg"
 >
 <g clip-path="url(#7cc1ylt2ua)" fill="currentColor">
 <path d="M23.6 13.6h-.4v-1.2a.4.4 0 00-.4-.4h-1.288l-.724-2.897A.4.4 0 0020.4 8.8H6a.4.4 0 00-.357.221L4.153 12H1.2a.4.4 0 00-.4.4v1.2H.4a.4.4 0 00-.4.4v1.6a.4.4 0 00.4.4h3.022a1.587 1.587 0 002.755 0h11.645a1.588 1.588 0 002.755 0H23.6a.4.4 0 00.4-.4V14a.4.4 0 00-.4-.4h.001zm-6-4h2.487l.6 2.4H17.6V9.6zm-4 0h3.2V12h-3.2V9.6zm-4 0h3.2V12H9.6V9.6zm-3.353 0H8.8V12H5.047l1.2-2.4zM1.6 15.2H.8v-.8h.8v.8zm3.2.8a.8.8 0 110-1.598.8.8 0 010 1.598zm14.4 0a.8.8 0 110-1.6.8.8 0 010 1.6zm2.4-2v1.2h-.8a1.6 1.6 0 00-3.2 0H6.4a1.6 1.6 0 10-3.2 0h-.8V14a.4.4 0 00-.4-.4h-.4v-.8h20.8v.8H22a.4.4 0 00-.4.4zm1.6 1.2h-.8v-.8h.8v.8zm-17.598-8h3.2V8h-3.2v-.8zm16 1.6h2.4v.8h-2.4v-.8z" />
 </g>
 <defs>
 <clipPath id="7cc1ylt2ua">
 <path fill="currentColor" d="M0 0h24v24H0z" />
 </clipPath>
 </defs>
 </svg>