<svg viewBox="0 0 26.36 26.861" xmlns="http://www.w3.org/2000/svg">
 <g>
 <path
 d="M146.761 60.1a13.208 13.208 0 1 0-23.834 10.559c-.251 1.81-.453 3.62-.7 5.431-.1.654.7 1.106 1.257.955 1.76-.5 3.57-.955 5.33-1.458A13.217 13.217 0 0 0 146.762 60.1zm-3.52 9.705a11.263 11.263 0 0 1-13.828 3.872h-.05a1.209 1.209 0 0 0-.754-.1c-1.408.4-2.816.754-4.224 1.157.151-1.207.3-2.363.453-3.57a2.147 2.147 0 0 0-.05-1.257c-.151-.251-.352-.5-.5-.8a13.276 13.276 0 0 1-.905-1.911 11.241 11.241 0 1 1 19.862 2.615z"
 fill="currentColor"
 transform="translate(-120.819 -50.216)"
 />
 <path
 d="m230.11 153.729-2.263-1.76a1.7 1.7 0 0 0-2.263.151l-.654.654a9.356 9.356 0 0 1-1.408-1.056 7.36 7.36 0 0 1-1.056-1.408l.654-.654a1.752 1.752 0 0 0 .151-2.263l-1.76-2.313a1.839 1.839 0 0 0-1.509-.8 2.084 2.084 0 0 0-1.609.6l-1.961 1.961a3.662 3.662 0 0 0-.654 4.224 20.037 20.037 0 0 0 3.57 4.827 21.071 21.071 0 0 0 4.827 3.57 3.366 3.366 0 0 0 1.659.4 3.46 3.46 0 0 0 2.514-1.056l1.961-1.961a2.084 2.084 0 0 0 .6-1.609 1.839 1.839 0 0 0-.799-1.507zm-1.207 1.71-1.961 1.961a1.613 1.613 0 0 1-1.861.3 18.033 18.033 0 0 1-7.593-7.593 1.613 1.613 0 0 1 .3-1.861l1.961-1.961h.05c.05 0 .05 0 .05.05l1.609 2.112-.654.6a1.675 1.675 0 0 0-.3 1.961 8.808 8.808 0 0 0 3.671 3.671 1.6 1.6 0 0 0 1.911-.3l.7-.7 2.062 1.609a.049.049 0 0 1 .05.05z"
 fill="currentColor"
 transform="translate(-209.951 -138.864)"
 />
 </g>
 </svg>