<svg
 viewBox="0 0 15 12"
 xmlns="http://www.w3.org/2000/svg"
 >
 <g fill="currentColor">
 <path
 d="m2.7 3.208 2.4.872A8.473 8.473 0 0 1 8.355.009a7.013 7.013 0 0 0-5.825 2.62.375.375 0 0 0 .174.579zm3.1 1.129 5.589 2.035c.838-2.845.438-5.43-1-5.953a1.569 1.569 0 0 0-.536-.093c-1.36 0-3.006 1.621-4.053 4.011zm6.418-2.919a5.316 5.316 0 0 1 .309 1.294 10.045 10.045 0 0 1-.444 3.914l2.405.876A.375.375 0 0 0 15 7.168a7.017 7.017 0 0 0-2.776-5.751zm.9 9.082h-5.6l1.529-4.184-1.41-.516-1.708 4.7H.375a.375.375 0 0 0-.375.374v.75A.375.375 0 0 0 .375 12h12.75a.375.375 0 0 0 .375-.375v-.75a.375.375 0 0 0-.375-.375z"
 />
 </g>
 </svg>