<svg
 viewBox="0 0 25 25"
 fill="none"
 xmlns="http://www.w3.org/2000/svg"
 >
 <path
 d="M21.25 3.021h-2.188V.834a.729.729 0 10-1.458 0v2.187h-4.375V.834a.729.729 0 10-1.458 0v2.187H7.396V.834a.729.729 0 10-1.458 0v2.187H3.75A3.65 3.65 0 00.105 6.667v14.582a3.65 3.65 0 003.646 3.646H21.25a3.65 3.65 0 003.645-3.645V6.667a3.65 3.65 0 00-3.645-3.646zm2.187 18.229a2.19 2.19 0 01-2.188 2.187H3.752a2.19 2.19 0 01-2.188-2.188V10.314h21.874V21.25zm0-12.396H1.563V6.667A2.19 2.19 0 013.751 4.48h2.187v2.187a.729.729 0 101.458 0V4.48h4.375v2.187a.729.729 0 101.458 0V4.48h4.375v2.187a.729.729 0 101.458 0V4.48h2.188a2.19 2.19 0 012.187 2.187v2.187z"
 fill="currentColor"
 stroke="currentColor"
 stroke-width="0.2"
 />
 </svg>