<svg data-name="Group 7384" xmlns="http://www.w3.org/2000/svg" viewBox="0 0 39.548 39.546">
 <defs>
 <clipPath id="gyzjzkrjja">
 <path data-name="Rectangle 2399" fill="currentColor" d="M0 0h39.548v39.546H0z"/>
 </clipPath>
 </defs>
 <g data-name="Group 7383" style="clip-path:url(#gyzjzkrjja)">
 <path data-name="Path 3143" d="M7.687 1.219A.8.8 0 0 1 7.7.585.827.827 0 0 1 8.774.156c.326.139.834.366 1.45.668a31.353 31.353 0 0 1 4.251 2.5c2.036 1.466 4.754 3.773 4.8 6.862a4.808 4.808 0 0 1-.387 1.92c-.808 1.87-2.761 3.979-4.828 6.2-.329.354-.665.717-1 1.086l-.184.2c-1.02 1.115-2.055 2.291-2.984 3.508q-.281.368-.546.741c-.4.554-.766 1.114-1.1 1.681a.828.828 0 0 1-.717.412.816.816 0 0 1-.395-.106l-.017-.009a.823.823 0 0 1-.379-.5.831.831 0 0 1 .082-.626 26.63 26.63 0 0 1 1.426-2.131v-3.613a.824.824 0 1 1 1.648 0v1.53c.542-.644 1.1-1.271 1.648-1.88v-2.945a.824.824 0 1 1 1.648 0v1.154c1.95-2.112 3.633-3.934 4.177-5.34a3.236 3.236 0 0 0 .271-1.285c.033-1.655-1.466-3.674-4.111-5.519a31.946 31.946 0 0 0-5.4-3 .775.775 0 0 1-.44-.445zm30.507 36.736c0-.008 0-.008-.008-.008a48.147 48.147 0 0 1-3.584-1.56v-3.432a.824.824 0 0 0-1.648 0v2.578a25.5 25.5 0 0 1-3.3-2.139V29.66a.824.824 0 1 0-1.648 0v2.285a10.288 10.288 0 0 1-3.254-7.658c-.008-2.9 1.038-5.866 2.052-8.733.436-1.236.848-2.4 1.17-3.551a4.772 4.772 0 0 0 .181-1.318 6.151 6.151 0 0 0-.972-3.1V4.943a.824.824 0 0 0-1.648 0v.612a17.941 17.941 0 0 0-1.649-1.422V2.472a.824.824 0 1 0-1.648 0v.494A36.383 36.383 0 0 0 16.8.066L16.476 0h-.223a.824.824 0 1 0 0 1.648h.058a34.841 34.841 0 0 1 5.141 2.768 15 15 0 0 1 4.086 3.659 6.535 6.535 0 0 1 .559.941 3.647 3.647 0 0 1 .412 1.678 3.087 3.087 0 0 1-.115.866c-.3 1.079-.709 2.216-1.137 3.427-1.005 2.818-2.142 6.015-2.151 9.3a11.93 11.93 0 0 0 3.048 8.05 22.834 22.834 0 0 0 6.907 5.142q.4.207.815.408.878.427 1.825.834.916.393 1.9.766a.737.737 0 0 0 .3.058.829.829 0 0 0 .766-.528.815.815 0 0 0-.468-1.063zM6.426 27.322c-.009 0-.016-.008-.025-.011a.83.83 0 0 0-1.038.511c-.008 0-.008.009-.008.009a.83.83 0 0 0 .527 1.046l.027.006a.839.839 0 0 0 .228.034.823.823 0 0 0 .782-.56v-.007a.822.822 0 0 0-.494-1.027zm3.221 10.823c-2.147-2.208-3.213-4.445-3.23-6.83a.823.823 0 0 0-.785-.812h-.039a.827.827 0 0 0-.824.824A11.366 11.366 0 0 0 8.477 39.3a.823.823 0 0 0 .585.247.813.813 0 0 0 .577-.239.791.791 0 0 0 .247-.577v-.008a.813.813 0 0 0-.237-.577zm8.61-11.276a.824.824 0 1 0-1.638-.185 12.123 12.123 0 0 0 2.865 9.69.824.824 0 1 0 1.255-1.067 10.424 10.424 0 0 1-2.482-8.439zm3.312-15.895a.834.834 0 0 0-.956.66c-.519 2.851-2.891 5.717-5.4 8.758l-.4.486c-2.322 2.843-5.206 6.377-5.223 10.48-.008 2.486 1.1 4.959 3.287 7.366.175.193.355.385.545.577a.825.825 0 0 0 .586.247.828.828 0 0 0 .593-1.4c-2.258-2.307-3.361-4.531-3.369-6.789-.017-3.263 2.389-6.451 4.852-9.441.272-.321.544-.651.816-.98 2.307-2.81 4.7-5.71 5.331-9a.826.826 0 0 0-.66-.966zm17.153 15.743a.824.824 0 0 0 .25-1.609 3 3 0 0 1-1.351-.9c.044.024.085.049.13.07a.824.824 0 0 0 .708-1.488 3.575 3.575 0 0 1-1.384-1.764V20.6a.824.824 0 1 0-1.648 0v.436a3.593 3.593 0 0 1-1.384 1.764.824.824 0 1 0 .708 1.488c.044-.022.087-.047.13-.07a3.01 3.01 0 0 1-1.351.9.824.824 0 0 0 .5 1.57 4.5 4.5 0 0 0 1.213-.6 3.138 3.138 0 0 1-1.712 1.384.824.824 0 0 0 .5 1.57 4.538 4.538 0 0 0 1.4-.731v.535a.824.824 0 1 0 1.648 0V28.3a4.536 4.536 0 0 0 1.4.731.824.824 0 1 0 .5-1.57 3.137 3.137 0 0 1-1.711-1.383 4.5 4.5 0 0 0 1.212.6.773.773 0 0 0 .248.039zm.249-15.732A3.133 3.133 0 0 1 37.26 9.6a4.5 4.5 0 0 0 1.212.6.824.824 0 1 0 .5-1.57 3 3 0 0 1-1.351-.9c.044.024.085.049.13.07a.824.824 0 0 0 .708-1.488 3.576 3.576 0 0 1-1.384-1.764V4.12a.824.824 0 0 0-1.648 0v.436a3.592 3.592 0 0 1-1.384 1.762.824.824 0 1 0 .708 1.488c.044-.021.087-.047.13-.07a3.012 3.012 0 0 1-1.351.9.824.824 0 0 0 .5 1.57 4.507 4.507 0 0 0 1.213-.6 3.138 3.138 0 0 1-1.712 1.384.824.824 0 0 0 .5 1.57 4.536 4.536 0 0 0 1.4-.732v.534a.824.824 0 1 0 1.648 0v-.534a4.543 4.543 0 0 0 1.4.732.823.823 0 1 0 .5-1.57zm-31.806.824a.824.824 0 0 0 .5 1.57 4.539 4.539 0 0 0 1.4-.731v.534a.824.824 0 1 0 1.648 0v-.534a4.54 4.54 0 0 0 1.4.731.824.824 0 1 0 .5-1.57 3.137 3.137 0 0 1-1.713-1.383 4.528 4.528 0 0 0 1.212.6.824.824 0 1 0 .5-1.571 3.008 3.008 0 0 1-1.352-.895c.044.024.085.049.13.07a.824.824 0 0 0 .708-1.488 3.576 3.576 0 0 1-1.384-1.764v-.434a.824.824 0 0 0-1.647 0v.436a3.6 3.6 0 0 1-1.388 1.762.824.824 0 0 0 .708 1.488c.045-.022.087-.047.13-.07a3.01 3.01 0 0 1-1.352.9.824.824 0 0 0 .25 1.609.805.805 0 0 0 .249-.039 4.518 4.518 0 0 0 1.213-.6 3.137 3.137 0 0 1-1.712 1.383zM.557 6.93a.824.824 0 0 0 .267 1.6.849.849 0 0 0 .267-.044 3.787 3.787 0 0 0 .969-.5v.254a.824.824 0 0 0 1.648 0v-.249a3.8 3.8 0 0 0 .969.5.836.836 0 0 0 .267.044.824.824 0 0 0 .267-1.6 2.384 2.384 0 0 1-1.093-.807 3.747 3.747 0 0 0 .559.248.835.835 0 0 0 .267.044.824.824 0 0 0 .267-1.6 2.261 2.261 0 0 1-.836-.522c.018 0 .036.006.053.006A.824.824 0 0 0 4.8 2.739 3.161 3.161 0 0 1 3.7 1.21V.824a.824.824 0 1 0-1.648 0v.386a3.161 3.161 0 0 1-1.1 1.529A.824.824 0 0 0 1.34 4.3c.018 0 .035 0 .053-.006a2.255 2.255 0 0 1-.836.521.824.824 0 0 0 .267 1.6.848.848 0 0 0 .267-.044 3.792 3.792 0 0 0 .562-.249 2.391 2.391 0 0 1-1.096.808zm5.21 13.9a.824.824 0 0 0 .25-1.609 3.135 3.135 0 0 1-1.711-1.381 4.474 4.474 0 0 0 1.212.6.824.824 0 1 0 .5-1.571 3 3 0 0 1-1.351-.9c.044.024.085.05.13.07a.824.824 0 1 0 .709-1.488 3.576 3.576 0 0 1-1.384-1.764v-.435a.824.824 0 0 0-1.648 0v.436a3.6 3.6 0 0 1-1.384 1.767.824.824 0 0 0 .71 1.489c.045-.022.087-.047.13-.07a3.009 3.009 0 0 1-1.351.9.824.824 0 0 0 .25 1.609.809.809 0 0 0 .25-.039 4.5 4.5 0 0 0 1.212-.6 3.139 3.139 0 0 1-1.715 1.379.824.824 0 0 0 .5 1.57 4.536 4.536 0 0 0 1.4-.731v.538a.824.824 0 0 0 1.648 0v-.534a4.546 4.546 0 0 0 1.4.731.764.764 0 0 0 .248.039z" fill="currentColor"/>
 </g>
</svg>