<svg
 viewBox="0 0 45.837 51.036"
 xmlns="http://www.w3.org/2000/svg"
 >
 <g fill="currentColor">
 <path
 d="M29.549 16.343v5.183h4.479v3.259h-4.479v5.182h-3.128v-5.182h-4.479v-3.26h4.479v-5.182z"
 />
 <text

 fontSize="26"
 fontFamily="Poppins-SemiBold,Poppins"
 fontWeight="600"
 >
 <tspan x="0" y="0">
 {"1"}
 </tspan>
 </text>
 </g>
 <g>
 <path
 d="M22.493 50.536a19.57 19.57 0 0 0 11.62-3.8 20.417 20.417 0 0 0 4.16-4.089.655.655 0 0 0 0-.861.716.716 0 0 0-.789-.287 18.283 18.283 0 0 1-20.658-28.19.655.655 0 0 0 0-.861.716.716 0 0 0-.789-.287 19.776 19.776 0 0 0-5.164 2.726 19.716 19.716 0 0 0-4.229 27.544 19.387 19.387 0 0 0 15.849 8.105zM4.418 28.013a18.226 18.226 0 0 1 7.245-11.979 20.411 20.411 0 0 1 2.654-1.65 19.715 19.715 0 0 0 21.3 29.051 15.925 15.925 0 0 1-2.367 2.008 18.313 18.313 0 0 1-25.535-3.945 17.653 17.653 0 0 1-3.297-13.485z"
 stroke="currentColor"
 />
 </g>
 <path
 d="M3.562 44.879v2.152h2.1v1.353h-2.1v2.152H2.097v-2.152h-2.1v-1.353h2.1v-2.152z"
 fill="currentColor"
 />
 <path
 d="M27.964 33.679v2.152h2.1v1.353h-2.1v2.152h-1.465v-2.152h-2.1v-1.353h2.1v-2.152z"
 fill="currentColor"
 />
 </svg>