<svg
 fill="none"
 viewBox="0 0 381 436"
 xmlns="http://www.w3.org/2000/svg"
 >
 <path
 d="M380.802 111.969c-.156-4.004-1.805-8.633-4.551-11.551L286.649 5.215c-6.07-5.457-17.715-7.707-24.5-1.398-6.683 6.214-6.484 18.262.172 24.5l63 66.852H16.801C7.524 95.169 0 102.692 0 111.97c0 9.277 7.523 16.801 16.801 16.801h308.52l-63 66.852c-5.734 5.742-6.793 18.219-.172 24.5 6.617 6.285 18.676 4.277 24.5-1.403l89.602-95.203c3.066-3.257 4.559-7.082 4.551-11.551v.003zM0 324.029c.156 4.004 1.805 8.633 4.55 11.551l89.603 95.203c6.07 5.457 17.715 7.707 24.5 1.398 6.683-6.215 6.484-18.262-.172-24.5l-63-66.852h308.52c9.277 0 16.801-7.523 16.801-16.801 0-9.277-7.523-16.801-16.801-16.801H55.481l63-66.852c5.734-5.742 6.793-18.219.172-24.5-6.617-6.285-18.676-4.277-24.5 1.402L4.55 312.48c-3.066 3.258-4.559 7.082-4.55 11.551v-.002z"
 fill="currentColor"
 />
 </svg>