<svg xmlns="http://www.w3.org/2000/svg" viewBox="0 0 27.454 30.802">
 <defs>
 <clipPath id="mft4zf53ma">
 <path data-name="Rectangle 2095" fill="currentColor" d="M0 0h27.454v30.802H0z"/>
 </clipPath>
 </defs>
 <g data-name="Group 3312" style="clip-path:url(#mft4zf53ma)">
 <path data-name="Path 1975" d="M27.328 115.935a1.426 1.426 0 0 0-1.882-.714c-.973.422-2.336 1.038-3.277 1.428a.032.032 0 0 0-.032-.032c-.552-1.428-1.363-3.6-3.407-4.413a61.73 61.73 0 0 1-2.174-.941c-2.888-1.233-7.754-.552-8.533-.26-.454.129-1.168.422-3.537 4.9a1.47 1.47 0 0 0 .584 1.947 1.319 1.319 0 0 0 .681.162 1.473 1.473 0 0 0 1.265-.746 28.4 28.4 0 0 1 2.174-3.6 17.571 17.571 0 0 1 2.855-.227 17.974 17.974 0 0 0-2.758 6.2 19.7 19.7 0 0 1-1.947 4.51c-1.817-.13-5.451-.487-5.483-.487a1.611 1.611 0 0 0-1.849 1.427A1.65 1.65 0 0 0 1.5 126.9c.195.032 5.581.519 6.294.552s2.174-.357 3.764-4.478a33.783 33.783 0 0 1 4.056 2.985c-.195 1.136-1.136 4.218-1.979 6.781a1.673 1.673 0 0 0 1.071 2.109 1.469 1.469 0 0 0 .519.1 1.677 1.677 0 0 0 1.59-1.136c.844-2.531 2.239-6.943 2.206-8.209-.033-1.233-1.168-2.336-3.667-4.088a28.427 28.427 0 0 1 3.147-5.905 9.843 9.843 0 0 1 .908 1.979c.325.811.844 2.271 2.044 2.271a1.505 1.505 0 0 0 .617-.13c.811-.292 4.121-1.752 4.51-1.947a1.368 1.368 0 0 0 .746-1.849z" transform="translate(.001 -104.146)" fill="currentColor"/>
 <path data-name="Path 1976" d="M273.386.27A3.342 3.342 0 1 1 269 2.027 3.342 3.342 0 0 1 273.386.27" transform="translate(-253.158)" fill="currentColor"/>
 </g>
</svg>