<svg
 viewBox="0 0 12.477 12.477"
 xmlns="http://www.w3.org/2000/svg"
 >
 <path
 fill="currentColor"
 d="m4.594 7.448-.424 1.33a2.475 2.475 0 0 0 2.722-1.406l-1.329-.424a1.147 1.147 0 0 1-.969.5z"
 />
 <path
 fill="currentColor"
 d="m4.632 5.154.424-1.331A2.478 2.478 0 0 0 2.334 5.23l1.33.424a1.146 1.146 0 0 1 .968-.5z"
 />
 <path
 fill="currentColor"
 d="m5.685 4.024-.424 1.329a1.147 1.147 0 0 1 .5.969l1.331.424a2.478 2.478 0 0 0-1.408-2.722z"
 />
 <path
 fill="currentColor"
 d="m3.468 6.28-1.331-.424a2.477 2.477 0 0 0 1.407 2.722l.424-1.329a1.147 1.147 0 0 1-.5-.969z"
 />
 <path
 fill="currentColor"
 d="M11.164 0h-9.85A1.313 1.313 0 0 0 0 1.313v9.85a1.313 1.313 0 0 0 1.314 1.313h9.85a1.314 1.314 0 0 0 1.313-1.313v-9.85A1.313 1.313 0 0 0 11.164 0zM7.642 7.266A3.176 3.176 0 0 1 3.65 9.329l.1-.313-.1.313a3.18 3.18 0 1 1 3.992-2.063zm3.558 2.995a.6.6 0 0 1-1.2 0V2.216a.6.6 0 1 1 1.2 0z"
 />
 </svg>