<svg
 viewBox="0 0 16.347 11"
 xmlns="http://www.w3.org/2000/svg"
 >
 <g fill="currentColor">
 <path
 d="M16.28 9.422c-1.79-3.393-4.149-7.4-5.267-7.141-.448.1-1.05.829-1.687 1.854C7.811 1.689 6.347-.166 5.487.012 4.023.308 1.2 6.325.064 8.909a.755.755 0 0 0-.034.513.652.652 0 0 0 .293.395 10.385 10.385 0 0 0 5.009 1.065 23.2 23.2 0 0 0 2.944-.2 10.389 10.389 0 0 0 2.616.318 22.7 22.7 0 0 0 5.044-.671.5.5 0 0 0 .362-.355.681.681 0 0 0-.017-.552zM2.268 8.85a.338.338 0 0 1 0-.671.326.326 0 0 1 .293.335.314.314 0 0 1-.293.335m.981-2.269a.259.259 0 0 1 0-.513.259.259 0 0 1 0 .513m.637-2.466a.326.326 0 0 1 .293-.335.338.338 0 0 1 0 .671.326.326 0 0 1-.293-.335m.5 5.484a.259.259 0 0 1 0-.513.259.259 0 0 1 0 .513m.637-2.19a.338.338 0 0 1 0-.671.326.326 0 0 1 .293.335.314.314 0 0 1-.293.335m.413-5.7a.326.326 0 0 1 .293-.335.326.326 0 0 1 .293.335.326.326 0 0 1-.293.335.314.314 0 0 1-.293-.335m.413 2.111a.259.259 0 1 1 .224-.256.246.246 0 0 1-.224.256m.207 1.42a.326.326 0 0 1 .291-.339.338.338 0 0 1 0 .671.326.326 0 0 1-.293-.335m.688 4.024a.338.338 0 1 1 .293-.335.314.314 0 0 1-.293.335m.62-2.012A.259.259 0 1 1 7.587 7a.246.246 0 0 1-.224.256m.293-2.979a.259.259 0 1 1 .224-.256.235.235 0 0 1-.224.256m.723 1.48a.226.226 0 1 1 .224.256.246.246 0 0 1-.224-.256M9 8.554a.338.338 0 1 1 .293-.335.339.339 0 0 1-.293.335M10.238 9.7a.259.259 0 1 1 .224-.256.246.246 0 0 1-.224.256m.327-3.788a.259.259 0 1 1 .224-.256.234.234 0 0 1-.224.256m.448 1.716a.338.338 0 1 1 .293-.335.326.326 0 0 1-.293.335m.207-3.295A.338.338 0 1 1 11.512 4a.313.313 0 0 1-.293.335m.981 5.284a.259.259 0 1 1 .224-.256.246.246 0 0 1-.224.256m.293-3.65a.226.226 0 1 1 .224.256.246.246 0 0 1-.224-.256m.413 2.071a.259.259 0 1 1 .224-.256.246.246 0 0 1-.224.256m1.429 1.1a.338.338 0 1 1 .293-.335.313.313 0 0 1-.293.335"
 />
 </g>
 </svg>