<svg xmlns="http://www.w3.org/2000/svg" viewBox="0 0 11.229 11.456">
 <path data-name="Path 1782" d="M253.492 244.338a2.4 2.4 0 0 0-2.185-1.344 1.829 1.829 0 0 1-1.414-.677 1.889 1.889 0 0 0-1.468-.788c-1.745 0-2.53 2.768-2.562 2.886a.317.317 0 0 0 .305.4l7.481-.011a3.179 3.179 0 0 0-.158-.466z" transform="translate(-245.652 -241.529)" fill="currentColor"/>
 <path data-name="Path 1784" d="M249.216 310.631a.159.159 0 0 0 .064-.113l.1-1.087a.158.158 0 0 1 .158-.143h.732a.248.248 0 0 0 .248-.248v-.969a.249.249 0 0 0-.248-.248h-7.7a.248.248 0 0 0-.248.248v.969a.249.249 0 0 0 .248.248h.733a.158.158 0 0 1 .158.144l.444 4.664a.767.767 0 0 0 .766.7h1.5a.158.158 0 0 0 .141-.086 14.375 14.375 0 0 1 2.9-4.076z" transform="translate(-242.324 -303.734)" fill="currentColor"/>
 <path data-name="Path 1785" d="M326.73 361.448c-.213-.4-2.111-3.925-3.214-3.925a.837.837 0 0 0-.424.144c-.835.5-2.023 2.351-2.787 3.781a.159.159 0 0 0 .14.233h6.145a.158.158 0 0 0 .14-.233zm-3.766-2.249a.106.106 0 1 1 .106-.106.106.106 0 0 1-.106.107zm.106.686a.106.106 0 1 1-.106.106.106.106 0 0 1 .106-.105zm-.9.317a.105.105 0 1 1-.105-.105.106.106 0 0 1 .107.103z" transform="translate(-315.52 -350.226)" fill="currentColor"/>
</svg>