<svg
 viewBox="0 0 15.189 12"
 xmlns="http://www.w3.org/2000/svg"
 >
 <g>
 <path
 fill="currentColor"
 d="M8.769 10.447a2.494 2.494 0 0 0 2.238.052l-.044.629H4.226l-.044-.628a2.5 2.5 0 0 0 2.242-.049 2.51 2.51 0 0 0 2.345 0m-4.68-1.298a2.591 2.591 0 0 0 2.278-.083 2.615 2.615 0 0 0 2.458 0 2.6 2.6 0 0 0 2.274.086l-.027.395a1.844 1.844 0 0 1-2.308-.022 1.855 1.855 0 0 1-2.345 0 1.838 1.838 0 0 1-2.3.024zm-.064-.933-.11-1.592H1.294V12h12.6V6.628h-2.62l-.11 1.591a1.929 1.929 0 0 1-2.343-.068 1.963 1.963 0 0 1-2.458 0 1.917 1.917 0 0 1-2.338.069zm.89-3.542a2.434 2.434 0 0 1 1.447.488 2.424 2.424 0 0 1 1.447-.488l-.078-.706a3.282 3.282 0 0 0-1.369.353 3.29 3.29 0 0 0-1.369-.353zm2.693 1.238a3.29 3.29 0 0 0-1.369-.353l-.078.706a2.435 2.435 0 0 1 1.447.488 2.449 2.449 0 0 1 1.447-.488l-.078-.706a3.283 3.283 0 0 0-1.369.353zm2.537-4.8a15.739 15.739 0 0 0 .938 4.638H13.9V1.119h.372v.246h.552v-.246h.37V.246h-.37V0h-.552v.246H.922V0H.37v.246H0v.873h.37v.246h.552v-.246h.372v4.637h2.813a15.733 15.733 0 0 0 .937-4.638h5.1z"
 fill-rule="evenodd"
 />
 </g>
 </svg>