<svg
 viewBox="0 0 20 20"
 fill="currentColor"
 xmlns="http://www.w3.org/2000/svg"
 >
 <g clip-path="url(#prb9puedda)">
 <path
 d="M12.203 3.398a.604.604 0 00.9.374c2.033-1.238 4.359 1.087 3.121 3.12a.604.604 0 00.373.9c2.312.56 2.312 3.85 0 4.411a.605.605 0 00-.374.9c1.238 2.033-1.087 4.359-3.12 3.121a.604.604 0 00-.9.373c-.56 2.312-3.85 2.312-4.411 0a.604.604 0 00-.9-.374c-2.033 1.238-4.359-1.087-3.121-3.12a.603.603 0 00-.373-.9c-2.312-.56-2.312-3.85 0-4.411a.603.603 0 00.374-.9C2.534 4.859 4.859 2.533 6.892 3.77a.602.602 0 00.9-.373c.56-2.312 3.85-2.312 4.411 0zm-2.205 4.1a2.5 2.5 0 100 5 2.5 2.5 0 000-5z"
 fill="currentColor"
 />
 </g>
 <defs>
 <clipPath id="prb9puedda">
 <path fill="currentColor" d="M0 0h20v20H0z" />
 </clipPath>
 </defs>
 </svg>