<svg
 viewBox="0 0 15.424 13"
 xmlns="http://www.w3.org/2000/svg"
 >
 <g>
 <path
 fill="currentColor"
 d="M8.981 1.268A1.268 1.268 0 1 1 7.713 0a1.268 1.268 0 0 1 1.268 1.268"
 />
 <path
 fill="currentColor"
 d="M13.973 11.282c-.216.19-.281.239-.477.239s-.261-.05-.477-.239a2.042 2.042 0 0 0-2.9 0c-.216.19-.281.239-.477.239a.446.446 0 0 1-.236-.052V4.733a1.352 1.352 0 0 0-1.355-1.352h-.677a1.353 1.353 0 0 0-1.352 1.352v6.733a.448.448 0 0 1-.24.054c-.2 0-.26-.049-.476-.239a2.04 2.04 0 0 0-2.9 0c-.216.19-.281.239-.476.239s-.26-.049-.476-.239a2.038 2.038 0 0 0-1.453-.605v1.479c.2 0 .26.049.476.239a2.04 2.04 0 0 0 2.9 0c.216-.19.281-.239.476-.239s.26.049.476.239a2.041 2.041 0 0 0 2.9 0c.216-.19.281-.239.477-.239s.261.05.477.239a2.042 2.042 0 0 0 2.9 0c.216-.19.281-.239.476-.239s.261.05.477.239a2.043 2.043 0 0 0 2.9 0c.216-.19.281-.239.477-.239v-1.479a2.038 2.038 0 0 0-1.451.606zm-5.838-.561a2.019 2.019 0 0 0-.845 0V8.452h.845z"
 />
 </g>
 </svg>