<svg
 viewBox="0 0 12.434 13.777"
 xmlns="http://www.w3.org/2000/svg"
 >
 <g>
 <path
 fill="currentColor"
 d="M0 0v3.163h1.56v-.824h3.682A1.963 1.963 0 0 1 7.1 3.726a2.523 2.523 0 0 1 .823-.13 2.952 2.952 0 0 1 .65.087A3.625 3.625 0 0 0 5.025.823H1.559V0z"
 />
 <path
 fill="currentColor"
 d="M9.488 5.329H6.415a3.541 3.541 0 0 0-2 3.032h7.1a3.7 3.7 0 0 0-2.036-3.032z"
 />
 <path
 fill="currentColor"
 d="M11.654 8.795H4.116a.39.39 0 1 0 0 .78h7.495a.388.388 0 0 0 .39-.39.332.332 0 0 0-.347-.39z"
 />
 <path
 fill="currentColor"
 d="M6.542 4.9h2.773c0-.563-.736-.866-1.386-.866-.607-.048-1.387.255-1.387.866z"
 />
 <path
 fill="currentColor"
 d="M11.307 12.04a.563.563 0 1 0 1.126 0c0-.3-.563-1-.563-1s-.563.65-.563 1"
 />
 <path
 fill="currentColor"
 d="M10.31 13.213c0-.3-.563-1-.563-1s-.563.693-.563 1a.563.563 0 1 0 1.126 0"
 />
 <path
 fill="currentColor"
 d="M8.491 11.437c0-.3-.563-1-.563-1s-.563.693-.563 1a.573.573 0 0 0 .563.563.546.546 0 0 0 .563-.563"
 />
 <path
 fill="currentColor"
 d="M6.282 12.39c0-.3-.563-1-.563-1s-.563.693-.563 1a.573.573 0 0 0 .563.563.546.546 0 0 0 .563-.563"
 />
 <path
 fill="currentColor"
 d="M4.332 11.437c0-.3-.563-1-.563-1s-.563.693-.563 1a.573.573 0 0 0 .563.563.522.522 0 0 0 .563-.563"
 />
 </g>
 </svg>