<svg xmlns="http://www.w3.org/2000/svg" viewBox="0 0 28.262 27.117">
 <path data-name="Icon awesome-skiing" d="M23.847 5.085A2.6 2.6 0 0 0 26.5 2.543a2.652 2.652 0 0 0-5.3 0 2.6 2.6 0 0 0 2.647 2.542zm4.03 18.864a1.359 1.359 0 0 0-1.871 0 2.316 2.316 0 0 1-2.49.461l-7.5-3.719 2.716-3.909a2.467 2.467 0 0 0-.331-3.21l-2.23-2.145-5.903-2.813a3.3 3.3 0 0 0 .977 2.882l4.146 3.984-2.534 3.645L1.932 13.7a1.354 1.354 0 0 0-1.783.546 1.241 1.241 0 0 0 .569 1.711l21.633 10.731a5.087 5.087 0 0 0 5.526-.948 1.233 1.233 0 0 0 0-1.791zM6.624 4.852 5.99 6.044a2.234 2.234 0 0 0 2.362-.254l2.606 1.24c-.006.005-.006.011-.011.016l6.321 3.009 1.789-.689.353 1.012a2.556 2.556 0 0 0 1.325 1.467l3.207 1.536a1.8 1.8 0 0 0 2.368-.758 1.662 1.662 0 0 0-.789-2.273l-2.877-1.382-.944-2.712a3.582 3.582 0 0 0-4.665-2.076L12.553 5.9 9.1 4.259a2.042 2.042 0 0 0-1.151-1.886l-.613 1.15h-.011l-1.9-.371a.289.289 0 0 0-.276.09.269.269 0 0 0 .028.392l1.447 1.218z" fill="currentColor"/>
</svg>