<svg xmlns="http://www.w3.org/2000/svg" viewBox="0 0 30 30">
 <path data-name="Path 3474" d="M12 13.5a1.5 1.5 0 0 0 0 3h1.5a1.5 1.5 0 0 0 0-3z" transform="translate(-3 -3)"/>
 <path data-name="Path 3475" d="M22.5 13.5a1.5 1.5 0 0 0 0 3H24a1.5 1.5 0 0 0 0-3z" transform="translate(-3 -3)"/>
 <path data-name="Path 3476" d="M13.5 22.5a1.5 1.5 0 0 0 0 3h9a1.5 1.5 0 0 0 0-3z" transform="translate(-3 -3)"/>
 <path data-name="Path 3477" d="M18 33A15 15 0 1 0 3 18a15 15 0 0 0 15 15zm0-3A12 12 0 1 0 6 18a12 12 0 0 0 12 12z" fill-rule="evenodd" transform="translate(-3 -3)"/>
</svg>