<svg xmlns="http://www.w3.org/2000/svg" viewBox="0 0 30 30">
 <path data-name="Path 3482" d="M18 25.5a6 6 0 0 0 6-6H12a6 6 0 0 0 6 6z" transform="translate(-3 -3)"/>
 <path data-name="Path 3483" d="M15 15a1.5 1.5 0 1 1-1.5-1.5A1.5 1.5 0 0 1 15 15z" transform="translate(-3 -3)"/>
 <path data-name="Path 3484" d="M22.5 16.5A1.5 1.5 0 1 0 21 15a1.5 1.5 0 0 0 1.5 1.5z" transform="translate(-3 -3)"/>
 <path data-name="Path 3485" d="M33 18A15 15 0 1 1 18 3a15 15 0 0 1 15 15zm-3 0A12 12 0 1 1 18 6a12 12 0 0 1 12 12z" fill-rule="evenodd" transform="translate(-3 -3)"/>
</svg>