<svg xmlns="http://www.w3.org/2000/svg" viewBox="0 0 30 29.999">
 <g data-name="Group 6618">
 <path d="M15 .563a15 15 0 1 0 15 15 15 15 0 0 0-15-15zm0 27.1a12.1 12.1 0 1 1 12.1-12.1A12.109 12.109 0 0 1 15 27.659zm-2.9-13.069a1.452 1.452 0 0 0 .417-2.842L7.675 10.3a1.452 1.452 0 1 0-.834 2.782l1.706.514a1.866 1.866 0 0 0-.321 1 1.935 1.935 0 1 0 3.871-.006zm12.036-3.32a1.45 1.45 0 0 0-1.808-.974l-4.839 1.452a1.452 1.452 0 0 0 .417 2.842 1.935 1.935 0 1 0 3.871 0 1.864 1.864 0 0 0-.321-1l1.706-.514a1.444 1.444 0 0 0 .974-1.8z" transform="translate(0 -.563)" />
 <path data-name="Path 3486" d="M21 25.5a3 3 0 0 0-6 0h-3a6 6 0 1 1 12 0z" transform="translate(-3 -2.001)" />
 </g>
</svg>