<svg data-name="Group 7376" xmlns="http://www.w3.org/2000/svg" viewBox="0 0 27.414 31.399">
 <defs>
 <clipPath id="jrhkxluita">
 <path data-name="Rectangle 2395" fill="currentColor" d="M0 0h27.414v31.399H0z"/>
 </clipPath>
 </defs>
 <g data-name="Group 7375" style="clip-path:url(#jrhkxluita)">
 <path data-name="Path 3139" d="M12.866.8a.8.8 0 0 1 .846-.8.767.767 0 0 1 .8.8v3.984l3.446-1.964a.819.819 0 0 1 .862 1.394l-4.3 2.481v2.814l2.868-1.646a.8.8 0 0 1 1.221.689V11.9l2.5-1.436V5.526a.815.815 0 0 1 .8-.8.831.831 0 0 1 .85.8v3.986l3.446-1.964a.8.8 0 0 1 1.114.264.922.922 0 0 1-.318 1.168l-3.446 1.964 3.446 1.964a.923.923 0 0 1 .318 1.168.8.8 0 0 1-1.114.264L21.9 11.9l-2.443 1.436 2.868 1.646a.839.839 0 0 1 .318 1.1l-.318.318-2.868 1.662 2.443 1.382L26.2 17a.82.82 0 0 1 1.114.318.854.854 0 0 1-.314 1.116L23.553 20.4 27 22.416a.839.839 0 0 1 .318 1.114.87.87 0 0 1-1.114.318l-3.454-2.022v3.994a.8.8 0 0 1-.85.8.766.766 0 0 1-.8-.8v-4.939l-2.5-1.382v3.293a.765.765 0 0 1-.8.8.639.639 0 0 1-.425-.107l-2.868-1.654v2.814l4.3 2.508a.788.788 0 0 1 .256 1.114.838.838 0 0 1-1.114.318l-3.446-2.018v3.986a.825.825 0 1 1-1.65 0v-3.99L9.417 28.58a.869.869 0 0 1-1.117-.317.854.854 0 0 1 .318-1.114l4.25-2.5v-2.823L10 23.473a.788.788 0 0 1-1.114-.264 1.557 1.557 0 0 1-.107-.478v-3.294l-2.441 1.436v4.939a.8.8 0 0 1-.85.8.766.766 0 0 1-.8-.8v-3.986l-3.442 2.018a.854.854 0 0 1-1.114-.318.793.793 0 0 1 .318-1.114l3.4-2.018L.449 18.43a.821.821 0 1 1 .8-1.436L5.5 19.437l2.474-1.375L5.1 16.416a.8.8 0 0 1 0-1.436l2.868-1.642L5.473 11.9l-4.25 2.443a.788.788 0 0 1-1.115-.263.869.869 0 0 1 .318-1.168l3.4-1.964-3.4-1.964a.869.869 0 0 1-.318-1.168.788.788 0 0 1 1.114-.264l3.446 1.964v-3.99a.816.816 0 0 1 .8-.8.831.831 0 0 1 .85.8v4.939l2.44 1.435V8.555a.831.831 0 0 1 .85-.8 1.239 1.239 0 0 1 .425.107l2.814 1.646V6.694L8.616 4.213A.839.839 0 0 1 8.3 3.064.8.8 0 0 1 9.413 2.8l3.446 1.964zm1.646 10.625v2.814l2.5-1.382v-2.87zm-1.646 2.814v-2.816l-2.442-1.436v2.868zm0 2.868-2.443 1.436v2.814l2.443-1.443zm-3.239 0 2.443-1.436-2.443-1.438-2.5 1.436zm4.89 2.807 2.5 1.436v-2.809l-2.5-1.432zm5.743-4.25-2.45-1.427-2.443 1.436 2.443 1.436z" fill="currentColor"/>
 </g>
</svg>