<svg
 viewBox="0 0 13.999 12.304"
 xmlns="http://www.w3.org/2000/svg"
 >
 <g fill="currentColor">
 <path
 d="M9.387 7.957a6.129 6.129 0 0 1 2.623-.31 5.383 5.383 0 0 0 .663-3.949l-.25-1.105-1.105.251a5.962 5.962 0 0 0-1.459.545 6.293 6.293 0 0 1-.472 4.568z"
 />
 <path
 d="M6.749 9.9s.118-4.141.236-4.141.236 4.141.236 4.141l.663-.663a5.906 5.906 0 0 0 0-8.341l-.9-.9-.9.9a5.906 5.906 0 0 0 0 8.341z"
 />
 <path
 d="M4.583 7.958a6.392 6.392 0 0 1-.472-4.568 4.814 4.814 0 0 0-1.459-.545l-1.105-.251-.251 1.105a5.225 5.225 0 0 0 .663 3.949 6.394 6.394 0 0 1 2.623.31z"
 />
 <path
 d="m6.587 10.418-.825-.825A6.41 6.41 0 0 1 5 8.665a5.1 5.1 0 0 0-4.391-.1l-.6.295.427.5a5.115 5.115 0 0 0 5.85 1.223z"
 />
 <path
 d="M13.376 8.547a5.1 5.1 0 0 0-4.391.1 7.53 7.53 0 0 1-.766.928l-.825.825.324.162a5.125 5.125 0 0 0 5.85-1.223l.427-.5z"
 />
 <path
 d="m8.547 11.509-1.562-.781-1.562.781a.291.291 0 0 0 .029.53 4.517 4.517 0 0 0 3.05 0 .285.285 0 0 0 .044-.53z"
 />
 </g>
 </svg>