<svg xmlns="http://www.w3.org/2000/svg" viewBox="0 0 11.722 11.45">
 <g data-name="Group 2367">
 <path data-name="Path 1779" d="m144.215 20.853-1.974-.555a.344.344 0 0 1-.234-.234l-.555-1.974a.347.347 0 0 0-.666 0l-.555 1.974a.339.339 0 0 1-.247.234l-1.974.555a.347.347 0 0 0 0 .666l1.974.555a.389.389 0 0 1 .247.234l.555 1.974a.347.347 0 0 0 .666 0l.555-1.974a.344.344 0 0 1 .234-.234l1.974-.555a.344.344 0 0 0 0-.666z" transform="translate(-136.112 -17.84)" fill="currentColor"/>
 <path data-name="Path 1780" d="m357.264 197.608-1.357-.382a.212.212 0 0 1-.16-.16l-.382-1.357a.236.236 0 0 0-.456 0l-.382 1.357a.233.233 0 0 1-.16.16l-1.357.382a.236.236 0 0 0 0 .456l1.357.382a.212.212 0 0 1 .16.16l.382 1.357a.236.236 0 0 0 .456 0l.382-1.357a.213.213 0 0 1 .16-.16l1.357-.382a.236.236 0 0 0 0-.456z" transform="translate(-345.719 -191.016)" fill="currentColor"/>
 <path data-name="Path 1781" d="m77.865 269.45-1.505-.419a.278.278 0 0 1-.185-.185l-.419-1.505a.262.262 0 0 0-.506 0l-.419 1.505a.278.278 0 0 1-.185.185l-1.505.419a.262.262 0 0 0 0 .506l1.505.419a.278.278 0 0 1 .185.185l.419 1.505a.262.262 0 0 0 .506 0l.419-1.505a.278.278 0 0 1 .185-.185l1.505-.419a.265.265 0 0 0 0-.506z" transform="translate(-72.945 -260.81)" fill="currentColor"/>
 </g>
</svg>