<svg
 xmlns="http://www.w3.org/2000/svg"
 viewBox="0 0 54 54"
 >
 <g>
 <path
 d="M27 0A27 27 0 1 1 0 27 27 27 0 0 1 27 0z"
 fill="currentColor"
 />
 <g
 fill="currentColor"
 >
 <path
 d="M20.162 34.225c-.564 0-1.216-.298-1.743-.797L10.569 26a.667.667 0 0 1-.214-.487c0-.183.076-.355.215-.487l2.495-2.36a.72.72 0 0 1 .495-.2.72.72 0 0 1 .496.2l6.12 5.79L37.17 12.26a.674.674 0 0 1 .499-.204c.193 0 .38.076.5.204l2.464 2.398c.263.25.274.673.022.962l-.004.005-.006.005-18.74 17.824-.043.041h-.018c-.334.29-.963.73-1.682.73z"
 transform="translate(.495 3.794)"
 />
 <path
 d="M37.669 12.206a.523.523 0 0 0-.393.16l-17.1 16.298-6.223-5.888a.564.564 0 0 0-.785 0l-2.495 2.36a.509.509 0 0 0 0 .756l7.85 7.427c.504.477 1.12.756 1.64.756.742 0 1.387-.518 1.625-.73h.014l18.74-17.823c.196-.226.196-.557-.014-.756l-2.467-2.4a.545.545 0 0 0-.392-.16m0-.3c.232 0 .458.093.606.25l2.462 2.395c.321.303.336.817.031 1.168l-.02.02-18.826 17.906H21.9c-.361.303-1 .73-1.738.73-.601 0-1.291-.314-1.846-.838l-7.85-7.427a.816.816 0 0 1-.261-.596c0-.224.093-.436.262-.596l2.495-2.36a.87.87 0 0 1 .598-.241.87.87 0 0 1 .599.24l6.016 5.693 16.888-16.096a.822.822 0 0 1 .606-.248z"
 fill="currentColor" stroke="currentColor"
 transform="translate(.495 3.794)"
 />
 </g>
 </g>
 </svg>