<svg
 viewBox="0 0 24 24"
 fill="none"
 xmlns="http://www.w3.org/2000/svg"

 >
 <path
 fill-rule="evenodd"
 clip-rule="evenodd"
 d="M6.346 1.08a.292.292 0 01.335.29v16.88a.739.739 0 01-.492.697c-.279.1-.567.2-.864.303l-.376.13c-.485.174-1.021.364-1.534.461-.526.1-.941-.148-1.186-.364-.472-.417-.712-.948-.857-1.43a9.432 9.432 0 01-.24-1.132l-.04-.23a31.748 31.748 0 010-11.125l.08-.437c.094-.534.215-1.202.532-1.818.095-.19.209-.368.34-.535.157-.206.36-.374.592-.491.628-.3 1.326-.624 1.97-.802a15.715 15.715 0 011.74-.398zm2.889 17.507a.786.786 0 01-.59-.76V2.163a.786.786 0 01.984-.76l3.536.914a.786.786 0 01.588.76v7.946a6.743 6.743 0 00-2.677 5.378c0 1.019.227 1.962.568 2.807l-2.41-.622zm6.484-16.219v7.625a6.757 6.757 0 012.104-.334c1.472 0 2.836.471 3.944 1.273a30.806 30.806 0 00-.495-6.937 10.987 10.987 0 00-.248-1.132 3.237 3.237 0 00-.773-1.37c-.233-.233-.642-.538-1.193-.488-.84.08-1.72.309-2.305.47-.18.05-.364.11-.55.18a.754.754 0 00-.484.713zm2.104 9.255a4.778 4.778 0 00-4.782 4.78c0 1.846 1.054 3.482 2.05 4.598.51.57 1.033 1.037 1.462 1.367.218.167.413.3.586.402.086.052.174.097.262.136.059.025.224.094.42.094.196 0 .362-.07.42-.094.089-.04.176-.084.262-.136.17-.1.371-.237.585-.402.429-.33.954-.797 1.461-1.367 1-1.114 2.053-2.75 2.053-4.599a4.778 4.778 0 00-4.78-4.78m0 3.64c.541 0 .981.44.981.982v.237a.982.982 0 01-1.964 0v-.236c0-.542.44-.984.982-.984z"

 fill="currentColor"
 />
 </svg>