<svg
 viewBox="0 0 54 54"
 fill="none"
 xmlns="http://www.w3.org/2000/svg"
 >
 <g clip-path="url(#2ggpku61ja)">
 <path
 d="M27 54C12.116 54 0 41.884 0 27S12.116 0 27 0s27 12.116 27 27-12.116 27-27 27zm0-46.879C16.043 7.121 7.121 16.042 7.121 27c0 10.958 8.921 19.879 19.879 19.879 10.958 0 19.879-8.921 19.879-19.879 0-10.957-8.921-19.879-19.879-19.879z"
 fill="url(#zdx7c1vsfb)"
 />
 <rect x="7" y="7" width="40" rx="20" fill="currentColor" />
 <path
 d="M29.225 35.206c-1.406-1.406-2.092-3.06-2.092-5.051V19.827c0-.551.202-1.001.607-1.395.417-.405.89-.596 1.44-.596.552 0 1.013.191 1.407.585.393.394.585.855.585 1.406v3.218h3.127c1.991 0 3.634.675 5.051 2.08 1.407 1.396 2.093 3.05 2.093 5.03 0 1.98-.686 3.633-2.115 5.04-1.418 1.406-3.071 2.092-5.063 2.092-1.99 0-3.633-.686-5.05-2.092l.01.01zm1.913-8.168l.034 3.128c0 .866.315 1.62.922 2.239.608.607 1.35.922 2.205.922s1.598-.315 2.216-.934c.62-.618.934-1.372.934-2.216 0-.855-.315-1.597-.945-2.205a3.102 3.102 0 00-2.239-.922h-3.127v-.012zM23.197 37.23c-1.991 0-3.645-.687-5.062-2.093a7.69 7.69 0 01-.957-1.159c-.798-1.158-1.192-2.486-1.192-3.96v-3.307h-1.44a1.903 1.903 0 01-1.406-.585 1.903 1.903 0 01-.585-1.406 1.9 1.9 0 01.585-1.407 1.903 1.903 0 011.406-.585h1.44v-3.026c0-.551.191-1.001.596-1.395.405-.394.866-.596 1.429-.596.562 0 .99.191 1.384.562.01.023.033.034.045.057h.01s.023.033.035.045c.382.393.562.843.562 1.383v3.117h3.735c.54 0 .99.19 1.384.573.011.023.034.034.045.057h.011s.023.033.034.045c.382.393.574.843.574 1.383s-.192 1.013-.585 1.407a1.903 1.903 0 01-1.407.585h-3.825v3.15c0 .618.18 1.203.518 1.71v.022c.135.169.247.304.36.416.619.62 1.361.934 2.216.934h.675a1.9 1.9 0 011.406.585c.102.101.192.203.27.326v.023c.26.337.383.709.383 1.147 0 .552-.191 1.013-.585 1.407a1.903 1.903 0 01-1.406.585h-.652z"
 fill="currentColor"
 />
 </g>
 <defs>
 <linearGradient
 id="zdx7c1vsfb"
 x1="54"
 y1="27"
 x2="0"
 y2="27"
 gradientUnits="userSpaceOnUse"
 >
 <stop stop-color="currentColor" />
 <stop offset="0.15" stop-color="currentColor" />
 <stop offset="0.32" stop-color="currentColor" />
 <stop offset="0.53" stop-color="currentColor" />
 <stop offset="0.81" stop-color="currentColor" />
 </linearGradient>
 <clipPath id="2ggpku61ja">
 <path fill="currentColor" d="M0 0h54v54H0z" />
 </clipPath>
 </defs>
 </svg>