<svg
 viewBox="0 0 24 24"
 fill="none"
 xmlns="http://www.w3.org/2000/svg"
 >
 <g clip-path="url(#clip0_294_233441)" fill="currentColor">
 <path d="M10 3H4a1 1 0 00-1 1v6a1 1 0 001 1h6a1 1 0 001-1V4a1 1 0 00-1-1zM20 3h-6a1 1 0 00-1 1v6a1 1 0 001 1h6a1 1 0 001-1V4a1 1 0 00-1-1zM10 13H4a1 1 0 00-1 1v6a1 1 0 001 1h6a1 1 0 001-1v-6a1 1 0 00-1-1zM17 13a4 4 0 11-3.995 4.2L13 17l.005-.2A4 4 0 0117 13z" />
 </g>
 <defs>
 <clipPath id="clip0_294_233441">
 <path fill="currentColor" d="M0 0H24V24H0z" />
 </clipPath>
 </defs>
 </svg>