<svg xmlns="http://www.w3.org/2000/svg" xmlns:xlink="http://www.w3.org/1999/xlink" viewBox="0 0 31.784 31.784">
 <defs>
 <style>
 .cls-1 {
 fill: #fff;
 }

 .cls-2 {
 clip-path: url(#clip-path);
 }
 </style>
 <clipPath id="clip-path">
 <rect id="Rectangle_2130" data-name="Rectangle 2130" class="cls-1" width="31.784" height="31.784"/>
 </clipPath>
 </defs>
 <g id="Group_3444" data-name="Group 3444" class="cls-2">
 <path id="Path_2026" data-name="Path 2026" class="cls-1" d="M31.2,13.638a4.547,4.547,0,0,0-1.856-1.856A1.947,1.947,0,0,1,28.42,9.4l.066-.265A4.607,4.607,0,0,0,25.5,3.3a4.209,4.209,0,0,0-2.85,0l-.265.066A2.021,2.021,0,0,1,20,2.437,4.7,4.7,0,0,0,13.639.581a4.549,4.549,0,0,0-1.856,1.856A1.947,1.947,0,0,1,9.4,3.365L9.132,3.3A4.607,4.607,0,0,0,3.3,6.281a4.208,4.208,0,0,0,0,2.85l.066.265a2.021,2.021,0,0,1-.928,2.386A4.7,4.7,0,0,0,.582,18.145,4.549,4.549,0,0,0,2.438,20a1.947,1.947,0,0,1,.928,2.386l-.066.265a4.607,4.607,0,0,0,2.983,5.833,4.208,4.208,0,0,0,2.85,0l.265-.066a2.022,2.022,0,0,1,2.386.928A4.7,4.7,0,0,0,18.146,31.2,4.549,4.549,0,0,0,20,29.346a1.947,1.947,0,0,1,2.386-.928l.265.066A4.607,4.607,0,0,0,28.486,25.5a4.209,4.209,0,0,0,0-2.85l-.066-.265A2.021,2.021,0,0,1,29.347,20,4.7,4.7,0,0,0,31.2,13.638M9.265,12.556a1.988,1.988,0,1,1,1.988,1.988,1.954,1.954,0,0,1-1.988-1.988m3.579,8.219c0,.066-.066.066-.133.133a1.316,1.316,0,1,1-1.723-1.988l7.954-7.954A1.312,1.312,0,1,1,20.8,12.821Zm7.689.4a1.988,1.988,0,1,1,1.988-1.988,1.953,1.953,0,0,1-1.988,1.988" transform="translate(0 0.001)"/>
 </g>
</svg>