<svg xmlns="http://www.w3.org/2000/svg" xmlns:xlink="http://www.w3.org/1999/xlink" viewBox="0 0 10.164 10.164">
 <defs>
 <style>
 .cls-1 {
 fill: #fff;
 }

 .cls-2 {
 clip-path: url(#clip-path);
 }
 </style>
 <clipPath id="clip-path">
 <rect id="Rectangle_2130" data-name="Rectangle 2130" class="cls-1" width="10.164" height="10.164"/>
 </clipPath>
 </defs>
 <g id="Group_3444" data-name="Group 3444" class="cls-2">
 <path id="Path_2026" data-name="Path 2026" class="cls-1" d="M9.979,4.361a1.454,1.454,0,0,0-.593-.593A.623.623,0,0,1,9.088,3l.021-.085a1.473,1.473,0,0,0-.954-1.865,1.346,1.346,0,0,0-.911,0l-.085.021A.646.646,0,0,1,6.4.779,1.5,1.5,0,0,0,4.362.185a1.455,1.455,0,0,0-.594.593.623.623,0,0,1-.763.3l-.085-.021a1.473,1.473,0,0,0-1.865.954,1.346,1.346,0,0,0,0,.911L1.077,3a.646.646,0,0,1-.3.763A1.5,1.5,0,0,0,.186,5.8,1.455,1.455,0,0,0,.78,6.4a.623.623,0,0,1,.3.763l-.021.085a1.473,1.473,0,0,0,.954,1.865,1.346,1.346,0,0,0,.911,0l.085-.021a.646.646,0,0,1,.763.3A1.5,1.5,0,0,0,5.8,9.977,1.455,1.455,0,0,0,6.4,9.384a.623.623,0,0,1,.763-.3l.085.021A1.473,1.473,0,0,0,9.11,8.155a1.346,1.346,0,0,0,0-.911l-.021-.085a.646.646,0,0,1,.3-.763,1.5,1.5,0,0,0,.593-2.035M2.963,4.015a.636.636,0,1,1,.636.636.625.625,0,0,1-.636-.636M4.108,6.643c0,.021-.021.021-.042.042a.421.421,0,1,1-.551-.636L6.057,3.506a.42.42,0,0,1,.593.593Zm2.459.127A.636.636,0,1,1,7.2,6.134a.625.625,0,0,1-.636.636" transform="translate(0 0.001)"/>
 </g>
</svg>