<svg xmlns="http://www.w3.org/2000/svg" viewBox="0 0 21 21">
 <g data-name="Group 6410">
 <g data-name="Group 6409">
 <path data-name="Path 3404" d="M178.8 279.965a.888.888 0 0 1-.275-.65v-.915h.935a.9.9 0 0 1 .913.891v.022h-.011a.891.891 0 0 1-.269.655.9.9 0 0 1-1.278.01l-.015-.015m-1.871-5.05a.9.9 0 0 0-.275.661v3.743a2.683 2.683 0 0 0 .825 1.975 2.71 2.71 0 0 0 1.982.82 2.789 2.789 0 0 0 2.784-2.795 2.789 2.789 0 0 0-2.792-2.786h-.928v-.954a.934.934 0 0 0-1.6-.661" transform="translate(-167.063 -268.451)" style="fill:#3f536c"/>
 <path data-name="Path 3405" d="M208.176 272.54v1.167h1.075v-1.167a.537.537 0 0 0-.548-.526.518.518 0 0 0-.526.51v.016" transform="translate(-196.301 -266.013)" style="fill:#3f536c"/>
 <path data-name="Path 3406" d="m243.972 291.608-.824.85.755.755.823-.847a.534.534 0 1 0-.755-.755" transform="translate(-228.733 -284.046)" style="fill:#3f536c"/>
 <path data-name="Path 3407" d="M207.541 382.4v1.167a.537.537 0 0 0 .548.526.517.517 0 0 0 .526-.508V382.4z" transform="translate(-195.712 -368.383)" style="fill:#3f536c"/>
 <path data-name="Path 3408" d="M258.28 331.982v1.052h1.167a.526.526 0 0 0 0-1.052h-1.167z" transform="translate(-242.767 -321.628)" style="fill:#3f536c"/>
 <path data-name="Path 3409" d="m243.149 363.3.824.824a.534.534 0 1 0 .755-.755l-.823-.823z" transform="translate(-228.734 -349.973)" style="fill:#3f536c"/>
 <path data-name="Path 3410" d="M101.255 275.606a.892.892 0 0 0-.28.661v.881h-.305a.9.9 0 0 0-.661.275.93.93 0 0 0-.006 1.315l.006.006a.9.9 0 0 0 .661.275h.305V280a2.808 2.808 0 0 0 2.807 2.795h.231a.935.935 0 1 0 0-1.871h-.241a.939.939 0 0 1-.924-.924v-.926h1.164a.934.934 0 0 0 .661-1.6.9.9 0 0 0-.661-.275h-1.155v-.935a.94.94 0 0 0-.936-.936.919.919 0 0 0-.666.275" transform="translate(-95.734 -269.089)" style="fill:#3f536c"/>
 </g>
 <g data-name="Ellipse 52" style="stroke:#3f536c;stroke-width:1.5px;fill:none">
 <circle cx="10.5" cy="10.5" r="10.5" style="stroke:none"/>
 <circle cx="10.5" cy="10.5" r="9.75" style="fill:none"/>
 </g>
 </g>
</svg>