<svg
 viewBox="0 0 74 42"
 fill="none"
 xmlns="http://www.w3.org/2000/svg"
 >
 <path
 d="M33.043 3.427h5.247c.543 0 1.043.486 1.043 1.144v8.222c0 .659-.5 1.145-1.043 1.145h-5.247c-.543 0-1.043-.487-1.043-1.145V4.571c0-.658.5-1.144 1.043-1.144zm7.861.674c.06.145.096.31.096.487v8.222c0 .173-.036.334-.097.477.03-.165.047-.335.047-.51V4.604c0-.172-.017-.34-.046-.503z"
 stroke="#fff"
 />
 <path
 d="M8.393 31l-.924-1.632h-.396V31h-.84v-4.188h1.572c.324 0 .6.058.828.174.228.112.398.266.51.462.116.192.174.408.174.648 0 .276-.08.526-.24.75-.16.22-.398.372-.714.456L9.365 31h-.972zm-1.32-2.262h.702c.228 0 .398-.054.51-.162.112-.112.168-.266.168-.462 0-.192-.056-.34-.168-.444-.112-.108-.282-.162-.51-.162h-.702v1.23zm6.094.528c0 .12-.008.228-.024.324h-2.43c.02.24.104.428.252.564.148.136.33.204.546.204.312 0 .534-.134.666-.402h.906a1.53 1.53 0 01-.552.792c-.272.204-.606.306-1.002.306-.32 0-.608-.07-.864-.21a1.546 1.546 0 01-.594-.606c-.14-.26-.21-.56-.21-.9 0-.344.07-.646.21-.906.14-.26.336-.46.588-.6.252-.14.542-.21.87-.21.316 0 .598.068.846.204.252.136.446.33.582.582.14.248.21.534.21.858zm-.87-.24a.657.657 0 00-.234-.516.821.821 0 00-.558-.198.766.766 0 00-.528.192.825.825 0 00-.258.522h1.578zm2.251 1.284h1.482V31h-2.436v-.678l1.452-1.956H13.6v-.69h2.412v.678l-1.464 1.956zm5.223-1.044c0 .12-.008.228-.024.324h-2.43c.02.24.104.428.252.564.148.136.33.204.546.204.312 0 .534-.134.666-.402h.906a1.53 1.53 0 01-.552.792c-.272.204-.606.306-1.002.306-.32 0-.608-.07-.864-.21a1.546 1.546 0 01-.594-.606c-.14-.26-.21-.56-.21-.9 0-.344.07-.646.21-.906.14-.26.336-.46.588-.6.252-.14.542-.21.87-.21.316 0 .598.068.846.204.252.136.446.33.582.582.14.248.21.534.21.858zm-.87-.24a.657.657 0 00-.234-.516.821.821 0 00-.558-.198.766.766 0 00-.528.192.825.825 0 00-.258.522H18.9zm2.323-.834c.108-.176.248-.314.42-.414.176-.1.376-.15.6-.15v.882h-.222c-.264 0-.464.062-.6.186-.132.124-.198.34-.198.648V31h-.84v-3.324h.84v.516zm2.971 2.034l.84-2.55h.895L24.7 31h-1.02l-1.224-3.324h.9l.84 2.55zm1.99-.9c0-.336.066-.634.198-.894.136-.26.318-.46.546-.6.232-.14.49-.21.774-.21a1.337 1.337 0 011.098.528v-.474h.846V31h-.846v-.486a1.27 1.27 0 01-.45.39c-.188.1-.406.15-.654.15-.28 0-.536-.072-.768-.216a1.546 1.546 0 01-.546-.606 2 2 0 01-.198-.906zm2.616.012c0-.204-.04-.378-.12-.522a.82.82 0 00-.324-.336.85.85 0 00-.438-.12.85.85 0 00-.756.45c-.08.144-.12.316-.12.516s.04.376.12.528a.921.921 0 00.324.342c.136.08.28.12.432.12a.884.884 0 00.438-.114.873.873 0 00.324-.336c.08-.148.12-.324.12-.528zm2.939 1.716c-.272 0-.516-.048-.732-.144a1.343 1.343 0 01-.516-.402 1.023 1.023 0 01-.204-.558h.846a.464.464 0 00.186.318.67.67 0 00.414.126c.16 0 .284-.032.372-.096a.29.29 0 00.138-.246c0-.108-.056-.188-.168-.24a2.787 2.787 0 00-.522-.18 4.598 4.598 0 01-.612-.186 1.088 1.088 0 01-.408-.294c-.112-.132-.168-.31-.168-.534 0-.184.052-.352.156-.504.108-.152.26-.272.456-.36.2-.088.434-.132.702-.132.396 0 .712.1.948.3.236.196.366.462.39.798h-.804a.422.422 0 00-.168-.312.59.59 0 00-.39-.12.635.635 0 00-.354.084.27.27 0 00-.12.234c0 .112.056.198.168.258.112.056.286.114.522.174.24.06.438.122.594.186.156.064.29.164.402.3.116.132.176.308.18.528a.87.87 0 01-.162.516 1.044 1.044 0 01-.456.36 1.742 1.742 0 01-.69.126zm5.177-3.378l-2.058 4.896h-.894l.72-1.656-1.332-3.24h.942l.858 2.322.87-2.322h.894zm1.93 3.378c-.32 0-.609-.07-.865-.21a1.575 1.575 0 01-.606-.606 1.827 1.827 0 01-.216-.9c0-.34.074-.64.222-.9.152-.26.358-.46.618-.6.26-.144.55-.216.87-.216.32 0 .61.072.87.216.26.14.464.34.612.6.152.26.228.56.228.9 0 .34-.078.64-.234.9-.152.26-.36.462-.624.606-.26.14-.552.21-.876.21zm0-.732a.82.82 0 00.75-.444c.08-.148.12-.328.12-.54 0-.316-.085-.558-.253-.726a.804.804 0 00-.606-.258.804.804 0 00-.606.258c-.16.168-.24.41-.24.726s.078.56.234.732c.16.168.36.252.6.252zm4.191-2.694c.396 0 .716.126.96.378.244.248.366.596.366 1.044V31h-.84v-1.836c0-.264-.066-.466-.198-.606-.132-.144-.312-.216-.54-.216-.232 0-.416.072-.552.216-.132.14-.198.342-.198.606V31h-.84v-3.324h.84v.414c.112-.144.254-.256.426-.336a1.32 1.32 0 01.576-.126zm2.965-1.068V31h-.84v-4.44h.84zm.614 2.766c0-.336.066-.634.198-.894.136-.26.318-.46.546-.6.232-.14.49-.21.774-.21a1.337 1.337 0 011.098.528v-.474h.846V31h-.846v-.486a1.27 1.27 0 01-.45.39c-.188.1-.406.15-.654.15-.28 0-.536-.072-.768-.216a1.546 1.546 0 01-.546-.606 2 2 0 01-.198-.906zm2.616.012c0-.204-.04-.378-.12-.522a.82.82 0 00-.324-.336.85.85 0 00-.438-.12.85.85 0 00-.756.45c-.08.144-.12.316-.12.516s.04.376.12.528a.921.921 0 00.324.342c.136.08.28.12.432.12a.884.884 0 00.438-.114.873.873 0 00.324-.336c.08-.148.12-.324.12-.528zm2.506-1.146c.108-.176.248-.314.42-.414.176-.1.376-.15.6-.15v.882h-.222c-.264 0-.464.062-.6.186-.132.124-.198.34-.198.648V31h-.84v-3.324h.84v.516zm2.462-.516V31h-.84v-3.324h.84zm2.706-.048c.396 0 .716.126.96.378.244.248.366.596.366 1.044V31h-.84v-1.836c0-.264-.066-.466-.198-.606-.132-.144-.312-.216-.54-.216-.232 0-.416.072-.552.216-.132.14-.198.342-.198.606V31h-.84v-3.324h.84v.414c.112-.144.254-.256.426-.336a1.32 1.32 0 01.576-.126zm1.91 1.698c0-.336.065-.634.197-.894.136-.26.32-.46.552-.6a1.47 1.47 0 011.392-.066c.196.092.352.216.468.372V26.56h.852V31h-.852v-.492c-.104.164-.25.296-.438.396-.188.1-.406.15-.654.15-.28 0-.536-.072-.768-.216a1.53 1.53 0 01-.552-.606 2 2 0 01-.198-.906zm2.615.012c0-.204-.04-.378-.12-.522a.82.82 0 00-.324-.336.85.85 0 00-.438-.12.85.85 0 00-.756.45c-.08.144-.12.316-.12.516s.04.376.12.528a.921.921 0 00.324.342c.136.08.28.12.432.12a.884.884 0 00.438-.114.873.873 0 00.324-.336c.08-.148.12-.324.12-.528zm1.45-.012c0-.336.067-.634.199-.894.136-.26.318-.46.546-.6.232-.14.49-.21.774-.21a1.337 1.337 0 011.098.528v-.474h.846V31h-.846v-.486a1.27 1.27 0 01-.45.39c-.188.1-.406.15-.654.15-.28 0-.536-.072-.768-.216a1.546 1.546 0 01-.546-.606 2 2 0 01-.198-.906zm2.617.012c0-.204-.04-.378-.12-.522a.82.82 0 00-.324-.336.85.85 0 00-.438-.12.85.85 0 00-.756.45c-.08.144-.12.316-.12.516s.04.376.12.528a.921.921 0 00.324.342c.136.08.28.12.432.12a.884.884 0 00.438-.114.873.873 0 00.324-.336c.08-.148.12-.324.12-.528zM30.119 40l-1.524-1.866V40h-.84v-4.188h.84v1.878l1.524-1.878h1.014l-1.728 2.076L31.18 40h-1.062zm4.752-3.324V40h-.846v-.42a1.13 1.13 0 01-.426.342c-.172.08-.36.12-.564.12-.26 0-.49-.054-.69-.162a1.206 1.206 0 01-.474-.486 1.648 1.648 0 01-.168-.768v-1.95h.84v1.83c0 .264.066.468.198.612.132.14.312.21.54.21.232 0 .414-.07.546-.21.132-.144.198-.348.198-.612v-1.83h.846zm1.67-1.116V40h-.84v-4.44h.84zm1.67 0V40h-.84v-4.44h.84zm.613 2.766c0-.336.066-.634.198-.894.136-.26.318-.46.546-.6.232-.14.49-.21.774-.21a1.337 1.337 0 011.098.528v-.474h.846V40h-.846v-.486a1.27 1.27 0 01-.45.39c-.188.1-.406.15-.654.15-.28 0-.536-.072-.768-.216a1.546 1.546 0 01-.546-.606 2 2 0 01-.198-.906zm2.616.012c0-.204-.04-.378-.12-.522a.82.82 0 00-.324-.336.85.85 0 00-.438-.12.85.85 0 00-.756.45c-.08.144-.12.316-.12.516s.04.376.12.528a.921.921 0 00.324.342c.136.08.28.12.432.12a.884.884 0 00.438-.114.873.873 0 00.324-.336c.08-.148.12-.324.12-.528zm3.508-1.71c.396 0 .716.126.96.378.244.248.366.596.366 1.044V40h-.84v-1.836c0-.264-.066-.466-.198-.606-.132-.144-.312-.216-.54-.216-.232 0-.416.072-.552.216-.132.14-.198.342-.198.606V40h-.84v-3.324h.84v.414c.112-.144.254-.256.426-.336a1.32 1.32 0 01.576-.126z"
 fill="#fff"
 />
 </svg>