<svg
 xmlns="http://www.w3.org/2000/svg"
 viewBox="0 0 17.889 20.156"
 >
 <g>
 <path
 d="M12.47 0C9.547 0 7.077 1.31 7.077 2.872s2.469 2.872 5.391 2.872 5.391-1.31 5.391-2.872S15.393 0 12.47 0z"
 fill="#3f536c"
 />
 <path
 d="M17.484 5.165a8.348 8.348 0 01-5.013 1.462 8.348 8.348 0 01-5.014-1.462 1.712 1.712 0 00-.378 1.034 1.627 1.627 0 00.278.856 6.338 6.338 0 013.7 1.915c2.444.352 4.963-.252 6.173-1.436a1.892 1.892 0 00.655-1.335 1.8 1.8 0 00-.4-1.034z"
 fill="#3f536c"
 />
 <path
 d="M17.485 8.492a8.288 8.288 0 01-5.013 1.486c-.278 0-.58 0-.882-.025a2.264 2.264 0 01.1.706 2.68 2.68 0 01-.6 1.638 7.962 7.962 0 001.386.1 7.046 7.046 0 004.762-1.537 1.893 1.893 0 00.656-1.336 1.992 1.992 0 00-.4-1.032z"
 fill="#3f536c"
 />
 <path
 d="M17.485 11.818a8.288 8.288 0 01-5.013 1.486c-.3 0-.6 0-.882-.025a2.3 2.3 0 01.126.706 2.738 2.738 0 01-.6 1.638c2.444.352 4.939-.252 6.123-1.436a1.892 1.892 0 00.655-1.335 2 2 0 00-.4-1.033z"
 fill="#3f536c"
 />
 <path
 d="M12.471 19.048c2.923 0 5.391-1.31 5.391-2.872a1.776 1.776 0 00-.378-1.034 8.287 8.287 0 01-5.013 1.486c-.278 0-.58-.026-.882-.05a2.3 2.3 0 01.126.705 2.625 2.625 0 01-.6 1.638 7.868 7.868 0 001.36.126z"
 fill="#3f536c"
 />
 <path
 d="M5.415 13.53c2.923 0 5.391-1.31 5.391-2.872S8.337 7.783 5.415 7.783.022 9.096.022 10.658c0 1.536 2.47 2.872 5.393 2.872z"
 fill="#3f536c"
 />
 <path
 d="M10.531 13.102c-.076-.026-.176-.026-.252-.05a8.513 8.513 0 01-4.887 1.36 8.188 8.188 0 01-5.014-1.487A1.775 1.775 0 000 13.958a1.973 1.973 0 00.63 1.336 7.086 7.086 0 004.765 1.538 7.045 7.045 0 004.762-1.537 1.892 1.892 0 00.656-1.336 1.518 1.518 0 00-.278-.857z"
 fill="#3f536c"
 />
 <path
 d="M5.415 17.738a8.393 8.393 0 01-5.013-1.459 1.7 1.7 0 00-.38 1c0 1.563 2.468 2.873 5.391 2.873s5.391-1.31 5.391-2.872a1.641 1.641 0 00-.278-.856c-.1-.026-.176-.026-.252-.05a8.475 8.475 0 01-4.862 1.359z"
 fill="#3f536c"
 />
 </g>
 </svg>