<svg
 viewBox="0 0 16 16"
 fill="none"
 xmlns="http://www.w3.org/2000/svg"
 >
 <mask id="a" fill="#fff">
 <path d="M0 0h74v42H0V0z" />
 </mask>
 <path d="M74 0h-1v42h2V0h-1z" fill="#fff" mask="url(#a)" />
 <g
 clip-path="url(#mp5mhxm8cb)"
 stroke="#fff"
 stroke-linecap="round"
 stroke-linejoin="round"
 >
 <path d="M35.013 6.003A4.333 4.333 0 1139 9.99M34.67 14.667a4.333 4.333 0 110-8.667 4.333 4.333 0 010 8.667zm9-3.331a2 2 0 01-2 2h-1.334m0 0l1.333-1.333m-1.333 1.333l1.333 1.333M30.336 4.67a2 2 0 012-2h1.333m0 0l-1.333 1.333m1.333-1.334l-1.333-1.333" />
 </g>
 <path
 d="M22.446 26.812V31h-.84v-1.782h-1.794V31h-.84v-4.188h.84v1.722h1.794v-1.722h.84zm.61 2.514c0-.336.066-.634.198-.894.136-.26.318-.46.546-.6.232-.14.49-.21.774-.21a1.337 1.337 0 011.098.528v-.474h.846V31h-.846v-.486a1.27 1.27 0 01-.45.39c-.188.1-.406.15-.654.15-.28 0-.536-.072-.768-.216a1.546 1.546 0 01-.546-.606 2 2 0 01-.198-.906zm2.616.012c0-.204-.04-.378-.12-.522a.82.82 0 00-.324-.336.85.85 0 00-.438-.12.85.85 0 00-.756.45c-.08.144-.12.316-.12.516s.04.376.12.528a.921.921 0 00.324.342c.136.08.28.12.432.12a.884.884 0 00.438-.114.873.873 0 00.324-.336c.08-.148.12-.324.12-.528zm2.507-1.146c.108-.176.248-.314.42-.414.176-.1.376-.15.6-.15v.882h-.222c-.264 0-.464.062-.6.186-.132.124-.198.34-.198.648V31h-.84v-3.324h.84v.516zm1.37 1.146c0-.344.07-.644.21-.9.14-.26.334-.46.582-.6.248-.144.532-.216.852-.216.412 0 .752.104 1.02.312.272.204.454.492.546.864h-.906a.64.64 0 00-.246-.336.68.68 0 00-.42-.126.69.69 0 00-.57.264c-.14.172-.21.418-.21.738 0 .316.07.562.21.738.14.172.33.258.57.258.34 0 .562-.152.666-.456h.906c-.092.36-.274.646-.546.858-.272.212-.612.318-1.02.318-.32 0-.604-.07-.852-.21a1.527 1.527 0 01-.582-.6c-.14-.26-.21-.562-.21-.906zm3.609-.012c0-.336.066-.634.198-.894.136-.26.318-.46.546-.6.232-.14.49-.21.774-.21a1.337 1.337 0 011.098.528v-.474h.846V31h-.846v-.486a1.27 1.27 0 01-.45.39c-.188.1-.406.15-.654.15-.28 0-.536-.072-.768-.216a1.546 1.546 0 01-.546-.606 2 2 0 01-.198-.906zm2.616.012c0-.204-.04-.378-.12-.522a.82.82 0 00-.324-.336.85.85 0 00-.438-.12.85.85 0 00-.756.45c-.08.144-.12.316-.12.516s.04.376.12.528a.921.921 0 00.324.342c.136.08.28.12.432.12a.884.884 0 00.438-.114.873.873 0 00.324-.336c.08-.148.12-.324.12-.528zm1.45-.012c0-.336.066-.634.198-.894.136-.26.32-.46.552-.6a1.47 1.47 0 011.392-.066c.196.092.352.216.468.372V26.56h.852V31h-.852v-.492c-.104.164-.25.296-.438.396-.188.1-.406.15-.654.15-.28 0-.536-.072-.768-.216a1.53 1.53 0 01-.552-.606 2 2 0 01-.198-.906zm2.616.012c0-.204-.04-.378-.12-.522a.82.82 0 00-.324-.336.85.85 0 00-.438-.12.85.85 0 00-.756.45c-.08.144-.12.316-.12.516s.04.376.12.528a.921.921 0 00.324.342c.136.08.28.12.432.12a.884.884 0 00.438-.114.873.873 0 00.324-.336c.08-.148.12-.324.12-.528zm2.543-1.662V31h-.84v-3.324h.84zM45.215 31l-1.128-1.416V31h-.84v-4.44h.84v2.526l1.116-1.41h1.092l-1.464 1.668L46.307 31h-1.092zm2.958-.666c.34 0 .562-.152.666-.456h.906c-.084.324-.24.588-.468.792a1.476 1.476 0 01-.846.366v.234c.22 0 .404.056.552.168.152.112.228.274.228.486a.583.583 0 01-.234.498.902.902 0 01-.564.174h-.852v-.492h.714a.439.439 0 00.216-.042c.052-.028.078-.078.078-.15s-.026-.122-.078-.15a.501.501 0 00-.216-.036h-.372v-.69a1.631 1.631 0 01-.72-.282 1.574 1.574 0 01-.48-.588 1.963 1.963 0 01-.168-.828c0-.344.07-.644.21-.9.14-.26.334-.46.582-.6.248-.144.532-.216.852-.216.412 0 .752.104 1.02.312.272.204.454.492.546.864h-.906a.64.64 0 00-.246-.336.68.68 0 00-.42-.126.69.69 0 00-.57.264c-.14.172-.21.418-.21.738 0 .316.07.562.21.738.14.172.33.258.57.258zm1.971-1.008c0-.336.066-.634.198-.894.136-.26.318-.46.546-.6.232-.14.49-.21.774-.21a1.337 1.337 0 011.098.528v-.474h.846V31h-.846v-.486a1.27 1.27 0 01-.45.39c-.188.1-.406.15-.654.15-.28 0-.536-.072-.768-.216a1.546 1.546 0 01-.546-.606 2 2 0 01-.198-.906zm2.616.012c0-.204-.04-.378-.12-.522a.82.82 0 00-.324-.336.85.85 0 00-.438-.12.85.85 0 00-.756.45c-.08.144-.12.316-.12.516s.04.376.12.528a.921.921 0 00.324.342c.136.08.28.12.432.12a.884.884 0 00.438-.114.873.873 0 00.324-.336c.08-.148.12-.324.12-.528zm-34.9 6.474v.678h-1.115V40h-.84v-3.51h-1.116v-.678h3.072zm2.99 2.04c.236.044.43.162.582.354.152.192.228.412.228.66 0 .224-.056.422-.168.594-.108.168-.266.3-.474.396a1.748 1.748 0 01-.738.144h-1.806v-4.188h1.728c.284 0 .528.046.732.138.208.092.364.22.468.384.108.164.162.35.162.558a.945.945 0 01-.198.612c-.128.164-.3.28-.516.348zm-1.536-.312h.768c.2 0 .354-.044.462-.132a.484.484 0 00.162-.39.484.484 0 00-.162-.39c-.108-.092-.262-.138-.462-.138h-.768v1.05zm.846 1.776c.204 0 .362-.048.474-.144a.5.5 0 00.174-.408c0-.18-.06-.32-.18-.42-.12-.104-.282-.156-.486-.156h-.828v1.128h.846zm6.653-2.208c0 .224-.054.434-.162.63-.104.196-.27.354-.498.474-.224.12-.508.18-.852.18h-.702V40h-.84v-4.188H25.3c.324 0 .6.056.828.168.228.112.398.266.51.462.116.196.174.418.174.666zm-1.548.606c.232 0 .404-.052.516-.156.112-.108.168-.258.168-.45 0-.408-.228-.612-.684-.612h-.666v1.218h.666zm5.282-1.038V40h-.846v-.42a1.13 1.13 0 01-.426.342c-.172.08-.36.12-.564.12-.26 0-.49-.054-.69-.162a1.206 1.206 0 01-.474-.486 1.648 1.648 0 01-.168-.768v-1.95h.84v1.83c0 .264.066.468.198.612.132.14.312.21.54.21.232 0 .414-.07.546-.21.132-.144.198-.348.198-.612v-1.83h.846zm.613 1.65c0-.336.066-.634.198-.894.136-.26.318-.46.546-.6.232-.14.49-.21.774-.21a1.337 1.337 0 011.098.528v-.474h.846V40h-.846v-.486a1.27 1.27 0 01-.45.39c-.188.1-.406.15-.654.15-.28 0-.536-.072-.768-.216a1.546 1.546 0 01-.546-.606 2 2 0 01-.198-.906zm2.616.012c0-.204-.04-.378-.12-.522a.82.82 0 00-.324-.336.85.85 0 00-.438-.12.85.85 0 00-.756.45c-.08.144-.12.316-.12.516s.04.376.12.528a.921.921 0 00.324.342c.136.08.28.12.432.12a.884.884 0 00.438-.114.873.873 0 00.324-.336c.08-.148.12-.324.12-.528zm3.508-1.71c.396 0 .716.126.96.378.244.248.366.596.366 1.044V40h-.84v-1.836c0-.264-.066-.466-.198-.606-.132-.144-.312-.216-.54-.216-.232 0-.416.072-.552.216-.132.14-.198.342-.198.606V40h-.84v-3.324h.84v.414c.112-.144.254-.256.426-.336a1.32 1.32 0 01.576-.126zM43.203 40l-1.524-1.866V40h-.84v-4.188h.84v1.878l1.524-1.878h1.014l-1.728 2.076L44.265 40h-1.062zm1.398-1.674c0-.336.066-.634.198-.894.136-.26.318-.46.546-.6.232-.14.49-.21.774-.21a1.337 1.337 0 011.098.528v-.474h.846V40h-.846v-.486a1.27 1.27 0 01-.45.39c-.188.1-.406.15-.654.15-.28 0-.536-.072-.768-.216a1.546 1.546 0 01-.546-.606 2 2 0 01-.198-.906zm2.616.012c0-.204-.04-.378-.12-.522a.82.82 0 00-.324-.336.85.85 0 00-.438-.12.85.85 0 00-.756.45c-.08.144-.12.316-.12.516s.04.376.12.528a.921.921 0 00.324.342c.136.08.28.12.432.12a.884.884 0 00.438-.114.873.873 0 00.324-.336c.08-.148.12-.324.12-.528zm2.435.972h1.482V40h-2.436v-.678l1.452-1.956h-1.446v-.69h2.412v.678l-1.464 1.956zm1.916-.984c0-.336.066-.634.198-.894.136-.26.318-.46.546-.6.232-.14.49-.21.774-.21a1.337 1.337 0 011.098.528v-.474h.846V40h-.846v-.486a1.27 1.27 0 01-.45.39c-.188.1-.406.15-.654.15-.28 0-.536-.072-.768-.216a1.546 1.546 0 01-.546-.606 2 2 0 01-.198-.906zm2.616.012c0-.204-.04-.378-.12-.522a.82.82 0 00-.324-.336.85.85 0 00-.438-.12.85.85 0 00-.756.45c-.08.144-.12.316-.12.516s.04.376.12.528a.921.921 0 00.324.342c.136.08.28.12.432.12a.884.884 0 00.438-.114.873.873 0 00.324-.336c.08-.148.12-.324.12-.528zm3.509-1.71c.396 0 .715.126.96.378.244.248.366.596.366 1.044V40h-.84v-1.836c0-.264-.067-.466-.199-.606-.131-.144-.311-.216-.54-.216-.231 0-.415.072-.551.216-.133.14-.199.342-.199.606V40h-.84v-3.324h.84v.414a1.15 1.15 0 01.427-.336 1.32 1.32 0 01.576-.126z"
 fill="#fff"
 />
 <defs>
 <clipPath id="mp5mhxm8cb">
 <path fill="#fff" transform="translate(29)" d="M0 0h16v16H0z" />
 </clipPath>
 </defs>
 </svg>