<svg
 viewBox="0 0 74 42"
 fill="none"
 xmlns="http://www.w3.org/2000/svg"
 >
 <mask id="a" fill="#fff">
 <path d="M0 0h74v42H0V0z" />
 </mask>
 <path d="M74 0h-1v42h2V0h-1z" fill="#fff" mask="url(#a)" />
 <path
 d="M37.003 7.997a2.667 2.667 0 100-5.333 2.667 2.667 0 000 5.333z"
 stroke="#fff"
 stroke-linecap="round"
 stroke-linejoin="round"
 />
 <path
 d="M32.336 13.333v-.666a4.667 4.667 0 016.667-4.218m1.09 2.497l.692-1.469a.238.238 0 01.435 0l.693 1.469 1.549.237c.198.03.278.286.134.433l-1.12 1.142.264 1.614c.033.207-.174.365-.352.268l-1.385-.763-1.386.762c-.177.098-.385-.06-.351-.267l.264-1.614-1.12-1.142c-.144-.147-.065-.403.134-.433l1.549-.237z"
 stroke="#fff"
 stroke-linecap="round"
 stroke-linejoin="round"
 />
 <path
 d="M22.803 26.812V31h-.84v-4.188h.84zm-.42-.402a.383.383 0 01-.282-.114.383.383 0 01-.114-.282c0-.112.038-.206.114-.282.076-.08.17-.12.282-.12.112 0 .206.04.282.12.08.076.12.17.12.282 0 .112-.04.206-.12.282a.383.383 0 01-.282.114zm2.09.15V31h-.84v-4.44h.84zM27.27 31l-1.128-1.416V31h-.84v-4.44h.84v2.526l1.116-1.41h1.092l-1.464 1.668L28.363 31H27.27zm3.793-4.188v2.592c0 .284.074.502.222.654.148.148.356.222.624.222.272 0 .482-.074.63-.222.148-.152.222-.37.222-.654v-2.592h.846v2.586c0 .356-.078.658-.234.906a1.448 1.448 0 01-.618.552 1.942 1.942 0 01-.858.186c-.312 0-.596-.062-.852-.186a1.426 1.426 0 01-.6-.552c-.148-.248-.222-.55-.222-.906v-2.586h.84zm.294-.402a.383.383 0 01-.282-.114.383.383 0 01-.114-.282c0-.112.038-.206.114-.282.076-.08.17-.12.282-.12.112 0 .206.04.282.12.08.076.12.17.12.282 0 .112-.04.206-.12.282a.383.383 0 01-.282.114zm1.11 0a.383.383 0 01-.282-.114.383.383 0 01-.114-.282c0-.112.038-.206.114-.282.076-.08.17-.12.282-.12.112 0 .206.04.282.12.08.076.12.17.12.282 0 .112-.04.206-.12.282a.383.383 0 01-.282.114zm5.132 1.266l-2.058 4.896h-.894l.72-1.656-1.332-3.24h.942l.858 2.322.87-2.322h.894zm3.543 1.59c0 .12-.008.228-.024.324h-2.43c.02.24.104.428.252.564.148.136.33.204.546.204.312 0 .534-.134.666-.402h.906a1.53 1.53 0 01-.552.792c-.272.204-.606.306-1.002.306-.32 0-.608-.07-.864-.21a1.546 1.546 0 01-.594-.606c-.14-.26-.21-.56-.21-.9 0-.344.07-.646.21-.906.14-.26.336-.46.588-.6.252-.14.542-.21.87-.21.316 0 .598.068.846.204.252.136.446.33.582.582.14.248.21.534.21.858zm-.87-.24a.657.657 0 00-.234-.516.821.821 0 00-.558-.198.766.766 0 00-.528.192.825.825 0 00-.258.522h1.578zm2.323-2.466V31h-.84v-4.44h.84zm1.256.72a.529.529 0 01-.372-.138.481.481 0 01-.144-.354c0-.14.048-.256.144-.348a.516.516 0 01.372-.144c.148 0 .27.048.366.144.1.092.15.208.15.348 0 .14-.05.258-.15.354a.508.508 0 01-.366.138zm.414.396V31h-.84v-3.324h.84zm2.132-.054c.248 0 .466.05.654.15.188.096.336.222.444.378v-.474h.846v3.348c0 .308-.062.582-.186.822-.124.244-.31.436-.558.576-.248.144-.548.216-.9.216-.472 0-.86-.11-1.164-.33-.3-.22-.47-.52-.51-.9h.834a.612.612 0 00.282.36.992.992 0 00.534.138.815.815 0 00.594-.222c.152-.144.228-.364.228-.66v-.516a1.27 1.27 0 01-.45.39 1.316 1.316 0 01-.648.156c-.28 0-.536-.072-.768-.216a1.53 1.53 0 01-.552-.606 2 2 0 01-.198-.906c0-.336.066-.634.198-.894.136-.26.318-.46.546-.6.232-.14.49-.21.774-.21zm1.098 1.716c0-.204-.04-.378-.12-.522a.82.82 0 00-.324-.336.85.85 0 00-.438-.12.85.85 0 00-.756.45c-.08.144-.12.316-.12.516s.04.376.12.528a.921.921 0 00.324.342c.136.08.28.12.432.12a.884.884 0 00.438-.114.873.873 0 00.324-.336c.08-.148.12-.324.12-.528zm.192-2.85c0 .288-.086.514-.258.678-.172.164-.406.246-.702.246-.288 0-.52-.082-.696-.246-.172-.168-.258-.396-.258-.684v-.12h.444c0 .136.038.24.114.312.076.068.208.102.396.102.188 0 .32-.034.396-.102.076-.072.114-.176.114-.312h.45v.126zm4.564 2.778c0 .12-.008.228-.024.324h-2.43c.02.24.104.428.252.564.148.136.33.204.546.204.312 0 .534-.134.666-.402h.906a1.53 1.53 0 01-.552.792c-.272.204-.606.306-1.002.306-.32 0-.608-.07-.864-.21a1.546 1.546 0 01-.594-.606c-.14-.26-.21-.56-.21-.9 0-.344.07-.646.21-.906.14-.26.336-.46.588-.6.252-.14.542-.21.87-.21.316 0 .598.068.846.204.252.136.446.33.582.582.14.248.21.534.21.858zm-.87-.24a.657.657 0 00-.234-.516.821.821 0 00-.558-.198.766.766 0 00-.528.192.825.825 0 00-.258.522h1.578zM7.128 36.4v-.774h1.446V40H7.71v-3.6h-.582zm2.744 3.642a.537.537 0 01-.378-.138.481.481 0 01-.144-.354c0-.14.048-.256.144-.348a.524.524 0 01.378-.144.496.496 0 01.366.846.507.507 0 01-.366.138zm1.09-2.286c0-.692.124-1.234.373-1.626.251-.392.667-.588 1.247-.588.58 0 .994.196 1.242.588.252.392.379.934.379 1.626 0 .696-.127 1.242-.378 1.638-.248.396-.662.594-1.242.594s-.997-.198-1.248-.594c-.249-.396-.373-.942-.373-1.638zm2.412 0c0-.296-.02-.544-.06-.744a.975.975 0 00-.228-.498c-.111-.128-.28-.192-.504-.192-.224 0-.394.064-.51.192a1.045 1.045 0 00-.227.498 4.19 4.19 0 00-.055.744c0 .304.019.56.055.768.035.204.111.37.227.498.117.124.287.186.51.186.224 0 .394-.062.51-.186a.975.975 0 00.228-.498c.037-.208.054-.464.054-.768zm1.467 0c0-.692.124-1.234.372-1.626.252-.392.668-.588 1.248-.588s.994.196 1.242.588c.252.392.378.934.378 1.626 0 .696-.126 1.242-.378 1.638-.248.396-.662.594-1.242.594s-.996-.198-1.248-.594c-.248-.396-.372-.942-.372-1.638zm2.412 0c0-.296-.02-.544-.06-.744a.975.975 0 00-.228-.498c-.112-.128-.28-.192-.504-.192-.224 0-.394.064-.51.192a1.045 1.045 0 00-.228.498c-.036.2-.054.448-.054.744 0 .304.018.56.054.768.036.204.112.37.228.498.116.124.286.186.51.186.224 0 .394-.062.51-.186a.975.975 0 00.228-.498c.036-.208.054-.464.054-.768zm1.467 0c0-.692.124-1.234.372-1.626.252-.392.668-.588 1.248-.588s.994.196 1.242.588c.252.392.378.934.378 1.626 0 .696-.126 1.242-.378 1.638-.248.396-.662.594-1.242.594s-.996-.198-1.248-.594c-.248-.396-.372-.942-.372-1.638zm2.412 0c0-.296-.02-.544-.06-.744a.975.975 0 00-.228-.498c-.112-.128-.28-.192-.504-.192-.224 0-.394.064-.51.192a1.045 1.045 0 00-.228.498c-.036.2-.054.448-.054.744 0 .304.018.56.054.768.036.204.112.37.228.498.116.124.286.186.51.186.224 0 .394-.062.51-.186a.975.975 0 00.228-.498c.036-.208.054-.464.054-.768zm5.843-1.944v.678h-1.116V40h-.84v-3.51h-1.116v-.678h3.072zm2.989 2.04c.236.044.43.162.582.354.152.192.228.412.228.66 0 .224-.056.422-.168.594-.108.168-.266.3-.474.396a1.748 1.748 0 01-.738.144h-1.806v-4.188h1.728c.284 0 .528.046.732.138.208.092.364.22.468.384.108.164.162.35.162.558a.945.945 0 01-.198.612c-.128.164-.3.28-.516.348zm-1.536-.312h.768c.2 0 .354-.044.462-.132a.484.484 0 00.162-.39.484.484 0 00-.162-.39c-.108-.092-.262-.138-.462-.138h-.768v1.05zm.846 1.776c.204 0 .362-.048.474-.144a.5.5 0 00.174-.408c0-.18-.06-.32-.18-.42-.12-.104-.282-.156-.486-.156h-.828v1.128h.846zm6.653-2.208c0 .224-.054.434-.162.63-.104.196-.27.354-.498.474-.224.12-.508.18-.852.18h-.702V40h-.84v-4.188h1.542c.324 0 .6.056.828.168.228.112.398.266.51.462.116.196.174.418.174.666zm-1.548.606c.232 0 .404-.052.516-.156.112-.108.168-.258.168-.45 0-.408-.228-.612-.684-.612h-.666v1.218h.666zm5.282-1.038V40h-.846v-.42a1.13 1.13 0 01-.426.342c-.172.08-.36.12-.564.12-.26 0-.49-.054-.69-.162a1.206 1.206 0 01-.474-.486 1.648 1.648 0 01-.168-.768v-1.95h.84v1.83c0 .264.066.468.198.612.132.14.312.21.54.21.232 0 .414-.07.546-.21.132-.144.198-.348.198-.612v-1.83h.846zm.613 1.65c0-.336.066-.634.198-.894.136-.26.318-.46.546-.6.232-.14.49-.21.774-.21a1.337 1.337 0 011.098.528v-.474h.846V40h-.846v-.486a1.27 1.27 0 01-.45.39c-.188.1-.406.15-.654.15-.28 0-.536-.072-.768-.216a1.546 1.546 0 01-.546-.606 2 2 0 01-.198-.906zm2.616.012c0-.204-.04-.378-.12-.522a.82.82 0 00-.324-.336.85.85 0 00-.438-.12.85.85 0 00-.756.45c-.08.144-.12.316-.12.516s.04.376.12.528a.921.921 0 00.324.342c.136.08.28.12.432.12a.884.884 0 00.438-.114.873.873 0 00.324-.336c.08-.148.12-.324.12-.528zm3.509-1.71c.396 0 .716.126.96.378.244.248.366.596.366 1.044V40h-.84v-1.836c0-.264-.066-.466-.198-.606-.132-.144-.312-.216-.54-.216-.232 0-.416.072-.552.216-.132.14-.198.342-.198.606V40h-.84v-3.324h.84v.414c.112-.144.254-.256.426-.336a1.32 1.32 0 01.576-.126zM52.317 40l-1.524-1.866V40h-.84v-4.188h.84v1.878l1.524-1.878h1.014l-1.728 2.076L53.38 40h-1.062zm1.399-1.674c0-.336.066-.634.198-.894.136-.26.318-.46.546-.6.232-.14.49-.21.774-.21a1.337 1.337 0 011.098.528v-.474h.846V40h-.846v-.486a1.27 1.27 0 01-.45.39c-.188.1-.406.15-.654.15-.28 0-.536-.072-.768-.216a1.546 1.546 0 01-.546-.606 2 2 0 01-.198-.906zm2.616.012c0-.204-.04-.378-.12-.522a.82.82 0 00-.324-.336.85.85 0 00-.438-.12.85.85 0 00-.756.45c-.08.144-.12.316-.12.516s.04.376.12.528a.921.921 0 00.324.342c.136.08.28.12.432.12a.884.884 0 00.438-.114.873.873 0 00.324-.336c.08-.148.12-.324.12-.528zm2.434.972h1.482V40h-2.436v-.678l1.452-1.956h-1.446v-.69h2.412v.678l-1.464 1.956zm1.916-.984c0-.336.066-.634.198-.894.136-.26.318-.46.546-.6.232-.14.49-.21.774-.21a1.337 1.337 0 011.098.528v-.474h.846V40h-.846v-.486a1.27 1.27 0 01-.45.39c-.188.1-.406.15-.654.15-.28 0-.536-.072-.768-.216a1.546 1.546 0 01-.546-.606 2 2 0 01-.198-.906zm2.616.012c0-.204-.04-.378-.12-.522a.82.82 0 00-.324-.336.85.85 0 00-.438-.12.85.85 0 00-.756.45c-.08.144-.12.316-.12.516s.04.376.12.528a.921.921 0 00.324.342c.136.08.28.12.432.12a.884.884 0 00.438-.114.873.873 0 00.324-.336c.08-.148.12-.324.12-.528zm3.509-1.71c.396 0 .716.126.96.378.244.248.366.596.366 1.044V40h-.84v-1.836c0-.264-.066-.466-.198-.606-.132-.144-.312-.216-.54-.216-.232 0-.416.072-.552.216-.132.14-.198.342-.198.606V40h-.84v-3.324h.84v.414c.112-.144.254-.256.426-.336a1.32 1.32 0 01.576-.126z"
 fill="#fff"
 />
 </svg>