<svg xmlns="http://www.w3.org/2000/svg" viewBox="0 0 87.5 39.013">
 <defs>
 <clipPath id="clip-path">
 <path id="Path_377" data-name="Path 377" class="cls-1" d="M118.618 75.833a2.832 2.832 0 0 1-.878-2.072v-2.914h2.984a2.878 2.878 0 0 1 2.915 2.914h-.039a2.842 2.842 0 0 1-.86 2.089 2.8 2.8 0 0 1-2.054.86 2.83 2.83 0 0 1-2.071-.878m-5.969-16.116a2.872 2.872 0 0 0-.878 2.106v11.939a8.563 8.563 0 0 0 2.633 6.3 8.649 8.649 0 0 0 6.32 2.616 8.532 8.532 0 0 0 6.285-2.616 8.9 8.9 0 0 0-6.32-15.185h-2.946v-3.053a2.979 2.979 0 0 0-5.091-2.106" transform="translate(-111.771 -58.839)"/>
 </clipPath>
 <clipPath id="clip-path-2">
 <path id="Path_403" data-name="Path 403" class="cls-1" d="M138.836 58.3v3.724h3.432V58.3h-.074a1.679 1.679 0 0 0-3.358 0" transform="translate(-138.836 -56.62)"/>
 </clipPath>
 <clipPath id="clip-path-3">
 <path id="Path_429" data-name="Path 429" class="cls-1" d="m171.5 73.763-2.629 2.7 2.41 2.41 2.628-2.7a1.719 1.719 0 0 0 0-2.409 1.718 1.718 0 0 0-2.409 0" transform="translate(-168.867 -73.27)"/>
 </clipPath>
 <clipPath id="clip-path-4">
 <path id="Path_455" data-name="Path 455" class="cls-1" d="M138.294 151.392v3.724h.073a1.68 1.68 0 0 0 3.359 0v-3.724z" transform="translate(-138.294 -151.392)"/>
 </clipPath>
 <clipPath id="clip-path-5">
 <path id="Path_481" data-name="Path 481" class="cls-1" d="M181.853 108.1v3.359h3.724a1.679 1.679 0 1 0 0-3.359z" transform="translate(-181.853 -108.105)"/>
 </clipPath>
 <clipPath id="clip-path-6">
 <path id="Path_507" data-name="Path 507" class="cls-1" d="m168.867 136.757 2.629 2.629a1.7 1.7 0 0 0 2.409-2.41l-2.628-2.628z" transform="translate(-168.867 -134.348)"/>
 </clipPath>
 <clipPath id="clip-path-7">
 <path id="Path_519" data-name="Path 519" class="cls-1" d="M50.6 60.351a2.844 2.844 0 0 0-.9 2.106v2.809h-.972a2.984 2.984 0 0 0 0 5.969h.972v3.125a8.56 8.56 0 0 0 2.633 6.3 8.647 8.647 0 0 0 6.32 2.616h.738a2.985 2.985 0 0 0 0-5.969h-.772a3 3 0 0 1-2.95-2.949v-2.947h3.722a2.984 2.984 0 0 0 0-5.969H55.7v-2.984a3 3 0 0 0-2.984-2.985 2.932 2.932 0 0 0-2.125.878" transform="translate(-45.744 -59.473)"/>
 </clipPath>
 <clipPath id="clip-path-8">
 <path class="cls-1" d="M10 12h87.5v39.013H10z"/>
 </clipPath>
 <clipPath id="clip-path-9">
 <path id="Rectangle_694" data-name="Rectangle 694" class="cls-1" d="M0 0h97.5v57.013H0z"/>
 </clipPath>
 <style>
 .cls-1{fill:none}.cls-3{fill:#b0006f}.cls-4{fill:#bf0068}.cls-5{fill:#cb005c}.cls-6{fill:#d4004b}.cls-7{fill:#6d196f}.cls-8{fill:#88136f}.cls-9{fill:#9f0b6b}.cls-10{fill:#b20062}.cls-11{fill:#c6004e}.cls-12{fill:#db0033}.cls-13{fill:#4a1e6d}.cls-14{fill:#651a6d}.cls-15{fill:#7b166d}.cls-16{fill:#911068}.cls-17{fill:#b00458}.cls-18{fill:#d10035}.cls-19{fill:#e92d17}.cls-20{fill:#30206c}.cls-21{fill:#5a1c6e}.cls-22{fill:#6c196f}.cls-23{fill:#8b1263}.cls-24{fill:#b7053b}.cls-25{fill:#eb4a15}.cls-26{fill:#f7790d}.cls-27{fill:#20216e}.cls-28{fill:#31206d}.cls-29{fill:#372174}.cls-30{fill:#3b217b}.cls-31{fill:#4f2073}.cls-32{fill:#7e334a}.cls-33{fill:#db7916}.cls-34{fill:#ed9f09}.cls-35{fill:#f1ae00}.cls-36{fill:#102370}.cls-37{fill:#192371}.cls-38{fill:#002581}.cls-39{fill:#00398f}.cls-40{fill:#0b5089}.cls-41{fill:#46745b}.cls-42{fill:#55a733}.cls-43{fill:#d3c310}.cls-44{fill:#ddcd03}.cls-45{fill:#efcb00}.cls-46{fill:#0e2572}.cls-47{fill:#0c2673}.cls-48{fill:#003488}.cls-49{fill:#0052a2}.cls-50{fill:#b7cb1d}.cls-51{fill:#00729b}.cls-52{fill:#329e6a}.cls-53{fill:#59ac33}.cls-54{fill:#74b42e}.cls-55{fill:#91bd28}.cls-56{fill:#a8c621}.cls-57{fill:#00307d}.cls-58{fill:#004094}.cls-59{fill:#0062af}.cls-60{fill:#0079a8}.cls-61{fill:#2da174}.cls-62{fill:#8cbc29}.cls-63{fill:#a3c423}.cls-64{fill:#9cc125}.cls-65{fill:#004f9f}.cls-66{fill:#006db8}.cls-67{fill:#0080b2}.cls-68{fill:#279c7a}.cls-69{fill:#77b52e}.cls-70{fill:#0073bd}.cls-71{fill:#0082b6}.cls-72{fill:#21967d}.cls-73{fill:#bbcc1a}.cls-75{fill:#002d7a}.cls-76{fill:#003a8c}.cls-77{fill:#005daa}.cls-91{fill:#f6a100}.cls-94{fill:#004cac}
 </style>
 </defs>
 <g id="Group_849" data-name="Group 849" transform="translate(384 -259.747)">
 <g id="Group_848" data-name="Group 848" transform="translate(-394 247.747)">
 <g id="Group_833" data-name="Group 833" transform="translate(30.165 15.879)">
 <g id="Group_832" data-name="Group 832" style="clip-path:url(#clip-path)">
 <path id="Path_355" data-name="Path 355" class="cls-3" d="m53.189 91.8.235-.236-.235-.235z" transform="translate(-68.999 -82.564)"/>
 <path id="Path_356" data-name="Path 356" class="cls-4" d="m53.189 74.051.235.235 3.312-3.311-3.312-3.312-.235.235z" transform="translate(-68.999 -65.281)"/>
 <path id="Rectangle_238" data-name="Rectangle 238" class="cls-5" transform="rotate(-45 -4.913 19.991)" d="M0 0h4.684v4.684H0z"/>
 <path id="Rectangle_239" data-name="Rectangle 239" class="cls-6" transform="rotate(-44.998 -7.255 14.338)" d="M0 0h4.683v4.683H0z"/>
 <path id="Path_357" data-name="Path 357" class="cls-7" d="m53.189 116.346.235-.235-.235-.235z" transform="translate(-68.999 -100.482)"/>
 <path id="Path_358" data-name="Path 358" class="cls-8" d="m53.189 98.592.235.235 3.312-3.311-3.312-3.316-.235.236z" transform="translate(-68.999 -83.199)"/>
 <path id="Rectangle_240" data-name="Rectangle 240" class="cls-9" transform="rotate(-44.998 3.083 23.304)" d="M0 0h4.684v4.684H0z"/>
 <path id="Rectangle_241" data-name="Rectangle 241" class="cls-10" transform="rotate(-45 .74 17.65)" d="M0 0h4.683v4.683H0z"/>
 <path id="Rectangle_242" data-name="Rectangle 242" class="cls-11" transform="rotate(-45 -1.604 11.996)" d="M0 0h4.684v4.684H0z"/>
 <path id="Rectangle_243" data-name="Rectangle 243" class="cls-12" transform="rotate(-45 -3.944 6.343)" d="M0 0h4.684v4.684H0z"/>
 <path id="Path_359" data-name="Path 359" class="cls-13" d="m53.189 123.136.235.235 3.312-3.311-3.312-3.312-.235.235z" transform="translate(-68.999 -101.119)"/>
 <path id="Rectangle_244" data-name="Rectangle 244" class="cls-14" transform="rotate(-44.995 11.08 26.617)" d="M0 0h4.684v4.684H0z"/>
 <path id="Rectangle_245" data-name="Rectangle 245" class="cls-15" transform="rotate(-45 8.733 20.964)" d="M0 0h4.684v4.684H0z"/>
 <path id="Rectangle_246" data-name="Rectangle 246" class="cls-16" transform="rotate(-45 6.394 15.307)" d="M0 0h4.684v4.684H0z"/>
 <path id="Rectangle_247" data-name="Rectangle 247" class="cls-17" transform="rotate(-45.002 4.052 9.654)" d="M0 0h4.684v4.684H0z"/>
 <path id="Rectangle_248" data-name="Rectangle 248" class="cls-18" transform="rotate(-45 1.71 4.001)" d="M0 0h4.684v4.684H0z"/>
 <path id="Rectangle_249" data-name="Rectangle 249" class="cls-19" transform="rotate(-45 -.632 -1.654)" d="M0 0h4.683v4.683H0z"/>
 <path id="Rectangle_250" data-name="Rectangle 250" class="cls-20" transform="rotate(-44.995 19.076 29.929)" d="M0 0h4.684v4.684H0z"/>
 <path id="Rectangle_251" data-name="Rectangle 251" class="cls-13" transform="rotate(-45 16.73 24.278)" d="M0 0h4.684v4.684H0z"/>
 <path id="Rectangle_252" data-name="Rectangle 252" class="cls-21" transform="rotate(-45 14.387 18.623)" d="M0 0h4.683v4.683H0z"/>
 <path id="Rectangle_253" data-name="Rectangle 253" class="cls-22" transform="rotate(-45.007 12.045 12.965)" d="M0 0h4.684v4.684H0z"/>
 <path id="Rectangle_254" data-name="Rectangle 254" class="cls-23" transform="rotate(-45 9.705 7.315)" d="M0 0h4.684v4.684H0z"/>
 <path id="Rectangle_255" data-name="Rectangle 255" class="cls-24" transform="rotate(-45 7.364 1.659)" d="M0 0h4.683v4.683H0z"/>
 <path id="Rectangle_256" data-name="Rectangle 256" class="cls-25" transform="rotate(-45.005 5.022 -3.995)" d="M0 0h4.683v4.683H0z"/>
 <path id="Rectangle_257" data-name="Rectangle 257" class="cls-26" transform="rotate(-45 2.68 -9.65)" d="M0 0h4.684v4.684H0z"/>
 <path id="Rectangle_258" data-name="Rectangle 258" class="cls-27" transform="rotate(-45.002 24.725 27.584)" d="M0 0h4.684v4.684H0z"/>
 <path id="Rectangle_259" data-name="Rectangle 259" class="cls-28" transform="rotate(-44.998 22.386 21.931)" d="M0 0h4.683v4.683H0z"/>
 <path id="Rectangle_260" data-name="Rectangle 260" class="cls-29" transform="rotate(-45.007 20.04 16.277)" d="M0 0h4.684v4.684H0z"/>
 <path id="Rectangle_261" data-name="Rectangle 261" class="cls-30" transform="rotate(-44.993 17.704 10.625)" d="M0 0h4.684v4.684H0z"/>
 <path id="Rectangle_262" data-name="Rectangle 262" class="cls-31" transform="rotate(-45.005 15.358 4.97)" d="M0 0h4.683v4.683H0z"/>
 <path id="Rectangle_263" data-name="Rectangle 263" class="cls-32" transform="rotate(-45.002 13.017 -.683)" d="M0 0h4.683v4.683H0z"/>
 <path id="Rectangle_264" data-name="Rectangle 264" class="cls-33" transform="rotate(-45.002 10.676 -6.337)" d="M0 0h4.684v4.684H0z"/>
 <path id="Rectangle_265" data-name="Rectangle 265" class="cls-34" transform="rotate(-44.998 8.334 -11.99)" d="M0 0h4.684v4.684H0z"/>
 <path id="Rectangle_266" data-name="Rectangle 266" class="cls-35" transform="rotate(-45 5.995 -17.644)" d="M0 0h4.684v4.684H0z"/>
 <path id="Rectangle_267" data-name="Rectangle 267" class="cls-36" transform="rotate(-45 30.38 25.243)" d="M0 0h4.683v4.683H0z"/>
 <path id="Rectangle_268" data-name="Rectangle 268" class="cls-37" transform="rotate(-45.005 28.035 19.59)" d="M0 0h4.684v4.684H0z"/>
 <path id="Rectangle_269" data-name="Rectangle 269" class="cls-38" transform="rotate(-44.993 25.701 13.937)" d="M0 0h4.684v4.684H0z"/>
 <path id="Rectangle_270" data-name="Rectangle 270" class="cls-39" transform="rotate(-45.005 23.353 8.283)" d="M0 0h4.683v4.683H0z"/>
 <path id="Rectangle_271" data-name="Rectangle 271" class="cls-40" transform="rotate(-45 21.014 2.629)" d="M0 0h4.683v4.683H0z"/>
 <path id="Rectangle_272" data-name="Rectangle 272" class="cls-41" transform="rotate(-45.007 18.67 -3.024)" d="M0 0h4.684v4.684H0z"/>
 <path id="Rectangle_273" data-name="Rectangle 273" class="cls-42" transform="rotate(-44.995 16.33 -8.68)" d="M0 0h4.684v4.684H0z"/>
 <path id="Rectangle_274" data-name="Rectangle 274" class="cls-43" transform="rotate(-44.995 13.988 -14.334)" d="M0 0h4.684v4.684H0z"/>
 <path id="Rectangle_275" data-name="Rectangle 275" class="cls-44" transform="rotate(-45.005 11.645 -19.983)" d="M0 0h4.683v4.684H0z"/>
 <path id="Rectangle_276" data-name="Rectangle 276" class="cls-45" transform="rotate(-44.998 9.304 -25.641)" d="M0 0h4.684v4.684H0z"/>
 <path id="Rectangle_277" data-name="Rectangle 277" class="cls-46" transform="rotate(-45 36.032 22.91)" d="M0 0h4.684v4.684H0z"/>
 <path id="Rectangle_278" data-name="Rectangle 278" class="cls-47" transform="rotate(-44.995 33.696 17.248)" d="M0 0h4.684v4.684H0z"/>
 <path id="Rectangle_279" data-name="Rectangle 279" class="cls-48" transform="rotate(-45 31.35 11.6)" d="M0 0h4.683v4.683H0z"/>
 <path id="Rectangle_280" data-name="Rectangle 280" class="cls-49" transform="rotate(-45 29.009 5.94)" d="M0 0h4.683v4.683H0z"/>
 <path id="Path_360" data-name="Path 360" class="cls-50" d="m216.9 49.744.235-.235v-6.154l-.235-.235-3.311 3.311z" transform="translate(-186.111 -47.362)"/>
 <path id="Rectangle_281" data-name="Rectangle 281" class="cls-51" transform="rotate(-45.007 26.664 .288)" d="M0 0h4.684v4.684H0z"/>
 <path id="Rectangle_282" data-name="Rectangle 282" class="cls-52" transform="rotate(-44.993 24.327 -5.369)" d="M0 0h4.684v4.684H0z"/>
 <path id="Rectangle_283" data-name="Rectangle 283" class="cls-53" transform="rotate(-45 21.983 -11.02)" d="M0 0h4.684v4.684H0z"/>
 <path id="Rectangle_284" data-name="Rectangle 284" class="cls-54" transform="rotate(-45.002 19.641 -16.673)" d="M0 0h4.684v4.684H0z"/>
 <path id="Rectangle_285" data-name="Rectangle 285" class="cls-55" transform="rotate(-45 17.3 -22.328)" d="M0 0h4.683v4.683H0z"/>
 <path id="Rectangle_286" data-name="Rectangle 286" class="cls-56" transform="rotate(-45.005 14.957 -27.978)" d="M0 0h4.684v4.684H0z"/>
 <path id="Rectangle_287" data-name="Rectangle 287" class="cls-57" transform="rotate(-45 39.345 14.906)" d="M0 0h4.683v4.683H0z"/>
 <path id="Rectangle_288" data-name="Rectangle 288" class="cls-58" transform="rotate(-45 37.006 9.26)" d="M0 0h4.683v4.683H0z"/>
 <path id="Rectangle_289" data-name="Rectangle 289" class="cls-59" transform="rotate(-45.005 34.659 3.6)" d="M0 0h4.684v4.684H0z"/>
 <path id="Rectangle_290" data-name="Rectangle 290" class="cls-60" transform="rotate(-45 32.323 -2.049)" d="M0 0h4.684v4.684H0z"/>
 <path id="Rectangle_291" data-name="Rectangle 291" class="cls-61" transform="rotate(-45 29.978 -7.708)" d="M0 0h4.684v4.684H0z"/>
 <path id="Rectangle_292" data-name="Rectangle 292" class="cls-53" transform="rotate(-45 27.637 -13.362)" d="M0 0h4.683v4.683H0z"/>
 <path id="Rectangle_293" data-name="Rectangle 293" class="cls-62" transform="rotate(-45 25.3 -19.013)" d="M0 0h4.684v4.684H0z"/>
 <path id="Rectangle_294" data-name="Rectangle 294" class="cls-63" transform="rotate(-45 22.953 -24.67)" d="M0 0h4.684v4.684H0z"/>
 <path id="Path_361" data-name="Path 361" class="cls-64" d="m216.9 74.286.235-.235V67.9l-.235-.235-3.312 3.312z" transform="translate(-186.11 -65.281)"/>
 <path id="Rectangle_295" data-name="Rectangle 295" class="cls-65" transform="rotate(-45 42.66 6.918)" d="M0 0h4.684v4.684H0z"/>
 <path id="Rectangle_296" data-name="Rectangle 296" class="cls-66" transform="rotate(-45 40.318 1.265)" d="M0 0h4.684v4.684H0z"/>
 <path id="Rectangle_297" data-name="Rectangle 297" class="cls-67" transform="rotate(-45 37.978 -4.39)" d="M0 0h4.684v4.684H0z"/>
 <path id="Rectangle_298" data-name="Rectangle 298" class="cls-68" transform="rotate(-45 35.632 -10.05)" d="M0 0h4.683v4.683H0z"/>
 <path id="Rectangle_299" data-name="Rectangle 299" class="cls-69" transform="rotate(-45 33.297 -15.699)" d="M0 0h4.683v4.683H0z"/>
 <path id="Rectangle_300" data-name="Rectangle 300" class="cls-63" transform="rotate(-45 30.954 -21.354)" d="M0 0h4.683v4.683H0z"/>
 <path id="Path_362" data-name="Path 362" class="cls-64" d="m216.9 98.828.235-.235V92.44l-.235-.24-3.312 3.312z" transform="translate(-186.11 -83.2)"/>
 <path id="Path_363" data-name="Path 363" class="cls-64" d="M226.095 91.8v-.471l-.235.235z" transform="translate(-195.069 -82.564)"/>
 <path id="Rectangle_301" data-name="Rectangle 301" class="cls-70" transform="rotate(-45 45.972 -1.077)" d="M0 0h4.684v4.684H0z"/>
 <path id="Rectangle_302" data-name="Rectangle 302" class="cls-71" transform="rotate(-45 43.632 -6.73)" d="M0 0h4.683v4.683H0z"/>
 <path id="Rectangle_303" data-name="Rectangle 303" class="cls-72" transform="rotate(-45.005 41.282 -12.39)" d="M0 0h4.684v4.684H0z"/>
 <path id="Rectangle_304" data-name="Rectangle 304" class="cls-55" transform="rotate(-44.998 38.945 -18.048)" d="M0 0h4.684v4.684H0z"/>
 <path id="Path_364" data-name="Path 364" class="cls-73" d="m216.9 123.371.235-.235v-6.153l-.235-.235-3.312 3.312z" transform="translate(-186.11 -101.119)"/>
 <path id="Path_365" data-name="Path 365" class="cls-73" d="M226.095 116.346v-.471l-.235.235z" transform="translate(-195.069 -100.482)"/>
 <path id="Rectangle_305" data-name="Rectangle 305" class="cls-70" transform="rotate(-45 49.28 -9.08)" d="M0 0h4.684v4.684H0z"/>
 <path id="Rectangle_306" data-name="Rectangle 306" class="cls-72" transform="rotate(-45 46.938 -14.733)" d="M0 0h4.684v4.684H0z"/>
 <path id="Path_366" data-name="Path 366" class="cls-56" d="m216.9 147.912.236-.236v-6.152l-.236-.236-3.312 3.312z" transform="translate(-186.108 -119.037)"/>
 <path id="Path_367" data-name="Path 367" class="cls-73" d="M226.093 140.887v-.472l-.236.236z" transform="translate(-195.068 -118.399)"/>
 <path id="Path_368" data-name="Path 368" class="cls-72" d="m216.9 172.455.236-.236v-6.152l-.236-.236-3.312 3.312z" transform="translate(-186.108 -136.956)"/>
 <path id="Path_369" data-name="Path 369" class="cls-56" d="M226.093 165.43v-.471l-.236.236z" transform="translate(-195.068 -136.319)"/>
 <path id="Path_370" data-name="Path 370" class="cls-50" d="M226.095 67.261v-.471l-.235.235z" transform="translate(-195.069 -64.644)"/>
 <path id="Path_371" data-name="Path 371" class="cls-5" d="m53.189 67.288.249-.249-.249-.249z" transform="translate(-68.999 -64.644)"/>
 <path id="Path_372" data-name="Path 372" class="cls-6" d="m53.189 49.545.249.249 3.311-3.312-3.311-3.312-.249.249z" transform="translate(-68.999 -47.4)"/>
 <path id="Path_373" data-name="Path 373" class="cls-27" d="m53.189 140.89.235-.236-.235-.235z" transform="translate(-68.999 -118.402)"/>
 <path id="Path_374" data-name="Path 374" class="cls-27" d="m53.189 165.432.235-.235-.235-.235z" transform="translate(-68.999 -136.321)"/>
 <path id="Path_375" data-name="Path 375" class="cls-27" d="m53.189 147.678.235.235 3.312-3.311-3.312-3.312-.235.236z" transform="translate(-68.999 -119.038)"/>
 <path id="Path_376" data-name="Path 376" class="cls-27" d="m53.189 172.221.235.235 3.312-3.312-3.312-3.312-.235.235z" transform="translate(-68.999 -136.957)"/>
 <path id="Rectangle_307" data-name="Rectangle 307" class="cls-27" transform="rotate(-45 27.065 33.246)" d="M0 0h4.683v4.683H0z"/>
 <path id="Rectangle_308" data-name="Rectangle 308" class="cls-46" transform="rotate(-45 32.722 30.896)" d="M0 0h4.684v4.684H0z"/>
 </g>
 </g>
 <g id="Group_835" data-name="Group 835" transform="translate(37.469 15.281)">
 <g id="Group_834" data-name="Group 834" style="clip-path:url(#clip-path-2)">
 <path id="Path_378" data-name="Path 378" class="cls-3" d="m55.851 78.2.235-.235-.235-.236z" transform="translate(-78.247 -72.031)"/>
 <path id="Path_379" data-name="Path 379" class="cls-4" d="m55.851 60.446.235.236L59.4 57.37l-3.312-3.312-.235.236z" transform="translate(-78.247 -54.749)"/>
 <path id="Rectangle_309" data-name="Rectangle 309" class="cls-5" transform="rotate(-44.995 -11.916 26.408)" d="M0 0h4.684v4.684H0z"/>
 <path id="Path_380" data-name="Path 380" class="cls-7" d="m55.851 102.743.235-.235-.235-.235z" transform="translate(-78.247 -89.952)"/>
 <path id="Path_381" data-name="Path 381" class="cls-8" d="m55.851 84.989.235.235 3.314-3.311-3.314-3.313-.235.235z" transform="translate(-78.247 -72.668)"/>
 <path id="Rectangle_310" data-name="Rectangle 310" class="cls-9" transform="rotate(-44.995 -3.92 29.72)" d="M0 0h4.684v4.684H0z"/>
 <path id="Rectangle_311" data-name="Rectangle 311" class="cls-10" transform="rotate(-45 -6.262 24.063)" d="M0 0h4.684v4.684H0z"/>
 <path id="Rectangle_312" data-name="Rectangle 312" class="cls-11" transform="rotate(-45 -8.603 18.41)" d="M0 0h4.683v4.683H0z"/>
 <path id="Path_382" data-name="Path 382" class="cls-13" d="m55.851 109.532.235.236 3.312-3.312-3.312-3.312-.235.235z" transform="translate(-78.247 -90.588)"/>
 <path id="Rectangle_313" data-name="Rectangle 313" class="cls-14" transform="rotate(-45 4.069 33.031)" d="M0 0h4.684v4.684H0z"/>
 <path id="Rectangle_314" data-name="Rectangle 314" class="cls-15" transform="rotate(-45.005 1.733 27.372)" d="M0 0h4.684v4.684H0z"/>
 <path id="Rectangle_315" data-name="Rectangle 315" class="cls-16" transform="rotate(-45 -.608 21.72)" d="M0 0h4.684v4.684H0z"/>
 <path id="Rectangle_316" data-name="Rectangle 316" class="cls-17" transform="rotate(-45 -2.954 16.069)" d="M0 0h4.683v4.683H0z"/>
 <path id="Rectangle_317" data-name="Rectangle 317" class="cls-18" transform="rotate(-45 -5.291 10.415)" d="M0 0h4.684v4.684H0z"/>
 <path id="Rectangle_318" data-name="Rectangle 318" class="cls-20" transform="rotate(-45 12.065 36.345)" d="M0 0h4.684v4.684H0z"/>
 <path id="Rectangle_319" data-name="Rectangle 319" class="cls-13" transform="rotate(-45 9.73 30.687)" d="M0 0h4.684v4.684H0z"/>
 <path id="Rectangle_320" data-name="Rectangle 320" class="cls-21" transform="rotate(-45 7.384 25.036)" d="M0 0h4.683v4.683H0z"/>
 <path id="Rectangle_321" data-name="Rectangle 321" class="cls-22" transform="rotate(-45.007 5.045 19.378)" d="M0 0h4.683v4.683H0z"/>
 <path id="Rectangle_322" data-name="Rectangle 322" class="cls-23" transform="rotate(-45 2.704 13.726)" d="M0 0h4.684v4.684H0z"/>
 <path id="Rectangle_323" data-name="Rectangle 323" class="cls-24" transform="rotate(-45 .36 8.073)" d="M0 0h4.684v4.684H0z"/>
 <path id="Rectangle_324" data-name="Rectangle 324" class="cls-25" transform="rotate(-45 -1.98 2.419)" d="M0 0h4.683v4.683H0z"/>
 <path id="Rectangle_325" data-name="Rectangle 325" class="cls-27" transform="rotate(-45 17.725 33.998)" d="M0 0h4.683v4.683H0z"/>
 <path id="Rectangle_326" data-name="Rectangle 326" class="cls-28" transform="rotate(-45 15.379 28.35)" d="M0 0h4.683v4.683H0z"/>
 <path id="Rectangle_327" data-name="Rectangle 327" class="cls-29" transform="rotate(-45 13.038 22.696)" d="M0 0h4.683v4.683H0z"/>
 <path id="Rectangle_328" data-name="Rectangle 328" class="cls-30" transform="rotate(-45 10.697 17.041)" d="M0 0h4.683v4.683H0z"/>
 <path id="Rectangle_329" data-name="Rectangle 329" class="cls-31" transform="rotate(-45 8.356 11.387)" d="M0 0h4.684v4.684H0z"/>
 <path id="Rectangle_330" data-name="Rectangle 330" class="cls-32" transform="rotate(-45 6.016 5.73)" d="M0 0h4.684v4.684H0z"/>
 <path id="Rectangle_331" data-name="Rectangle 331" class="cls-33" transform="rotate(-45 3.674 .076)" d="M0 0h4.684v4.684H0z"/>
 <path id="Rectangle_332" data-name="Rectangle 332" class="cls-34" transform="rotate(-45 1.333 -5.577)" d="M0 0h4.683v4.683H0z"/>
 <path id="Rectangle_333" data-name="Rectangle 333" class="cls-36" transform="rotate(-45 23.378 31.656)" d="M0 0h4.683v4.683H0z"/>
 <path id="Rectangle_334" data-name="Rectangle 334" class="cls-37" transform="rotate(-45 21.033 26.01)" d="M0 0h4.683v4.683H0z"/>
 <path id="Rectangle_335" data-name="Rectangle 335" class="cls-38" transform="rotate(-45 18.692 20.355)" d="M0 0h4.684v4.684H0z"/>
 <path id="Rectangle_336" data-name="Rectangle 336" class="cls-39" transform="rotate(-45 16.35 14.7)" d="M0 0h4.684v4.684H0z"/>
 <path id="Rectangle_337" data-name="Rectangle 337" class="cls-40" transform="rotate(-44.998 14.012 9.042)" d="M0 0h4.683v4.683H0z"/>
 <path id="Rectangle_338" data-name="Rectangle 338" class="cls-41" transform="rotate(-45 11.67 3.39)" d="M0 0h4.684v4.684H0z"/>
 <path id="Rectangle_339" data-name="Rectangle 339" class="cls-42" transform="rotate(-45 9.328 -2.266)" d="M0 0h4.684v4.684H0z"/>
 <path id="Rectangle_340" data-name="Rectangle 340" class="cls-43" transform="rotate(-45 6.985 -7.918)" d="M0 0h4.684v4.684H0z"/>
 <path id="Rectangle_341" data-name="Rectangle 341" class="cls-44" transform="rotate(-45 4.644 -13.572)" d="M0 0h4.683v4.683H0z"/>
 <path id="Rectangle_342" data-name="Rectangle 342" class="cls-46" transform="rotate(-45.002 29.03 29.315)" d="M0 0h4.683v4.683H0z"/>
 <path id="Rectangle_343" data-name="Rectangle 343" class="cls-47" transform="rotate(-45 26.69 23.662)" d="M0 0h4.684v4.684H0z"/>
 <path id="Rectangle_344" data-name="Rectangle 344" class="cls-48" transform="rotate(-45 24.347 18.014)" d="M0 0h4.684v4.684H0z"/>
 <path id="Rectangle_345" data-name="Rectangle 345" class="cls-49" transform="rotate(-45 22.006 12.359)" d="M0 0h4.684v4.684H0z"/>
 <path id="Rectangle_346" data-name="Rectangle 346" class="cls-51" transform="rotate(-45 19.665 6.7)" d="M0 0h4.684v4.684H0z"/>
 <path id="Rectangle_347" data-name="Rectangle 347" class="cls-52" transform="rotate(-44.998 17.324 1.046)" d="M0 0h4.683v4.683H0z"/>
 <path id="Rectangle_348" data-name="Rectangle 348" class="cls-53" transform="rotate(-45 14.983 -4.604)" d="M0 0h4.684v4.684H0z"/>
 <path id="Rectangle_349" data-name="Rectangle 349" class="cls-54" transform="rotate(-45 12.64 -10.26)" d="M0 0h4.684v4.684H0z"/>
 <path id="Rectangle_350" data-name="Rectangle 350" class="cls-55" transform="rotate(-45 10.297 -15.914)" d="M0 0h4.683v4.683H0z"/>
 <path id="Rectangle_351" data-name="Rectangle 351" class="cls-56" transform="rotate(-45.002 7.956 -21.567)" d="M0 0h4.683v4.683H0z"/>
 <path id="Path_383" data-name="Path 383" class="cls-75" d="m112.193 168.049.237-.237-3.312-3.311-3.312 3.311.237.237z" transform="translate(-114.721 -135.386)"/>
 <path id="Rectangle_352" data-name="Rectangle 352" class="cls-57" transform="rotate(-44.998 32.344 21.32)" d="M0 0h4.684v4.684H0z"/>
 <path id="Rectangle_353" data-name="Rectangle 353" class="cls-58" transform="rotate(-45 30.002 15.666)" d="M0 0h4.684v4.684H0z"/>
 <path id="Rectangle_354" data-name="Rectangle 354" class="cls-59" transform="rotate(-45 27.66 10.012)" d="M0 0h4.683v4.683H0z"/>
 <path id="Rectangle_355" data-name="Rectangle 355" class="cls-60" transform="rotate(-45 25.32 4.363)" d="M0 0h4.684v4.684H0z"/>
 <path id="Rectangle_356" data-name="Rectangle 356" class="cls-61" transform="rotate(-45 22.977 -1.294)" d="M0 0h4.684v4.684H0z"/>
 <path id="Rectangle_357" data-name="Rectangle 357" class="cls-53" transform="rotate(-44.998 20.636 -6.949)" d="M0 0h4.683v4.683H0z"/>
 <path id="Rectangle_358" data-name="Rectangle 358" class="cls-62" transform="rotate(-45 18.297 -12.6)" d="M0 0h4.683v4.683H0z"/>
 <path id="Rectangle_359" data-name="Rectangle 359" class="cls-63" transform="rotate(-45.002 15.95 -18.255)" d="M0 0h4.684v4.684H0z"/>
 <path id="Path_384" data-name="Path 384" class="cls-64" d="m219.561 60.681.235-.236v-6.152l-.235-.236-3.312 3.312z" transform="translate(-195.357 -54.749)"/>
 <path id="Path_385" data-name="Path 385" class="cls-76" d="m136.737 168.049.237-.237-3.312-3.311-3.312 3.311.237.237z" transform="translate(-132.641 -135.386)"/>
 <path id="Rectangle_360" data-name="Rectangle 360" class="cls-65" transform="rotate(-45 35.656 13.324)" d="M0 0h4.683v4.683H0z"/>
 <path id="Rectangle_361" data-name="Rectangle 361" class="cls-66" transform="rotate(-45 33.314 7.67)" d="M0 0h4.684v4.684H0z"/>
 <path id="Rectangle_362" data-name="Rectangle 362" class="cls-67" transform="rotate(-45 30.972 2.017)" d="M0 0h4.683v4.683H0z"/>
 <path id="Rectangle_363" data-name="Rectangle 363" class="cls-68" transform="rotate(-45 28.632 -3.632)" d="M0 0h4.684v4.683H0z"/>
 <path id="Rectangle_364" data-name="Rectangle 364" class="cls-69" transform="rotate(-45 26.289 -9.29)" d="M0 0h4.683v4.683H0z"/>
 <path id="Rectangle_365" data-name="Rectangle 365" class="cls-63" transform="rotate(-45 23.947 -14.944)" d="M0 0h4.683v4.683H0z"/>
 <path id="Path_386" data-name="Path 386" class="cls-64" d="m219.561 85.224.235-.235v-6.153l-.235-.235-3.312 3.312z" transform="translate(-195.357 -72.668)"/>
 <path id="Path_387" data-name="Path 387" class="cls-64" d="M228.757 78.2v-.471l-.235.236z" transform="translate(-204.317 -72.031)"/>
 <path id="Path_388" data-name="Path 388" class="cls-77" d="m161.28 168.049.237-.237-3.312-3.311-3.312 3.311.237.237z" transform="translate(-150.56 -135.386)"/>
 <path id="Rectangle_366" data-name="Rectangle 366" class="cls-70" transform="rotate(-45 38.967 5.33)" d="M0 0h4.683v4.683H0z"/>
 <path id="Rectangle_367" data-name="Rectangle 367" class="cls-71" transform="rotate(-45 36.625 -.325)" d="M0 0h4.684v4.684H0z"/>
 <path id="Rectangle_368" data-name="Rectangle 368" class="cls-72" transform="rotate(-45 34.284 -5.979)" d="M0 0h4.683v4.683H0z"/>
 <path id="Rectangle_369" data-name="Rectangle 369" class="cls-55" transform="rotate(-45.002 31.94 -11.632)" d="M0 0h4.683v4.684H0z"/>
 <path id="Path_389" data-name="Path 389" class="cls-73" d="m219.561 109.767.235-.236v-6.153l-.235-.235-3.312 3.312z" transform="translate(-195.357 -90.588)"/>
 <path id="Path_390" data-name="Path 390" class="cls-73" d="M228.757 102.743v-.47l-.235.235z" transform="translate(-204.317 -89.952)"/>
 <path id="Path_391" data-name="Path 391" class="cls-70" d="m185.82 168.047.238-.237-3.312-3.311-3.311 3.311.237.237z" transform="translate(-168.478 -135.384)"/>
 <path id="Rectangle_370" data-name="Rectangle 370" class="cls-70" transform="rotate(-45 42.278 -2.666)" d="M0 0h4.683v4.683H0z"/>
 <path id="Rectangle_371" data-name="Rectangle 371" class="cls-72" transform="rotate(-45 39.936 -8.32)" d="M0 0h4.683v4.683H0z"/>
 <path id="Path_392" data-name="Path 392" class="cls-56" d="m219.56 134.307.236-.236v-6.152l-.236-.236-3.312 3.312z" transform="translate(-195.356 -108.504)"/>
 <path id="Path_393" data-name="Path 393" class="cls-73" d="M228.755 127.283v-.471l-.236.235z" transform="translate(-204.316 -107.868)"/>
 <path id="Path_394" data-name="Path 394" class="cls-70" d="m210.362 168.047.238-.237-3.312-3.311-3.312 3.311.238.237z" transform="translate(-186.396 -135.384)"/>
 <path id="Path_395" data-name="Path 395" class="cls-72" d="m219.56 158.85.236-.235v-6.152l-.236-.236-3.312 3.312z" transform="translate(-195.356 -126.424)"/>
 <path id="Path_396" data-name="Path 396" class="cls-56" d="M228.755 151.825v-.472l-.236.236z" transform="translate(-204.316 -125.786)"/>
 <path id="Path_397" data-name="Path 397" class="cls-27" d="m55.851 127.285.235-.235-.235-.236z" transform="translate(-78.247 -107.87)"/>
 <path id="Path_398" data-name="Path 398" class="cls-27" d="m55.851 151.828.235-.235-.235-.235z" transform="translate(-78.247 -125.79)"/>
 <path id="Path_399" data-name="Path 399" class="cls-27" d="m55.851 134.075.235.235L59.4 131l-3.312-3.312-.235.235z" transform="translate(-78.247 -108.507)"/>
 <path id="Path_400" data-name="Path 400" class="cls-27" d="m55.851 158.617.235.235 3.314-3.312-3.312-3.312-.235.235z" transform="translate(-78.247 -126.426)"/>
 <path id="Rectangle_372" data-name="Rectangle 372" class="cls-27" transform="rotate(-44.995 20.07 39.655)" d="M0 0h4.684v4.684H0z"/>
 <path id="Path_401" data-name="Path 401" class="cls-46" d="m63.109 168.049.237-.237-3.312-3.312-3.312 3.311.238.237z" transform="translate(-78.883 -135.386)"/>
 <path id="Rectangle_373" data-name="Rectangle 373" class="cls-46" transform="rotate(-45 25.72 37.31)" d="M0 0h4.683v4.683H0z"/>
 <path id="Path_402" data-name="Path 402" class="cls-46" d="m87.652 168.049.236-.237-3.31-3.312-3.312 3.311.237.237z" transform="translate(-96.803 -135.386)"/>
 </g>
 </g>
 <g id="Group_837" data-name="Group 837" transform="translate(45.574 19.774)">
 <g id="Group_836" data-name="Group 836" style="clip-path:url(#clip-path-3)">
 <path id="Path_404" data-name="Path 404" class="cls-3" d="m53.028 75.888.235-.235-.235-.236z" transform="translate(-84.291 -74.838)"/>
 <path id="Path_405" data-name="Path 405" class="cls-4" d="m53.028 58.136.235.236 3.312-3.312-3.312-3.312-.235.235z" transform="translate(-84.291 -57.556)"/>
 <path id="Rectangle_374" data-name="Rectangle 374" class="cls-5" transform="rotate(-44.998 -22.525 34.55)" d="M0 0h4.683v4.683H0z"/>
 <path id="Path_406" data-name="Path 406" class="cls-7" d="m53.028 100.432.235-.236-.235-.235z" transform="translate(-84.291 -92.758)"/>
 <path id="Path_407" data-name="Path 407" class="cls-8" d="m53.028 82.678.235.235 3.312-3.313-3.312-3.31-.235.235z" transform="translate(-84.291 -75.475)"/>
 <path id="Rectangle_375" data-name="Rectangle 375" class="cls-9" transform="rotate(-44.998 -14.53 37.863)" d="M0 0h4.684v4.684H0z"/>
 <path id="Rectangle_376" data-name="Rectangle 376" class="cls-10" transform="rotate(-45 -16.88 32.207)" d="M0 0h4.683v4.683H0z"/>
 <path id="Rectangle_377" data-name="Rectangle 377" class="cls-11" transform="rotate(-45 -19.213 26.554)" d="M0 0h4.683v4.683H0z"/>
 <path id="Path_408" data-name="Path 408" class="cls-13" d="m53.028 107.221.235.235 3.312-3.311-3.312-3.313-.235.236z" transform="translate(-84.291 -93.394)"/>
 <path id="Rectangle_378" data-name="Rectangle 378" class="cls-14" transform="rotate(-44.993 -6.534 41.18)" d="M0 0h4.684v4.684H0z"/>
 <path id="Rectangle_379" data-name="Rectangle 379" class="cls-15" transform="rotate(-45.005 -8.877 35.516)" d="M0 0h4.683v4.683H0z"/>
 <path id="Rectangle_380" data-name="Rectangle 380" class="cls-16" transform="rotate(-45 -11.218 29.866)" d="M0 0h4.684v4.684H0z"/>
 <path id="Rectangle_381" data-name="Rectangle 381" class="cls-17" transform="rotate(-45 -13.56 24.212)" d="M0 0h4.683v4.683H0z"/>
 <path id="Rectangle_382" data-name="Rectangle 382" class="cls-18" transform="rotate(-45 -15.901 18.56)" d="M0 0h4.684v4.684H0z"/>
 <path id="Rectangle_383" data-name="Rectangle 383" class="cls-20" transform="rotate(-44.995 1.463 44.489)" d="M0 0h4.683v4.683H0z"/>
 <path id="Rectangle_384" data-name="Rectangle 384" class="cls-13" transform="rotate(-45.005 -.882 38.828)" d="M0 0h4.684v4.684H0z"/>
 <path id="Rectangle_385" data-name="Rectangle 385" class="cls-21" transform="rotate(-45 -3.229 33.18)" d="M0 0h4.683v4.683H0z"/>
 <path id="Rectangle_386" data-name="Rectangle 386" class="cls-22" transform="rotate(-45.007 -5.565 27.52)" d="M0 0h4.683v4.683H0z"/>
 <path id="Rectangle_387" data-name="Rectangle 387" class="cls-23" transform="rotate(-45 -7.907 21.871)" d="M0 0h4.684v4.684H0z"/>
 <path id="Rectangle_388" data-name="Rectangle 388" class="cls-24" transform="rotate(-44.993 -10.249 16.219)" d="M0 0h4.684v4.684H0z"/>
 <path id="Rectangle_389" data-name="Rectangle 389" class="cls-25" transform="rotate(-45.002 -12.589 10.562)" d="M0 0h4.683v4.683H0z"/>
 <path id="Rectangle_390" data-name="Rectangle 390" class="cls-27" transform="rotate(-45 7.114 42.143)" d="M0 0h4.684v4.684H0z"/>
 <path id="Rectangle_391" data-name="Rectangle 391" class="cls-28" transform="rotate(-45 4.766 36.493)" d="M0 0h4.683v4.683H0z"/>
 <path id="Rectangle_392" data-name="Rectangle 392" class="cls-29" transform="rotate(-45.007 2.43 30.831)" d="M0 0h4.683v4.683H0z"/>
 <path id="Rectangle_393" data-name="Rectangle 393" class="cls-30" transform="rotate(-45 .085 25.185)" d="M0 0h4.684v4.684H0z"/>
 <path id="Rectangle_394" data-name="Rectangle 394" class="cls-31" transform="rotate(-45 -2.252 19.528)" d="M0 0h4.684v4.684H0z"/>
 <path id="Rectangle_395" data-name="Rectangle 395" class="cls-32" transform="rotate(-45.002 -4.595 13.875)" d="M0 0h4.684v4.684H0z"/>
 <path id="Rectangle_396" data-name="Rectangle 396" class="cls-33" transform="rotate(-44.998 -6.937 8.222)" d="M0 0h4.684v4.684H0z"/>
 <path id="Rectangle_397" data-name="Rectangle 397" class="cls-34" transform="rotate(-45 -9.279 2.566)" d="M0 0h4.683v4.683H0z"/>
 <path id="Rectangle_398" data-name="Rectangle 398" class="cls-36" transform="rotate(-45 12.768 39.801)" d="M0 0h4.684v4.684H0z"/>
 <path id="Rectangle_399" data-name="Rectangle 399" class="cls-37" transform="rotate(-45 10.42 34.152)" d="M0 0h4.683v4.683H0z"/>
 <path id="Rectangle_400" data-name="Rectangle 400" class="cls-38" transform="rotate(-45 8.08 28.498)" d="M0 0h4.684v4.684H0z"/>
 <path id="Rectangle_401" data-name="Rectangle 401" class="cls-39" transform="rotate(-45 5.743 22.841)" d="M0 0h4.684v4.684H0z"/>
 <path id="Rectangle_402" data-name="Rectangle 402" class="cls-40" transform="rotate(-45 3.398 17.19)" d="M0 0h4.683v4.683H0z"/>
 <path id="Rectangle_403" data-name="Rectangle 403" class="cls-41" transform="rotate(-45 1.057 11.534)" d="M0 0h4.684v4.684H0z"/>
 <path id="Rectangle_404" data-name="Rectangle 404" class="cls-42" transform="rotate(-45 -1.284 5.88)" d="M0 0h4.684v4.684H0z"/>
 <path id="Rectangle_405" data-name="Rectangle 405" class="cls-43" transform="rotate(-44.998 -3.625 .225)" d="M0 0h4.683v4.683H0z"/>
 <path id="Rectangle_406" data-name="Rectangle 406" class="cls-44" transform="rotate(-45.002 -5.966 -5.427)" d="M0 0h4.683v4.683H0z"/>
 <path id="Rectangle_407" data-name="Rectangle 407" class="cls-46" transform="rotate(-45 18.417 37.465)" d="M0 0h4.684v4.684H0z"/>
 <path id="Rectangle_408" data-name="Rectangle 408" class="cls-47" transform="rotate(-45 16.08 31.807)" d="M0 0h4.684v4.684H0z"/>
 <path id="Rectangle_409" data-name="Rectangle 409" class="cls-48" transform="rotate(-44.995 13.74 26.155)" d="M0 0h4.684v4.684H0z"/>
 <path id="Rectangle_410" data-name="Rectangle 410" class="cls-49" transform="rotate(-45 11.396 20.497)" d="M0 0h4.683v4.683H0z"/>
 <path id="Rectangle_411" data-name="Rectangle 411" class="cls-51" transform="rotate(-45 9.053 14.848)" d="M0 0h4.684v4.684H0z"/>
 <path id="Rectangle_412" data-name="Rectangle 412" class="cls-52" transform="rotate(-44.993 6.714 9.192)" d="M0 0h4.684v4.684H0z"/>
 <path id="Rectangle_413" data-name="Rectangle 413" class="cls-53" transform="rotate(-45 4.37 3.538)" d="M0 0h4.683v4.683H0z"/>
 <path id="Rectangle_414" data-name="Rectangle 414" class="cls-54" transform="rotate(-45.002 2.029 -2.115)" d="M0 0h4.684v4.684H0z"/>
 <path id="Rectangle_415" data-name="Rectangle 415" class="cls-55" transform="rotate(-44.998 -.313 -7.77)" d="M0 0h4.684v4.684H0z"/>
 <path id="Rectangle_416" data-name="Rectangle 416" class="cls-56" transform="rotate(-45 -2.652 -13.424)" d="M0 0h4.683v4.683H0z"/>
 <path id="Path_409" data-name="Path 409" class="cls-75" d="m109.37 165.739.237-.236-3.313-3.312-3.312 3.312.238.236z" transform="translate(-120.764 -138.193)"/>
 <path id="Rectangle_417" data-name="Rectangle 417" class="cls-57" transform="rotate(-45 21.734 29.465)" d="M0 0h4.684v4.684H0z"/>
 <path id="Rectangle_418" data-name="Rectangle 418" class="cls-58" transform="rotate(-45 19.389 23.816)" d="M0 0h4.684v4.684H0z"/>
 <path id="Rectangle_419" data-name="Rectangle 419" class="cls-59" transform="rotate(-45 17.05 18.157)" d="M0 0h4.684v4.684H0z"/>
 <path id="Rectangle_420" data-name="Rectangle 420" class="cls-60" transform="rotate(-45 14.707 12.506)" d="M0 0h4.683v4.683H0z"/>
 <path id="Rectangle_421" data-name="Rectangle 421" class="cls-61" transform="rotate(-45 12.367 6.852)" d="M0 0h4.683v4.683H0z"/>
 <path id="Rectangle_422" data-name="Rectangle 422" class="cls-53" transform="rotate(-45 10.025 1.199)" d="M0 0h4.683v4.683H0z"/>
 <path id="Rectangle_423" data-name="Rectangle 423" class="cls-62" transform="rotate(-45 7.684 -4.456)" d="M0 0h4.684v4.684H0z"/>
 <path id="Rectangle_424" data-name="Rectangle 424" class="cls-63" transform="rotate(-45 5.343 -10.111)" d="M0 0h4.684v4.684H0z"/>
 <path id="Path_410" data-name="Path 410" class="cls-64" d="m216.738 58.372.235-.236v-6.153l-.235-.235-3.312 3.312z" transform="translate(-201.401 -57.556)"/>
 <path id="Path_411" data-name="Path 411" class="cls-76" d="m133.915 165.739.237-.236-3.312-3.312-3.311 3.312.236.236z" transform="translate(-138.685 -138.193)"/>
 <path id="Rectangle_425" data-name="Rectangle 425" class="cls-65" transform="rotate(-45.005 25.042 21.468)" d="M0 0h4.684v4.684H0z"/>
 <path id="Rectangle_426" data-name="Rectangle 426" class="cls-66" transform="rotate(-44.998 22.705 15.815)" d="M0 0h4.684v4.684H0z"/>
 <path id="Rectangle_427" data-name="Rectangle 427" class="cls-67" transform="rotate(-45 20.362 10.16)" d="M0 0h4.683v4.683H0z"/>
 <path id="Rectangle_428" data-name="Rectangle 428" class="cls-68" transform="rotate(-45 18.02 4.508)" d="M0 0h4.683v4.683H0z"/>
 <path id="Rectangle_429" data-name="Rectangle 429" class="cls-69" transform="rotate(-45 15.68 -1.143)" d="M0 0h4.684v4.684H0z"/>
 <path id="Rectangle_430" data-name="Rectangle 430" class="cls-63" transform="rotate(-44.993 13.337 -6.802)" d="M0 0h4.684v4.684H0z"/>
 <path id="Path_412" data-name="Path 412" class="cls-64" d="m216.738 82.914.235-.235v-6.154l-.235-.235-3.312 3.31z" transform="translate(-201.401 -75.475)"/>
 <path id="Path_413" data-name="Path 413" class="cls-64" d="M225.933 75.888v-.471l-.235.236z" transform="translate(-210.36 -74.838)"/>
 <path id="Path_414" data-name="Path 414" class="cls-77" d="m158.456 165.739.237-.236-3.312-3.312-3.312 3.312.237.236z" transform="translate(-156.603 -138.193)"/>
 <path id="Rectangle_431" data-name="Rectangle 431" class="cls-70" transform="rotate(-45.005 28.354 13.474)" d="M0 0h4.684v4.684H0z"/>
 <path id="Rectangle_432" data-name="Rectangle 432" class="cls-71" transform="rotate(-45 26.016 7.825)" d="M0 0h4.684v4.684H0z"/>
 <path id="Rectangle_433" data-name="Rectangle 433" class="cls-72" transform="rotate(-45 23.673 2.166)" d="M0 0h4.684v4.684H0z"/>
 <path id="Rectangle_434" data-name="Rectangle 434" class="cls-55" transform="rotate(-45 21.334 -3.484)" d="M0 0h4.683v4.683H0z"/>
 <path id="Path_415" data-name="Path 415" class="cls-73" d="m216.738 107.456.235-.235v-6.153l-.235-.236-3.312 3.312z" transform="translate(-201.401 -93.394)"/>
 <path id="Path_416" data-name="Path 416" class="cls-73" d="M225.933 100.432v-.471l-.235.235z" transform="translate(-210.36 -92.758)"/>
 <path id="Path_417" data-name="Path 417" class="cls-70" d="m183 165.738.238-.237-3.311-3.311-3.312 3.311.237.237z" transform="translate(-174.521 -138.191)"/>
 <path id="Rectangle_435" data-name="Rectangle 435" class="cls-70" transform="rotate(-45.005 31.664 5.479)" d="M0 0h4.684v4.684H0z"/>
 <path id="Rectangle_436" data-name="Rectangle 436" class="cls-72" transform="rotate(-45 29.328 -.17)" d="M0 0h4.684v4.684H0z"/>
 <path id="Path_418" data-name="Path 418" class="cls-56" d="m216.737 132 .236-.236v-6.152l-.236-.236-3.311 3.312z" transform="translate(-201.4 -111.311)"/>
 <path id="Path_419" data-name="Path 419" class="cls-73" d="M225.931 124.973v-.473l-.236.235z" transform="translate(-210.358 -110.675)"/>
 <path id="Path_420" data-name="Path 420" class="cls-70" d="m207.539 165.738.237-.237-3.312-3.311-3.312 3.311.238.237z" transform="translate(-192.439 -138.191)"/>
 <path id="Path_421" data-name="Path 421" class="cls-72" d="m216.737 156.54.236-.236v-6.152l-.236-.236-3.311 3.312z" transform="translate(-201.4 -129.231)"/>
 <path id="Path_422" data-name="Path 422" class="cls-56" d="M225.931 149.515v-.472l-.236.236z" transform="translate(-210.358 -128.593)"/>
 <path id="Path_423" data-name="Path 423" class="cls-27" d="m53.028 124.975.235-.236-.235-.235z" transform="translate(-84.291 -110.677)"/>
 <path id="Path_424" data-name="Path 424" class="cls-27" d="m53.028 149.518.235-.235-.235-.235z" transform="translate(-84.291 -128.596)"/>
 <path id="Path_425" data-name="Path 425" class="cls-27" d="m53.028 131.764.235.235 3.312-3.312-3.312-3.312-.235.236z" transform="translate(-84.291 -111.313)"/>
 <path id="Path_426" data-name="Path 426" class="cls-27" d="m53.028 156.306.235.236 3.312-3.312-3.312-3.312-.235.235z" transform="translate(-84.291 -129.232)"/>
 <path id="Rectangle_437" data-name="Rectangle 437" class="cls-27" transform="rotate(-45 9.448 47.802)" d="M0 0h4.684v4.684H0z"/>
 <path id="Path_427" data-name="Path 427" class="cls-46" d="m60.285 165.739.237-.236-3.312-3.312-3.31 3.309.238.236z" transform="translate(-84.926 -138.193)"/>
 <path id="Rectangle_438" data-name="Rectangle 438" class="cls-46" transform="rotate(-45 15.103 45.461)" d="M0 0h4.684v4.684H0z"/>
 <path id="Path_428" data-name="Path 428" class="cls-46" d="m84.829 165.739.237-.236-3.311-3.312-3.313 3.309.236.236z" transform="translate(-102.846 -138.193)"/>
 </g>
 </g>
 <g id="Group_839" data-name="Group 839" transform="translate(37.323 40.858)">
 <g id="Group_838" data-name="Group 838" style="clip-path:url(#clip-path-4)">
 <path id="Path_430" data-name="Path 430" class="cls-3" d="m50.46 74.093.235-.236-.235-.235z" transform="translate(-74.165 -94.611)"/>
 <path id="Path_431" data-name="Path 431" class="cls-4" d="m50.46 56.339.235.235 3.312-3.312L50.7 49.95l-.235.235z" transform="translate(-74.165 -77.327)"/>
 <path id="Rectangle_439" data-name="Rectangle 439" class="cls-5" transform="rotate(-45 -44.788 14.634)" d="M0 0h4.683v4.683H0z"/>
 <path id="Path_432" data-name="Path 432" class="cls-7" d="m50.46 98.635.24-.235-.235-.236z" transform="translate(-74.165 -112.529)"/>
 <path id="Path_433" data-name="Path 433" class="cls-8" d="m50.46 80.881.235.236 3.312-3.312-3.307-3.312-.235.236z" transform="translate(-74.165 -95.247)"/>
 <path id="Rectangle_440" data-name="Rectangle 440" class="cls-9" transform="rotate(-45 -36.786 17.953)" d="M0 0h4.684v4.684H0z"/>
 <path id="Rectangle_441" data-name="Rectangle 441" class="cls-10" transform="rotate(-45 -39.128 12.3)" d="M0 0h4.684v4.684H0z"/>
 <path id="Rectangle_442" data-name="Rectangle 442" class="cls-11" transform="rotate(-44.995 -41.474 6.648)" d="M0 0h4.683v4.683H0z"/>
 <path id="Path_434" data-name="Path 434" class="cls-13" d="m50.46 105.425.235.235 3.312-3.312-3.307-3.311-.235.235z" transform="translate(-74.165 -113.167)"/>
 <path id="Rectangle_443" data-name="Rectangle 443" class="cls-14" transform="rotate(-45 -28.79 21.265)" d="M0 0h4.683v4.683H0z"/>
 <path id="Rectangle_444" data-name="Rectangle 444" class="cls-15" transform="rotate(-45.002 -31.131 15.611)" d="M0 0h4.684v4.684H0z"/>
 <path id="Rectangle_445" data-name="Rectangle 445" class="cls-16" transform="rotate(-45 -33.48 9.953)" d="M0 0h4.684v4.684H0z"/>
 <path id="Rectangle_446" data-name="Rectangle 446" class="cls-17" transform="rotate(-45.005 -35.812 4.302)" d="M0 0h4.684v4.684H0z"/>
 <path id="Rectangle_447" data-name="Rectangle 447" class="cls-18" transform="rotate(-44.993 -38.164 -1.347)" d="M0 0h4.684v4.684H0z"/>
 <path id="Rectangle_448" data-name="Rectangle 448" class="cls-20" transform="rotate(-45.005 -20.794 24.573)" d="M0 0h4.684v4.684H0z"/>
 <path id="Rectangle_449" data-name="Rectangle 449" class="cls-13" transform="rotate(-44.998 -23.138 18.924)" d="M0 0h4.684v4.684H0z"/>
 <path id="Rectangle_450" data-name="Rectangle 450" class="cls-21" transform="rotate(-45 -25.483 13.265)" d="M0 0h4.683v4.683H0z"/>
 <path id="Rectangle_451" data-name="Rectangle 451" class="cls-22" transform="rotate(-45.007 -27.817 7.614)" d="M0 0h4.684v4.684H0z"/>
 <path id="Rectangle_452" data-name="Rectangle 452" class="cls-23" transform="rotate(-45 -30.166 1.957)" d="M0 0h4.684v4.684H0z"/>
 <path id="Rectangle_453" data-name="Rectangle 453" class="cls-24" transform="rotate(-45 -32.504 -3.691)" d="M0 0h4.683v4.683H0z"/>
 <path id="Rectangle_454" data-name="Rectangle 454" class="cls-25" transform="rotate(-45 -34.846 -9.345)" d="M0 0h4.683v4.683H0z"/>
 <path id="Rectangle_455" data-name="Rectangle 455" class="cls-27" transform="rotate(-45 -15.148 22.233)" d="M0 0h4.684v4.684H0z"/>
 <path id="Rectangle_456" data-name="Rectangle 456" class="cls-28" transform="rotate(-45 -17.487 16.579)" d="M0 0h4.683v4.683H0z"/>
 <path id="Rectangle_457" data-name="Rectangle 457" class="cls-29" transform="rotate(-45 -19.829 10.925)" d="M0 0h4.683v4.683H0z"/>
 <path id="Rectangle_458" data-name="Rectangle 458" class="cls-30" transform="rotate(-44.995 -22.17 5.276)" d="M0 0h4.684v4.684H0z"/>
 <path id="Rectangle_459" data-name="Rectangle 459" class="cls-31" transform="rotate(-45 -24.51 -.384)" d="M0 0h4.684v4.684H0z"/>
 <path id="Rectangle_460" data-name="Rectangle 460" class="cls-32" transform="rotate(-45.002 -26.849 -6.034)" d="M0 0h4.684v4.684H0z"/>
 <path id="Rectangle_461" data-name="Rectangle 461" class="cls-33" transform="rotate(-45 -29.193 -11.686)" d="M0 0h4.684v4.684H0z"/>
 <path id="Rectangle_462" data-name="Rectangle 462" class="cls-34" transform="rotate(-44.995 -31.539 -17.34)" d="M0 0h4.683v4.683H0z"/>
 <path id="Rectangle_463" data-name="Rectangle 463" class="cls-36" transform="rotate(-45 -9.488 19.892)" d="M0 0h4.683v4.683H0z"/>
 <path id="Rectangle_464" data-name="Rectangle 464" class="cls-37" transform="rotate(-45 -11.833 14.239)" d="M0 0h4.684v4.684H0z"/>
 <path id="Rectangle_465" data-name="Rectangle 465" class="cls-38" transform="rotate(-45 -14.172 8.586)" d="M0 0h4.684v4.684H0z"/>
 <path id="Rectangle_466" data-name="Rectangle 466" class="cls-39" transform="rotate(-45 -16.515 2.93)" d="M0 0h4.683v4.683H0z"/>
 <path id="Rectangle_467" data-name="Rectangle 467" class="cls-40" transform="rotate(-45 -18.856 -2.725)" d="M0 0h4.683v4.683H0z"/>
 <path id="Rectangle_468" data-name="Rectangle 468" class="cls-41" transform="rotate(-45 -21.197 -8.379)" d="M0 0h4.684v4.684H0z"/>
 <path id="Rectangle_469" data-name="Rectangle 469" class="cls-42" transform="rotate(-45 -23.539 -14.034)" d="M0 0h4.684v4.684H0z"/>
 <path id="Rectangle_470" data-name="Rectangle 470" class="cls-43" transform="rotate(-45 -25.88 -19.682)" d="M0 0h4.683v4.683H0z"/>
 <path id="Rectangle_471" data-name="Rectangle 471" class="cls-44" transform="rotate(-45 -28.222 -25.336)" d="M0 0h4.683v4.683H0z"/>
 <path id="Rectangle_472" data-name="Rectangle 472" class="cls-46" transform="rotate(-45.005 -3.835 17.55)" d="M0 0h4.683v4.683H0z"/>
 <path id="Rectangle_473" data-name="Rectangle 473" class="cls-47" transform="rotate(-44.998 -6.177 11.898)" d="M0 0h4.684v4.684H0z"/>
 <path id="Rectangle_474" data-name="Rectangle 474" class="cls-48" transform="rotate(-45 -8.52 6.243)" d="M0 0h4.683v4.683H0z"/>
 <path id="Rectangle_475" data-name="Rectangle 475" class="cls-49" transform="rotate(-45.007 -10.858 .59)" d="M0 0h4.683v4.683H0z"/>
 <path id="Rectangle_476" data-name="Rectangle 476" class="cls-51" transform="rotate(-45 -13.202 -5.065)" d="M0 0h4.684v4.684H0z"/>
 <path id="Rectangle_477" data-name="Rectangle 477" class="cls-52" transform="rotate(-45 -15.543 -10.72)" d="M0 0h4.683v4.683H0z"/>
 <path id="Rectangle_478" data-name="Rectangle 478" class="cls-53" transform="rotate(-45 -17.883 -16.374)" d="M0 0h4.684v4.684H0z"/>
 <path id="Rectangle_479" data-name="Rectangle 479" class="cls-54" transform="rotate(-45.002 -20.226 -22.022)" d="M0 0h4.684v4.684H0z"/>
 <path id="Rectangle_480" data-name="Rectangle 480" class="cls-55" transform="rotate(-44.995 -22.574 -27.679)" d="M0 0h4.684v4.684H0z"/>
 <path id="Rectangle_481" data-name="Rectangle 481" class="cls-56" transform="rotate(-44.998 -24.913 -33.332)" d="M0 0h4.683v4.683H0z"/>
 <path id="Path_435" data-name="Path 435" class="cls-75" d="m106.8 163.942.237-.237-3.312-3.312-3.312 3.311.238.237z" transform="translate(-110.639 -157.964)"/>
 <path id="Rectangle_482" data-name="Rectangle 482" class="cls-57" transform="rotate(-45 -.523 9.556)" d="M0 0h4.683v4.683H0z"/>
 <path id="Rectangle_483" data-name="Rectangle 483" class="cls-58" transform="rotate(-45.005 -2.864 3.902)" d="M0 0h4.683v4.683H0z"/>
 <path id="Rectangle_484" data-name="Rectangle 484" class="cls-59" transform="rotate(-44.998 -5.208 -1.751)" d="M0 0h4.684v4.684H0z"/>
 <path id="Rectangle_485" data-name="Rectangle 485" class="cls-60" transform="rotate(-45 -7.547 -7.406)" d="M0 0h4.684v4.684H0z"/>
 <path id="Rectangle_486" data-name="Rectangle 486" class="cls-61" transform="rotate(-45 -9.888 -13.061)" d="M0 0h4.683v4.683H0z"/>
 <path id="Rectangle_487" data-name="Rectangle 487" class="cls-53" transform="rotate(-45 -12.23 -18.716)" d="M0 0h4.683v4.683H0z"/>
 <path id="Rectangle_488" data-name="Rectangle 488" class="cls-62" transform="rotate(-44.998 -14.575 -24.366)" d="M0 0h4.684v4.684H0z"/>
 <path id="Rectangle_489" data-name="Rectangle 489" class="cls-63" transform="rotate(-45 -16.915 -30.019)" d="M0 0h4.684v4.684H0z"/>
 <path id="Path_436" data-name="Path 436" class="cls-64" d="m214.172 56.574.235-.235v-6.153l-.235-.235-3.312 3.312z" transform="translate(-191.276 -77.327)"/>
 <path id="Path_437" data-name="Path 437" class="cls-76" d="m131.347 163.942.237-.237-3.312-3.311-3.311 3.312.237.237z" transform="translate(-128.559 -157.964)"/>
 <path id="Rectangle_490" data-name="Rectangle 490" class="cls-65" transform="rotate(-45 2.789 1.56)" d="M0 0h4.683v4.683H0z"/>
 <path id="Rectangle_491" data-name="Rectangle 491" class="cls-66" transform="rotate(-45 .447 -4.093)" d="M0 0h4.684v4.684H0z"/>
 <path id="Rectangle_492" data-name="Rectangle 492" class="cls-67" transform="rotate(-44.998 -1.896 -9.747)" d="M0 0h4.683v4.683H0z"/>
 <path id="Rectangle_493" data-name="Rectangle 493" class="cls-68" transform="rotate(-45.007 -4.235 -15.397)" d="M0 0h4.684v4.683H0z"/>
 <path id="Rectangle_494" data-name="Rectangle 494" class="cls-69" transform="rotate(-44.993 -6.58 -21.056)" d="M0 0h4.684v4.684H0z"/>
 <path id="Rectangle_495" data-name="Rectangle 495" class="cls-63" transform="rotate(-45 -8.92 -26.707)" d="M0 0h4.683v4.683H0z"/>
 <path id="Path_438" data-name="Path 438" class="cls-64" d="m214.172 81.117.235-.236v-6.152l-.235-.236-3.312 3.312z" transform="translate(-191.276 -95.247)"/>
 <path id="Path_439" data-name="Path 439" class="cls-64" d="M223.366 74.093v-.471l-.235.235z" transform="translate(-200.235 -94.611)"/>
 <path id="Path_440" data-name="Path 440" class="cls-77" d="m155.889 163.942.237-.237-3.311-3.311-3.315 3.306.237.237z" transform="translate(-146.477 -157.964)"/>
 <path id="Rectangle_496" data-name="Rectangle 496" class="cls-70" transform="rotate(-45 6.1 -6.435)" d="M0 0h4.683v4.683H0z"/>
 <path id="Rectangle_497" data-name="Rectangle 497" class="cls-71" transform="rotate(-45.005 3.76 -12.086)" d="M0 0h4.684v4.684H0z"/>
 <path id="Rectangle_498" data-name="Rectangle 498" class="cls-72" transform="rotate(-44.995 1.416 -17.744)" d="M0 0h4.684v4.684H0z"/>
 <path id="Rectangle_499" data-name="Rectangle 499" class="cls-55" transform="rotate(-45 -.925 -23.395)" d="M0 0h4.683v4.684H0z"/>
 <path id="Path_441" data-name="Path 441" class="cls-73" d="m214.172 105.661.235-.235v-6.154l-.235-.235-3.312 3.311z" transform="translate(-191.276 -113.167)"/>
 <path id="Path_442" data-name="Path 442" class="cls-73" d="M223.366 98.635v-.471l-.235.236z" transform="translate(-200.235 -112.529)"/>
 <path id="Path_443" data-name="Path 443" class="cls-70" d="m180.431 163.941.237-.238-3.312-3.311-3.311 3.311.237.238z" transform="translate(-164.396 -157.963)"/>
 <path id="Rectangle_500" data-name="Rectangle 500" class="cls-70" transform="rotate(-45 9.412 -14.43)" d="M0 0h4.683v4.683H0z"/>
 <path id="Rectangle_501" data-name="Rectangle 501" class="cls-72" transform="rotate(-45 7.07 -20.084)" d="M0 0h4.684v4.684H0z"/>
 <path id="Path_444" data-name="Path 444" class="cls-56" d="m214.17 130.2.236-.236v-6.152l-.236-.236-3.312 3.312z" transform="translate(-191.274 -131.084)"/>
 <path id="Path_445" data-name="Path 445" class="cls-73" d="M223.365 123.175v-.475l-.236.236z" transform="translate(-200.234 -130.446)"/>
 <path id="Path_446" data-name="Path 446" class="cls-70" d="m204.972 163.941.237-.238-3.312-3.311-3.312 3.311.238.238z" transform="translate(-182.314 -157.963)"/>
 <path id="Path_447" data-name="Path 447" class="cls-72" d="m214.17 154.744.236-.236v-6.152l-.236-.236-3.312 3.312z" transform="translate(-191.274 -149.003)"/>
 <path id="Path_448" data-name="Path 448" class="cls-56" d="M223.365 147.718v-.471l-.236.236z" transform="translate(-200.234 -148.365)"/>
 <path id="Path_449" data-name="Path 449" class="cls-27" d="m50.46 123.178.235-.236-.235-.235z" transform="translate(-74.165 -130.449)"/>
 <path id="Path_450" data-name="Path 450" class="cls-27" d="m50.46 147.72.235-.235-.235-.236z" transform="translate(-74.165 -148.367)"/>
 <path id="Path_451" data-name="Path 451" class="cls-27" d="m50.46 129.967.235.236 3.312-3.312-3.307-3.312-.235.236z" transform="translate(-74.165 -131.085)"/>
 <path id="Path_452" data-name="Path 452" class="cls-27" d="m50.46 154.51.235.235 3.312-3.311-3.307-3.312-.235.235z" transform="translate(-74.165 -149.005)"/>
 <path id="Rectangle_502" data-name="Rectangle 502" class="cls-27" transform="rotate(-45 -12.806 27.888)" d="M0 0h4.684v4.684H0z"/>
 <path id="Path_453" data-name="Path 453" class="cls-46" d="m57.719 163.942.237-.237-3.312-3.312-3.312 3.307.237.237z" transform="translate(-74.801 -157.964)"/>
 <path id="Rectangle_503" data-name="Rectangle 503" class="cls-46" transform="rotate(-45 -7.146 25.546)" d="M0 0h4.684v4.684H0z"/>
 <path id="Path_454" data-name="Path 454" class="cls-46" d="m82.261 163.942.237-.237-3.311-3.311-3.312 3.306.237.237z" transform="translate(-92.721 -157.964)"/>
 </g>
 </g>
 <g id="Group_841" data-name="Group 841" transform="translate(49.079 29.175)">
 <g id="Group_840" data-name="Group 840" style="clip-path:url(#clip-path-5)">
 <path id="Path_456" data-name="Path 456" class="cls-3" d="m53.028 76.659.235-.236-.235-.236z" transform="translate(-87.796 -84.801)"/>
 <path id="Path_457" data-name="Path 457" class="cls-4" d="m53.028 58.906.235.236 3.312-3.311-3.312-3.312-.235.236z" transform="translate(-87.796 -67.519)"/>
 <path id="Rectangle_504" data-name="Rectangle 504" class="cls-5" transform="rotate(-44.998 -35.376 34.185)" d="M0 0h4.684v4.684H0z"/>
 <path id="Path_458" data-name="Path 458" class="cls-7" d="m53.028 101.2.235-.236-.235-.235z" transform="translate(-87.796 -102.722)"/>
 <path id="Path_459" data-name="Path 459" class="cls-8" d="m53.028 83.449.235.235 3.312-3.311-3.312-3.312-.235.236z" transform="translate(-87.796 -85.439)"/>
 <path id="Rectangle_505" data-name="Rectangle 505" class="cls-9" transform="rotate(-44.998 -27.38 37.497)" d="M0 0h4.684v4.684H0z"/>
 <path id="Rectangle_506" data-name="Rectangle 506" class="cls-10" transform="rotate(-45 -29.73 31.838)" d="M0 0h4.684v4.684H0z"/>
 <path id="Rectangle_507" data-name="Rectangle 507" class="cls-11" transform="rotate(-45 -32.064 26.188)" d="M0 0h4.683v4.683H0z"/>
 <path id="Path_460" data-name="Path 460" class="cls-13" d="m53.028 107.992.235.235 3.312-3.311-3.312-3.316-.235.236z" transform="translate(-87.796 -103.358)"/>
 <path id="Rectangle_508" data-name="Rectangle 508" class="cls-14" transform="rotate(-45 -19.393 40.806)" d="M0 0h4.684v4.684H0z"/>
 <path id="Rectangle_509" data-name="Rectangle 509" class="cls-15" transform="rotate(-45 -21.733 35.152)" d="M0 0h4.684v4.684H0z"/>
 <path id="Rectangle_510" data-name="Rectangle 510" class="cls-16" transform="rotate(-45 -24.068 29.5)" d="M0 0h4.683v4.683H0z"/>
 <path id="Rectangle_511" data-name="Rectangle 511" class="cls-17" transform="rotate(-45.005 -26.408 23.843)" d="M0 0h4.683v4.683H0z"/>
 <path id="Rectangle_512" data-name="Rectangle 512" class="cls-18" transform="rotate(-45 -28.752 18.192)" d="M0 0h4.684v4.684H0z"/>
 <path id="Rectangle_513" data-name="Rectangle 513" class="cls-20" transform="rotate(-45 -11.398 44.12)" d="M0 0h4.684v4.684H0z"/>
 <path id="Rectangle_514" data-name="Rectangle 514" class="cls-13" transform="rotate(-45 -13.73 38.464)" d="M0 0h4.683v4.683H0z"/>
 <path id="Rectangle_515" data-name="Rectangle 515" class="cls-21" transform="rotate(-45 -16.072 32.812)" d="M0 0h4.683v4.683H0z"/>
 <path id="Rectangle_516" data-name="Rectangle 516" class="cls-22" transform="rotate(-45.005 -18.413 27.155)" d="M0 0h4.683v4.683H0z"/>
 <path id="Rectangle_517" data-name="Rectangle 517" class="cls-23" transform="rotate(-45 -20.756 21.504)" d="M0 0h4.684v4.684H0z"/>
 <path id="Rectangle_518" data-name="Rectangle 518" class="cls-24" transform="rotate(-45 -23.102 15.847)" d="M0 0h4.684v4.684H0z"/>
 <path id="Rectangle_519" data-name="Rectangle 519" class="cls-25" transform="rotate(-45.002 -25.439 10.196)" d="M0 0h4.683v4.683H0z"/>
 <path id="Rectangle_520" data-name="Rectangle 520" class="cls-27" transform="rotate(-45 -5.735 41.776)" d="M0 0h4.683v4.683H0z"/>
 <path id="Rectangle_521" data-name="Rectangle 521" class="cls-28" transform="rotate(-45 -8.077 36.124)" d="M0 0h4.683v4.683H0z"/>
 <path id="Rectangle_522" data-name="Rectangle 522" class="cls-29" transform="rotate(-45.002 -10.42 30.468)" d="M0 0h4.683v4.683H0z"/>
 <path id="Rectangle_523" data-name="Rectangle 523" class="cls-30" transform="rotate(-45 -12.76 24.816)" d="M0 0h4.684v4.684H0z"/>
 <path id="Rectangle_524" data-name="Rectangle 524" class="cls-31" transform="rotate(-45 -15.108 19.16)" d="M0 0h4.684v4.684H0z"/>
 <path id="Rectangle_525" data-name="Rectangle 525" class="cls-32" transform="rotate(-45.002 -17.443 13.508)" d="M0 0h4.683v4.683H0z"/>
 <path id="Rectangle_526" data-name="Rectangle 526" class="cls-33" transform="rotate(-45 -19.789 7.853)" d="M0 0h4.684v4.684H0z"/>
 <path id="Rectangle_527" data-name="Rectangle 527" class="cls-34" transform="rotate(-45 -22.13 2.198)" d="M0 0h4.684v4.684H0z"/>
 <path id="Rectangle_528" data-name="Rectangle 528" class="cls-36" transform="rotate(-44.998 -.082 39.437)" d="M0 0h4.684v4.684H0z"/>
 <path id="Rectangle_529" data-name="Rectangle 529" class="cls-37" transform="rotate(-45 -2.43 33.784)" d="M0 0h4.683v4.683H0z"/>
 <path id="Rectangle_530" data-name="Rectangle 530" class="cls-38" transform="rotate(-45 -4.765 28.128)" d="M0 0h4.684v4.684H0z"/>
 <path id="Rectangle_531" data-name="Rectangle 531" class="cls-39" transform="rotate(-45 -7.112 22.474)" d="M0 0h4.684v4.684H0z"/>
 <path id="Rectangle_532" data-name="Rectangle 532" class="cls-40" transform="rotate(-45 -9.452 16.82)" d="M0 0h4.683v4.683H0z"/>
 <path id="Rectangle_533" data-name="Rectangle 533" class="cls-41" transform="rotate(-45 -11.793 11.166)" d="M0 0h4.684v4.684H0z"/>
 <path id="Rectangle_534" data-name="Rectangle 534" class="cls-42" transform="rotate(-45 -14.134 5.512)" d="M0 0h4.684v4.684H0z"/>
 <path id="Rectangle_535" data-name="Rectangle 535" class="cls-43" transform="rotate(-45 -16.475 -.143)" d="M0 0h4.683v4.683H0z"/>
 <path id="Rectangle_536" data-name="Rectangle 536" class="cls-44" transform="rotate(-45.002 -18.815 -5.794)" d="M0 0h4.683v4.683H0z"/>
 <path id="Rectangle_537" data-name="Rectangle 537" class="cls-46" transform="rotate(-45 5.566 37.098)" d="M0 0h4.684v4.684H0z"/>
 <path id="Rectangle_538" data-name="Rectangle 538" class="cls-47" transform="rotate(-44.998 3.23 31.44)" d="M0 0h4.684v4.684H0z"/>
 <path id="Rectangle_539" data-name="Rectangle 539" class="cls-48" transform="rotate(-44.995 .889 25.788)" d="M0 0h4.684v4.684H0z"/>
 <path id="Rectangle_540" data-name="Rectangle 540" class="cls-49" transform="rotate(-45 -1.457 20.133)" d="M0 0h4.683v4.683H0z"/>
 <path id="Rectangle_541" data-name="Rectangle 541" class="cls-51" transform="rotate(-45 -3.796 14.48)" d="M0 0h4.684v4.684H0z"/>
 <path id="Rectangle_542" data-name="Rectangle 542" class="cls-52" transform="rotate(-45 -6.14 8.825)" d="M0 0h4.684v4.684H0z"/>
 <path id="Rectangle_543" data-name="Rectangle 543" class="cls-53" transform="rotate(-45 -8.48 3.17)" d="M0 0h4.683v4.683H0z"/>
 <path id="Rectangle_544" data-name="Rectangle 544" class="cls-54" transform="rotate(-45.002 -10.82 -2.482)" d="M0 0h4.683v4.683H0z"/>
 <path id="Rectangle_545" data-name="Rectangle 545" class="cls-55" transform="rotate(-45 -13.162 -8.138)" d="M0 0h4.684v4.684H0z"/>
 <path id="Rectangle_546" data-name="Rectangle 546" class="cls-56" transform="rotate(-45 -15.503 -13.793)" d="M0 0h4.684v4.684H0z"/>
 <path id="Path_461" data-name="Path 461" class="cls-75" d="m109.37 166.51.237-.237-3.313-3.311-3.312 3.311.238.237z" transform="translate(-124.269 -148.157)"/>
 <path id="Rectangle_547" data-name="Rectangle 547" class="cls-57" transform="rotate(-45 8.884 29.097)" d="M0 0h4.684v4.684H0z"/>
 <path id="Rectangle_548" data-name="Rectangle 548" class="cls-58" transform="rotate(-45 6.542 23.443)" d="M0 0h4.684v4.684H0z"/>
 <path id="Rectangle_549" data-name="Rectangle 549" class="cls-59" transform="rotate(-45 4.2 17.791)" d="M0 0h4.684v4.684H0z"/>
 <path id="Rectangle_550" data-name="Rectangle 550" class="cls-60" transform="rotate(-45 1.856 12.138)" d="M0 0h4.684v4.684H0z"/>
 <path id="Rectangle_551" data-name="Rectangle 551" class="cls-61" transform="rotate(-45 -.484 6.483)" d="M0 0h4.683v4.683H0z"/>
 <path id="Rectangle_552" data-name="Rectangle 552" class="cls-53" transform="rotate(-45 -2.825 .83)" d="M0 0h4.683v4.683H0z"/>
 <path id="Rectangle_553" data-name="Rectangle 553" class="cls-62" transform="rotate(-45 -5.166 -4.824)" d="M0 0h4.684v4.684H0z"/>
 <path id="Rectangle_554" data-name="Rectangle 554" class="cls-63" transform="rotate(-45 -7.507 -10.479)" d="M0 0h4.684v4.684H0z"/>
 <path id="Path_462" data-name="Path 462" class="cls-64" d="m216.738 59.141.235-.236v-6.152l-.235-.236-3.312 3.312z" transform="translate(-204.905 -67.52)"/>
 <path id="Path_463" data-name="Path 463" class="cls-76" d="m133.915 166.51.237-.237-3.312-3.311-3.311 3.311.236.237z" transform="translate(-142.189 -148.157)"/>
 <path id="Rectangle_555" data-name="Rectangle 555" class="cls-65" transform="rotate(-45.005 12.194 21.101)" d="M0 0h4.684v4.684H0z"/>
 <path id="Rectangle_556" data-name="Rectangle 556" class="cls-66" transform="rotate(-44.995 9.855 15.45)" d="M0 0h4.684v4.684H0z"/>
 <path id="Rectangle_557" data-name="Rectangle 557" class="cls-67" transform="rotate(-45 7.512 9.795)" d="M0 0h4.683v4.683H0z"/>
 <path id="Rectangle_558" data-name="Rectangle 558" class="cls-68" transform="rotate(-45 5.17 4.143)" d="M0 0h4.683v4.683H0z"/>
 <path id="Rectangle_559" data-name="Rectangle 559" class="cls-69" transform="rotate(-45 2.828 -1.511)" d="M0 0h4.684v4.684H0z"/>
 <path id="Rectangle_560" data-name="Rectangle 560" class="cls-63" transform="rotate(-45 .487 -7.166)" d="M0 0h4.684v4.684H0z"/>
 <path id="Path_464" data-name="Path 464" class="cls-64" d="m216.738 83.684.235-.235V77.3l-.235-.236-3.312 3.312z" transform="translate(-204.905 -85.439)"/>
 <path id="Path_465" data-name="Path 465" class="cls-64" d="M225.933 76.659v-.471l-.235.236z" transform="translate(-213.865 -84.801)"/>
 <path id="Path_466" data-name="Path 466" class="cls-77" d="m158.456 166.51.237-.237-3.312-3.311-3.312 3.311.237.237z" transform="translate(-160.107 -148.157)"/>
 <path id="Rectangle_561" data-name="Rectangle 561" class="cls-70" transform="rotate(-45.005 15.506 13.107)" d="M0 0h4.684v4.684H0z"/>
 <path id="Rectangle_562" data-name="Rectangle 562" class="cls-71" transform="rotate(-45 13.165 7.453)" d="M0 0h4.684v4.684H0z"/>
 <path id="Rectangle_563" data-name="Rectangle 563" class="cls-72" transform="rotate(-45 10.824 1.8)" d="M0 0h4.684v4.684H0z"/>
 <path id="Rectangle_564" data-name="Rectangle 564" class="cls-55" transform="rotate(-45 8.483 -3.852)" d="M0 0h4.684v4.684H0z"/>
 <path id="Path_467" data-name="Path 467" class="cls-73" d="m216.738 108.227.235-.235v-6.152l-.235-.236-3.312 3.312z" transform="translate(-204.905 -103.358)"/>
 <path id="Path_468" data-name="Path 468" class="cls-73" d="M225.933 101.2v-.471l-.235.235z" transform="translate(-213.865 -102.722)"/>
 <path id="Path_469" data-name="Path 469" class="cls-70" d="m183 166.507.238-.237-3.311-3.311-3.312 3.311.237.237z" transform="translate(-178.026 -148.155)"/>
 <path id="Rectangle_565" data-name="Rectangle 565" class="cls-70" transform="rotate(-45 18.819 5.116)" d="M0 0h4.684v4.684H0z"/>
 <path id="Rectangle_566" data-name="Rectangle 566" class="cls-72" transform="rotate(-45 16.478 -.539)" d="M0 0h4.683v4.683H0z"/>
 <path id="Path_470" data-name="Path 470" class="cls-56" d="m216.737 132.767.236-.236v-6.152l-.236-.236-3.311 3.313z" transform="translate(-204.905 -121.275)"/>
 <path id="Path_471" data-name="Path 471" class="cls-73" d="M225.931 125.742v-.471l-.236.235z" transform="translate(-213.863 -120.638)"/>
 <path id="Path_472" data-name="Path 472" class="cls-70" d="m207.539 166.507.237-.237-3.312-3.311-3.312 3.311.238.237z" transform="translate(-195.944 -148.155)"/>
 <path id="Path_473" data-name="Path 473" class="cls-72" d="m216.737 157.31.236-.235v-6.152l-.236-.236-3.312 3.313z" transform="translate(-204.905 -139.195)"/>
 <path id="Path_474" data-name="Path 474" class="cls-56" d="M225.931 150.285v-.471l-.236.236z" transform="translate(-213.863 -138.557)"/>
 <path id="Path_475" data-name="Path 475" class="cls-27" d="m53.028 125.744.235-.235-.235-.235z" transform="translate(-87.796 -120.64)"/>
 <path id="Path_476" data-name="Path 476" class="cls-27" d="m53.028 150.288.235-.235-.235-.235z" transform="translate(-87.796 -138.56)"/>
 <path id="Path_477" data-name="Path 477" class="cls-27" d="m53.028 132.534.235.235 3.312-3.311-3.312-3.312-.235.235z" transform="translate(-87.796 -121.277)"/>
 <path id="Path_478" data-name="Path 478" class="cls-27" d="m53.028 157.076.235.236L56.575 154l-3.312-3.313-.235.235z" transform="translate(-87.796 -139.195)"/>
 <path id="Rectangle_567" data-name="Rectangle 567" class="cls-27" transform="rotate(-44.995 -3.392 47.435)" d="M0 0h4.684v4.684H0z"/>
 <path id="Path_479" data-name="Path 479" class="cls-46" d="m60.285 166.51.237-.237-3.312-3.311-3.31 3.311.238.237z" transform="translate(-88.431 -148.157)"/>
 <path id="Rectangle_568" data-name="Rectangle 568" class="cls-46" transform="rotate(-45 2.253 45.092)" d="M0 0h4.684v4.684H0z"/>
 <path id="Path_480" data-name="Path 480" class="cls-46" d="m84.829 166.51.237-.237-3.311-3.311-3.312 3.311.236.237z" transform="translate(-106.351 -148.157)"/>
 </g>
 </g>
 <g id="Group_843" data-name="Group 843" transform="translate(45.574 36.258)">
 <g id="Group_842" data-name="Group 842" style="clip-path:url(#clip-path-6)">
 <path id="Path_482" data-name="Path 482" class="cls-3" d="m51.745 75.119.235-.235-.235-.236z" transform="translate(-83.354 -90.76)"/>
 <path id="Path_483" data-name="Path 483" class="cls-4" d="m51.745 57.366.235.236 3.312-3.312-3.312-3.312-.235.236z" transform="translate(-83.354 -73.478)"/>
 <path id="Rectangle_569" data-name="Rectangle 569" class="cls-5" transform="rotate(-45 -42.847 26.622)" d="M0 0h4.684v4.684H0z"/>
 <path id="Path_484" data-name="Path 484" class="cls-7" d="m51.745 99.662.235-.236-.235-.235z" transform="translate(-83.354 -108.68)"/>
 <path id="Path_485" data-name="Path 485" class="cls-8" d="m51.745 81.909.235.235 3.312-3.311-3.312-3.312-.235.235z" transform="translate(-83.354 -91.397)"/>
 <path id="Rectangle_570" data-name="Rectangle 570" class="cls-9" transform="rotate(-45 -34.86 29.93)" d="M0 0h4.684v4.684H0z"/>
 <path id="Rectangle_571" data-name="Rectangle 571" class="cls-10" transform="rotate(-44.993 -37.198 24.285)" d="M0 0h4.684v4.684H0z"/>
 <path id="Rectangle_572" data-name="Rectangle 572" class="cls-11" transform="rotate(-45.002 -39.534 18.624)" d="M0 0h4.683v4.683H0z"/>
 <path id="Path_486" data-name="Path 486" class="cls-13" d="m51.745 106.451.235.235 3.312-3.311-3.312-3.312-.235.236z" transform="translate(-83.354 -109.315)"/>
 <path id="Rectangle_573" data-name="Rectangle 573" class="cls-14" transform="rotate(-44.998 -26.857 33.247)" d="M0 0h4.684v4.684H0z"/>
 <path id="Rectangle_574" data-name="Rectangle 574" class="cls-15" transform="rotate(-45 -29.206 27.588)" d="M0 0h4.684v4.684H0z"/>
 <path id="Rectangle_575" data-name="Rectangle 575" class="cls-16" transform="rotate(-45 -31.545 21.934)" d="M0 0h4.684v4.684H0z"/>
 <path id="Rectangle_576" data-name="Rectangle 576" class="cls-17" transform="rotate(-45 -33.887 16.28)" d="M0 0h4.684v4.684H0z"/>
 <path id="Rectangle_577" data-name="Rectangle 577" class="cls-18" transform="rotate(-45 -36.23 10.625)" d="M0 0h4.684v4.684H0z"/>
 <path id="Rectangle_578" data-name="Rectangle 578" class="cls-20" transform="rotate(-45 -18.869 36.557)" d="M0 0h4.684v4.684H0z"/>
 <path id="Rectangle_579" data-name="Rectangle 579" class="cls-13" transform="rotate(-45 -21.202 30.903)" d="M0 0h4.684v4.684H0z"/>
 <path id="Rectangle_580" data-name="Rectangle 580" class="cls-21" transform="rotate(-45 -23.544 25.25)" d="M0 0h4.683v4.683H0z"/>
 <path id="Rectangle_581" data-name="Rectangle 581" class="cls-22" transform="rotate(-45.007 -25.883 19.593)" d="M0 0h4.683v4.683H0z"/>
 <path id="Rectangle_582" data-name="Rectangle 582" class="cls-23" transform="rotate(-45 -28.229 13.943)" d="M0 0h4.684v4.684H0z"/>
 <path id="Rectangle_583" data-name="Rectangle 583" class="cls-24" transform="rotate(-45 -30.574 8.284)" d="M0 0h4.683v4.683H0z"/>
 <path id="Rectangle_584" data-name="Rectangle 584" class="cls-25" transform="rotate(-45.002 -32.91 2.635)" d="M0 0h4.683v4.683H0z"/>
 <path id="Rectangle_585" data-name="Rectangle 585" class="cls-27" transform="rotate(-44.995 -13.208 34.219)" d="M0 0h4.684v4.684H0z"/>
 <path id="Rectangle_586" data-name="Rectangle 586" class="cls-28" transform="rotate(-45 -15.548 28.561)" d="M0 0h4.683v4.683H0z"/>
 <path id="Rectangle_587" data-name="Rectangle 587" class="cls-29" transform="rotate(-45.009 -17.888 22.903)" d="M0 0h4.684v4.684H0z"/>
 <path id="Rectangle_588" data-name="Rectangle 588" class="cls-30" transform="rotate(-44.993 -20.235 17.259)" d="M0 0h4.684v4.684H0z"/>
 <path id="Rectangle_589" data-name="Rectangle 589" class="cls-31" transform="rotate(-45 -22.577 11.598)" d="M0 0h4.683v4.683H0z"/>
 <path id="Rectangle_590" data-name="Rectangle 590" class="cls-32" transform="rotate(-45 -24.918 5.943)" d="M0 0h4.684v4.684H0z"/>
 <path id="Rectangle_591" data-name="Rectangle 591" class="cls-33" transform="rotate(-44.998 -27.26 .293)" d="M0 0h4.684v4.684H0z"/>
 <path id="Rectangle_592" data-name="Rectangle 592" class="cls-34" transform="rotate(-45 -29.6 -5.36)" d="M0 0h4.683v4.683H0z"/>
 <path id="Rectangle_593" data-name="Rectangle 593" class="cls-36" transform="rotate(-45 -7.56 31.874)" d="M0 0h4.683v4.683H0z"/>
 <path id="Rectangle_594" data-name="Rectangle 594" class="cls-37" transform="rotate(-45 -9.9 26.22)" d="M0 0h4.683v4.683H0z"/>
 <path id="Rectangle_595" data-name="Rectangle 595" class="cls-38" transform="rotate(-44.993 -12.239 20.57)" d="M0 0h4.684v4.684H0z"/>
 <path id="Rectangle_596" data-name="Rectangle 596" class="cls-39" transform="rotate(-45.005 -14.578 14.91)" d="M0 0h4.683v4.683H0z"/>
 <path id="Rectangle_597" data-name="Rectangle 597" class="cls-40" transform="rotate(-45 -16.92 9.259)" d="M0 0h4.683v4.683H0z"/>
 <path id="Rectangle_598" data-name="Rectangle 598" class="cls-41" transform="rotate(-45 -19.264 3.602)" d="M0 0h4.683v4.683H0z"/>
 <path id="Rectangle_599" data-name="Rectangle 599" class="cls-42" transform="rotate(-45.005 -21.602 -2.048)" d="M0 0h4.684v4.684H0z"/>
 <path id="Rectangle_600" data-name="Rectangle 600" class="cls-43" transform="rotate(-44.995 -23.95 -7.702)" d="M0 0h4.684v4.684H0z"/>
 <path id="Rectangle_601" data-name="Rectangle 601" class="cls-44" transform="rotate(-45.002 -26.287 -13.355)" d="M0 0h4.683v4.684H0z"/>
 <path id="Rectangle_602" data-name="Rectangle 602" class="cls-46" transform="rotate(-45.007 -1.902 29.528)" d="M0 0h4.684v4.684H0z"/>
 <path id="Rectangle_603" data-name="Rectangle 603" class="cls-47" transform="rotate(-44.995 -4.242 23.88)" d="M0 0h4.684v4.684H0z"/>
 <path id="Rectangle_604" data-name="Rectangle 604" class="cls-48" transform="rotate(-45 -6.584 18.224)" d="M0 0h4.683v4.683H0z"/>
 <path id="Rectangle_605" data-name="Rectangle 605" class="cls-49" transform="rotate(-45 -8.925 12.57)" d="M0 0h4.683v4.683H0z"/>
 <path id="Rectangle_606" data-name="Rectangle 606" class="cls-51" transform="rotate(-45 -11.269 6.915)" d="M0 0h4.684v4.684H0z"/>
 <path id="Rectangle_607" data-name="Rectangle 607" class="cls-52" transform="rotate(-45 -13.61 1.262)" d="M0 0h4.684v4.684H0z"/>
 <path id="Rectangle_608" data-name="Rectangle 608" class="cls-53" transform="rotate(-45 -15.951 -4.39)" d="M0 0h4.683v4.683H0z"/>
 <path id="Rectangle_609" data-name="Rectangle 609" class="cls-54" transform="rotate(-45 -18.292 -10.047)" d="M0 0h4.684v4.684H0z"/>
 <path id="Rectangle_610" data-name="Rectangle 610" class="cls-55" transform="rotate(-44.991 -20.64 -15.699)" d="M0 0h4.684v4.684H0z"/>
 <path id="Rectangle_611" data-name="Rectangle 611" class="cls-56" transform="rotate(-45.005 -22.973 -21.35)" d="M0 0h4.684v4.683H0z"/>
 <path id="Path_487" data-name="Path 487" class="cls-75" d="m108.086 164.969.237-.237-3.312-3.311-3.312 3.311.238.237z" transform="translate(-119.826 -154.114)"/>
 <path id="Rectangle_612" data-name="Rectangle 612" class="cls-57" transform="rotate(-45 1.408 21.538)" d="M0 0h4.683v4.683H0z"/>
 <path id="Rectangle_613" data-name="Rectangle 613" class="cls-58" transform="rotate(-45 -.933 15.883)" d="M0 0h4.683v4.683H0z"/>
 <path id="Rectangle_614" data-name="Rectangle 614" class="cls-59" transform="rotate(-45 -3.272 10.228)" d="M0 0h4.683v4.683H0z"/>
 <path id="Rectangle_615" data-name="Rectangle 615" class="cls-60" transform="rotate(-44.998 -5.614 4.576)" d="M0 0h4.684v4.684H0z"/>
 <path id="Rectangle_616" data-name="Rectangle 616" class="cls-61" transform="rotate(-45 -7.956 -1.08)" d="M0 0h4.684v4.684H0z"/>
 <path id="Rectangle_617" data-name="Rectangle 617" class="cls-53" transform="rotate(-45 -10.297 -6.732)" d="M0 0h4.683v4.683H0z"/>
 <path id="Rectangle_618" data-name="Rectangle 618" class="cls-62" transform="rotate(-45 -12.64 -12.386)" d="M0 0h4.684v4.684H0z"/>
 <path id="Rectangle_619" data-name="Rectangle 619" class="cls-63" transform="rotate(-45.005 -14.978 -18.037)" d="M0 0h4.684v4.684H0z"/>
 <path id="Path_488" data-name="Path 488" class="cls-64" d="m215.455 57.6.235-.236v-6.151l-.235-.236-3.312 3.311z" transform="translate(-200.464 -73.478)"/>
 <path id="Path_489" data-name="Path 489" class="cls-76" d="m132.631 164.969.237-.237-3.312-3.311-3.311 3.311.237.237z" transform="translate(-137.747 -154.114)"/>
 <path id="Rectangle_620" data-name="Rectangle 620" class="cls-65" transform="rotate(-45.002 4.723 13.54)" d="M0 0h4.684v4.684H0z"/>
 <path id="Rectangle_621" data-name="Rectangle 621" class="cls-66" transform="rotate(-45 2.381 7.888)" d="M0 0h4.684v4.684H0z"/>
 <path id="Rectangle_622" data-name="Rectangle 622" class="cls-67" transform="rotate(-45 .039 2.234)" d="M0 0h4.683v4.683H0z"/>
 <path id="Rectangle_623" data-name="Rectangle 623" class="cls-68" transform="rotate(-45 -2.301 -3.42)" d="M0 0h4.683v4.683H0z"/>
 <path id="Rectangle_624" data-name="Rectangle 624" class="cls-69" transform="rotate(-45 -4.642 -9.075)" d="M0 0h4.684v4.684H0z"/>
 <path id="Rectangle_625" data-name="Rectangle 625" class="cls-63" transform="rotate(-45 -6.983 -14.73)" d="M0 0h4.683v4.683H0z"/>
 <path id="Path_490" data-name="Path 490" class="cls-64" d="m215.455 82.144.235-.235v-6.153l-.235-.235-3.312 3.312z" transform="translate(-200.464 -91.397)"/>
 <path id="Path_491" data-name="Path 491" class="cls-64" d="M224.649 75.119v-.471l-.235.236z" transform="translate(-209.423 -90.76)"/>
 <path id="Path_492" data-name="Path 492" class="cls-77" d="m157.173 164.969.237-.237-3.31-3.312-3.312 3.311.237.237z" transform="translate(-155.666 -154.114)"/>
 <path id="Rectangle_626" data-name="Rectangle 626" class="cls-70" transform="rotate(-45 8.035 5.546)" d="M0 0h4.684v4.684H0z"/>
 <path id="Rectangle_627" data-name="Rectangle 627" class="cls-71" transform="rotate(-45 5.694 -.107)" d="M0 0h4.684v4.684H0z"/>
 <path id="Rectangle_628" data-name="Rectangle 628" class="cls-72" transform="rotate(-45 3.353 -5.762)" d="M0 0h4.684v4.684H0z"/>
 <path id="Rectangle_629" data-name="Rectangle 629" class="cls-55" transform="rotate(-44.998 1.01 -11.416)" d="M0 0h4.683v4.683H0z"/>
 <path id="Path_493" data-name="Path 493" class="cls-73" d="m215.455 106.686.235-.235V100.3l-.235-.236-3.312 3.312z" transform="translate(-200.464 -109.315)"/>
 <path id="Path_494" data-name="Path 494" class="cls-73" d="M224.649 99.662v-.471l-.235.235z" transform="translate(-209.423 -108.68)"/>
 <path id="Path_495" data-name="Path 495" class="cls-70" d="m181.714 164.968.238-.237-3.312-3.312-3.311 3.312.237.237z" transform="translate(-173.584 -154.113)"/>
 <path id="Rectangle_630" data-name="Rectangle 630" class="cls-70" transform="rotate(-45 11.347 -2.449)" d="M0 0h4.684v4.684H0z"/>
 <path id="Rectangle_631" data-name="Rectangle 631" class="cls-72" transform="rotate(-44.995 9.005 -8.104)" d="M0 0h4.684v4.684H0z"/>
 <path id="Path_496" data-name="Path 496" class="cls-56" d="m215.454 131.227.236-.236v-6.151l-.236-.236-3.311 3.312z" transform="translate(-200.463 -127.233)"/>
 <path id="Path_497" data-name="Path 497" class="cls-73" d="M224.648 124.2v-.471l-.236.235z" transform="translate(-209.422 -126.597)"/>
 <path id="Path_498" data-name="Path 498" class="cls-70" d="m206.256 164.968.237-.237-3.311-3.312-3.312 3.312.238.237z" transform="translate(-191.503 -154.113)"/>
 <path id="Path_499" data-name="Path 499" class="cls-72" d="m215.454 155.77.236-.236v-6.152l-.236-.236-3.311 3.312z" transform="translate(-200.463 -145.153)"/>
 <path id="Path_500" data-name="Path 500" class="cls-56" d="M224.648 148.745v-.471l-.236.236z" transform="translate(-209.422 -144.515)"/>
 <path id="Path_501" data-name="Path 501" class="cls-27" d="m51.745 124.2.235-.236-.235-.235z" transform="translate(-83.354 -126.598)"/>
 <path id="Path_502" data-name="Path 502" class="cls-27" d="m51.745 148.747.235-.235-.235-.235z" transform="translate(-83.354 -144.518)"/>
 <path id="Path_503" data-name="Path 503" class="cls-27" d="m51.745 130.994.235.235 3.312-3.311-3.312-3.312-.235.236z" transform="translate(-83.354 -127.235)"/>
 <path id="Path_504" data-name="Path 504" class="cls-27" d="m51.745 155.536.235.235 3.312-3.311-3.312-3.312-.235.235z" transform="translate(-83.354 -145.153)"/>
 <path id="Rectangle_632" data-name="Rectangle 632" class="cls-27" transform="rotate(-45 -10.866 39.869)" d="M0 0h4.684v4.684H0z"/>
 <path id="Path_505" data-name="Path 505" class="cls-46" d="m59 164.969.238-.237-3.313-3.311-3.312 3.311.237.237z" transform="translate(-83.989 -154.114)"/>
 <path id="Rectangle_633" data-name="Rectangle 633" class="cls-46" transform="rotate(-44.998 -5.211 37.529)" d="M0 0h4.684v4.684H0z"/>
 <path id="Path_506" data-name="Path 506" class="cls-46" d="m83.547 164.969.236-.237-3.311-3.311-3.311 3.311.236.237z" transform="translate(-101.91 -154.114)"/>
 </g>
 </g>
 <g id="Group_845" data-name="Group 845" transform="translate(12.345 16.051)">
 <g id="Group_844" data-name="Group 844" style="clip-path:url(#clip-path-7)">
 <path id="Rectangle_634" data-name="Rectangle 634" transform="rotate(-45 -1.556 7.116)" style="fill:#db0035" d="M0 0h4.683v4.683H0z"/>
 <path id="Rectangle_635" data-name="Rectangle 635" transform="rotate(-45 -3.896 1.462)" style="fill:#de001e" d="M0 0h4.684v4.684H0z"/>
 <path id="Rectangle_636" data-name="Rectangle 636" class="cls-11" transform="rotate(-45 6.44 10.427)" d="M0 0h4.683v4.683H0z"/>
 <path id="Rectangle_637" data-name="Rectangle 637" class="cls-12" transform="rotate(-45 4.098 4.773)" d="M0 0h4.683v4.683H0z"/>
 <path id="Rectangle_638" data-name="Rectangle 638" transform="rotate(-45 1.756 -.88)" style="fill:#e71318" d="M0 0h4.684v4.684H0z"/>
 <path id="Rectangle_639" data-name="Rectangle 639" transform="rotate(-45 -.584 -6.535)" style="fill:#eb3916" d="M0 0h4.684v4.684H0z"/>
 <path id="Rectangle_640" data-name="Rectangle 640" class="cls-16" transform="rotate(-45.002 14.434 13.739)" d="M0 0h4.684v4.684H0z"/>
 <path id="Rectangle_641" data-name="Rectangle 641" class="cls-17" transform="rotate(-45.002 12.093 8.085)" d="M0 0h4.684v4.684H0z"/>
 <path id="Rectangle_642" data-name="Rectangle 642" class="cls-18" transform="rotate(-44.995 9.752 2.43)" d="M0 0h4.684v4.684H0z"/>
 <path id="Rectangle_643" data-name="Rectangle 643" class="cls-19" transform="rotate(-45 7.411 -3.221)" d="M0 0h4.683v4.683H0z"/>
 <path id="Rectangle_644" data-name="Rectangle 644" transform="rotate(-45.005 5.07 -8.875)" style="fill:#f05813" d="M0 0h4.684v4.684H0z"/>
 <path id="Rectangle_645" data-name="Rectangle 645" transform="rotate(-45 2.729 -14.53)" style="fill:#f46e0f" d="M0 0h4.684v4.684H0z"/>
 <path id="Rectangle_646" data-name="Rectangle 646" class="cls-21" transform="rotate(-44.998 22.432 17.051)" d="M0 0h4.683v4.683H0z"/>
 <path id="Rectangle_647" data-name="Rectangle 647" class="cls-22" transform="rotate(-45.005 20.086 11.397)" d="M0 0h4.684v4.684H0z"/>
 <path id="Rectangle_648" data-name="Rectangle 648" class="cls-23" transform="rotate(-45 17.747 5.747)" d="M0 0h4.684v4.684H0z"/>
 <path id="Rectangle_649" data-name="Rectangle 649" class="cls-24" transform="rotate(-45 15.405 .09)" d="M0 0h4.684v4.684H0z"/>
 <path id="Rectangle_650" data-name="Rectangle 650" class="cls-25" transform="rotate(-45 13.064 -5.564)" d="M0 0h4.683v4.683H0z"/>
 <path id="Rectangle_651" data-name="Rectangle 651" class="cls-26" transform="rotate(-45 10.725 -11.216)" d="M0 0h4.683v4.683H0z"/>
 <path id="Rectangle_652" data-name="Rectangle 652" transform="rotate(-45.005 8.38 -16.868)" style="fill:#fb8d03" d="M0 0h4.684v4.684H0z"/>
 <path id="Rectangle_653" data-name="Rectangle 653" transform="rotate(-44.998 6.038 -22.526)" style="fill:#f87e0b" d="M0 0h4.683v4.683H0z"/>
 <path id="Rectangle_654" data-name="Rectangle 654" class="cls-28" transform="rotate(-45 30.427 20.363)" d="M0 0h4.683v4.683H0z"/>
 <path id="Rectangle_655" data-name="Rectangle 655" class="cls-29" transform="rotate(-45.007 28.08 14.709)" d="M0 0h4.684v4.684H0z"/>
 <path id="Rectangle_656" data-name="Rectangle 656" class="cls-30" transform="rotate(-44.993 25.747 9.055)" d="M0 0h4.684v4.684H0z"/>
 <path id="Rectangle_657" data-name="Rectangle 657" class="cls-31" transform="rotate(-45.002 23.4 3.401)" d="M0 0h4.683v4.683H0z"/>
 <path id="Rectangle_658" data-name="Rectangle 658" class="cls-32" transform="rotate(-45 21.06 -2.25)" d="M0 0h4.684v4.684H0z"/>
 <path id="Rectangle_659" data-name="Rectangle 659" class="cls-33" transform="rotate(-45 18.716 -7.906)" d="M0 0h4.684v4.684H0z"/>
 <path id="Rectangle_660" data-name="Rectangle 660" class="cls-34" transform="rotate(-45 16.376 -13.559)" d="M0 0h4.683v4.683H0z"/>
 <path id="Rectangle_661" data-name="Rectangle 661" class="cls-35" transform="rotate(-44.998 14.034 -19.214)" d="M0 0h4.683v4.683H0z"/>
 <path id="Rectangle_662" data-name="Rectangle 662" class="cls-91" transform="rotate(-45 11.698 -24.866)" d="M0 0h4.684v4.684H0z"/>
 <path id="Rectangle_663" data-name="Rectangle 663" class="cls-37" transform="rotate(-45 36.08 18.029)" d="M0 0h4.684v4.684H0z"/>
 <path id="Rectangle_664" data-name="Rectangle 664" class="cls-38" transform="rotate(-44.995 33.741 12.366)" d="M0 0h4.684v4.684H0z"/>
 <path id="Rectangle_665" data-name="Rectangle 665" class="cls-39" transform="rotate(-45.005 31.393 6.714)" d="M0 0h4.684v4.684H0z"/>
 <path id="Rectangle_666" data-name="Rectangle 666" class="cls-40" transform="rotate(-45 29.057 1.065)" d="M0 0h4.683v4.683H0z"/>
 <path id="Rectangle_667" data-name="Rectangle 667" class="cls-41" transform="rotate(-45 26.715 -4.59)" d="M0 0h4.683v4.683H0z"/>
 <path id="Rectangle_668" data-name="Rectangle 668" class="cls-42" transform="rotate(-45 24.374 -10.244)" d="M0 0h4.684v4.684H0z"/>
 <path id="Rectangle_669" data-name="Rectangle 669" class="cls-43" transform="rotate(-45 22.028 -15.901)" d="M0 0h4.683v4.683H0z"/>
 <path id="Rectangle_670" data-name="Rectangle 670" class="cls-44" transform="rotate(-45.002 19.687 -21.554)" d="M0 0h4.683v4.684H0z"/>
 <path id="Rectangle_671" data-name="Rectangle 671" class="cls-45" transform="rotate(-45 17.352 -27.207)" d="M0 0h4.684v4.684H0z"/>
 <path id="Rectangle_672" data-name="Rectangle 672" class="cls-91" transform="rotate(-45 9.356 -30.52)" d="M0 0h4.684v4.684H0z"/>
 <path id="Rectangle_673" data-name="Rectangle 673" class="cls-48" transform="rotate(-45 39.391 10.025)" d="M0 0h4.683v4.683H0z"/>
 <path id="Rectangle_674" data-name="Rectangle 674" class="cls-45" transform="rotate(-45 15.003 -32.862)" d="M0 0h4.684v4.684H0z"/>
 <path id="Path_508" data-name="Path 508" class="cls-45" d="m163.711 45.2.235-.236v-6.152l-.235-.235-3.311 3.312z" transform="translate(-129.457 -44.216)"/>
 <path id="Rectangle_675" data-name="Rectangle 675" class="cls-49" transform="rotate(-45 37.05 4.371)" d="M0 0h4.684v4.684H0z"/>
 <path id="Path_509" data-name="Path 509" class="cls-50" d="m163.711 69.744.235-.235v-6.153l-.235-.235-3.311 3.312z" transform="translate(-129.457 -62.137)"/>
 <path id="Rectangle_676" data-name="Rectangle 676" class="cls-51" transform="rotate(-45 34.711 -1.275)" d="M0 0h4.684v4.684H0z"/>
 <path id="Rectangle_677" data-name="Rectangle 677" class="cls-52" transform="rotate(-45 32.37 -6.93)" d="M0 0h4.683v4.683H0z"/>
 <path id="Rectangle_678" data-name="Rectangle 678" class="cls-53" transform="rotate(-45 30.029 -12.585)" d="M0 0h4.683v4.683H0z"/>
 <path id="Rectangle_679" data-name="Rectangle 679" class="cls-54" transform="rotate(-45.005 27.681 -18.24)" d="M0 0h4.684v4.684H0z"/>
 <path id="Rectangle_680" data-name="Rectangle 680" class="cls-55" transform="rotate(-44.993 25.342 -23.901)" d="M0 0h4.684v4.684H0z"/>
 <path id="Rectangle_681" data-name="Rectangle 681" class="cls-56" transform="rotate(-45 23.006 -29.548)" d="M0 0h4.684v4.683H0z"/>
 <path id="Path_510" data-name="Path 510" class="cls-50" d="M172.905 62.718v-.47l-.235.236z" transform="translate(-138.415 -61.499)"/>
 <path id="Rectangle_682" data-name="Rectangle 682" class="cls-59" transform="rotate(-45 42.703 2.03)" d="M0 0h4.683v4.683H0z"/>
 <path id="Rectangle_683" data-name="Rectangle 683" class="cls-60" transform="rotate(-45 40.362 -3.624)" d="M0 0h4.684v4.684H0z"/>
 <path id="Rectangle_684" data-name="Rectangle 684" class="cls-61" transform="rotate(-45.005 38.017 -9.275)" d="M0 0h4.684v4.684H0z"/>
 <path id="Rectangle_685" data-name="Rectangle 685" class="cls-53" transform="rotate(-45 35.678 -14.931)" d="M0 0h4.684v4.684H0z"/>
 <path id="Rectangle_686" data-name="Rectangle 686" class="cls-62" transform="rotate(-44.998 33.337 -20.586)" d="M0 0h4.684v4.684H0z"/>
 <path id="Rectangle_687" data-name="Rectangle 687" class="cls-63" transform="rotate(-45 31.001 -26.234)" d="M0 0h4.684v4.684H0z"/>
 <path id="Path_511" data-name="Path 511" class="cls-64" d="m163.711 94.286.235-.235V87.9l-.235-.235-3.311 3.309z" transform="translate(-129.456 -80.054)"/>
 <path id="Rectangle_688" data-name="Rectangle 688" class="cls-67" transform="rotate(-45 46.015 -5.966)" d="M0 0h4.683v4.683H0z"/>
 <path id="Rectangle_689" data-name="Rectangle 689" class="cls-68" transform="rotate(-45 43.68 -11.612)" d="M0 0h4.684v4.684H0z"/>
 <path id="Rectangle_690" data-name="Rectangle 690" class="cls-69" transform="rotate(-45 41.332 -17.272)" d="M0 0h4.684v4.684H0z"/>
 <path id="Rectangle_691" data-name="Rectangle 691" class="cls-63" transform="rotate(-45 38.997 -22.92)" d="M0 0h4.683v4.683H0z"/>
 <path id="Path_512" data-name="Path 512" class="cls-64" d="m163.711 118.829.235-.235v-6.152l-.235-.236-3.312 3.312z" transform="translate(-129.456 -97.974)"/>
 <path id="Path_513" data-name="Path 513" class="cls-64" d="M172.905 111.8v-.471l-.235.235z" transform="translate(-138.415 -97.337)"/>
 <path id="Rectangle_692" data-name="Rectangle 692" class="cls-72" transform="rotate(-45 49.333 -13.953)" d="M0 0h4.684v4.684H0z"/>
 <path id="Rectangle_693" data-name="Rectangle 693" class="cls-55" transform="rotate(-45 46.986 -19.614)" d="M0 0h4.684v4.684H0z"/>
 <path id="Path_514" data-name="Path 514" class="cls-73" d="m163.711 143.371.235-.235v-6.153l-.235-.236-3.312 3.312z" transform="translate(-129.456 -115.892)"/>
 <path id="Path_515" data-name="Path 515" class="cls-73" d="M172.905 136.346v-.471l-.235.235z" transform="translate(-138.415 -115.256)"/>
 <path id="Path_516" data-name="Path 516" class="cls-56" d="m163.71 167.912.235-.236v-6.151l-.235-.236-3.31 3.311z" transform="translate(-129.455 -133.81)"/>
 <path id="Path_517" data-name="Path 517" class="cls-73" d="M172.9 160.887v-.472l-.235.236z" transform="translate(-138.414 -133.173)"/>
 <path id="Path_518" data-name="Path 518" class="cls-50" d="M172.905 87.262v-.47l-.235.235z" transform="translate(-138.415 -79.419)"/>
 </g>
 </g>
 <g id="tb" style="isolation:isolate;clip-path:url(#clip-path-8)">
 <g id="Group_847" data-name="Group 847">
 <g id="Group_846" data-name="Group 846" style="clip-path:url(#clip-path-9)">
 <path id="Path_520" data-name="Path 520" class="cls-94" d="M216.326 105.228a3.787 3.787 0 0 1-1.142 2.772 3.749 3.749 0 0 1-2.761 1.149 3.8 3.8 0 0 1-2.777-1.149 3.76 3.76 0 0 1-1.157-2.769v-5.248a1.311 1.311 0 0 1 2.622 0v1.342h1.3a3.787 3.787 0 0 1 2.769 1.142 3.75 3.75 0 0 1 1.15 2.761m-2.623 0a1.263 1.263 0 0 0-1.281-1.281h-1.311v1.281a1.318 1.318 0 0 0 1.3 1.3 1.23 1.23 0 0 0 .9-.378 1.248 1.248 0 0 0 .378-.917z" transform="translate(-152.222 -72.042)"/>
 <path id="Path_521" data-name="Path 521" class="cls-94" d="M247.762 112.364a3.918 3.918 0 0 1-7.836 0v-2.607a1.311 1.311 0 0 1 2.622 0v2.607a1.318 1.318 0 0 0 1.3 1.3 1.229 1.229 0 0 0 .9-.378 1.246 1.246 0 0 0 .378-.917v-2.592a1.317 1.317 0 0 1 1.311-1.311 1.288 1.288 0 0 1 .933.386 1.249 1.249 0 0 1 .393.925z" transform="translate(-175.175 -79.179)"/>
 <path id="Path_522" data-name="Path 522" class="cls-94" d="M279.555 105.271a3.932 3.932 0 1 1-3.933-3.9h1.278v-1.327a1.317 1.317 0 0 1 1.311-1.311 1.314 1.314 0 0 1 .941.386 1.238 1.238 0 0 1 .4.925zm-2.638-1.281h-1.28a1.278 1.278 0 0 0-.926.378 1.221 1.221 0 0 0-.386.9 1.318 1.318 0 0 0 1.3 1.3 1.231 1.231 0 0 0 .9-.378 1.249 1.249 0 0 0 .378-.918z" transform="translate(-198.376 -72.085)"/>
 <path id="Path_523" data-name="Path 523" class="cls-94" d="M311.378 112.364a3.918 3.918 0 0 1-7.837 0v-2.607a1.311 1.311 0 0 1 2.623 0v2.607a1.317 1.317 0 0 0 1.3 1.3 1.228 1.228 0 0 0 .9-.378 1.248 1.248 0 0 0 .378-.917v-2.592a1.316 1.316 0 0 1 1.311-1.311 1.288 1.288 0 0 1 .933.386 1.247 1.247 0 0 1 .393.925z" transform="translate(-221.621 -79.179)"/>
 <path id="Path_524" data-name="Path 524" class="cls-94" d="M341.867 109.758a1.316 1.316 0 0 1-1.311 1.311h-1.929a1.257 1.257 0 0 0-.91.378 1.233 1.233 0 0 0-.385.918v2.607a1.317 1.317 0 0 1-1.312 1.311 1.287 1.287 0 0 1-.933-.386 1.247 1.247 0 0 1-.393-.926v-2.607a3.923 3.923 0 0 1 3.918-3.918h1.928a1.292 1.292 0 0 1 .934.385 1.25 1.25 0 0 1 .393.926" transform="translate(-244.367 -79.179)"/>
 <path id="Path_525" data-name="Path 525" class="cls-94" d="M211.127 163.009a1.316 1.316 0 0 1-1.311 1.311 1.289 1.289 0 0 1-.934-.386 1.248 1.248 0 0 1-.393-.925 1.316 1.316 0 0 1 1.311-1.309 1.288 1.288 0 0 1 .933.385 1.249 1.249 0 0 1 .393.926" transform="translate(-152.222 -118.059)"/>
 <path id="Path_526" data-name="Path 526" class="cls-94" d="M228.209 148.944a1.317 1.317 0 0 1-1.311 1.311h-2.53a3.8 3.8 0 0 1-2.777-1.149 3.9 3.9 0 0 1 2.761-6.672h2.529a1.289 1.289 0 0 1 .934.386 1.25 1.25 0 0 1 .393.925 1.317 1.317 0 0 1-1.311 1.312h-2.53a1.276 1.276 0 0 0-.925.378 1.22 1.22 0 0 0-.385.9 1.317 1.317 0 0 0 1.3 1.3h2.529a1.289 1.289 0 0 1 .934.385 1.25 1.25 0 0 1 .393.926" transform="translate(-160.943 -103.994)"/>
 <path id="Path_527" data-name="Path 527" class="cls-94" d="M259 146.337a3.787 3.787 0 0 1-1.142 2.769 3.919 3.919 0 1 1 1.142-2.769m-2.623 0a1.264 1.264 0 0 0-1.28-1.28 1.25 1.25 0 0 0-.918.378 1.232 1.232 0 0 0-.378.9 1.318 1.318 0 0 0 1.3 1.3 1.232 1.232 0 0 0 .9-.378 1.25 1.25 0 0 0 .378-.918" transform="translate(-183.394 -103.994)"/>
 <path id="Path_528" data-name="Path 528" class="cls-94" d="M295.672 148.9a1.311 1.311 0 0 1-2.623 0v-2.6a1.291 1.291 0 0 0-1.3-1.3 1.232 1.232 0 0 0-.9.378 1.249 1.249 0 0 0-.378.918v2.592a1.32 1.32 0 0 1-2.252.941 1.26 1.26 0 0 1-.385-.925V146.3a1.25 1.25 0 0 0-.378-.918 1.233 1.233 0 0 0-.9-.378 1.259 1.259 0 0 0-.91.378 1.236 1.236 0 0 0-.385.918v2.592a1.317 1.317 0 0 1-1.311 1.311 1.286 1.286 0 0 1-.933-.386 1.249 1.249 0 0 1-.393-.925V146.3a3.91 3.91 0 0 1 6.525-2.915 3.712 3.712 0 0 1 2.592-1 3.937 3.937 0 0 1 3.934 3.918z" transform="translate(-206.348 -103.952)"/>
 <path id="Path_529" data-name="Path 529" class="cls-94" d="M220.585 65.823a1.317 1.317 0 0 1-1.311 1.311h-.324a3.8 3.8 0 0 1-2.777-1.149 3.762 3.762 0 0 1-1.157-2.768v-5.23a1.25 1.25 0 0 1 .393-.925 1.289 1.289 0 0 1 .933-.386 1.317 1.317 0 0 1 1.311 1.311V59.3h1.62a1.311 1.311 0 0 1 0 2.623h-1.635v1.3a1.318 1.318 0 0 0 1.3 1.3h.34a1.317 1.317 0 0 1 1.311 1.311" transform="translate(-156.987 -41.38)"/>
 <path id="Path_530" data-name="Path 530" class="cls-94" d="M243.9 72.96a1.318 1.318 0 0 1-1.312 1.311h-2.607a3.91 3.91 0 1 1 2.761-6.679 3.736 3.736 0 0 1 1.157 2.761zm-2.623-2.607a1.235 1.235 0 0 0-.378-.9 1.3 1.3 0 0 0-1.835 0 1.234 1.234 0 0 0-.378.9 1.25 1.25 0 0 0 .378.918 1.233 1.233 0 0 0 .9.378h1.3z" transform="translate(-172.356 -48.516)"/>
 <path id="Path_531" data-name="Path 531" class="cls-94" d="M275.514 65.823a1.317 1.317 0 0 1-1.312 1.311h-.324a3.8 3.8 0 0 1-2.777-1.149 3.761 3.761 0 0 1-1.157-2.768v-5.23a1.251 1.251 0 0 1 .393-.925 1.289 1.289 0 0 1 .934-.386 1.317 1.317 0 0 1 1.311 1.311V59.3h1.618a1.311 1.311 0 0 1 0 2.623h-1.635v1.3a1.318 1.318 0 0 0 1.3 1.3h.339a1.317 1.317 0 0 1 1.312 1.311" transform="translate(-197.092 -41.38)"/>
 <path id="Path_532" data-name="Path 532" class="cls-94" d="M295.674 57.929a1.316 1.316 0 0 1-1.311 1.312 1.288 1.288 0 0 1-.933-.386 1.307 1.307 0 0 1 .918-2.237 1.29 1.29 0 0 1 .933.385 1.252 1.252 0 0 1 .393.926m0 7.852a1.316 1.316 0 0 1-1.311 1.311 1.287 1.287 0 0 1-.933-.386 1.25 1.25 0 0 1-.393-.925v-4.258a1.317 1.317 0 0 1 1.311-1.311 1.289 1.289 0 0 1 .933.386 1.25 1.25 0 0 1 .393.925z" transform="translate(-213.952 -41.338)"/>
 <path id="Path_533" data-name="Path 533" class="cls-94" d="M309.318 65.781a1.311 1.311 0 0 1-2.623 0v-7.852a1.311 1.311 0 0 1 2.623 0z" transform="translate(-223.924 -41.338)"/>
 <path id="Path_534" data-name="Path 534" class="cls-94" d="M214.478 64.391h-.34a1.316 1.316 0 0 1-1.294-1.294V61.8h1.634a1.31 1.31 0 0 0 0-2.62h-1.618v-1.31a1.316 1.316 0 0 0-1.31-1.309 1.285 1.285 0 0 0-.932.386 1.248 1.248 0 0 0-.393.924v1.233h-.425a1.31 1.31 0 0 0 0 2.619h.427V63.1a3.757 3.757 0 0 0 1.155 2.765 3.8 3.8 0 0 0 2.773 1.148h.324a1.31 1.31 0 0 0 0-2.619" transform="translate(-152.222 -41.298)"/>
 <path id="Path_535" data-name="Path 535" class="cls-94" d="M269.624 64.391h-.339a1.316 1.316 0 0 1-1.295-1.291v-1.3h1.634a1.31 1.31 0 0 0 0-2.62h-1.618v-1.31a1.316 1.316 0 0 0-1.31-1.309 1.286 1.286 0 0 0-.932.386 1.248 1.248 0 0 0-.392.924v1.233h-.427a1.31 1.31 0 0 0 0 2.619h.427V63.1a3.755 3.755 0 0 0 1.156 2.765 3.8 3.8 0 0 0 2.773 1.148h.324a1.31 1.31 0 0 0 0-2.619" transform="translate(-192.485 -41.298)"/>
 </g>
 </g>
 </g>
 </g>
 </g>
</svg>