<svg viewBox="0 0 51 79" fill="none" xmlns="http://www.w3.org/2000/svg">
<ellipse cx="25.5" cy="71.5" rx="19" ry="7" fill="black" fill-opacity="0.2"/>
<g filter="url(#filter0_d_2_2)">
<path d="M25.5 71.4014C26.1862 71.4014 27.3077 68.8087 28.0333 67.5073C33.1 58.4211 44.5 37.1646 44.5 26.196C44.5 15.3994 35.7823 6.5 25.5 6.5C15.2177 6.5 6.5 15.3994 6.5 26.196C6.5 37.2025 17.9 58.4211 22.9667 67.5073C23.6905 68.8054 24.8138 71.4014 25.5 71.4014Z" fill="url(#paint0_linear_2_2)" stroke="white"/>
<ellipse cx="25.5" cy="25.6754" rx="14.6154" ry="14.7503" fill="white"/>
<path d="M26.3369 31.4618C25.3473 30.4631 24.8644 29.2886 24.8644 27.8744V20.5398C24.8644 20.1483 25.0069 19.8287 25.2919 19.5491C25.5848 19.2614 25.9173 19.1256 26.3052 19.1256C26.6931 19.1256 27.0177 19.2614 27.2948 19.5411C27.5719 19.8207 27.7065 20.1483 27.7065 20.5398V22.8249H29.9073C31.3085 22.8249 32.4644 23.3043 33.4619 24.303C34.4515 25.2937 34.9344 26.4682 34.9344 27.8744C34.9344 29.2806 34.4515 30.4551 33.446 31.4538C32.4485 32.4525 31.2848 32.9399 29.8835 32.9399C28.4823 32.9399 27.3265 32.4525 26.329 31.4538L26.3369 31.4618ZM27.6827 25.6612L27.7065 27.8824C27.7065 28.4976 27.9281 29.0329 28.3556 29.4723C28.7831 29.9038 29.3056 30.1275 29.9073 30.1275C30.509 30.1275 31.0315 29.9038 31.4669 29.4644C31.9023 29.0249 32.124 28.4896 32.124 27.8904C32.124 27.2832 31.9023 26.7558 31.459 26.3244C31.0235 25.8929 30.4931 25.6692 29.8835 25.6692H27.6827V25.6612Z" fill="#004FB0"/>
<path d="M22.0935 32.8999C20.6922 32.8999 19.5285 32.4126 18.531 31.4139C18.2776 31.1582 18.0481 30.8785 17.8581 30.5909C17.296 29.768 17.0189 28.8252 17.0189 27.7785V25.4295H16.0056C15.6176 25.4295 15.2931 25.2937 15.016 25.0141C14.7389 24.7344 14.6043 24.4068 14.6043 24.0153C14.6043 23.6238 14.7389 23.2963 15.016 23.0166C15.2931 22.737 15.6176 22.6012 16.0056 22.6012H17.0189V20.4519C17.0189 20.0604 17.1535 19.7408 17.4385 19.4612C17.7235 19.1815 18.0481 19.0377 18.4439 19.0377C18.8397 19.0377 19.1406 19.1735 19.4176 19.4372C19.4256 19.4532 19.4414 19.4612 19.4493 19.4772H19.4572C19.4572 19.4772 19.4731 19.5011 19.481 19.5091C19.7501 19.7888 19.8768 20.1083 19.8768 20.4919V22.705H22.5051C22.8851 22.705 23.2018 22.8408 23.4789 23.1125C23.4868 23.1285 23.5026 23.1365 23.5106 23.1524H23.5185C23.5185 23.1524 23.5343 23.1764 23.5422 23.1844C23.8114 23.464 23.946 23.7836 23.946 24.1671C23.946 24.5507 23.8114 24.8862 23.5343 25.1659C23.2572 25.4455 22.9326 25.5813 22.5447 25.5813H19.8531V27.8185C19.8531 28.2579 19.9797 28.6734 20.2172 29.0329V29.0489C20.3122 29.1687 20.3914 29.2646 20.4706 29.3445C20.906 29.7839 21.4285 30.0077 22.0301 30.0077H22.5051C22.8931 30.0077 23.2176 30.1435 23.4947 30.4231C23.566 30.495 23.6293 30.5669 23.6847 30.6548V30.6708C23.8668 30.9105 23.9539 31.1742 23.9539 31.4858C23.9539 31.8773 23.8193 32.2048 23.5422 32.4845C23.2651 32.7641 22.9406 32.8999 22.5526 32.8999H22.1014H22.0935Z" fill="#004FB0"/>
</g>
<defs>
<filter id="filter0_d_2_2" x="0" y="0" width="51" height="77.9014" filterUnits="userSpaceOnUse" color-interpolation-filters="sRGB">
<feFlood flood-opacity="0" result="BackgroundImageFix"/>
<feColorMatrix in="SourceAlpha" type="matrix" values="0 0 0 0 0 0 0 0 0 0 0 0 0 0 0 0 0 0 127 0" result="hardAlpha"/>
<feOffset/>
<feGaussianBlur stdDeviation="3"/>
<feComposite in2="hardAlpha" operator="out"/>
<feColorMatrix type="matrix" values="0 0 0 0 0 0 0 0 0 0 0 0 0 0 0 0 0 0 0.3 0"/>
<feBlend mode="normal" in2="BackgroundImageFix" result="effect1_dropShadow_2_2"/>
<feBlend mode="normal" in="SourceGraphic" in2="effect1_dropShadow_2_2" result="shape"/>
</filter>
<linearGradient id="paint0_linear_2_2" x1="44.5" y1="38.9507" x2="6.5" y2="38.9507" gradientUnits="userSpaceOnUse">
<stop stop-color="#EBBB1F"/>
<stop offset="0.15" stop-color="#F38421"/>
<stop offset="0.32" stop-color="#E01F4A"/>
<stop offset="0.53" stop-color="#86287E"/>
<stop offset="0.81" stop-color="#004DAA"/>
</linearGradient>
</defs>
</svg>