<svg
 viewBox="0 0 12 11"
 fill="none"
 xmlns="http://www.w3.org/2000/svg"
 >
 <path d="M8.433 2.192V3.56h1.183v.861H8.433v1.37h-.826v-1.37H6.423v-.861h1.184V2.19h.826zM10.345 0v.886h.666v4.122H12V0h-1.655z" />
 <path d="M5.246 1.133h.206c-.675.603-1.729 1.854-1.846 2.734-.117.879-.06 1.639.434 2.387.495.747 1.396 1.435 2.274 1.705.878.27 2.446-.203 3.3-.536a4.58 4.58 0 0 1-1.553 1.91 4.895 4.895 0 0 1-4.839.454 4.682 4.682 0 0 1-1.909-1.584 4.406 4.406 0 0 1-.237-4.67 4.63 4.63 0 0 1 1.74-1.757 4.873 4.873 0 0 1 2.43-.647v.004z" stroke-linecap="round" stroke-linejoin="round" />
 </svg>