<svg xmlns="http://www.w3.org/2000/svg" viewBox="0 0 16.365 16.519">
 <defs>
 <clipPath id="xryds5yr9a">
 <path data-name="Rectangle 2197" fill="currentColor" d="M0 0h16.365v16.519H0z"/>
 </clipPath>
 </defs>
 <g data-name="Group 4417" style="clip-path:url(#xryds5yr9a)">
 <path data-name="Path 2183" d="M15.669 2.118H1.731a.481.481 0 1 1 0-.962H13.85a.576.576 0 0 0 0-1.156H1.344A1.346 1.346 0 0 0 0 1.344v12.122a.7.7 0 0 0 .7.7h1.473a5.066 5.066 0 0 0 8.563 0h4.934a.7.7 0 0 0 .7-.7V2.813a.7.7 0 0 0-.7-.7zm-9.215 13.44a4.113 4.113 0 1 1 4.112-4.112 4.116 4.116 0 0 1-4.112 4.112zM15.3 6.815h-3.765a1.289 1.289 0 0 1 0-2.578H15.3zm-4.19-1.289a.552.552 0 1 0 .552-.552.552.552 0 0 0-.552.552" fill="currentColor"/>
 <path data-name="Path 2184" d="M177.663 277.155a.419.419 0 0 1-.13-.307v-.431h.442a.426.426 0 0 1 .431.421v.01h-.006a.421.421 0 0 1-.127.309.427.427 0 0 1-.6 0l-.007-.007m-.883-2.385a.425.425 0 0 0-.13.312v1.768a1.267 1.267 0 0 0 .39.933 1.28 1.28 0 0 0 .936.387 1.317 1.317 0 0 0 1.315-1.32 1.317 1.317 0 0 0-1.318-1.316h-.438v-.451a.441.441 0 0 0-.753-.312" transform="translate(-170.592 -265.225)" fill="currentColor"/>
 <path data-name="Path 2185" d="M208.176 272.262v.551h.508v-.551a.254.254 0 0 0-.259-.249.245.245 0 0 0-.249.241v.008" transform="translate(-201.038 -262.686)" fill="currentColor"/>
 <path data-name="Path 2186" d="m243.537 291.529-.389.4.357.357.389-.4a.252.252 0 1 0-.357-.357" transform="translate(-234.811 -281.463)" fill="currentColor"/>
 <path data-name="Path 2187" d="M207.541 382.4v.551a.254.254 0 0 0 .259.248.244.244 0 0 0 .248-.24v-.559z" transform="translate(-200.424 -369.286)" fill="currentColor"/>
 <path data-name="Path 2188" d="M258.28 331.982v.5h.551a.249.249 0 0 0 0-.5h-.552z" transform="translate(-249.424 -320.598)" fill="currentColor"/>
 <path data-name="Path 2189" d="m243.149 362.9.389.389a.252.252 0 1 0 .357-.357l-.389-.389z" transform="translate(-234.811 -350.115)" fill="currentColor"/>
 <path data-name="Path 2190" d="M100.452 275.46a.421.421 0 0 0-.132.312v.416h-.144a.425.425 0 0 0-.312.13.439.439 0 0 0 0 .621.425.425 0 0 0 .312.13h.144v.462a1.326 1.326 0 0 0 1.325 1.32h.109a.442.442 0 1 0 0-.883h-.114a.444.444 0 0 1-.436-.436v-.432h.55a.441.441 0 0 0 .312-.753.426.426 0 0 0-.312-.13h-.546v-.442a.444.444 0 0 0-.442-.442.434.434 0 0 0-.314.13" transform="translate(-96.314 -265.889)" fill="currentColor"/>
 </g>
</svg>