<svg id="Group_1666" data-name="Group 1666" xmlns="http://www.w3.org/2000/svg" viewBox="0 0 22.601 12.789">
 <defs>
 <clipPath id="clip-path">
 <path id="Rectangle_1828" data-name="Rectangle 1828" class="cls-1" d="M0 0h22.601v12.789H0z"/>
 </clipPath>
 <style>
 .cls-1{fill:#6f7e90}
 </style>
 </defs>
 <g id="Group_1665" data-name="Group 1665" style="clip-path:url(#clip-path)">
 <path id="Path_1588" data-name="Path 1588" class="cls-1" d="M22.1 8.55a2.2 2.2 0 0 1 0-4.287.659.659 0 0 0 .5-.619v-2.1A1.545 1.545 0 0 0 21.053 0H1.548a1.571 1.571 0 0 0-1.1.453A1.571 1.571 0 0 0 0 1.548v2.1a.632.632 0 0 0 .5.619 2.189 2.189 0 0 1 1.667 2.12A2.189 2.189 0 0 1 .5 8.5a.659.659 0 0 0-.5.619v2.12a1.545 1.545 0 0 0 1.548 1.548h19.5a1.545 1.545 0 0 0 1.552-1.546v-2.1a.654.654 0 0 0-.5-.6zm-20.576 3a.264.264 0 0 1-.262-.262V9.645A3.461 3.461 0 0 0 3.406 6.43a3.461 3.461 0 0 0-2.144-3.215V1.571a.288.288 0 0 1 .071-.191.287.287 0 0 1 .191-.071h12.908v10.265H1.524zm19.79-.262a.246.246 0 0 1-.262.262h-5.31V1.286h5.311a.264.264 0 0 1 .262.262v1.619a3.489 3.489 0 0 0 0 6.478z"/>
 <path id="Path_1589" data-name="Path 1589" class="cls-1" d="M123.04 68.591c-.476-.476-1.715.667-2.548 1.476l-3.525-.4a.337.337 0 0 0-.143.048l-.333.333c-.048.048-.024.1.024.119l1.477.738-.167.167a.109.109 0 0 0 0 .119l.1.1a.108.108 0 0 0 .119 0l.238-.238.905.453c-.619.738-1.238 1.548-1.619 2h-1.191a.337.337 0 0 0-.143.048l-.1.1a.059.059 0 0 0 .024.1l1.119.6.6 1.119c.024.024.071.048.1.024l.1-.1a.175.175 0 0 0 .048-.143v-1.209c.453-.357 1.262-1 2-1.619l.453.905-.238.238a.109.109 0 0 0 0 .119l.1.1a.108.108 0 0 0 .119 0l.167-.167.738 1.477c.024.048.1.071.119.024l.333-.333a.175.175 0 0 0 .048-.143l-.4-3.525c.834-.786 1.977-2.048 1.5-2.524z" transform="translate(-111.18 -65.567)"/>
 </g>
</svg>