<svg xmlns="http://www.w3.org/2000/svg" viewBox="0 0 16.365 11.455">
 <path d="M18.547 7.5H3.818A.818.818 0 0 0 3 8.318v3.273h.731a1.7 1.7 0 0 1 1.7 1.362 1.638 1.638 0 0 1-1.615 1.911H3v3.273a.818.818 0 0 0 .818.818h14.729a.818.818 0 0 0 .818-.818v-3.273h-.818a1.638 1.638 0 0 1-1.615-1.911 1.7 1.7 0 0 1 1.7-1.362h.731V8.318a.818.818 0 0 0-.816-.818zm-8.182 9.819H8.728v-1.637h1.636zm0-3.273H8.728v-1.637h1.636zm0-3.273H8.728V9.136h1.636z" transform="translate(-3 -7.5)" fill="currentColor"/>
</svg>