<svg xmlns="http://www.w3.org/2000/svg" viewBox="0 0 16.044 8.665">
 <defs>
 <clipPath id="iirjey83ca">
 <path data-name="Rectangle 1981" fill="currentColor" d="M0 0h16.044v8.665H0z"/>
 </clipPath>
 </defs>
 <g data-name="Group 2693">
 <g data-name="Group 2692" style="clip-path:url(#iirjey83ca)">
 <path data-name="Path 1851" d="M14.534 0H1.511A1.408 1.408 0 0 0 0 1.276v6.113a1.408 1.408 0 0 0 1.511 1.276h13.023a1.409 1.409 0 0 0 1.511-1.276V1.276A1.408 1.408 0 0 0 14.534 0zM5.168 7.375H4.122v-.869h1.046zm0-1.738H4.122v-.87h1.046zm0-1.738H4.122v-.87h1.046zm0-1.738H4.122V1.29h1.046zm7.68 1.046-.8.727.725 2.339-.406.392a.117.117 0 0 1-.161 0l-1.081-1.9-.994.947.159.746-.253.245a.088.088 0 0 1-.121 0L8.48 5.322a.081.081 0 0 1 0-.117l.253-.245.758.15.98-.964-1.949-1.037a.108.108 0 0 1 0-.156l.406-.392 2.4.7.758-.783a.565.565 0 0 1 .78-.021.521.521 0 0 1-.023.753z" fill="currentColor"/>
 </g>
 </g>
</svg>