<svg
 xmlns="http://www.w3.org/2000/svg"
 viewBox="0 0 13.275 15.132"
 >
 <defs>
 <clipPath id="a">
 <path
 fill="currentColor"
 d="M0 0h13.275v15.132H0z"
 />
 </clipPath>
 </defs>
 <g
 >
 <g
 clip-path="url(#a)"
 >
 <path
 d="M10.8 61.255a6.485 6.485 0 1 0 4.586 1.9 6.485 6.485 0 0 0-4.586-1.9m0 1.39a5.1 5.1 0 1 1-3.6 1.492 5.1 5.1 0 0 1 3.6-1.492"
 transform="translate(-4.161 -59.093)"
 fill="currentColor"
 />
 <path
 d="M162.729 218.755a.926.926 0 1 0 .655.271.926.926 0 0 0-.655-.271m0 .618a.309.309 0 1 1-.309.309.309.309 0 0 1 .309-.309"
 transform="translate(-156.092 -211.034)"
 fill="currentColor"
 />
 <path
 d="M179.544 122.452a.309.309 0 0 0-.274.315v.3a.31.31 0 1 0 .62 0v-.3a.309.309 0 0 0-.347-.315z"
 transform="translate(-172.943 -118.128)"
 fill="currentColor"
 />
 <path
 d="M179.581 341.224a.309.309 0 0 0-.305.315v.3a.31.31 0 1 0 .62 0v-.3a.309.309 0 0 0-.315-.315z"
 transform="translate(-172.948 -329.181)"
 fill="currentColor"
 />
 <path
 d="M122.742 137.68a.309.309 0 0 0-.219.465l.146.26a.309.309 0 0 0 .538-.305l-.15-.26a.309.309 0 0 0-.315-.16z"
 transform="translate(-118.156 -132.818)"
 fill="currentColor"
 />
 <path
 d="M232.037 327.139a.309.309 0 0 0-.255.47l.151.26a.309.309 0 1 0 .533-.31l-.146-.26a.309.309 0 0 0-.283-.16z"
 transform="translate(-223.558 -315.593)"
 fill="currentColor"
 />
 <path
 d="M81 179.344a.309.309 0 0 0-.132.579l.26.15a.309.309 0 1 0 .31-.533l-.26-.151a.309.309 0 0 0-.178-.045z"
 transform="translate(-77.855 -173.014)"
 fill="currentColor"
 />
 <path
 d="M270.5 288.752a.309.309 0 0 0-.132.579l.26.15a.31.31 0 1 0 .31-.538l-.26-.15a.308.308 0 0 0-.178-.041z"
 transform="translate(-260.674 -278.561)"
 fill="currentColor"
 />
 <path
 d="M65.908 236.205a.31.31 0 1 0 0 .62h.3a.31.31 0 1 0 0-.62z"
 transform="translate(-63.283 -227.869)"
 fill="currentColor"
 />
 <path
 d="M284.748 236.205a.31.31 0 1 0 0 .62h.3a.31.31 0 1 0 0-.62z"
 transform="translate(-274.399 -227.869)"
 fill="currentColor"
 />
 <path
 d="M81.389 288.76a.311.311 0 0 0-.141.041l-.26.15a.31.31 0 0 0 .31.538l.26-.15a.309.309 0 0 0-.169-.579z"
 transform="translate(-77.979 -278.568)"
 fill="currentColor"
 />
 <path
 d="M270.586 179.33a.309.309 0 0 0-.137.046l-.26.151a.309.309 0 1 0 .31.533l.26-.15a.309.309 0 0 0-.173-.579z"
 transform="translate(-260.493 -173)"
 fill="currentColor"
 />
 <path
 d="M122.8 327.145a.309.309 0 0 0-.274.16l-.146.26a.309.309 0 1 0 .533.31l.15-.26a.309.309 0 0 0-.265-.47z"
 transform="translate(-118.009 -315.599)"
 fill="currentColor"
 />
 <path
 d="M232.309 137.735a.309.309 0 0 0-.242.16l-.151.26a.309.309 0 1 0 .538.305l.146-.26a.309.309 0 0 0-.292-.465z"
 transform="translate(-223.693 -132.873)"
 fill="currentColor"
 />
 <path
 d="M1.636 56.78a.464.464 0 0 0-.269.137L.136 58.148a.464.464 0 0 0 .657.657l1.226-1.231a.463.463 0 0 0-.383-.793z"
 transform="translate(0 -54.772)"
 fill="currentColor"
 />
 <path
 d="M315.347 56.828a.463.463 0 0 0-.274.793l1.226 1.231a.464.464 0 1 0 .656-.657l-1.231-1.231a.464.464 0 0 0-.377-.136z"
 transform="translate(-303.817 -54.82)"
 fill="currentColor"
 />
 <path
 d="M131.811 0h2.779a.618.618 0 0 1 0 1.235h-2.779a.618.618 0 1 1 0-1.235"
 transform="translate(-126.563)"
 fill="currentColor"
 />
 <path
 d="M175.434 170.628h-.019a.167.167 0 0 0-.133.144l-.306 1.8a.205.205 0 0 0 .031.152.148.148 0 0 0 .12.067h.617a.148.148 0 0 0 .121-.067.2.2 0 0 0 .031-.152l-.306-1.8a.163.163 0 0 0-.156-.147z"
 transform="translate(-168.797 -164.605)"
 fill="currentColor"
 />
 </g>
 </g>
 </svg>