<svg
 viewBox="0 0 10 12"
 fill="none"
 xmlns="http://www.w3.org/2000/svg"
 >
 <path
 d="M1.91 2.996l-.645-.644a.731.731 0 00-1.051.008.758.758 0 00.007 1.062l.636.634c.298-.404.65-.757 1.054-1.06zM4.305 1.63v.372c.22-.032.439-.05.658-.053h.077c.224 0 .443.017.662.043V1.63c0-.269.215-.487.482-.487h.548V0H3.276v1.141h.548c.267 0 .481.219.481.488zm3.303 1.573a4.665 4.665 0 00-2.574-.767h-.072a4.694 4.694 0 00-2.545.793A4.717 4.717 0 001.09 4.563l-.002.002a4.794 4.794 0 00-.794 2.653C.295 9.835 2.405 11.981 5 12h.034c2.615 0 4.74-2.146 4.74-4.782a4.787 4.787 0 00-2.166-4.015zM6.561 8.417a.248.248 0 01-.343 0l-.572-.579-.776-.745c-.003 0-.003-.002-.003-.002-.017-.015-.026-.034-.038-.053-.005-.01-.012-.017-.017-.024-.002-.01-.002-.021-.007-.031-.005-.022-.012-.041-.012-.063V3.88c0-.134.107-.245.24-.245.134 0 .242.11.242.245v2.932l.708.675.579.584a.25.25 0 010 .346zm3.225-6.06a.758.758 0 00-1.05-.005l-.62.618c.4.296.76.651 1.063 1.05l.6-.598a.76.76 0 00.007-1.065z"
 fill="currentColor"
 />
 </svg>