<svg
 xmlns="http://www.w3.org/2000/svg"
 viewBox="0 0 20.933 29.824"
 >
 <defs>
 <clipPath id="a">
 <path
 d="M0 0h20.933v29.824H0z"
 fill="currentColor"
 />
 </clipPath>
 </defs>
 <g>
 <g
 >
 <path
 d="M19.966 4.835h-2.153V3.369a.986.986 0 0 0-1-1h-2.4V1a.986.986 0 0 0-1-1H7.55a1 1 0 0 0-1 1v1.34h-2.4a.986.986 0 0 0-1 1V4.8H1a1.033 1.033 0 0 0-1 1.034v23.46a.52.52 0 0 0 .5.53h3.212a.52.52 0 0 0 .5-.53v-.874a3.07 3.07 0 0 1 3.026-3.12H13.7a3.09 3.09 0 0 1 3.026 3.12v.873a.52.52 0 0 0 .5.53h3.213a.52.52 0 0 0 .5-.53V5.865a1.007 1.007 0 0 0-.967-1.029m-10.488.935.593-.094c.031 0 .062-.031.094-.062l.25-.53c.062-.094.187-.094.218 0l.25.53c.031.031.062.062.094.062l.593.094c.094.031.156.156.062.218L11.2 6.4c-.031.031-.031.062-.031.125l.094.593a.122.122 0 0 1-.187.125l-.53-.281a.1.1 0 0 0-.125 0l-.53.281a.122.122 0 0 1-.191-.13l.1-.593a.188.188 0 0 0-.036-.12l-.436-.41a.22.22 0 0 1 .156-.218m-2.87 13.882a.559.559 0 0 1-.562.562H3.338a.559.559 0 0 1-.562-.562V16.94a.559.559 0 0 1 .562-.562h2.714a.559.559 0 0 1 .562.562zm0-6.239a.559.559 0 0 1-.562.562H3.338a.559.559 0 0 1-.562-.562V10.7a.559.559 0 0 1 .562-.562h2.714a.559.559 0 0 1 .562.562zM7.861 5.99l-.436.41c-.031.031-.031.062-.031.125l.094.593a.122.122 0 0 1-.187.125l-.53-.281a.1.1 0 0 0-.125 0l-.53.281a.122.122 0 0 1-.187-.125l.094-.593A.188.188 0 0 0 5.99 6.4l-.437-.41a.138.138 0 0 1 .062-.218l.593-.094c.031 0 .062-.031.094-.062l.25-.53c.062-.094.187-.094.218 0l.25.53c.031.031.062.062.094.062l.593.094c.187.031.218.156.156.218m4.492 13.664a.559.559 0 0 1-.562.562H9.078a.559.559 0 0 1-.562-.562V16.94a.559.559 0 0 1 .562-.562h2.714a.559.559 0 0 1 .562.562zm0-6.239a.559.559 0 0 1-.562.562H9.078a.559.559 0 0 1-.562-.562V10.7a.559.559 0 0 1 .562-.562h2.714a.559.559 0 0 1 .562.562zm1.778-6.426-.53.281a.122.122 0 0 1-.187-.125l.094-.593a.188.188 0 0 0-.031-.125l-.437-.406A.138.138 0 0 1 13.1 5.8l.593-.094c.031 0 .062-.031.094-.062l.281-.53a.12.12 0 0 1 .218 0l.25.53c.031.031.062.062.094.062l.593.094c.094.031.156.156.062.218l-.437.406c-.031.031-.031.062-.031.125l.094.593a.122.122 0 0 1-.187.125l-.53-.281c.031-.031-.031-.031-.062 0m4.087 12.666a.559.559 0 0 1-.562.562h-2.714a.559.559 0 0 1-.562-.562V16.94a.559.559 0 0 1 .562-.562h2.714a.559.559 0 0 1 .562.562zm0-6.239a.559.559 0 0 1-.562.562h-2.714a.559.559 0 0 1-.562-.562V10.7a.559.559 0 0 1 .562-.562h2.714a.559.559 0 0 1 .562.562z"
 fill="currentColor"
 />
 </g>
 </g>
 </svg>