<svg
 xmlns="http://www.w3.org/2000/svg"
 viewBox="0 0 28.795 35.289"
 >
 <defs>
 <clipPath id="a">
 <path
 d="M0 0h28.795v35.289H0z"
 fill="currentColor"
 />
 </clipPath>
 </defs>
 <g
 >
 <path
 d="M4.185 6.965a.464.464 0 0 1 0-.929A3.018 3.018 0 1 0 1.17 3.021v29.017A5.15 5.15 0 0 1 0 35.289h23.458a1.863 1.863 0 0 0 1.857-1.857V6.965zm0 2.786h14.122a.464.464 0 0 1 0 .929H4.185a.464.464 0 1 1 0-.929zM5.7 13.466a1.972 1.972 0 1 1-1.975 1.975A1.977 1.977 0 0 1 5.7 13.466m1.853 17.105a.467.467 0 0 1 0 .656.487.487 0 0 1-.328.136.463.463 0 0 1-.328-.136l-1.2-1.2-1.2 1.2a.465.465 0 0 1-.328.136.486.486 0 0 1-.328-.136.467.467 0 0 1 0-.656l1.2-1.2-1.2-1.2a.464.464 0 0 1 .656-.656l1.2 1.2 1.2-1.2a.464.464 0 1 1 .656.656l-1.2 1.2zm.8-9.795L5.33 24.6a.464.464 0 0 1-.359.18H4.94a.465.465 0 0 1-.365-.223l-.786-1.282a.467.467 0 0 1 .155-.638.46.46 0 0 1 .638.149l.439.718L7.627 20.2a.465.465 0 0 1 .731.576zm3.028 9.058H9.962a.464.464 0 1 1 0-.929h1.424a.464.464 0 0 1 0 .929m0-6.965H9.962a.464.464 0 1 1 0-.929h1.424a.464.464 0 0 1 0 .929m0-6.965H9.962a.464.464 0 1 1 0-.929h1.424a.464.464 0 0 1 0 .929M22.56 29.835h-9.317a.464.464 0 1 1 0-.929h9.317a.464.464 0 0 1 0 .929m0-6.965h-9.317a.464.464 0 1 1 0-.929h9.317a.464.464 0 0 1 0 .929m0-6.965h-9.317a.464.464 0 1 1 0-.929h9.317a.464.464 0 0 1 0 .929M25.78 0H6.73a.926.926 0 0 0 .08.074c.068.062.136.124.2.186.037.037.068.08.105.118.056.062.105.124.161.186.031.043.062.087.1.13.043.068.093.13.13.2.031.049.062.1.093.142l.112.21c.025.049.049.1.074.155l.093.223c.019.049.037.105.056.155.025.08.05.161.068.248a1.141 1.141 0 0 1 .043.155c.018.087.031.18.049.279l.019.136c.012.136.025.279.025.427a4.332 4.332 0 0 1-.044.557c-.019.1-.031.192-.049.279A1.137 1.137 0 0 1 8 4.012c-.018.087-.043.167-.068.248l-.056.155-.093.223a3.802 3.802 0 0 1-.074.155c-.037.068-.074.142-.111.211-.031.043-.062.093-.093.142-.037.068-.086.13-.13.2-.037.043-.068.086-.1.13-.056.062-.105.124-.161.186-.037.037-.068.08-.105.117-.062.062-.13.124-.2.186a.881.881 0 0 0-.081.074H25.78a3.018 3.018 0 0 0 0-6.039z"
 fill="currentColor"
 />
 </g>
 </svg>