<svg
 xmlns="http://www.w3.org/2000/svg"
 viewBox="0 0 38.817 35.998"
 >
 <defs>
 <clipPath id="a">
 <path
 d="M0 0h38.817v35.998H0z"
 fill="currentColor"
 />
 </clipPath>
 </defs>
 <g>
 <g
 clip-path="url(#a)"
 >
 <path
 d="m1.234 365.407 6.392-2.979v-3.677H0v5.871a.867.867 0 0 0 1.233.785z"
 fill="currentColor"
 transform="translate(-.001 -330.331)"
 />
 <path
 d="M183.75 288.792v11.318l4.766 1.787 2.165-.806V291.9l-4.379-3.128z"
 fill="currentColor"
 transform="translate(-169.194 -265.9)"
 />
 <path
 d="M0 0h7.625v4.852H0z"
 fill="currentColor"
 transform="translate(0 16.636)"
 />
 <path
 d="M183.749 151.387h5.769l2.017-5.043-2.728.852a.693.693 0 0 1-.413 0l-2.182-.682-2.464 3.7z"
 fill="currentColor"
 transform="translate(-169.193 -134.751)"
 />
 <path
 d="M56.659 11.091c2.58 0 4.159-.9 4.159-1.386 0-.443-1.3-1.223-3.466-1.364V4.159h5.372a.173.173 0 0 0 .173-.173V0h-6.758a.173.173 0 0 0-.173.173V8.34C53.8 8.481 52.5 9.261 52.5 9.7c0 .489 1.579 1.386 4.159 1.386z"
 fill="currentColor"
 transform="translate(-48.341)"
 />
 <path
 d="M27.815 141.612c-.206-.238-.418-.49-.629-.755-1.941-2.426-2.925-4.612-2.925-6.5a6.227 6.227 0 0 1 2.217-4.765l2.271-8.518-4.7 1.469-2.611 6.527a.693.693 0 0 1-.644.435h-6.931a.693.693 0 0 1-.693-.693v-2.08a.694.694 0 0 1 .116-.384l2.355-3.532-2.093-.654a3.373 3.373 0 0 1-1.526 1.133 9.687 9.687 0 0 1-3.7.665 9.681 9.681 0 0 1-3.7-.665 3.849 3.849 0 0 1-1.282-.834l-2.785 1.07a.866.866 0 0 0-.555.809v2.395h8.318a.693.693 0 0 1 .693.693v6.238a.693.693 0 0 1-.693.693H0v4.159h8.318a.693.693 0 0 1 .693.693v4.4l4.159 1.56v-11.483a.693.693 0 0 1 .689-.693l3.466-.022a.694.694 0 0 1 .4.129l4.852 3.466a.694.694 0 0 1 .29.564v9.029l2.532-.942a1.78 1.78 0 0 1-.453-1.155c0-1.084 1.089-1.99 2.861-2.451z"
 fill="currentColor"
 transform="translate(0 -111.485)"
 />
 <path
 d="M452.9 280.693a7.837 7.837 0 0 1-.934 3.466h3.013V280h-2.119a6.25 6.25 0 0 1 .04.693z"
 fill="currentColor"
 transform="translate(-416.161 -257.819)"
 />
 <path
 d="M370.273 272.636a1.386 1.386 0 1 1-1.386-1.386 1.386 1.386 0 0 1 1.386 1.386"
 fill="currentColor"
 transform="translate(-338.387 -249.762)"
 />
 <path
 d="m358.095 114.26-.161.05-2.127 7.978A6.239 6.239 0 0 1 364 126h2.436v-7.94a.866.866 0 0 0-.555-.809z"
 fill="currentColor"
 transform="translate(-327.619 -105.209)"
 />
 <path
 d="M338.248 395.3c-.645.661-1.1 1.063-1.135 1.092a.693.693 0 0 1-.913 0c-.033-.029-.49-.431-1.135-1.092-1.656.266-2.567.9-2.567 1.263 0 .489 1.579 1.386 4.159 1.386s4.159-.9 4.159-1.386c0-.364-.911-1-2.567-1.263z"
 fill="currentColor"
 transform="translate(-306.157 -363.985)"
 />
 <path
 d="M419.518 351.645c-.212.265-.423.517-.629.755 1.771.461 2.861 1.367 2.861 2.451a1.8 1.8 0 0 1-.492 1.2l2.087.8a.866.866 0 0 0 1.177-.809V350h-3.81q-.555.852-1.194 1.645z"
 fill="currentColor"
 transform="translate(-385.705 -322.273)"
 />
 <path
 d="M326.369 237.981a25.76 25.76 0 0 0 2.231 2.434 25.76 25.76 0 0 0 2.245-2.451c1.706-2.136 2.607-4.078 2.607-5.615a4.852 4.852 0 0 0-9.7 0c0 1.541.906 3.489 2.621 5.632m2.231-8.4a2.776 2.776 0 1 1-1.96.813 2.774 2.774 0 0 1 1.96-.813"
 fill="currentColor"
 transform="translate(-298.101 -209.475)"
 />
 </g>
 </g>
 </svg>