<svg
 viewBox="0 0 11.229 11.455"
 xmlns="http://www.w3.org/2000/svg"
 >
 <path
 d="M7.84 2.809a2.4 2.4 0 0 0-2.185-1.344A1.829 1.829 0 0 1 4.241.788 1.889 1.889 0 0 0 2.773 0C1.028 0 .243 2.768.211 2.886a.317.317 0 0 0 .305.4l7.481-.011a3.179 3.179 0 0 0-.158-.466zM6.892 6.897a.159.159 0 0 0 .064-.113l.1-1.087a.158.158 0 0 1 .158-.143h.732a.248.248 0 0 0 .248-.248v-.969a.249.249 0 0 0-.248-.248h-7.7a.248.248 0 0 0-.248.248v.969a.249.249 0 0 0 .248.248h.733a.158.158 0 0 1 .158.144l.444 4.664a.767.767 0 0 0 .766.7h1.5a.158.158 0 0 0 .141-.086 14.375 14.375 0 0 1 2.9-4.076zM11.21 11.222c-.213-.4-2.111-3.925-3.214-3.925a.837.837 0 0 0-.424.144c-.835.5-2.023 2.351-2.787 3.781a.159.159 0 0 0 .14.233h6.145a.158.158 0 0 0 .14-.233zM7.444 8.973a.106.106 0 1 1 .106-.106.106.106 0 0 1-.106.107zm.106.686a.106.106 0 1 1-.106.106.106.106 0 0 1 .106-.105zm-.9.317a.105.105 0 1 1-.105-.105.106.106 0 0 1 .107.103z"
 fill="currentColor"
 />
 </svg>