<svg xmlns="http://www.w3.org/2000/svg" viewBox="0 0 12.042 12.041">
 <path d="M11.32 2.258H.783a.732.732 0 0 1-.529-.218.711.711 0 0 1-.223-.529.74.74 0 0 1 .218-.534.716.716 0 0 1 .535-.224h3.763a.732.732 0 0 1 .217-.529A.718.718 0 0 1 5.3 0h1.5a.718.718 0 0 1 .54.224.732.732 0 0 1 .218.529h3.762a.723.723 0 0 1 .529.223.73.73 0 0 1 .223.535.71.71 0 0 1-.223.529.734.734 0 0 1-.529.218zm0 8.279a1.505 1.505 0 0 1-1.505 1.505H2.288a1.451 1.451 0 0 1-1.064-.442 1.449 1.449 0 0 1-.441-1.064V3.011h10.536v7.526zM3.794 5.269a.763.763 0 0 0-.758-.752.71.71 0 0 0-.529.223.734.734 0 0 0-.218.529v4.515a.743.743 0 0 0 .747.753.74.74 0 0 0 .535-.218.716.716 0 0 0 .223-.535V5.269zm3.01 0a.763.763 0 0 0-.758-.752.71.71 0 0 0-.529.223.734.734 0 0 0-.218.529v4.515a.743.743 0 0 0 .747.753.74.74 0 0 0 .535-.218.716.716 0 0 0 .219-.535V5.269zm3.01 0a.763.763 0 0 0-.758-.752.71.71 0 0 0-.529.223.734.734 0 0 0-.218.529v4.515a.743.743 0 0 0 .747.753.74.74 0 0 0 .535-.218.716.716 0 0 0 .223-.535V5.269z" transform="translate(-.031 -.001)" fill="currentColor"/>
</svg>