<svg viewBox="0 0 21 8" fill="none" xmlns="http://www.w3.org/2000/svg">
<rect width="21" height="8" fill="currentColor"/>
<path d="M10.503 7.41992L0.418991 1.56836L0.30278 1.5H-9.99995C-11.93 1.5 -13.5 -0.0700001 -13.5 -2V-18C-13.5 -19.93 -11.93 -21.5 -9.99995 -21.5H31.002C32.932 -21.5 34.503 -19.93 34.503 -18V-2C34.503 -0.0700001 32.933 1.5 31.003 1.5H20.7012L20.585 1.56836L10.503 7.41992Z" fill="currentColor"/>
<path d="M10.503 6.8418L20.566 1H31.002C32.657 1 34.003 -0.346 34.003 -2V-18C34.003 -19.654 32.657 -21 31.003 -21H-9.99995C-11.654 -21 -13 -19.654 -13 -18V-2C-13 -0.346 -11.654 1 -9.99995 1H0.438034L0.669968 1.13477L10.503 6.8418V6.8418ZM10.503 7.99805L0.168991 2H-9.99995C-12.208 2 -14 0.207 -14 -2V-18C-14 -20.209 -12.208 -22 -9.99995 -22H31.002C31.5274 -22.0001 32.0478 -21.8963 32.5332 -21.6953C33.0187 -21.4944 33.4596 -21.1996 33.8311 -20.8281C34.2026 -20.4567 34.4972 -20.0166 34.6983 -19.5312C34.8994 -19.0459 35.003 -18.5254 35.003 -18V-2C35.003 0.207 33.211 2 31.003 2H20.835L10.503 7.99805Z" fill="currentColor"/>
</svg>