<svg
 viewBox="0 0 31.86 19.61"
 xmlns="http://www.w3.org/2000/svg"
 >
 <g fill="currentColor">
 <path
 d="M14.706 7.968a1.225 1.225 0 0 1-1.225 1.226H11.03v9.126a1.271 1.271 0 0 1-1.02 1.275 1.227 1.227 0 0 1-1.432-1.209v-3.678H6.127v3.677a1.226 1.226 0 0 1-1.427 1.21 1.272 1.272 0 0 1-1.021-1.275V9.193H1.226a1.225 1.225 0 1 1 0-2.45h4.1a3.677 3.677 0 1 1 4.062 0h4.1a1.226 1.226 0 0 1 1.226 1.226zm14.222-1.226h-4.1a3.677 3.677 0 1 0-4.062 0h-4.1a1.226 1.226 0 0 0 0 2.451h2.451L16.94 15.74a.614.614 0 0 0 .582.807h1.6v1.773a1.272 1.272 0 0 0 1.02 1.275 1.227 1.227 0 0 0 1.432-1.209v-1.839h2.45v1.839a1.227 1.227 0 0 0 1.432 1.209 1.271 1.271 0 0 0 1.02-1.275v-1.773h1.6a.613.613 0 0 0 .582-.807l-2.182-6.546h2.451a1.226 1.226 0 0 0 0-2.451z"
 />
 </g>
 </svg>