<svg xmlns="http://www.w3.org/2000/svg"
 viewBox="0 0 1024 1024"
 fill="none"
 >
 <g transform="rotate(180 512 512)">
 <path
 d="M1003.52 875.397v-769.311c0-23.47-19.231-42.721-42.742-42.721h-505.016c8.684 26.911 13.496 55.644 13.496 85.484 0 153.395-124.375 277.791-277.811 277.791-46.326 0-89.846-11.51-128.225-31.519v309.33c0 23.491 19.21 42.721 42.742 42.721h341.934c23.511 0 54.211 15.38 68.383 34.181l76.902 102.564c14.131 18.821 44.892 34.202 68.403 34.202h299.192c23.511 0.041 42.742-19.21 42.742-42.721zM148.705 319.795h85.484v-128.225h128.225v-85.484h-128.225v-128.246h-85.484v128.246h-128.225v85.484h128.225z"
 fill="currentColor"
 />
 </g>
 </svg>