<svg xmlns="http://www.w3.org/2000/svg" viewBox="0 0 23.129 16.25">
 <defs>
 <clipPath id="zkbbk5o8qa">
 <path data-name="Rectangle 787" fill="none" d="M0 0h11.021v11.429H0z"/>
 </clipPath>
 </defs>
 <g data-name="Group 4465">
 <g data-name="Group 1167">
 <g data-name="Group 1166" style="clip-path:url(#zkbbk5o8qa)" transform="translate(5.764)">
 <path data-name="Path 595" d="M5.513 0A2.857 2.857 0 0 0 3.85 5.182q-.238.083-.468.189A5.536 5.536 0 0 0 1.59 6.708 6.205 6.205 0 0 0 .4 8.692a6.689 6.689 0 0 0-.4 1.861.811.811 0 0 0 .744.873.539.539 0 0 0 .058 0h9.413a.812.812 0 0 0 .8-.818v-.058a6.663 6.663 0 0 0-.4-1.861 6.213 6.213 0 0 0-1.183-1.981 5.536 5.536 0 0 0-1.793-1.336 4.974 4.974 0 0 0-.468-.189A2.857 2.857 0 0 0 5.513 0" fill="currentColor" fill-rule="evenodd"/>
 </g>
 </g>
 <g data-name="hesabım">
 <g data-name="Group 1167">
 <g data-name="Group 4464">
 <path data-name="Path 595" d="M5.513 0A2.857 2.857 0 0 0 3.85 5.182q-.238.083-.468.189A5.536 5.536 0 0 0 1.59 6.708 6.205 6.205 0 0 0 .4 8.692a6.689 6.689 0 0 0-.4 1.861.811.811 0 0 0 .744.873.539.539 0 0 0 .058 0h9.413a.812.812 0 0 0 .8-.818v-.058a6.663 6.663 0 0 0-.4-1.861 6.213 6.213 0 0 0-1.183-1.981 5.536 5.536 0 0 0-1.793-1.336 4.974 4.974 0 0 0-.468-.189A2.857 2.857 0 0 0 5.513 0" transform="translate(.253 4.571)" stroke="currentColor" stroke-width=".5px" fill="currentColor" fill-rule="evenodd"/>
 </g>
 </g>
 </g>
 <g data-name="hesabım">
 <g data-name="Group 1167">
 <g data-name="Group 4463">
 <path data-name="Path 595" d="M5.513 0A2.857 2.857 0 0 0 3.85 5.182q-.238.083-.468.189A5.536 5.536 0 0 0 1.59 6.708 6.205 6.205 0 0 0 .4 8.692a6.689 6.689 0 0 0-.4 1.861.811.811 0 0 0 .744.873.539.539 0 0 0 .058 0h9.413a.812.812 0 0 0 .8-.818v-.058a6.663 6.663 0 0 0-.4-1.861 6.213 6.213 0 0 0-1.183-1.981 5.536 5.536 0 0 0-1.793-1.336 4.974 4.974 0 0 0-.468-.189A2.857 2.857 0 0 0 5.513 0" transform="translate(11.858 4.571)" stroke="currentColor" stroke-width=".5px" fill="currentColor" fill-rule="evenodd"/>
 </g>
 </g>
 </g>
 </g>
</svg>