<svg
 xmlns="http://www.w3.org/2000/svg"
 viewBox="0 0 40.459 27.111"
 >
 <defs>
 <clipPath id="a">
 <path
 d="M0 0h40.459v27.111H0z"
 fill="currentColor"
 />
 </clipPath>
 </defs>
 <g
 >
 <path
 d="M40.459 1.784V25.03a2.087 2.087 0 0 1-2.08 2.08H2.08A2.087 2.087 0 0 1 0 25.03V1.784A1.785 1.785 0 0 1 1.784 0h36.891a1.785 1.785 0 0 1 1.784 1.784M19.717 8.8h1.376l2.243-6.306h-1.357l-1.537 4.664-1.6-4.668h-1.381zm4.217 0h1.277V2.489h-1.277zm2.157-2.043a2.4 2.4 0 0 0 .765 1.606 2.737 2.737 0 0 0 1.837.552 3.578 3.578 0 0 0 1.372-.231 1.806 1.806 0 0 0 .852-.7 1.86 1.86 0 0 0 .3-1.016 1.883 1.883 0 0 0-.251-1 1.764 1.764 0 0 0-.7-.642 6.134 6.134 0 0 0-1.37-.453 3.3 3.3 0 0 1-1.167-.424.487.487 0 0 1-.19-.383.466.466 0 0 1 .2-.394 1.426 1.426 0 0 1 .861-.229 1.262 1.262 0 0 1 .8.214 1.091 1.091 0 0 1 .348.7l1.284-.057a1.869 1.869 0 0 0-.632-1.4 2.626 2.626 0 0 0-1.78-.525 3.129 3.129 0 0 0-1.238.22 1.7 1.7 0 0 0-.785.64 1.67 1.67 0 0 0 .307 2.177 3.438 3.438 0 0 0 1.431.627q.792.2 1.014.276a1.03 1.03 0 0 1 .457.271.578.578 0 0 1 .131.382.774.774 0 0 1-.311.607 1.409 1.409 0 0 1-.924.26 1.368 1.368 0 0 1-.92-.292 1.511 1.511 0 0 1-.452-.915zM37.981 8.8l-2.527-6.311h-1.349L31.657 8.8h1.351l.524-1.435h2.529l.544 1.435zm-2.334-2.5-.877-2.339-.852 2.334zM7.285 1.938c-.44 0-.845.419-1.169 1.122-.632-.448-1.193-.608-1.573-.388s-.522.784-.45 1.556c-.772-.071-1.337.07-1.556.451s-.06.94.387 1.573C2.22 6.576 1.8 6.981 1.8 7.42s.418.844 1.122 1.168c-.448.633-.607 1.192-.387 1.573s.784.522 1.556.45c-.071.772.07 1.337.451 1.556s.94.06 1.573-.388c.324.7.729 1.123 1.169 1.123s.844-.419 1.168-1.123c.633.448 1.193.608 1.573.388s.522-.784.45-1.556c.772.071 1.337-.07 1.557-.451s.06-.94-.388-1.573c.7-.324 1.122-.729 1.122-1.168s-.419-.844-1.122-1.169c.448-.632.608-1.192.387-1.573s-.784-.522-1.556-.451c.072-.772-.07-1.336-.45-1.556s-.94-.06-1.573.388c-.324-.7-.729-1.122-1.168-1.122m30.7 14.391H17.462v.748h20.519zm0-3.955H17.462v.748h20.519zm0 7.91H17.462v.748h20.519z"
 fill="currentColor"
 />
 </g>
 </svg>