<svg
 viewBox="0 0 11.722 11.45"
 xmlns="http://www.w3.org/2000/svg"
 >
 <g fill="currentColor">
 <path d="m8.103 3.013-1.974-.555a.344.344 0 0 1-.234-.234L5.34.25a.347.347 0 0 0-.666 0l-.555 1.974a.339.339 0 0 1-.247.234l-1.974.555a.347.347 0 0 0 0 .666l1.974.555a.389.389 0 0 1 .247.234l.555 1.974a.347.347 0 0 0 .666 0l.555-1.974a.344.344 0 0 1 .234-.234l1.974-.555a.344.344 0 0 0 0-.666zM11.545 6.592l-1.357-.382a.212.212 0 0 1-.16-.16l-.382-1.357a.236.236 0 0 0-.456 0L8.808 6.05a.233.233 0 0 1-.16.16l-1.357.382a.236.236 0 0 0 0 .456l1.357.382a.212.212 0 0 1 .16.16l.382 1.357a.236.236 0 0 0 .456 0l.382-1.357a.213.213 0 0 1 .16-.16l1.357-.382a.236.236 0 0 0 0-.456zM4.92 8.64l-1.505-.419a.278.278 0 0 1-.185-.185l-.419-1.505a.262.262 0 0 0-.506 0l-.419 1.505a.278.278 0 0 1-.185.185L.196 8.64a.262.262 0 0 0 0 .506l1.505.419a.278.278 0 0 1 .185.185l.419 1.505a.262.262 0 0 0 .506 0L3.23 9.75a.278.278 0 0 1 .185-.185l1.505-.419a.265.265 0 0 0 0-.506z" />
 </g>
 </svg>