<svg viewBox="0 0 16 16" fill="none" xmlns="http://www.w3.org/2000/svg">
<path d="M8.00016 14.6666C11.682 14.6666 14.6668 11.6818 14.6668 7.99992C14.6668 4.31802 11.682 1.33325 8.00016 1.33325C4.31826 1.33325 1.3335 4.31802 1.3335 7.99992C1.3335 8.91918 1.51954 9.79498 1.85604 10.5917C2.04202 11.032 2.135 11.2522 2.14652 11.4186C2.15803 11.585 2.10906 11.768 2.01111 12.1341L1.3335 14.6666L3.86601 13.989C4.23208 13.8911 4.41512 13.8421 4.58151 13.8536C4.7479 13.8651 4.96806 13.9581 5.4084 14.1441C6.20513 14.4805 7.0809 14.6666 8.00016 14.6666Z" stroke="#3F536C" stroke-width="1.5" stroke-linejoin="round"/>
<path d="M5.95289 8.22639L6.47545 7.57736C6.6957 7.30382 6.96794 7.04918 6.9893 6.68496C6.99464 6.59297 6.92996 6.17994 6.80048 5.35392C6.74961 5.02929 6.44652 5 6.18399 5C5.84188 5 5.67083 5 5.50097 5.07759C5.28628 5.17565 5.06587 5.45139 5.0175 5.6824C4.97923 5.86518 5.00767 5.99112 5.06455 6.24302C5.30614 7.31288 5.87289 8.36949 6.75169 9.24831C7.63052 10.1271 8.68712 10.6939 9.75698 10.9355C10.0089 10.9923 10.1348 11.0208 10.3176 10.9825C10.5486 10.9341 10.8243 10.7137 10.9224 10.499C11 10.3291 11 10.1581 11 9.81603C11 9.55347 10.9707 9.25041 10.6461 9.19953C9.82004 9.07005 9.40706 9.00537 9.31502 9.01071C8.95082 9.03207 8.69618 9.30429 8.42264 9.52455L7.77362 10.0471" stroke="#3F536C"/>
</svg>