<svg
 viewBox="0 0 16.231 11.983"
 xmlns="http://www.w3.org/2000/svg"
 >
 <g>
 <path
 fill="currentColor"
 d="M6.918 9.028a1.729 1.729 0 1 0 1.219-.5 1.73 1.73 0 0 0-1.219.5"
 />
 <path
 fill="currentColor"
 d="M10.609 8.768a.865.865 0 0 0 .761.441.812.812 0 0 0 .415-.112.864.864 0 0 0 .337-1.176 4.535 4.535 0 0 0-.718-.942 4.626 4.626 0 0 0-6.536 0 4.327 4.327 0 0 0-.718.934.871.871 0 1 0 1.513.865 2.333 2.333 0 0 1 .432-.562 2.888 2.888 0 0 1 4.081 0 2.332 2.332 0 0 1 .433.552z"
 />
 <path
 fill="currentColor"
 d="M13.393 7.186a.868.868 0 0 0 .709-1.357 6.31 6.31 0 0 0-.709-.865 7.445 7.445 0 0 0-10.514 0 6.316 6.316 0 0 0-.709.865.865.865 0 0 0 1.427.96 4.6 4.6 0 0 1 .51-.588 5.706 5.706 0 0 1 8.058 0 4.61 4.61 0 0 1 .51.588.864.864 0 0 0 .718.4z"
 />
 <path
 fill="currentColor"
 d="M15.4 5.172a.865.865 0 0 0 .631-1.418c-.216-.251-.441-.51-.683-.752A10.246 10.246 0 0 0 .857 3c-.242.242-.467.5-.683.752a.865.865 0 0 0 .181 1.222.865.865 0 0 0 1.219-.112c.181-.216.372-.424.579-.631A8.5 8.5 0 0 1 14.189 4.2c.208.208.4.415.579.631a.865.865 0 0 0 .631.346z"
 />
 </g>
 </svg>