<svg xmlns="http://www.w3.org/2000/svg" viewBox="0 0 43.749 25.52">
 <defs>
 <clipPath id="8bb4bgvima">
 <path data-name="Rectangle 2394" fill="currentColor" d="M0 0h43.749v25.52H0z"/>
 </clipPath>
 </defs>
 <g data-name="Group 7374">
 <g data-name="Group 7373" style="clip-path:url(#8bb4bgvima)">
 <path data-name="Path 3137" d="M43.749 17.773a4.106 4.106 0 0 1-4.1 4.1 3.194 3.194 0 0 1-3.19-3.19v-.456a.911.911 0 1 1 1.823 0v.456a1.369 1.369 0 0 0 1.367 1.367 2.279 2.279 0 1 0 0-4.557H6.38a.911.911 0 1 1 0-1.823h33.268a4.106 4.106 0 0 1 4.1 4.1zm-12.3-.456H20.052a.912.912 0 1 0 0 1.823h11.393a2.279 2.279 0 1 1 0 4.557 1.369 1.369 0 0 1-1.367-1.367v-.456a.911.911 0 1 0-1.823 0v.456a3.194 3.194 0 0 0 3.19 3.19 4.1 4.1 0 0 0 0-8.2zm-17.318 0H3.646a.912.912 0 1 0 0 1.823h10.481a2.279 2.279 0 1 1 0 4.557 1.369 1.369 0 0 1-1.367-1.367v-.456a.911.911 0 1 0-1.823 0v.456a3.194 3.194 0 0 0 3.19 3.19 4.1 4.1 0 1 0 0-8.2zm12.3 3.646h-6.38a.911.911 0 1 0 0 1.823h6.38a.911.911 0 1 0 0-1.823zm-17.317 0H6.38a.911.911 0 1 0 0 1.823h2.735a.911.911 0 0 0 0-1.823m-4.557-6.38a.911.911 0 0 0-.911-.911H.912a.911.911 0 1 0 0 1.823h2.734a.911.911 0 0 0 .911-.912zm-.911-2.734H36a4.1 4.1 0 1 0 0-8.2 3.194 3.194 0 0 0-3.19 3.19v.456a.911.911 0 1 0 1.823 0v-.459A1.369 1.369 0 0 1 36 5.469a2.279 2.279 0 1 1 0 4.557H3.646a.911.911 0 1 0 0 1.823zM18.229 8.2H27.8a4.1 4.1 0 1 0 0-8.2 3.194 3.194 0 0 0-3.19 3.19v.456a.911.911 0 1 0 1.823 0V3.19A1.369 1.369 0 0 1 27.8 1.823a2.279 2.279 0 1 1 0 4.557h-9.57a.912.912 0 0 0 0 1.823zM6.38 8.2h5.92a4.1 4.1 0 0 0 0-8.2 3.194 3.194 0 0 0-3.19 3.19v.456a.911.911 0 1 0 1.823 0V3.19A1.369 1.369 0 0 1 12.3 1.823a2.279 2.279 0 1 1 0 4.557H6.38a.912.912 0 0 0 0 1.823zm11.849-3.643h4.557a.911.911 0 0 0 0-1.823h-4.557a.911.911 0 0 0 0 1.823z" fill="currentColor"/>
 </g>
 </g>
</svg>